<?xml version="1.0" encoding="UTF-8"?>
<svg width="208px" height="178px" viewBox="0 0 208 178" version="1.1" xmlns="http://www.w3.org/2000/svg" xmlns:xlink="http://www.w3.org/1999/xlink">
    <!-- Generator: Sketch 56.2 (81672) - https://sketch.com -->
    <title>Group 3 Copy 2</title>
    <desc>Created with Sketch.</desc>
    <defs>
        <radialGradient cx="48.4148157%" cy="58.4946235%" fx="48.4148157%" fy="58.4946235%" r="109.058027%" gradientTransform="translate(0.484148,0.584946),scale(0.416302,1.000000),scale(1.000000,0.220560),translate(-0.484148,-0.584946)" id="radialGradient-1">
            <stop stop-color="#000000" offset="0%"></stop>
            <stop stop-color="#000000" stop-opacity="0" offset="100%"></stop>
        </radialGradient>
        <radialGradient cx="48.4148157%" cy="58.4946235%" fx="48.4148157%" fy="58.4946235%" r="82.4751325%" gradientTransform="translate(0.484148,0.584946),scale(0.550482,1.000000),scale(1.000000,0.220560),translate(-0.484148,-0.584946)" id="radialGradient-2">
            <stop stop-color="#000000" offset="0%"></stop>
            <stop stop-color="#000000" stop-opacity="0" offset="100%"></stop>
        </radialGradient>
        <radialGradient cx="48.4148157%" cy="58.4946235%" fx="48.4148157%" fy="58.4946235%" r="90.9952909%" gradientTransform="translate(0.484148,0.584946),scale(0.498938,1.000000),scale(1.000000,0.220560),translate(-0.484148,-0.584946)" id="radialGradient-3">
            <stop stop-color="#000000" offset="0%"></stop>
            <stop stop-color="#000000" stop-opacity="0" offset="100%"></stop>
        </radialGradient>
    </defs>
    <g id="Icons" stroke="none" stroke-width="1" fill="none" fill-rule="evenodd">
        <g id="v" transform="translate(-602.000000, -55.000000)" fill-rule="nonzero">
            <g id="Group-3-Copy-2" transform="translate(597.000000, 55.396054)">
                <g id="Group-2">
                    <path d="M108.196038,9.20823274 C115.701192,16.3696619 119.839619,22.8406558 120.611318,28.6212147 C123.827021,52.7090555 112.01693,80.1802129 95.3292946,93.744997 C72.6346536,112.192662 47.0892762,114.337119 18.6931625,100.178369" id="Path-5" fill="#4C3017"></path>
                    <ellipse id="Oval" fill-opacity="0.69" fill="url(#radialGradient-1)" cx="80" cy="95.9080791" rx="80" ry="33.3041327"></ellipse>
                    <ellipse id="Oval-Copy-10" fill-opacity="0.69" fill="url(#radialGradient-2)" cx="160" cy="104.617915" rx="60.5" ry="33.3041327"></ellipse>
                    <ellipse id="Oval-Copy-11" fill-opacity="0.69" fill="url(#radialGradient-3)" transform="translate(121.140629, 157.908079) rotate(-5.000000) translate(-121.140629, -157.908079) " cx="121.140629" cy="157.908079" rx="66.75" ry="33.3041327"></ellipse>
                    <path d="M107.16052,10.2934525 C114.441793,17.2412538 118.40638,23.4404266 119.124508,28.8197023 C122.170231,51.6342715 111.264511,78.858777 94.3831502,92.5810336 C72.157764,110.647258 47.2449437,112.738614 19.3624959,98.8359857 C18.6211181,98.466323 17.7204419,98.7676577 17.3507792,99.5090355 C16.9811166,100.250413 17.2824512,101.15109 18.023829,101.520752 C46.9336088,115.935624 73.1115431,113.738066 96.2754389,94.9089604 C113.963879,80.5306576 125.282452,52.2755251 122.098127,28.422727 C121.272857,22.2408851 116.960592,15.49807 109.231557,8.12301302 C108.632206,7.55111205 107.68272,7.57336413 107.110819,8.17271444 C106.538918,8.77206474 106.56117,9.72155149 107.16052,10.2934525 Z" id="Path-5" fill="#000000"></path>
                    <path d="M20.3777646,101.075985 C38.8337404,109.448912 70.4093406,91.3416296 92.394774,68.8015726 C114.380208,46.2615155 120.612429,15.3567719 104.300656,5.66426897 C87.9888825,-4.02823395 62.4574114,6.67759842 37.3987453,24.0759852 C12.3400793,41.474372 1.92178878,92.7030581 20.3777646,101.075985 Z" id="Oval" fill="#6F4622"></path>
                    <path d="M20.3777646,101.075985 C18.079423,95.6144334 30.3486745,89.5718259 43.1035893,76.5904678 C53.5626205,65.945753 63.4704711,48.8517562 73.3759967,38.6963453 C95.3614301,16.1562882 90.5677342,14.9642728 104.300656,5.66426897 C87.4606828,-2.70140132 62.4574114,6.67759842 37.3987453,24.0759852 C12.3400793,41.474372 1.92178878,92.7030581 20.3777646,101.075985 Z" id="Oval" fill="#5D3B12"></path>
                    <path d="M19.7580512,102.441985 C37.5172476,110.498804 68.531302,95.4152894 93.4685628,69.8489396 C116.19933,46.5447468 122.351812,14.6454905 105.066896,4.37474331 C89.5335913,-4.85519113 65.5615683,2.69626413 36.5432666,22.8438505 C10.9994669,40.5790686 -0.291948167,93.3458968 19.7580512,102.441985 Z M20.997478,99.7099855 C3.63968008,91.835269 14.3195976,41.9260791 38.2542241,25.30812 C66.3745269,5.78401991 89.3732238,-1.46082675 103.534416,6.95379464 C118.629414,15.9232865 112.89957,45.6312608 91.3209853,67.7542056 C67.1829936,92.5011231 37.2240415,107.071495 20.997478,99.7099855 Z" id="Oval" fill="#000000"></path>
                    <path d="M97.6994842,10.9012253 C82.9400929,13.238129 65.0488827,39.0104064 61.4694424,45.4382746 C45.4424457,74.2191489 38.7117561,76.6556456 22.5306124,91.149075 C33.1930636,89.7033189 43.4155334,81.6376464 51.9886838,71.3974946 C60.1150483,61.6910036 72.5812273,41.0480998 78.6251008,36.0703821 C86.2737469,29.7709783 89.6955839,17.5620054 97.6994842,10.9012253 Z" id="Path-6" fill="#140B03"></path>
                    <path d="M53.2899914,107.347332 C82.4992379,103.633637 101.902574,89.4041268 111.5,64.6588025 C94.1101664,88.504742 74.7068302,102.734252 53.2899914,107.347332 Z" id="Path-38" fill-opacity="0.23" fill="#FFFFFF"></path>
                </g>
                <g id="Group-2-Copy" transform="translate(167.108709, 81.834440) scale(-1, 1) rotate(18.000000) translate(-167.108709, -81.834440) translate(131.608709, 46.334440)">
                    <path d="M62.447414,4.70537415 C67.3466116,9.38019594 70.0480843,13.604317 70.5518323,17.3777373 C72.650972,33.1017445 64.9416072,51.0343056 54.0482895,59.8890953 C39.2337322,71.9313208 22.5582775,73.3311749 4.0219255,64.0886575" id="Path-5" fill="#4C3017"></path>
                    <path d="M61.4118956,5.79059387 C66.087212,10.2517878 68.6148457,14.2040878 69.0650227,17.576225 C71.02914,32.2888207 63.9818045,49.8814446 53.1021451,58.7251319 C38.7568427,70.3859169 22.713945,71.7326697 4.69125895,62.7462743 C3.94988116,62.3766116 3.04920493,62.6779463 2.67954227,63.419324 C2.30987962,64.1607018 2.61121427,65.0613781 3.35259205,65.4310407 C22.4026101,74.9296801 39.7106217,73.4767248 54.9944339,61.0530587 C66.6811728,51.5533252 74.1413616,32.9300743 72.0386418,17.1792497 C71.481323,13.0045463 68.6060111,8.50860403 63.4829323,3.62015443 C62.883582,3.04825346 61.9340952,3.07050554 61.3621942,3.66985584 C60.7902933,4.26920615 60.8125453,5.2186929 61.4118956,5.79059387 Z" id="Path-5" fill="#000000"></path>
                    <path d="M5.12159634,64.6746015 C17.1692472,70.1402622 37.7810973,58.3202304 52.1326997,43.6065821 C66.4843021,28.8929338 70.5525578,8.71900388 59.9045947,2.39195336 C49.2566317,-3.93509716 32.3951954,7.39078697 19.048825,20.0398021 C5.70245457,32.6888172 -6.92605454,59.2089407 5.12159634,64.6746015 Z" id="Oval" fill="#6F4622"></path>
                    <path d="M5.12159634,64.6746015 C3.62129003,61.1094218 11.6303847,57.1649419 19.9565097,48.6909998 C26.7839328,41.7423665 33.2515575,30.5837853 39.7176645,23.9545587 C54.0692669,9.24091038 50.9400487,8.46278921 59.9045947,2.39195336 C48.9118346,-3.06897031 30.7671361,6.16147017 17.9306448,17.5191835 C5.09415354,28.8768968 -6.92605454,59.2089407 5.12159634,64.6746015 Z" id="Oval" fill="#5D3B12"></path>
                    <path d="M53.2064885,44.6539491 C68.2446596,29.2364121 72.3342376,8.03285558 60.6708346,1.1024277 C50.2072014,-5.11509349 33.055104,2.22644162 17.3673647,17.0944877 C10.5629994,23.5433211 4.07469184,33.9844078 0.816335759,43.6431914 C-2.87765699,54.593338 -2.02926006,63.077616 4.50188291,66.0406012 C16.3607738,71.4206271 36.7892368,61.4853567 53.2064885,44.6539491 Z M5.74130977,63.3086017 C1.09302618,61.1998138 0.399488185,54.2641815 3.65894484,44.6021354 C6.76487926,35.3951772 12.9918069,25.3747071 19.4310358,19.2719315 C34.2344213,5.24203124 50.2372458,-1.60758576 59.1383548,3.68147902 C68.6118405,9.31065163 64.9448999,28.3229261 51.0589109,42.5592151 C35.4409284,58.5711904 16.0675677,67.9933177 5.74130977,63.3086017 Z" id="Oval" fill="#000000"></path>
                    <path d="M55.5954966,5.8105221 C45.960894,7.33600085 34.2819096,24.1595708 31.9453304,28.3555403 C21.4832632,47.1430555 18.1256531,49.8843383 7.56296201,59.345327 C14.5231732,58.4015695 20.1601399,51.9856858 25.7565019,45.3011423 C31.0612121,38.9649607 39.1988567,25.4897318 43.144163,22.2403883 C48.1370292,18.1282775 50.3707284,10.1585313 55.5954966,5.8105221 Z" id="Path-6" fill="#140B03"></path>
                    <path d="M23.8959814,67.9062944 C43.1933557,66.7540377 56.2953891,57.7474518 63.2020817,40.8865368 C51.8503847,56.4526362 38.7483513,65.459222 23.8959814,67.9062944 Z" id="Path-38" fill-opacity="0.23" fill="#FFFFFF"></path>
                </g>
                <path d="M57.0842368,135.929932 C61.0604272,162.729876 83.844063,173.312923 125.435144,167.679071 C176.743954,160.728874 176.743954,123.120241 145.876901,117.122569" id="Path-39" fill="#4C3017"></path>
                <path d="M55.6004785,136.15007 C59.7220217,163.929708 83.3309867,174.896122 125.636493,169.165496 C149.670836,165.909848 164.886873,155.521243 167.933208,142.382422 C170.797986,130.026657 161.843762,118.696982 146.16301,115.650108 C145.349792,115.492095 144.562453,116.023243 144.40444,116.836461 C144.246426,117.649678 144.777574,118.437017 145.590792,118.595031 C159.714847,121.339427 167.460336,131.139705 165.010733,141.704824 C162.290461,153.437336 148.155743,163.087681 125.233796,166.192646 C84.3571393,171.729723 62.3988328,161.530044 58.5679952,135.709793 C58.446416,134.890336 57.6835552,134.324594 56.8640981,134.446173 C56.044641,134.567752 55.4788992,135.330613 55.6004785,136.15007 Z" id="Path-39" fill="#000000"></path>
                <path d="M73.382823,177.843112 C91.1585363,177.724482 108.901187,164.699708 126.610775,138.768791 C107.826141,161.300799 90.0834899,174.325573 73.382823,177.843112 Z" id="Path-38" fill-opacity="0.23" fill="#FFFFFF" transform="translate(99.996799, 158.305952) rotate(44.000000) translate(-99.996799, -158.305952) "></path>
                <path d="M109.084237,152.65438 C137.803044,152.65438 166.953725,147.113698 166.953725,135.929932 C166.953725,128.207217 158.000313,119.498231 145.876901,117.122569 C138.007551,115.580519 117.971874,115.679932 109.084237,115.679932 C94.1444716,115.679932 80.5448491,116.343235 71.0600712,120.271967 C62.3121995,123.895462 57.0842368,130.564055 57.0842368,135.929932 C57.0842368,147.113698 80.3654299,152.65438 109.084237,152.65438 Z" id="Oval" fill="#6F4622"></path>
                <path d="M109.084237,130.066239 C137.803044,130.066239 148.271291,133.172088 166.953725,135.969517 C166.953725,128.246802 159.05444,119.614872 145.876901,117.122569 C136.084273,115.270464 117.867168,113.491139 108.97953,113.491139 C94.0397648,113.491139 80.5448491,116.343235 71.0600712,120.271967 C62.3121995,123.895462 57.0842368,130.564055 57.0842368,135.929932 C74.3307523,134.054841 80.3654299,130.066239 109.084237,130.066239 Z" id="Oval" fill="#5D3B12"></path>
                <path d="M109.084237,154.15438 C142.529788,154.15438 168.453725,147.521437 168.453725,135.929932 C168.453725,127.13494 158.573799,118.082082 146.16535,115.650565 C137.822654,114.015759 117.710852,111.991139 109.084237,111.991139 C94.7956766,111.991139 80.8494126,114.593492 70.486045,118.886148 C61.6236116,122.557096 55.5842368,129.578543 55.5842368,135.929932 C55.5842368,147.759282 77.2068618,154.15438 109.084237,154.15438 Z M109.084237,151.15438 C78.9765445,151.15438 58.5842368,145.12316 58.5842368,135.929932 C58.5842368,130.959063 63.7898106,124.907003 71.6340974,121.657786 C81.6216751,117.520787 95.1783077,114.991139 109.084237,114.991139 C117.513473,114.991139 137.432405,116.996343 145.588452,118.594574 C156.725648,120.77698 165.453725,128.774413 165.453725,135.929932 C165.453725,144.788098 140.571995,151.15438 109.084237,151.15438 Z" id="Oval" fill="#000000"></path>
                <path d="M59.2038523,135.929932 C79.340704,136.214606 90.3775313,134.927645 100.291783,133.234711 C111.276195,131.359038 131.544143,133.129749 161.593525,135.00484 C144.449203,128.569686 101.202269,125.723114 96.1012232,127.204393 C90.3775313,128.86648 78.72573,128.086518 59.2038523,135.929932 Z" id="Path-40" fill="#140B03"></path>
            </g>
        </g>
    </g>
</svg>