<?xml version="1.0" encoding="UTF-8"?>
<svg width="141px" height="311px" viewBox="0 0 141 311" version="1.1" xmlns="http://www.w3.org/2000/svg" xmlns:xlink="http://www.w3.org/1999/xlink">
    <!-- Generator: Sketch 55.2 (78181) - https://sketchapp.com -->
    <title>Group 6</title>
    <desc>Created with Sketch.</desc>
    <defs>
        <linearGradient x1="50%" y1="0%" x2="50%" y2="100%" id="linearGradient-1">
            <stop stop-color="#FFFFFF" stop-opacity="0.26" offset="0%"></stop>
            <stop stop-color="#FFFFFF" stop-opacity="0.71" offset="100%"></stop>
        </linearGradient>
        <linearGradient x1="50%" y1="0%" x2="50%" y2="100%" id="linearGradient-2">
            <stop stop-color="#FFFFFF" stop-opacity="0.26" offset="0%"></stop>
            <stop stop-color="#FFFFFF" stop-opacity="0.71" offset="100%"></stop>
        </linearGradient>
        <linearGradient x1="50%" y1="0%" x2="50%" y2="100%" id="linearGradient-3">
            <stop stop-color="#FFFFFF" stop-opacity="0.26" offset="0%"></stop>
            <stop stop-color="#FFFFFF" stop-opacity="0.71" offset="100%"></stop>
        </linearGradient>
        <linearGradient x1="50%" y1="0%" x2="50%" y2="100%" id="linearGradient-4">
            <stop stop-color="#FFFFFF" stop-opacity="0.26" offset="0%"></stop>
            <stop stop-color="#FFFFFF" stop-opacity="0.71" offset="100%"></stop>
        </linearGradient>
        <linearGradient x1="50%" y1="0%" x2="50%" y2="100%" id="linearGradient-5">
            <stop stop-color="#FFFFFF" stop-opacity="0.26" offset="0%"></stop>
            <stop stop-color="#FFFFFF" stop-opacity="0.71" offset="100%"></stop>
        </linearGradient>
    </defs>
    <g id="Start-page-" stroke="none" stroke-width="1" fill="none" fill-rule="evenodd">
        <g id="Desktop-HD-Copy-37" transform="translate(-718.000000, -282.000000)" fill-rule="nonzero">
            <g id="Group" transform="translate(165.000000, 181.000000)">
                <g id="Coffee-Cigars-Restau-+-Group-2-+-Latest-Regions-Rosta-+-Group-Copy-2-Mask">
                    <g id="Group-6" transform="translate(544.000000, 101.656250)">
                        <g id="Group-6-Copy" transform="translate(77.884615, 0.000000)">
                            <g id="Group-4">
                                <path d="M36.0576923,270.726254 C61.5646462,270.726254 68.3775025,267.034922 68.3775025,255.463234 L68.3775025,135.57254 C68.3775025,125.888414 66.4851945,120.396663 61.7326045,114.039857 C60.5928644,112.515403 55.7901587,106.607339 55.9396045,106.79509 C53.3089148,103.490112 51.1897198,100.556612 49.075768,97.168692 C47.2827193,94.6328971 46.5484895,81.155811 46.2785754,57.6793483 C46.1641163,47.7239863 46.1614777,37.5667013 46.2251856,26.3106669 C46.2277287,25.8613645 46.2658923,19.8395769 46.2658923,19.2170664 C46.2658923,15.1111455 47.5806767,11.9926747 50.218808,10.0139607 L49.563236,2.88461538 L36.0576923,2.88461538 C35.9091684,2.88461538 35.7658879,2.86216567 35.6310589,2.82047446 C35.49623,2.86216567 35.3529495,2.88461538 35.2044256,2.88461538 L21.6988819,2.88461538 L21.0433099,10.0139607 C23.6814412,11.9926747 24.9962256,15.1111455 24.9962256,19.2170664 C24.9962256,19.8395769 25.0343892,25.8613645 25.0369323,26.3106669 C25.1006402,37.5667013 25.0980016,47.7239863 24.9835425,57.6793483 C24.7136284,81.155811 23.9793986,94.6328971 22.1863499,97.168692 C20.0723981,100.556612 17.9532031,103.490112 15.3225134,106.79509 C15.4719592,106.607339 10.6692535,112.515403 9.5295134,114.039857 C4.77692345,120.396663 2.88461538,125.888414 2.88461538,135.57254 L2.88461538,255.463234 C2.88461538,267.034922 9.69747171,270.726254 35.2044256,270.726254 C35.3529495,270.726254 35.49623,270.748704 35.6310589,270.790395 C35.7658879,270.748704 35.9091684,270.726254 36.0576923,270.726254 Z" id="Path" fill="#B5B5B5"></path>
                                <polygon id="Path-51" fill="#495F99" points="23.1747907 32.7158079 47.5955769 33.5173518 47.5955769 73.1094191 23.1747907 73.1094191"></polygon>
                                <polygon id="Path-52" fill="#495F99" points="1.611756 153.520761 35.6310589 156.118717 69.8081006 152.871272 69.8081006 225.094448 48.6347593 227.562507 23.4345863 227.562507 1.611756 225.094448"></polygon>
                                <path d="M35.6310589,6.84872455 C30.013126,6.84872455 24.7794006,6.62645253 19.9298828,6.18190848 L20.7092695,2.4529745 L50.3259678,1.44230769 L51.7548436,6.18190848 C46.6235868,6.62645253 41.2489919,6.84872455 35.6310589,6.84872455 Z" id="Path-50" fill="#000000"></path>
                                <path d="M35.6310589,270.790395 C35.7658879,270.748704 35.9091684,270.726254 36.0576923,270.726254 C61.5646462,270.726254 68.3775025,267.034922 68.3775025,255.463234 L68.3775025,135.57254 C68.3775025,125.888414 66.4851945,120.396663 61.7326045,114.039857 C60.5928644,112.515403 55.7901587,106.607339 55.9396045,106.79509 C53.3089148,103.490112 51.1897198,100.556612 49.075768,97.168692 C47.2827193,94.6328971 46.5484895,81.155811 46.2785754,57.6793483 C46.1641163,47.7239863 46.1614777,37.5667013 46.2251856,26.3106669 C46.2277287,25.8613645 46.2658923,19.8395769 46.2658923,19.2170664 C46.2658923,15.1111455 47.5806767,11.9926747 50.218808,10.0139607 L49.563236,2.88461538 L36.0576923,2.88461538 C35.9091684,2.88461538 35.7658879,2.86216567 35.6310589,2.82047446 C35.49623,2.86216567 35.3529495,2.88461538 35.2044256,2.88461538 L21.6988819,2.88461538 L21.0433099,10.0139607 C23.6814412,11.9926747 24.9962256,15.1111455 24.9962256,19.2170664 C24.9962256,19.8395769 25.0343892,25.8613645 25.0369323,26.3106669 C25.1006402,37.5667013 25.0980016,47.7239863 24.9835425,57.6793483 C24.7136284,81.155811 23.9793986,94.6328971 22.1863499,97.168692 C20.0723981,100.556612 17.9532031,103.490112 15.3225134,106.79509 C15.4719592,106.607339 10.6692535,112.515403 9.5295134,114.039857 C4.77692345,120.396663 2.88461538,125.888414 2.88461538,135.57254 L2.88461538,255.463234 C2.88461538,267.034922 9.69747171,270.726254 35.2044256,270.726254 C35.3529495,270.726254 35.49623,270.748704 35.6310589,270.790395 L35.6310589,270.790395 Z M35.6310589,273.546729 C35.49623,273.58842 35.3529495,273.610869 35.2044256,273.610869 C8.31591567,273.610869 5.68434189e-14,269.105152 5.68434189e-14,255.463234 L5.68434189e-14,135.57254 C5.68434189e-14,125.254447 2.10012337,119.159586 7.21920454,112.312582 C8.40020631,110.732939 13.2497782,104.767222 13.065586,104.998625 C15.6448395,101.758268 17.7091369,98.8991955 19.7684023,95.59462 L19.8927486,95.4242403 C21.0226958,94.092607 21.8507124,79.2518681 22.0991178,57.6461854 C22.2133508,47.7104802 22.2159857,37.5679394 22.1523631,26.3269933 C22.1499072,25.8930777 22.1116102,19.8502584 22.1116102,19.2170664 C22.1116102,15.6738427 20.9956371,13.3197905 18.774833,11.956719 C18.3070808,11.6696249 18.0428026,11.141939 18.0930577,10.5954139 L18.9468669,1.31023888 C19.0151209,0.567977338 19.6377222,-2.27373675e-13 20.3831153,-2.27373675e-13 L35.2044256,-2.27373675e-13 C35.3529495,-2.27373675e-13 35.49623,0.022449711 35.6310589,0.0641409216 C35.7658879,0.022449711 35.9091684,-2.27373675e-13 36.0576923,-2.27373675e-13 L50.8790026,-2.27373675e-13 C51.6243957,-2.27373675e-13 52.246997,0.567977338 52.315251,1.31023888 L53.1690602,10.5954139 C53.2193153,11.141939 52.9550371,11.6696249 52.4872849,11.956719 C50.2664808,13.3197905 49.1505077,15.6738427 49.1505077,19.2170664 C49.1505077,19.8502584 49.1122107,25.8930777 49.1097548,26.3269933 C49.0461322,37.5679394 49.0487671,47.7104802 49.1630001,57.6461854 C49.4114055,79.2518681 50.2394221,94.092607 51.3693693,95.4242403 L51.4937156,95.59462 C53.552981,98.8991955 55.6172784,101.758268 58.1965319,104.998625 C58.0123397,104.767222 62.8619116,110.732939 64.0429134,112.312582 C69.1619945,119.159586 71.2621179,125.254447 71.2621179,135.57254 L71.2621179,255.463234 C71.2621179,269.105152 62.9462022,273.610869 36.0576923,273.610869 C35.9091684,273.610869 35.7658879,273.58842 35.6310589,273.546729 L35.6310589,273.546729 Z" id="Shape" fill="#000000"></path>
                                <path d="M46.1902161,34.6939832 C43.2243213,35.0944199 39.6214835,35.2884615 35.6310589,35.2884615 C31.6406344,35.2884615 28.0377966,35.0944199 25.0719018,34.6939832 C25.0694492,33.7187848 25.0663562,32.7364273 25.0626566,31.7462421 C28.0265225,32.1667556 31.7220643,32.4038462 35.6310589,32.4038462 C39.5400536,32.4038462 43.2355954,32.1667556 46.1994613,31.7462421 C46.1957617,32.7364273 46.1926687,33.7187848 46.1902161,34.6939832 L46.1902161,34.6939832 Z" id="Path" fill="#000000"></path>
                                <path d="M46.6030486,74.2516978 C43.5612176,74.6911878 39.8085245,74.9038462 35.6310589,74.9038462 C31.4535934,74.9038462 27.7009003,74.6911878 24.6590693,74.2516978 C24.6884061,73.3010308 24.7160262,72.3220834 24.7420155,71.314992 C27.7578373,71.7645704 31.5798127,72.0192308 35.6310589,72.0192308 C39.6823052,72.0192308 43.5042806,71.7645704 46.5201024,71.314992 C46.5460917,72.3220834 46.5737118,73.3010308 46.6030486,74.2516978 L46.6030486,74.2516978 Z" id="Path" fill="#000000"></path>
                                <path d="M68.3775025,154.590924 C66.7860122,154.926525 64.9192451,155.228015 62.7805981,155.513887 C55.6081931,156.472619 45.940067,157.019231 35.6310589,157.019231 C25.3220509,157.019231 15.6539248,156.472619 8.48151984,155.513887 C6.34287285,155.228015 4.47610568,154.926525 2.88461538,154.590924 L2.88461538,151.612814 C4.50642026,151.989747 6.51995968,152.341414 8.863706,152.654702 C15.898663,153.595062 25.4419581,154.134615 35.6310589,154.134615 C45.8201598,154.134615 55.3634549,153.595062 62.3984119,152.654702 C64.7421582,152.341414 66.7556976,151.989747 68.3775025,151.612814 L68.3775025,154.590924 L68.3775025,154.590924 Z" id="Path" fill="#000000"></path>
                                <path d="M68.3775025,226.706309 C66.7860122,227.04191 64.9192451,227.343399 62.7805981,227.629271 C55.6081931,228.588004 45.940067,229.134615 35.6310589,229.134615 C25.3220509,229.134615 15.6539248,228.588004 8.48151984,227.629271 C6.34287285,227.343399 4.47610568,227.04191 2.88461538,226.706309 L2.88461538,223.728199 C4.50642026,224.105132 6.51995968,224.456799 8.863706,224.770086 C15.898663,225.710446 25.4419581,226.25 35.6310589,226.25 C45.8201598,226.25 55.3634549,225.710446 62.3984119,224.770086 C64.7421582,224.456799 66.7556976,224.105132 68.3775025,223.728199 L68.3775025,226.706309 L68.3775025,226.706309 Z" id="Path" fill="#000000"></path>
                                <path d="M64.0048201,125.877271 C65.2433059,140.208321 66.9446537,203.56924 66.5142624,212.834901 C66.5142624,212.834901 59.2013447,174.537753 59.2013447,160.38363 C59.2013447,146.229506 61.3868144,146.229506 64.0048201,125.877271 Z" id="Path-53" fill-opacity="0.4" fill="#FFFFFF"></path>
                                <path d="M44.9643072,38.5217673 C43.9360373,43.7037593 44.1821197,57.0009461 45.4531743,67.0716097 C45.4531743,67.0716097 40.9824435,53.6274075 40.857823,48.7879778 C40.7332025,43.9485481 43.3021588,40.5264779 44.9643072,38.5217673 Z" id="Path-54" fill-opacity="0.4" fill="#FFFFFF"></path>
                                <path d="M11.3758808,160.373643 C11.2268087,160.356804 11.0769073,160.348364 10.9268871,160.348364 C8.71775259,160.348364 6.92689295,162.139222 6.92688706,164.348356 L6.92688706,217.248718 C6.92688706,219.217847 8.36001396,220.894075 10.3052155,221.200114 C17.2127212,222.286861 25.6800642,222.831452 35.7028702,222.831452 C45.6488542,222.831452 53.9433642,222.295158 60.5810217,221.225368 C62.5194631,220.91295 63.9445547,219.239787 63.9445565,217.276331 L63.9445565,164.348363 C63.9445565,164.198343 63.9361167,164.048441 63.9192771,163.899369 C63.6713046,161.704196 61.6907434,160.125676 59.4955696,160.373642 C53.9512983,160.999938 45.9351881,161.311886 35.4357218,161.311886 C24.9362598,161.311886 16.9201519,160.999938 11.3758808,160.373643 Z" id="Rectangle" stroke="#A8B5D8" stroke-width="2"></path>
                                <path d="M4.85353809,236.990465 C3.82036212,257.883579 0.606036869,270.790395 34.2416547,267.985744 C5.19793008,265.804595 5.19793008,260.409121 4.85353809,236.990465 Z" id="Path-56" fill="#8E8E93"></path>
                                <path d="M23.1747907,100.870939 C21.296983,102.496453 22.9601217,105.894303 13.8753144,112.841509 C11.2781447,114.82758 10.0588258,119.725731 5.92688706,125.025839 C13.4646968,117.404538 19.1532293,111.099628 23.1747907,105.680543 C27.5565059,99.7761487 30.7050831,94.356492 26.9711452,83.6562521 C25.14305,91.3516183 25.6441664,98.7333376 23.1747907,100.870939 Z" id="Path-57" fill-opacity="0.4" fill="#FFFFFF"></path>
                                <path d="M42.6669094,101.500203 C41.1280977,101.500203 39.8806444,100.104401 39.8806444,98.3825921 C39.8806444,97.0647911 40.7181006,95.945543 41.4746448,94.1346053 C42.0734935,92.7011427 42.6669094,87.4741269 42.6669094,87.3281383 C42.6669094,87.3281383 43.5659576,92.7011427 43.8858393,94.1209374 C44.205721,95.5407321 45.4531743,96.5158568 45.4531743,98.3825921 C45.4531743,100.249327 44.205721,101.500203 42.6669094,101.500203 Z M41.5383718,100.750687 C42.2980448,101.095572 42.974603,101.218561 43.5680463,101.119654 C44.4582111,100.971293 45.1429593,98.6888194 45.1429593,98.6888194 C45.1429593,98.6888194 44.5040657,100.175699 43.7073943,100.621835 C43.1367758,100.941381 42.4137683,100.984332 41.5383718,100.750687 Z" id="Combined-Shape" fill="url(#linearGradient-1)"></path>
                                <path d="M22.8967572,142.353333 C21.0153271,142.353333 19.4901267,140.646753 19.4901267,138.541581 C19.4901267,136.93037 19.9672647,136.196886 20.8922545,133.982741 C21.6244377,132.230116 22.8967572,123.898041 22.8967572,123.719547 C22.8967572,123.719547 24.2679655,131.300526 24.6590693,133.03644 C25.050173,134.772354 26.3033878,136.259215 26.3033878,138.541581 C26.3033878,140.823948 24.7781873,142.353333 22.8967572,142.353333 Z M21.5169493,141.436936 C22.4457645,141.85861 23.2729593,142.008983 23.9985335,141.888054 C25.0868947,141.70666 25.924103,138.91599 25.924103,138.91599 C25.924103,138.91599 25.1429589,140.733926 24.1689075,141.279394 C23.47124,141.670088 22.587254,141.722602 21.5169493,141.436936 Z" id="Combined-Shape-Copy" fill="url(#linearGradient-2)"></path>
                                <path d="M46.488807,159.119231 C45.218629,159.119231 44.1889464,157.967098 44.1889464,156.545868 C44.1889464,155.458119 44.880206,154.53426 45.5046786,153.039462 C45.998985,151.856242 46.488807,147.541718 46.488807,147.421215 C46.488807,147.421215 47.2309064,151.856242 47.4949457,153.02818 C47.7589849,154.200118 48.7886676,155.005013 48.7886676,156.545868 C48.7886676,158.086724 47.7589849,159.119231 46.488807,159.119231 Z M45.5572807,158.50056 C46.1843359,158.785238 46.7427859,158.886756 47.2326304,158.805116 C47.9673973,158.682654 48.5326075,156.798637 48.5326075,156.798637 C48.5326075,156.798637 48.005247,158.025948 47.3476522,158.394202 C46.8766478,158.657964 46.2798573,158.693417 45.5572807,158.50056 Z" id="Combined-Shape-Copy-2" fill="url(#linearGradient-3)"></path>
                                <path d="M19.6328907,236.990465 C18.1448086,236.990465 16.9384798,235.640678 16.9384798,233.975632 C16.9384798,232.701274 17.7483278,231.618924 18.4799312,229.867687 C19.0590378,228.481481 19.6328907,226.572583 19.6328907,226.431407 C19.6328907,226.431407 20.5023003,228.481481 20.8116365,229.85447 C21.1209727,231.227458 22.3273016,232.170436 22.3273016,233.975632 C22.3273016,235.780827 21.1209727,236.990465 19.6328907,236.990465 Z M18.5415573,236.265658 C19.2761864,236.599174 19.9304407,236.718108 20.50432,236.622462 C21.3651391,236.478992 22.0273133,234.271764 22.0273133,234.271764 C22.0273133,234.271764 21.409482,235.709625 20.6390742,236.141054 C20.0872671,236.450066 19.3880948,236.491601 18.5415573,236.265658 Z" id="Combined-Shape-Copy-3" fill="url(#linearGradient-4)"></path>
                                <path d="M52.7832241,253.846154 C51.6991516,253.846154 50.8203372,252.86283 50.8203372,251.649838 C50.8203372,250.721464 51.410314,249.932969 51.9432894,248.657187 C52.3651705,247.647332 52.7832241,246.256693 52.7832241,246.153846 C52.7832241,246.153846 53.4165918,247.647332 53.6419442,248.647558 C53.8672966,249.647785 54.7461111,250.334747 54.7461111,251.649838 C54.7461111,252.964928 53.8672966,253.846154 52.7832241,253.846154 Z M51.9881843,253.31813 C52.5233639,253.561097 52.9999902,253.647741 53.4180632,253.578062 C54.0451726,253.473544 54.5275687,251.865571 54.5275687,251.865571 C54.5275687,251.865571 54.0774766,252.913058 53.516232,253.227355 C53.1142388,253.452471 52.6048896,253.482729 51.9881843,253.31813 Z" id="Combined-Shape-Copy-4" fill="url(#linearGradient-5)"></path>
                            </g>
                            <g id="Group-3" transform="translate(17.439812, 174.125822)">
                                <g id="Group-5-Copy-2" transform="translate(14.736519, 11.075954)">
                                    <path d="M11.4874105,15.2416295 C11.9651307,18.5190651 13.2607995,20.5763983 15.3744167,21.4136292 C17.1913959,20.5089448 18.4870647,18.4516115 19.261423,15.2416295 C16.850074,12.7349233 15.2119043,11.4815702 14.346914,11.4815702 C13.4819236,11.4815702 12.5287558,12.7349233 11.4874105,15.2416295 Z" id="Path-60-Copy-4" fill="#7C9833" transform="translate(15.374417, 16.447600) scale(-1, 1) rotate(41.000000) translate(-15.374417, -16.447600) "></path>
                                    <path d="M11.1429549,15.2918387 C11.6370603,18.6816859 13.001397,20.8480539 15.2462192,21.7372567 C15.3380912,21.7736484 15.441101,21.7692772 15.5295597,21.7252331 C17.4537203,20.7671824 18.8036073,18.6237585 19.599801,15.3232612 C19.6276713,15.2077294 19.5946717,15.0859625 19.5122798,15.0003124 C17.024763,12.4144263 15.3505308,11.133482 14.3469086,11.133482 C13.2781754,11.133482 12.2620127,12.4696693 11.1659495,15.1080912 C11.1418344,15.1661406 11.1338883,15.2296368 11.1429549,15.2918387 Z M11.4874051,15.2416315 C12.5287505,12.7349253 13.4819183,11.4815722 14.3469086,11.4815722 C15.2118989,11.4815722 16.8500686,12.7349253 19.2614176,15.2416315 C18.4870593,18.4516135 17.1913906,20.5089468 15.3744114,21.4136312 C13.2607941,20.5764003 11.9651254,18.5190671 11.4874051,15.2416315 Z" id="Path-60-Copy-4" fill="#000000" transform="translate(15.374414, 16.447602) scale(-1, 1) rotate(41.000000) translate(-15.374414, -16.447602) "></path>
                                    <path d="M13.8156069,11.8317452 C14.1340928,14.7262345 15.0153072,16.5798235 16.4987908,17.3582594 C16.61102,17.4171499 16.7463886,17.4103866 16.8521889,17.3406027 C18.1244038,16.5014735 18.9991969,14.466186 19.5283991,11.2331224 C19.545561,11.1282752 19.5139007,11.0213307 19.4424282,10.9427231 C17.7965643,9.13255426 16.7011854,8.24334764 15.9999584,8.24334764 C15.2071614,8.24334764 14.5526303,9.38348059 13.8294675,11.6895159 C13.8150606,11.7354569 13.8103409,11.7838871 13.8156069,11.8317452 Z M14.1616087,11.793674 C14.8310805,9.65884983 15.4438637,8.59143775 15.9999584,8.59143775 C16.5560531,8.59143775 17.6176938,9.45325642 19.1848805,11.1768938 C18.6701007,14.3218461 17.8286509,16.2795574 16.6605309,17.0500275 C15.3017049,16.3370039 14.4687309,14.584886 14.1616087,11.793674 Z" id="Path-60-Copy-3" fill="#000000" transform="translate(16.673246, 12.820733) scale(-1, 1) rotate(52.000000) translate(-16.673246, -12.820733) "></path>
                                    <path d="M14.1616114,11.793673 C14.4687335,14.5848851 15.3017076,16.3370029 16.6605335,17.0500265 C17.8286535,16.2795564 18.6701033,14.3218452 19.1848831,11.1768928 C17.6176964,9.45325545 16.5560557,8.59143677 15.999961,8.59143677 C15.4438664,8.59143677 14.8310831,9.65884885 14.1616114,11.793673 Z" id="Path-60-Copy-3" fill="#A1C244" transform="translate(16.673247, 12.820732) scale(-1, 1) rotate(52.000000) translate(-16.673247, -12.820732) "></path>
                                    <path d="M9.32539224,16.1237899 C9.64387816,19.0182793 10.5250926,20.8718682 12.0085762,21.6503041 C12.1208054,21.7091947 12.256174,21.7024313 12.3619743,21.6326474 C13.6341892,20.7935182 14.5089823,18.7582308 15.0381845,15.5251672 C15.0553464,15.4203199 15.0236861,15.3133754 14.9522136,15.2347678 C13.3063496,13.424599 12.2109708,12.5353924 11.5097438,12.5353924 C10.7169468,12.5353924 10.0624157,13.6755253 9.33925286,15.9815606 C9.32484597,16.0275016 9.32012632,16.0759318 9.32539224,16.1237899 Z M9.67139413,16.0857187 C10.3408659,13.9508946 10.9536491,12.8834825 11.5097438,12.8834825 C12.0658385,12.8834825 13.1274792,13.7453012 14.6946659,15.4689385 C14.1798861,18.6138909 13.3384362,20.5716021 12.1703163,21.3420722 C10.8114903,20.6290486 9.97851627,18.8769308 9.67139413,16.0857187 Z" id="Path-60-Copy-3" fill="#000000" transform="translate(12.183032, 17.112778) rotate(-27.000000) translate(-12.183032, -17.112778) "></path>
                                    <path d="M9.67139464,16.0857178 C9.97851678,18.8769299 10.8114908,20.6290477 12.1703168,21.3420713 C13.3384368,20.5716012 14.1798866,18.61389 14.6946664,15.4689376 C13.1274797,13.7453002 12.065839,12.8834816 11.5097443,12.8834816 C10.9536496,12.8834816 10.3408664,13.9508936 9.67139464,16.0857178 Z" id="Path-60-Copy-3" fill="#A1C244" transform="translate(12.183031, 17.112776) rotate(-27.000000) translate(-12.183031, -17.112776) "></path>
                                    <path d="M8.99183566,11.2747547 C9.35245786,14.5521902 10.3305343,16.6095235 11.926065,17.4467544 C13.2976691,16.5420699 14.2757456,14.4847367 14.8602944,11.2747547 C13.0400115,8.76804843 11.8033874,7.51469531 11.1504221,7.51469531 C10.4974569,7.51469531 9.77792806,8.76804843 8.99183566,11.2747547 Z" id="Path-60-Copy-2" fill="#99B718" transform="translate(11.926065, 12.480725) scale(-1, 1) rotate(41.000000) translate(-11.926065, -12.480725) "></path>
                                    <path d="M8.64583244,11.3128264 C9.01781843,14.6935392 10.0441353,16.8523436 11.7643236,17.7549867 C11.8765528,17.8138773 12.0119214,17.807114 12.1177217,17.7373301 C13.5870998,16.7681557 14.6027994,14.6316841 15.2027513,11.337118 C15.2197842,11.2435833 15.1978179,11.1471519 15.1419544,11.0702225 C13.2360403,8.44559384 11.9741234,7.1666057 11.1504208,7.1666057 C10.2607532,7.1666057 9.49947656,8.49267969 8.65969307,11.1705971 C8.64528617,11.2165381 8.64056652,11.2649682 8.64583244,11.3128264 Z M8.99183433,11.2747552 C9.77792674,8.76804893 10.4974556,7.51469581 11.1504208,7.51469581 C11.8033861,7.51469581 13.0400102,8.76804893 14.8602931,11.2747552 C14.2757443,14.4847372 13.2976678,16.5420704 11.9260637,17.4467549 C10.330533,16.609524 9.35245653,14.5521907 8.99183433,11.2747552 Z" id="Path-60-Copy-2" fill="#000000" transform="translate(11.926065, 12.480726) scale(-1, 1) rotate(41.000000) translate(-11.926065, -12.480726) "></path>
                                    <path d="M5.18373144,11.8687282 C5.58760904,15.609834 6.58731319,17.8990024 8.1828439,18.7362333 C9.55444801,17.8315488 10.5325245,15.7742156 11.1170733,12.5642336 C9.29679035,10.0575273 8.06016626,8.80417422 7.40720101,8.80417422 C6.75423576,8.80417422 6.01307924,9.82569221 5.18373144,11.8687282 Z" id="Path-60" fill="#B8E04D" transform="translate(8.150402, 13.770204) scale(-1, 1) rotate(29.000000) translate(-8.150402, -13.770204) "></path>
                                    <path d="M11.0254986,7.49771495 C11.3861208,10.7751505 12.3641973,12.8324838 13.959728,13.6697147 C15.3313321,12.7650302 16.3193609,10.4662896 16.9238142,6.77349286 C15.0836267,4.74960135 13.8370504,3.7376556 13.1840851,3.7376556 C12.5311199,3.7376556 11.811591,4.99100871 11.0254986,7.49771495 Z" id="Path-60-Copy" fill="#B8E04D" transform="translate(13.974656, 8.703685) scale(-1, 1) rotate(53.000000) translate(-13.974656, -8.703685) "></path>
                                    <path d="M4.83765093,11.9060903 C5.2527794,15.7514126 6.29544303,18.1389516 8.02110257,19.0444656 C8.13333176,19.1033562 8.26870031,19.0965929 8.37450061,19.026809 C9.84387871,18.0576346 10.8595783,15.921163 11.4595302,12.6265969 C11.4765632,12.5330622 11.4545968,12.4366308 11.3987333,12.3597014 C9.49281926,9.73507273 8.23090231,8.45608459 7.40719974,8.45608459 C6.54505692,8.45608459 5.74670162,9.55643825 4.86120134,11.7378017 C4.83956915,11.7910909 4.83147793,11.8489099 4.83765093,11.9060903 Z M5.18373017,11.8687287 C6.01307797,9.82569269 6.75423449,8.8041747 7.40719974,8.8041747 C8.06016499,8.8041747 9.29678908,10.0575278 11.117072,12.5642341 C10.5325232,15.7742161 9.55444674,17.8315493 8.18284263,18.7362338 C6.58731192,17.8990029 5.58760776,15.6098345 5.18373017,11.8687287 Z" id="Path-60" fill="#000000" transform="translate(8.150402, 13.770205) scale(-1, 1) rotate(29.000000) translate(-8.150402, -13.770205) "></path>
                                    <path d="M10.6794941,7.53578714 C11.0514801,10.9165 12.0777969,13.0753043 13.7979853,13.9779475 C13.9102145,14.0368381 14.0455831,14.0300747 14.1513834,13.9602908 C15.6270825,12.9869473 16.6484545,10.6106305 17.2673303,6.82972249 C17.2844921,6.72487524 17.2528319,6.61793073 17.1813593,6.53932315 C15.2624946,4.42890016 13.9821801,3.38956646 13.1840825,3.38956646 C12.2944149,3.38956646 11.5331383,4.71564045 10.6933548,7.39355784 C10.6789479,7.43949882 10.6742282,7.48792899 10.6794941,7.53578714 Z M11.025496,7.49771592 C11.8115884,4.99100969 12.5311173,3.73765657 13.1840825,3.73765657 C13.8370478,3.73765657 15.0836241,4.74960233 16.9238116,6.77349384 C16.3193582,10.4662906 15.3313295,12.7650312 13.9597254,13.6697156 C12.3641947,12.8324847 11.3861182,10.7751515 11.025496,7.49771592 Z" id="Path-60-Copy" fill="#000000" transform="translate(13.974655, 8.703686) scale(-1, 1) rotate(53.000000) translate(-13.974655, -8.703686) "></path>
                                    <path d="M8.28100076,4.7966036 C8.26616101,4.80024939 8.2505943,4.80218961 8.23454917,4.80218961 C6.80704748,4.80218961 5.4332413,5.01081738 4.14232604,5.67014253 C2.22690491,6.6484293 1.16411755,8.40280884 1.2779108,11.1499141 C3.02912571,10.8144595 4.44934451,9.81086354 5.54578626,8.12911361 C5.63154945,7.99756787 5.84261463,8.02903705 5.88138391,8.1791502 C6.2399593,9.56754045 7.03763316,10.5652783 8.28100076,11.1840232 C9.52436836,10.5652783 10.3220422,9.56754045 10.6806176,8.1791502 C10.7193869,8.02903705 10.9304521,7.99756787 11.0162153,8.12911361 C12.112657,9.81086354 13.5328758,10.8144595 15.2840907,11.1499141 C15.397884,8.40280884 14.3350966,6.6484293 12.4196755,5.67014253 C11.1287602,5.01081738 9.75495405,4.80218961 8.32745236,4.80218961 C8.31140723,4.80218961 8.29584052,4.80024939 8.28100076,4.7966036 L8.28100076,4.7966036 Z M8.28100076,4.45968551 C8.29584052,4.45603972 8.31140723,4.4540995 8.32745236,4.4540995 C9.81088662,4.4540995 11.2376076,4.67076297 12.5947111,5.36389324 C14.6815669,6.42973899 15.8237135,8.37196004 15.6416032,11.3673894 C15.6353098,11.4709065 15.5352648,11.5462933 15.427112,11.5290148 C13.5927895,11.2359628 12.090564,10.2700868 10.9271214,8.64065984 C10.4961389,9.9448724 9.65600167,10.9050623 8.41189456,11.5120634 C8.36988589,11.5325595 8.32340351,11.5362847 8.28100076,11.5258195 C8.23859801,11.5362847 8.19211563,11.5325595 8.15010697,11.5120634 C6.90599985,10.9050623 6.06586259,9.9448724 5.63488009,8.64065984 C4.47143748,10.2700868 2.96921205,11.2359628 1.13488948,11.5290148 C1.02673668,11.5462933 0.926691746,11.4709065 0.920398312,11.3673894 C0.738288017,8.37196004 1.88043462,6.42973899 3.96729047,5.36389324 C5.32439393,4.67076297 6.75111491,4.4540995 8.23454917,4.4540995 C8.2505943,4.4540995 8.26616101,4.45603972 8.28100076,4.45968551 Z" id="Shape" fill="#000000" transform="translate(8.281001, 7.992793) scale(-1, 1) rotate(41.000000) translate(-8.281001, -7.992793) "></path>
                                    <path d="M8.27937411,4.79721178 C8.26451649,4.80085757 8.24893106,4.80279779 8.23286662,4.80279779 C6.80364735,4.80279779 5.42818819,5.01142556 4.1357197,5.67075071 C2.21799391,6.64903748 1.1539278,8.40341702 1.26785796,11.1505223 C3.02117995,10.8150677 4.44310757,9.81147172 5.54086856,8.12972179 C5.62673495,7.99817605 5.83805409,8.02964523 5.87687001,8.17975838 C6.23587685,9.56814863 7.03451048,10.5658865 8.27937411,11.1846314 C9.52423773,10.5658865 10.3228714,9.56814863 10.6818782,8.17975838 C10.7206941,8.02964523 10.9320133,7.99817605 11.0178796,8.12972179 C12.1156406,9.81147172 13.5375683,10.8150677 15.2908903,11.1505223 C15.4048204,8.40341702 14.3407543,6.64903748 12.4230285,5.67075071 C11.13056,5.01142556 9.75510086,4.80279779 8.32588159,4.80279779 C8.30981716,4.80279779 8.29423172,4.80085757 8.27937411,4.79721178 L8.27937411,4.79721178 Z" id="Path" fill="#119B42" transform="translate(8.279374, 7.990922) scale(-1, 1) rotate(41.000000) translate(-8.279374, -7.990922) "></path>
                                </g>
                                <g id="Group-5-Copy-3">
                                    <path d="M4.1546578,20.5617814 C4.79161811,24.9316955 6.51917645,27.6748065 9.33733281,28.7911144 C11.7599717,27.5848685 13.4875301,24.8417575 14.5200078,20.5617814 C11.3048758,17.2195065 9.12064956,15.548369 7.96732913,15.548369 C6.8140087,15.548369 5.54311825,17.2195065 4.1546578,20.5617814 Z" id="Path-60-Copy-4" fill="#7C9833" transform="translate(9.337333, 22.169742) rotate(36.000000) translate(-9.337333, -22.169742) "></path>
                                    <path d="M3.69538997,20.6287268 C4.35419717,25.148523 6.17331283,28.0370137 9.16640901,29.2226175 C9.2889051,29.2711398 9.42625147,29.2653114 9.54419645,29.2065859 C12.1097439,27.929185 13.9095932,25.0712865 14.9711848,20.6706235 C15.0083452,20.516581 14.9643457,20.3542251 14.8544898,20.240025 C11.5378008,16.7921769 9.30549127,15.0842512 7.96732829,15.0842512 C6.54235065,15.0842512 5.187467,16.8658342 3.72604946,20.3837301 C3.69389598,20.4611293 3.68330122,20.5457909 3.69538997,20.6287268 Z M4.15465695,20.5617838 C5.54311741,17.2195089 6.81400786,15.5483714 7.96732829,15.5483714 C9.12064872,15.5483714 11.304875,17.2195089 14.520007,20.5617838 C13.4875292,24.8417599 11.7599709,27.5848708 9.33733197,28.7911168 C6.51917561,27.6748089 4.79161727,24.9316979 4.15465695,20.5617838 Z" id="Path-60-Copy-4" fill="#000000" transform="translate(9.337336, 22.169744) rotate(36.000000) translate(-9.337336, -22.169744) "></path>
                                    <path d="M3.38049457,16.1846047 C3.80514248,20.0439238 4.98009504,22.5153758 6.95807322,23.5532903 C7.10771215,23.6318111 7.28820355,23.6227933 7.42927061,23.5297481 C9.12555718,22.4109091 10.291948,19.6971925 10.997551,15.386441 C11.0204334,15.2466447 10.9782198,15.104052 10.882923,14.9992419 C8.68843778,12.5856835 7.22793268,11.4000746 6.29296332,11.4000746 C5.23590061,11.4000746 4.36319255,12.9202519 3.39897541,15.9949657 C3.37976621,16.0562203 3.37347335,16.1207939 3.38049457,16.1846047 Z M3.84183043,16.1338431 C4.73445945,13.2874109 5.55150375,11.8641948 6.29296332,11.8641948 C7.03442288,11.8641948 8.44994381,13.0132864 10.5395261,15.3114695 C9.85315307,19.5047393 8.73121992,22.115021 7.17372664,23.1423145 C5.36195869,22.1916163 4.25132662,19.8554592 3.84183043,16.1338431 Z" id="Path-60-Copy-3" fill="#000000" transform="translate(7.190680, 17.503255) rotate(47.000000) translate(-7.190680, -17.503255) "></path>
                                    <path d="M3.84183105,16.1338419 C4.25132724,19.855458 5.36195931,22.1916151 7.17372726,23.1423133 C8.73122054,22.1150198 9.85315369,19.5047382 10.5395267,15.3114683 C8.44994443,13.0132852 7.03442351,11.8641936 6.29296394,11.8641936 C5.55150437,11.8641936 4.73446007,13.2874097 3.84183105,16.1338419 Z" id="Path-60-Copy-3" fill="#A1C244" transform="translate(7.190679, 17.503253) rotate(47.000000) translate(-7.190679, -17.503253) "></path>
                                    <path d="M10.5535957,21.0796922 C10.9782436,24.9390113 12.1531962,27.4104633 14.1311744,28.4483778 C14.2808133,28.5268986 14.4613047,28.5178807 14.6023718,28.4248355 C16.2986583,27.3059966 17.4650492,24.59228 18.1706521,20.2815285 C18.1935346,20.1417322 18.1513209,19.9991395 18.0560242,19.8943294 C15.8615389,17.480771 14.4010338,16.2951621 13.4660645,16.2951621 C12.4090018,16.2951621 11.5362937,17.8153394 10.5720766,20.8900532 C10.5528674,20.9513078 10.5465745,21.0158814 10.5535957,21.0796922 Z M11.0149316,21.0289306 C11.9075606,18.1824984 12.7246049,16.7592823 13.4660645,16.7592823 C14.207524,16.7592823 15.623045,17.9083739 17.7126272,20.206557 C17.0262542,24.3998268 15.9043211,27.0101085 14.3468278,28.0374019 C12.5350598,27.0867038 11.4244278,24.7505467 11.0149316,21.0289306 Z" id="Path-60-Copy-3" fill="#000000" transform="translate(14.363782, 22.398342) scale(-1, 1) rotate(-20.000000) translate(-14.363782, -22.398342) "></path>
                                    <path d="M11.0149346,21.028929 C11.4244308,24.7505451 12.5350629,27.0867022 14.3468308,28.0374004 C15.9043241,27.0101069 17.0262573,24.3998252 17.7126303,20.2065554 C15.623048,17.9083723 14.2075271,16.7592807 13.4660675,16.7592807 C12.7246079,16.7592807 11.9075636,18.1824968 11.0149346,21.028929 Z" id="Path-60-Copy-3" fill="#A1C244" transform="translate(14.363782, 22.398341) scale(-1, 1) rotate(-20.000000) translate(-14.363782, -22.398341) "></path>
                                    <path d="M9.54435198,14.892017 C10.0251816,19.2619311 11.3292835,22.0050421 13.4566578,23.1213499 C15.2854633,21.915104 16.5895652,19.171993 17.3689636,14.892017 C14.9419197,11.549742 13.2930876,9.87860453 12.4224673,9.87860453 C11.551847,9.87860453 10.5924752,11.549742 9.54435198,14.892017 Z" id="Path-60-Copy-2" fill="#99B718" transform="translate(13.456658, 16.499977) rotate(36.000000) translate(-13.456658, -16.499977) "></path>
                                    <path d="M9.08301569,14.9427792 C9.578997,19.4503963 10.9474194,22.3288022 13.241004,23.5323264 C13.3906429,23.6108472 13.5711343,23.6018293 13.7122013,23.5087841 C15.6713721,22.2165517 17.0256383,19.3679229 17.8255741,14.975168 C17.8482848,14.8504551 17.8189963,14.7218799 17.7445117,14.6193074 C15.2032929,11.1198025 13.5207369,9.41448498 12.4224669,9.41448498 C11.2362434,9.41448498 10.2212078,11.1825836 9.10149652,14.7531401 C9.08228733,14.8143948 9.07599446,14.8789684 9.08301569,14.9427792 Z M9.54435154,14.8920176 C10.5924747,11.5497426 11.5518465,9.87860513 12.4224669,9.87860513 C13.2930872,9.87860513 14.9419193,11.5497426 17.3689632,14.8920176 C16.5895648,19.1719936 15.2854628,21.9151046 13.4566574,23.1213505 C11.3292831,22.0050427 10.0251811,19.2619317 9.54435154,14.8920176 Z" id="Path-60-Copy-2" fill="#000000" transform="translate(13.456659, 16.499978) rotate(36.000000) translate(-13.456659, -16.499978) "></path>
                                    <path d="M14.6660041,15.2386783 C15.2045075,20.2268194 16.5374464,23.2790439 18.6648207,24.3953518 C20.4936262,23.1891058 21.7977281,20.4459949 22.5771265,16.1660188 C20.1500826,12.8237438 18.5012505,11.1526064 17.6306302,11.1526064 C16.7600099,11.1526064 15.7718012,12.5146303 14.6660041,15.2386783 Z" id="Path-60" fill="#B8E04D" transform="translate(18.621565, 17.773979) rotate(24.000000) translate(-18.621565, -17.773979) "></path>
                                    <path d="M6.3644653,10.1131897 C6.8452949,14.4831038 8.14939684,17.2262148 10.2767711,18.3425227 C12.1055766,17.1362768 13.4229482,14.0712893 14.2288861,9.14756029 C11.7753028,6.44903828 10.1132009,5.09977728 9.2425806,5.09977728 C8.37196027,5.09977728 7.4125885,6.77091477 6.3644653,10.1131897 Z" id="Path-60-Copy" fill="#B8E04D" transform="translate(10.296676, 11.721150) rotate(48.000000) translate(-10.296676, -11.721150) "></path>
                                    <path d="M14.2045647,15.2884943 C14.7580693,20.4155908 16.1482875,23.5989761 18.4491669,24.8063282 C18.5988058,24.884849 18.7792972,24.8758311 18.9203642,24.782786 C20.8795351,23.4905535 22.2338012,20.6419247 23.033737,16.2491698 C23.0564477,16.1244569 23.0271592,15.9958817 22.9526746,15.8933092 C20.4114558,12.3938043 18.7288999,10.6884868 17.6306298,10.6884868 C16.481106,10.6884868 15.4166323,12.155625 14.2359652,15.0641096 C14.2071223,15.1351619 14.196334,15.2122539 14.2045647,15.2884943 Z M14.6660037,15.2386789 C15.7718007,12.5146309 16.7600094,11.1526069 17.6306298,11.1526069 C18.5012501,11.1526069 20.1500822,12.8237444 22.5771261,16.1660194 C21.7977277,20.4459954 20.4936258,23.1891064 18.6648203,24.3953523 C16.537446,23.2790445 15.2045071,20.22682 14.6660037,15.2386789 Z" id="Path-60" fill="#000000" transform="translate(18.621566, 17.773980) rotate(24.000000) translate(-18.621566, -17.773980) "></path>
                                    <path d="M5.90312882,10.1639525 C6.39911013,14.6715697 7.76753257,17.5499755 10.0611171,18.7534997 C10.210756,18.8320205 10.3912474,18.8230027 10.5323145,18.7299575 C12.4999132,17.4321661 13.8617426,14.2637437 14.6869103,9.22253302 C14.7097928,9.08273668 14.6675791,8.940144 14.5722824,8.8353339 C12.0137961,6.02143657 10.3067101,4.63565831 9.24257998,4.63565831 C8.05635651,4.63565831 7.04132098,6.40375696 5.92160965,9.97431347 C5.90240046,10.0355681 5.89610759,10.1001417 5.90312882,10.1639525 Z M6.36446467,10.1131909 C7.41258788,6.77091595 8.37195965,5.09977846 9.24257998,5.09977846 C10.1132003,5.09977846 11.7753021,6.44903946 14.2288854,9.14756147 C13.4229476,14.0712905 12.105576,17.1362779 10.2767705,18.3425239 C8.14939622,17.226216 6.84529427,14.483105 6.36446467,10.1131909 Z" id="Path-60-Copy" fill="#000000" transform="translate(10.296677, 11.721152) rotate(48.000000) translate(-10.296677, -11.721152) "></path>
                                    <path d="M22.5960718,7.78890606 C24.5265715,5.91009697 24.4882932,3.40094716 22.5460895,0.377252495 C22.430648,0.197528984 22.1913695,0.145418074 22.011646,0.260859519 C21.8319225,0.376300964 21.7798116,0.615579437 21.8952531,0.795302948 C23.6569278,3.53794328 23.6890835,5.64576503 22.0565728,7.2345641 C21.9034955,7.38354265 21.9001728,7.62840729 22.0491513,7.7814846 C22.1981299,7.9345619 22.4429945,7.9378846 22.5960718,7.78890606 Z" id="Path-59" fill="#000000" transform="translate(22.928695, 4.048983) rotate(36.000000) translate(-22.928695, -4.048983) "></path>
                                    <path d="M17.7767173,5.85366844 C17.756931,5.8585295 17.7361754,5.86111646 17.7147819,5.86111646 C15.8114463,5.86111646 13.9797047,6.13928682 12.2584844,7.01838701 C9.70458955,8.32276937 8.28753973,10.6619421 8.43926406,14.3247492 C10.7742173,13.8774763 12.6678423,12.5393484 14.1297647,10.2970151 C14.2441156,10.1216208 14.5255358,10.1635797 14.5772282,10.3637306 C15.0553287,12.2149176 16.1188939,13.5452347 17.7767173,14.3702279 C19.4345408,13.5452347 20.498106,12.2149176 20.9762065,10.3637306 C21.0278989,10.1635797 21.3093191,10.1216208 21.42367,10.2970151 C22.8855923,12.5393484 24.7792174,13.8774763 27.1141706,14.3247492 C27.265895,10.6619421 25.8488451,8.32276937 23.2949503,7.01838701 C21.57373,6.13928682 19.7419884,5.86111646 17.8386528,5.86111646 C17.8172593,5.86111646 17.7965037,5.8585295 17.7767173,5.85366844 L17.7767173,5.85366844 Z M17.7767173,5.40444433 C17.7965037,5.39958327 17.8172593,5.39699631 17.8386528,5.39699631 C19.8165651,5.39699631 21.7188598,5.68588094 23.5283311,6.61005463 C26.3108055,8.03118229 27.8336677,10.6208104 27.5908539,14.6147162 C27.5824627,14.752739 27.4490695,14.8532548 27.3048657,14.8302167 C24.8591023,14.4394807 22.856135,13.1516461 21.3048782,10.9790768 C20.7302349,12.7180269 19.6100519,13.9982801 17.9512424,14.8076149 C17.8952308,14.834943 17.8332543,14.8399099 17.7767173,14.8259563 C17.7201803,14.8399099 17.6582038,14.834943 17.6021923,14.8076149 C15.9433828,13.9982801 14.8231998,12.7180269 14.2485565,10.9790768 C12.6972996,13.1516461 10.6943324,14.4394807 8.24856896,14.8302167 C8.10436524,14.8532548 7.97097199,14.752739 7.96258074,14.6147162 C7.71976702,10.6208104 9.24262916,8.03118229 12.0251036,6.61005463 C13.8345749,5.68588094 15.7368695,5.39699631 17.7147819,5.39699631 C17.7361754,5.39699631 17.756931,5.39958327 17.7767173,5.40444433 Z" id="Shape" fill="#000000" transform="translate(17.776717, 10.115254) rotate(36.000000) translate(-17.776717, -10.115254) "></path>
                                    <path d="M17.7786605,5.85429982 C17.7588504,5.85916087 17.7380698,5.86174783 17.7166505,5.86174783 C15.8110248,5.86174783 13.9770793,6.13991819 12.253788,7.01901839 C9.69682026,8.32340075 8.27806544,10.6625735 8.42997232,14.3253805 C10.767735,13.8781077 12.6636385,12.5399797 14.1273198,10.2976465 C14.2418083,10.1222522 14.5235672,10.1642111 14.5753217,10.364362 C15.0539975,12.2155489 16.1188423,13.5458661 17.7786605,14.3708593 C19.4384787,13.5458661 20.5033235,12.2155489 20.9819993,10.364362 C21.0337539,10.1642111 21.3155127,10.1222522 21.4300012,10.2976465 C22.8936826,12.5399797 24.789586,13.8781077 27.1273487,14.3253805 C27.2792556,10.6625735 25.8605008,8.32340075 23.3035331,7.01901839 C21.5802417,6.13991819 19.7462962,5.86174783 17.8406705,5.86174783 C17.8192512,5.86174783 17.7984707,5.85916087 17.7786605,5.85429982 L17.7786605,5.85429982 Z" id="Path" fill="#119B42" transform="translate(17.778661, 10.112580) rotate(36.000000) translate(-17.778661, -10.112580) "></path>
                                </g>
                            </g>
                        </g>
                        <g id="Group-3" transform="translate(0.000000, 184.615385)">
                            <g id="Group-5-Copy-2" transform="translate(48.076923, 54.807692)">
                                <path d="M35.5370207,48.1080904 C37.3347736,60.4417089 42.2106236,68.1838484 50.1645707,71.3345088 C57.0022118,67.9300078 61.8780618,60.1878683 64.7921206,48.1080904 C55.7177518,38.6748741 49.5530052,33.958266 46.2978808,33.958266 C43.0427563,33.958266 39.455803,38.6748741 35.5370207,48.1080904 Z" id="Path-60-Copy-4" fill="#7C9833" transform="translate(50.164571, 52.646387) scale(-1, 1) rotate(41.000000) translate(-50.164571, -52.646387) "></path>
                                <path d="M34.2407683,48.2970372 C36.1001817,61.0536823 41.2344425,69.2061405 49.6821387,72.5523813 C50.0278709,72.6893302 50.4155164,72.6728803 50.7484036,72.5071339 C57.9893889,68.9018054 63.0692725,60.8356902 66.0655021,48.4152862 C66.1703832,47.9805176 66.0461993,47.5222855 65.7361428,47.1999677 C56.3751401,37.4687825 50.0746836,32.6483437 46.2978606,32.6483437 C42.2760126,32.6483437 38.4519973,37.6766726 34.3273015,47.6055601 C34.2365517,47.8240113 34.2066491,48.0629596 34.2407683,48.2970372 Z M35.5370006,48.1080979 C39.4557828,38.6748816 43.0427362,33.9582735 46.2978606,33.9582735 C49.5529851,33.9582735 55.7177317,38.6748816 64.7921005,48.1080979 C61.8780417,60.1878758 57.0021917,67.9300153 50.1645506,71.3345164 C42.2106035,68.1838559 37.3347535,60.4417164 35.5370006,48.1080979 Z" id="Path-60-Copy-4" fill="#000000" transform="translate(50.164562, 52.646395) scale(-1, 1) rotate(41.000000) translate(-50.164562, -52.646395) "></path>
                                <path d="M44.2984702,35.2760419 C45.4969938,46.1685602 48.8131727,53.1439709 54.3958061,56.0733744 C54.8181461,56.294991 55.3275639,56.2695392 55.7257107,56.006929 C60.5132994,52.8491249 63.8053137,45.1899479 65.7968031,33.0233096 C65.8613865,32.6287492 65.7422428,32.2262965 65.4732779,31.9304812 C59.2795763,25.1184687 55.1574558,21.7722137 52.518604,21.7722137 C49.5351568,21.7722137 47.0720309,26.0627526 44.3506304,34.7408057 C44.2964145,34.9136904 44.2786536,35.0959425 44.2984702,35.2760419 Z M45.6005417,35.1327726 C48.1198923,27.0990199 50.4259131,23.0821435 52.518604,23.0821435 C54.6112949,23.0821435 58.6064524,26.3253325 64.5040765,32.8117103 C62.5668616,44.6467692 59.4003244,52.014012 55.004465,54.9134388 C49.8909423,52.2301942 46.7563012,45.6366388 45.6005417,35.1327726 Z" id="Path-60-Copy-3" fill="#000000" transform="translate(55.052315, 38.997792) scale(-1, 1) rotate(52.000000) translate(-55.052315, -38.997792) "></path>
                                <path d="M45.6005515,35.1327689 C46.7563111,45.6366351 49.8909522,52.2301905 55.0044748,54.9134351 C59.4003342,52.0140083 62.5668714,44.6467655 64.5040864,32.8117067 C58.6064623,26.3253288 54.6113048,23.0821398 52.5186139,23.0821398 C50.425923,23.0821398 48.1199022,27.0990162 45.6005515,35.1327689 Z" id="Path-60-Copy-3" fill="#A1C244" transform="translate(55.052319, 38.997787) scale(-1, 1) rotate(52.000000) translate(-55.052319, -38.997787) "></path>
                                <path d="M27.4009316,51.4278293 C28.5994552,62.3203476 31.915634,69.2957583 37.4982674,72.2251618 C37.9206074,72.4467784 38.4300252,72.4213266 38.828172,72.1587164 C43.6157608,69.0009123 46.9077751,61.3417353 48.8992644,49.175097 C48.9638478,48.7805367 48.8447042,48.378084 48.5757393,48.0822686 C42.3820377,41.2702561 38.2599171,37.9240011 35.6210653,37.9240011 C32.6376181,37.9240011 30.1744923,42.21454 27.4530918,50.8925931 C27.3988758,51.0654778 27.3811149,51.2477299 27.4009316,51.4278293 Z M28.703003,51.28456 C31.2223537,43.2508073 33.5283744,39.2339309 35.6210653,39.2339309 C37.7137563,39.2339309 41.7089138,42.4771199 47.6065379,48.9634978 C45.6693229,60.7985566 42.5027857,68.1657994 38.1069263,71.0652262 C32.9934036,68.3819816 29.8587625,61.7884262 28.703003,51.28456 Z" id="Path-60-Copy-3" fill="#000000" transform="translate(38.154776, 55.149580) rotate(-27.000000) translate(-38.154776, -55.149580) "></path>
                                <path d="M28.703005,51.2845565 C29.8587645,61.7884227 32.9934056,68.3819781 38.1069283,71.0652227 C42.5027877,68.1657959 45.6693248,60.7985531 47.6065398,48.9634943 C41.7089157,42.4771164 37.7137582,39.2339274 35.6210673,39.2339274 C33.5283764,39.2339274 31.2223556,43.2508038 28.703005,51.2845565 Z" id="Path-60-Copy-3" fill="#A1C244" transform="translate(38.154772, 55.149575) rotate(-27.000000) translate(-38.154772, -55.149575) "></path>
                                <path d="M26.1456942,33.1799796 C27.5027847,45.5135982 31.183474,53.2557377 37.187762,56.4063981 C42.3493713,53.001897 46.0300605,45.2597576 48.2298298,33.1799796 C41.3797561,23.7467634 36.7261025,19.0301553 34.2688691,19.0301553 C31.8116356,19.0301553 29.1039107,23.7467634 26.1456942,33.1799796 Z" id="Path-60-Copy-2" fill="#99B718" transform="translate(37.187762, 37.718277) scale(-1, 1) rotate(41.000000) translate(-37.187762, -37.718277) "></path>
                                <path d="M24.8436177,33.3232508 C26.2434723,46.0455215 30.1056994,54.1695163 36.5790981,57.5663356 C37.0014381,57.7879522 37.5108559,57.7625004 37.9090027,57.4998902 C43.4385543,53.8527012 47.2608267,45.812749 49.5185606,33.4146647 C49.582659,33.0626758 49.4999954,32.6997859 49.2897705,32.4102858 C42.1174503,22.5333049 37.3686148,17.7202273 34.2688641,17.7202273 C30.9208743,17.7202273 28.0560442,22.710498 24.8957779,32.7880146 C24.841562,32.9608994 24.8238011,33.1431514 24.8436177,33.3232508 Z M26.1456892,33.1799815 C29.1039057,23.7467652 31.8116306,19.0301571 34.2688641,19.0301571 C36.7260975,19.0301571 41.3797511,23.7467652 48.2298248,33.1799815 C46.0300555,45.2597594 42.3493663,53.0018989 37.187757,56.4064 C31.183469,53.2557396 27.5027797,45.5136001 26.1456892,33.1799815 Z" id="Path-60-Copy-2" fill="#000000" transform="translate(37.187760, 37.718280) scale(-1, 1) rotate(41.000000) translate(-37.187760, -37.718280) "></path>
                                <path d="M13.7381447,37.3382929 C15.2580135,51.4167915 19.020092,60.031371 25.02438,63.1820315 C30.1859893,59.7775304 33.8666785,52.0353909 36.0664478,39.955613 C29.2163741,30.5223967 24.5627205,25.8057886 22.1054871,25.8057886 C19.6482536,25.8057886 16.8591395,29.6499567 13.7381447,37.3382929 Z" id="Path-60" fill="#B8E04D" transform="translate(24.902296, 44.493910) scale(-1, 1) rotate(29.000000) translate(-24.902296, -44.493910) "></path>
                                <path d="M35.7218349,20.8893318 C37.0789254,33.2229504 40.7596147,40.9650899 46.7639027,44.1157503 C51.925512,40.7112492 55.6436536,32.0606475 57.9183275,18.1639452 C50.9933491,10.5476533 46.3022432,6.73950742 43.8450098,6.73950742 C41.3877763,6.73950742 38.6800514,11.4561155 35.7218349,20.8893318 Z" id="Path-60-Copy" fill="#B8E04D" transform="translate(46.820081, 25.427629) scale(-1, 1) rotate(53.000000) translate(-46.820081, -25.427629) "></path>
                                <path d="M12.4357774,37.4788935 C13.9979854,51.9495789 17.9217286,60.9343458 24.4157163,64.3419688 C24.8380563,64.5635854 25.3474741,64.5381336 25.7456209,64.2755234 C31.2751725,60.6283345 35.0974449,52.5883823 37.3551788,40.190298 C37.4192772,39.8383091 37.3366136,39.4754192 37.1263887,39.1859191 C29.9540685,29.3089382 25.205233,24.4958605 22.1054823,24.4958605 C18.8610735,24.4958605 15.8567094,28.6367024 12.5244021,36.8455912 C12.442996,37.046129 12.4125472,37.2637129 12.4357774,37.4788935 Z M13.7381399,37.3382946 C16.8591347,29.6499585 19.6482488,25.8057904 22.1054823,25.8057904 C24.5627157,25.8057904 29.2163693,30.5223985 36.066443,39.9556148 C33.8666738,52.0353927 30.1859845,59.7775322 25.0243752,63.1820332 C19.0200872,60.0313728 15.2580087,51.4167933 13.7381399,37.3382946 Z" id="Path-60" fill="#000000" transform="translate(24.902295, 44.493913) scale(-1, 1) rotate(29.000000) translate(-24.902295, -44.493913) "></path>
                                <path d="M34.4197536,21.0326048 C35.8196082,33.7548755 39.6818352,41.8788703 46.155234,45.2756896 C46.577574,45.4973062 47.0869918,45.4718544 47.4851386,45.2092442 C53.0384772,41.5463657 56.8820959,32.6038299 59.2110442,18.3755481 C59.2756276,17.9809878 59.156484,17.5785351 58.8875191,17.2827197 C51.6664632,9.34079327 46.8483942,5.42958126 43.8449999,5.42958126 C40.4970101,5.42958126 37.6321801,10.419852 34.4719138,20.4973686 C34.4176979,20.6702533 34.3999369,20.8525054 34.4197536,21.0326048 Z M35.7218251,20.8893355 C38.6800415,11.4561192 41.3877665,6.73951111 43.8449999,6.73951111 C46.3022334,6.73951111 50.9933393,10.547657 57.9183177,18.1639489 C55.6436437,32.0606512 51.9255021,40.7112529 46.7638929,44.115754 C40.7596048,40.9650935 37.0789156,33.222954 35.7218251,20.8893355 Z" id="Path-60-Copy" fill="#000000" transform="translate(46.820077, 25.427634) scale(-1, 1) rotate(53.000000) translate(-46.820077, -25.427634) "></path>
                                <path d="M30.2014554,16.4937626 C30.1456105,16.5074824 30.08703,16.5147838 30.0266491,16.5147838 C24.6546865,16.5147838 19.4847904,17.2998901 14.6268288,19.7810571 C7.41873177,23.4625378 3.41925913,30.0646045 3.84748492,40.4024885 C10.4376425,39.1401083 15.7821982,35.3633843 19.9083187,29.0346368 C20.231062,28.539605 21.0253408,28.6580295 21.171237,29.2229341 C22.520625,34.4477128 25.5224247,38.2023917 30.2014554,40.5308474 C34.8804861,38.2023917 37.8822858,34.4477128 39.2316738,29.2229341 C39.37757,28.6580295 40.1718488,28.539605 40.4945921,29.0346368 C44.6207126,35.3633843 49.9652683,39.1401083 56.5554259,40.4024885 C56.9836517,30.0646045 52.984179,23.4625378 45.776082,19.7810571 C40.9181204,17.2998901 35.7482243,16.5147838 30.3762617,16.5147838 C30.3158808,16.5147838 30.2573003,16.5074824 30.2014554,16.4937626 L30.2014554,16.4937626 Z M30.2014554,15.2258752 C30.2573003,15.2121554 30.3158808,15.204854 30.3762617,15.204854 C35.9587092,15.204854 41.3277339,16.0202002 46.4347744,18.6285823 C54.2880132,22.6395642 58.5861299,29.9485145 57.9008139,41.2208896 C57.8771305,41.6104444 57.5006422,41.8941394 57.0936425,41.829117 C50.1907349,40.7263061 44.5375726,37.0915297 40.1593149,30.9596834 C38.5374451,35.8676854 35.3758475,39.4810641 30.6940339,41.7653258 C30.5359472,41.8424564 30.3610251,41.856475 30.2014554,41.8170925 C30.0418857,41.856475 29.8669636,41.8424564 29.7088769,41.7653258 C25.0270633,39.4810641 21.8654657,35.8676854 20.2435959,30.9596834 C15.8653382,37.0915297 10.2121759,40.7263061 3.30926827,41.829117 C2.90226857,41.8941394 2.52578028,41.6104444 2.50209688,41.2208896 C1.81678092,29.9485145 6.11489762,22.6395642 13.9681364,18.6285823 C19.0751769,16.0202002 24.4442016,15.204854 30.0266491,15.204854 C30.08703,15.204854 30.1456105,15.2121554 30.2014554,15.2258752 Z" id="Shape" fill="#000000" transform="translate(30.201455, 28.521636) scale(-1, 1) rotate(41.000000) translate(-30.201455, -28.521636) "></path>
                                <path d="M30.195334,16.4960513 C30.1394219,16.5097711 30.0807709,16.5170725 30.0203174,16.5170725 C24.6418912,16.5170725 19.4657746,17.3021788 14.6019678,19.7833458 C7.38519797,23.4648265 3.38091313,30.0668932 3.80965417,40.4047772 C10.4077411,39.142397 15.7587274,35.365673 19.8898125,29.0369255 C20.2129441,28.5418937 21.0081786,28.6603182 21.1542504,29.2252228 C22.5052619,34.4500016 25.5106734,38.2046804 30.195334,40.5331361 C34.8799945,38.2046804 37.885406,34.4500016 39.2364176,29.2252228 C39.3824894,28.6603182 40.1777238,28.5418937 40.5008555,29.0369255 C44.6319406,35.365673 49.9829269,39.142397 56.5810138,40.4047772 C57.0097548,30.0668932 53.00547,23.4648265 45.7887001,19.7833458 C40.9248933,17.3021788 35.7487768,16.5170725 30.3703506,16.5170725 C30.309897,16.5170725 30.251246,16.5097711 30.195334,16.4960513 L30.195334,16.4960513 Z" id="Path" fill="#119B42" transform="translate(30.195334, 28.514594) scale(-1, 1) rotate(41.000000) translate(-30.195334, -28.514594) "></path>
                            </g>
                            <g id="Group-5-Copy-3">
                                <path d="M15.634774,76.4163881 C18.0317778,92.8612128 24.5329111,103.184066 35.1381739,107.384946 C44.2550288,102.845611 50.7561621,92.5227587 54.6415739,76.4163881 C42.5424155,63.8387664 34.3227533,57.5499556 29.9825874,57.5499556 C25.6424214,57.5499556 20.859817,63.8387664 15.634774,76.4163881 Z" id="Path-60-Copy-4" fill="#7C9833" transform="translate(35.138174, 82.467451) rotate(36.000000) translate(-35.138174, -82.467451) "></path>
                                <path d="M13.9064611,76.6683162 C16.3856789,93.6771763 23.23136,104.547121 34.4949549,109.008775 C34.9559312,109.191374 35.4727919,109.16944 35.9166415,108.948445 C45.5712885,104.141341 52.3444667,93.3865202 56.3394394,76.8259816 C56.479281,76.2462901 56.3137024,75.6353139 55.9002938,75.2055569 C43.4189568,62.2306433 35.0183481,55.8033915 29.9825842,55.8033915 C24.6201201,55.8033915 19.5214331,62.5078301 14.0218387,75.7463467 C13.9008389,76.037615 13.8609688,76.3562127 13.9064611,76.6683162 Z M15.6347708,76.4163971 C20.8598138,63.8387754 25.6424182,57.5499646 29.9825842,57.5499646 C34.3227501,57.5499646 42.5424123,63.8387754 54.6415707,76.4163971 C50.756159,92.5227677 44.2550257,102.84562 35.1381708,107.384955 C24.532908,103.184074 18.0317746,92.8612218 15.6347708,76.4163971 Z" id="Path-60-Copy-4" fill="#000000" transform="translate(35.138186, 82.467460) rotate(36.000000) translate(-35.138186, -82.467460) "></path>
                                <path d="M12.7214493,59.9442328 C14.3194808,74.4675906 18.7410526,83.7681382 26.1845638,87.6740095 C26.7476838,87.9694983 27.4269076,87.9355626 27.95777,87.5854156 C34.3412216,83.3750102 38.730574,73.1627742 41.3858932,56.9405897 C41.4720044,56.4145093 41.3131461,55.8779057 40.9545263,55.4834852 C32.6962575,46.4008019 27.2000967,41.9391286 23.6816277,41.9391286 C19.7036981,41.9391286 16.4195303,47.6598472 12.7909963,59.2305846 C12.7187084,59.4610975 12.6950271,59.7041003 12.7214493,59.9442328 Z M14.4575446,59.7532071 C17.8166788,49.0415368 20.8913732,43.6857017 23.6816277,43.6857017 C26.4718823,43.6857017 31.7987589,48.0099536 39.6622578,56.6584574 C37.0793045,72.4385359 32.8572549,82.2615264 26.996109,86.1274287 C20.1780788,82.5497692 15.9985573,73.758362 14.4575446,59.7532071 Z" id="Path-60-Copy-3" fill="#000000" transform="translate(27.059909, 64.906567) rotate(47.000000) translate(-27.059909, -64.906567) "></path>
                                <path d="M14.457547,59.7532026 C15.9985596,73.7583576 20.1780811,82.5497648 26.9961113,86.1274243 C32.8572572,82.2615219 37.0793068,72.4385315 39.6622601,56.658453 C31.7987613,48.0099492 26.4718846,43.6856972 23.6816301,43.6856972 C20.8913755,43.6856972 17.8166812,49.0415324 14.457547,59.7532026 Z" id="Path-60-Copy-3" fill="#A1C244" transform="translate(27.059904, 64.906561) rotate(47.000000) translate(-27.059904, -64.906561) "></path>
                                <path d="M39.7152045,78.3653857 C41.313236,92.8887435 45.7348078,102.189291 53.178319,106.095162 C53.741439,106.390651 54.4206628,106.356715 54.9515251,106.006569 C61.3349768,101.796163 65.7243292,91.5839271 68.3796484,75.3617426 C68.4657596,74.8356622 68.3069013,74.2990586 67.9482815,73.9046381 C59.6900127,64.8219548 54.1938519,60.3602815 50.6753829,60.3602815 C46.6974532,60.3602815 43.4132855,66.0810001 39.7847514,77.6517375 C39.7124636,77.8822505 39.6887823,78.1252532 39.7152045,78.3653857 Z M41.4512998,78.17436 C44.810434,67.4626897 47.8851284,62.1068546 50.6753829,62.1068546 C53.4656374,62.1068546 58.7925141,66.4311065 66.656013,75.0796103 C64.0730597,90.8596888 59.8510101,100.682679 53.9898642,104.548582 C47.171834,100.970922 42.9923125,92.1795149 41.4512998,78.17436 Z" id="Path-60-Copy-3" fill="#000000" transform="translate(54.053664, 83.327719) scale(-1, 1) rotate(-20.000000) translate(-54.053664, -83.327719) "></path>
                                <path d="M41.4513112,78.174354 C42.9923239,92.1795089 47.1718454,100.970916 53.9898756,104.548576 C59.8510215,100.682673 64.0730711,90.8596829 66.6560244,75.0796044 C58.7925255,66.4311005 53.4656489,62.1068486 50.6753943,62.1068486 C47.8851398,62.1068486 44.8104454,67.4626837 41.4513112,78.174354 Z" id="Path-60-Copy-3" fill="#A1C244" transform="translate(54.053668, 83.327712) scale(-1, 1) rotate(-20.000000) translate(-54.053668, -83.327712) "></path>
                                <path d="M35.9172268,55.0799772 C37.7266807,71.524802 42.6342664,81.8476546 50.6399838,86.0485352 C57.5221295,81.5092004 62.4297152,71.1863478 65.3627409,55.0799772 C56.2293093,42.5023556 50.0244378,36.2135447 46.7481266,36.2135447 C43.4718153,36.2135447 39.8615154,42.5023556 35.9172268,55.0799772 Z" id="Path-60-Copy-2" fill="#99B718" transform="translate(50.639984, 61.131040) rotate(36.000000) translate(-50.639984, -61.131040) "></path>
                                <path d="M34.1811298,55.2710052 C36.0476026,72.2340329 41.1972387,83.0660259 49.828437,87.5951183 C50.391557,87.8906071 51.0707808,87.8566713 51.6016431,87.5065244 C58.9743786,82.6436058 64.0707417,71.9236695 67.0810537,55.3928905 C67.1665182,54.9235719 67.0563,54.4397187 66.7760001,54.0537186 C57.2129065,40.8844107 50.8811259,34.4669739 46.7481249,34.4669739 C42.2841385,34.4669739 38.4643652,41.1206682 34.2506768,54.557357 C34.1783889,54.78787 34.1547076,55.0308727 34.1811298,55.2710052 Z M35.9172251,55.0799795 C39.8615137,42.5023578 43.4718137,36.213547 46.7481249,36.213547 C50.0244362,36.213547 56.2293076,42.5023578 65.3627393,55.0799795 C62.4297136,71.1863501 57.5221279,81.5092027 50.6399822,86.0485375 C42.6342648,81.8476569 37.7266791,71.5248042 35.9172251,55.0799795 Z" id="Path-60-Copy-2" fill="#000000" transform="translate(50.639987, 61.131044) rotate(36.000000) translate(-50.639987, -61.131044) "></path>
                                <path d="M55.1909858,56.3845302 C57.2174776,75.1558618 62.2335822,86.6419678 70.2392995,90.8428484 C77.1214452,86.3035136 82.0290309,75.980661 84.9620566,59.8742904 C75.828625,47.2966687 69.6237536,41.0078579 66.3474423,41.0078579 C63.071131,41.0078579 59.3523122,46.1334153 55.1909858,56.3845302 Z" id="Path-60" fill="#B8E04D" transform="translate(70.076521, 65.925353) rotate(24.000000) translate(-70.076521, -65.925353) "></path>
                                <path d="M23.9507034,37.0963339 C25.7601574,53.5411586 30.6677431,63.8640113 38.6734604,68.0648919 C45.5556061,63.5255571 50.5131283,51.9914215 53.5460268,33.4624851 C44.3127223,23.3074293 38.0579145,18.2299014 34.7816032,18.2299014 C31.5052919,18.2299014 27.894992,24.5187122 23.9507034,37.0963339 Z" id="Path-60-Copy" fill="#B8E04D" transform="translate(38.748365, 43.147397) rotate(48.000000) translate(-38.748365, -43.147397) "></path>
                                <path d="M53.4545008,56.5719975 C55.5374449,75.8662448 60.7691024,87.845934 69.4277528,92.3894314 C69.9908728,92.6849201 70.6700965,92.6509844 71.2009589,92.3008375 C78.5736943,87.4379189 83.6700575,76.7179826 86.6803694,60.1872036 C86.765834,59.717885 86.6556157,59.2340318 86.3753159,58.8480317 C76.8122223,45.6787238 70.4804417,39.261287 66.3474407,39.261287 C62.0215623,39.261287 58.0157436,44.7824094 53.5726671,55.7275945 C53.4641256,55.9949782 53.4235272,56.28509 53.4545008,56.5719975 Z M55.1909842,56.3845324 C59.3523106,46.1334175 63.0711294,41.0078601 66.3474407,41.0078601 C69.623752,41.0078601 75.8286234,47.2966709 84.962055,59.8742926 C82.0290293,75.9806631 77.1214436,86.3035158 70.2392979,90.8428506 C62.2335806,86.64197 57.217476,75.1558639 55.1909842,56.3845324 Z" id="Path-60" fill="#000000" transform="translate(70.076524, 65.925357) rotate(24.000000) translate(-70.076524, -65.925357) "></path>
                                <path d="M22.2146057,37.287364 C24.0810785,54.2503917 29.2307146,65.0823847 37.8619129,69.6114771 C38.4250329,69.9069659 39.1042567,69.8730302 39.6351191,69.5228832 C47.0395705,64.6390453 52.1643955,52.7156642 55.2696599,33.7446218 C55.3557711,33.2185414 55.1969129,32.6819378 54.838293,32.2875173 C45.2102186,21.698282 38.7861266,16.4833327 34.7816009,16.4833327 C30.3176145,16.4833327 26.4978411,23.137027 22.2841527,36.5737158 C22.2118648,36.8042288 22.1881835,37.0472315 22.2146057,37.287364 Z M23.950701,37.0963383 C27.8949896,24.5187167 31.5052896,18.2299058 34.7816009,18.2299058 C38.0579121,18.2299058 44.31272,23.3074337 53.5460245,33.4624895 C50.5131259,51.9914259 45.5556038,63.5255615 38.6734581,68.0648963 C30.6677407,63.8640157 25.760155,53.5411631 23.950701,37.0963383 Z" id="Path-60-Copy" fill="#000000" transform="translate(38.748371, 43.147402) rotate(48.000000) translate(-38.748371, -43.147402) "></path>
                                <path d="M85.0333513,28.3496087 C92.2981917,21.2792898 92.1541434,11.8368779 84.8452581,0.458135019 C84.4108298,-0.218199015 83.5103791,-0.414302363 82.834045,0.0201259322 C82.157711,0.454554227 81.9616076,1.35500501 82.3960359,2.03133904 C89.0255557,12.3524205 89.1465641,20.284558 83.003113,26.2635136 C82.4270537,26.8241484 82.4145498,27.745621 82.9751846,28.3216803 C83.5358194,28.8977395 84.457292,28.9102435 85.0333513,28.3496087 Z" id="Path-59" fill="#000000" transform="translate(86.285077, 14.275561) rotate(36.000000) translate(-86.285077, -14.275561) "></path>
                                <path d="M66.8971963,21.0669384 C66.8227365,21.0852315 66.7446291,21.0949667 66.6641213,21.0949667 C59.5015045,21.0949667 52.6083097,22.1417751 46.1310275,25.4499977 C36.5202314,30.3586387 31.1876013,39.1613942 31.758569,52.9452396 C40.5454457,51.262066 47.67152,46.226434 53.173014,37.788104 C53.6033385,37.1280616 54.6623768,37.285961 54.8569051,38.0391671 C56.6560891,45.0055387 60.6584887,50.0117772 66.8971963,53.1163848 C73.1359039,50.0117772 77.1383035,45.0055387 78.9374875,38.0391671 C79.1320158,37.285961 80.1910541,37.1280616 80.6213786,37.788104 C86.1228726,46.226434 93.2489469,51.262066 102.035824,52.9452396 C102.606791,39.1613942 97.2741611,30.3586387 87.6633651,25.4499977 C81.1860829,22.1417751 74.2928881,21.0949667 67.1302713,21.0949667 C67.0497634,21.0949667 66.9716561,21.0852315 66.8971963,21.0669384 L66.8971963,21.0669384 Z M66.8971963,19.3764219 C66.9716561,19.3581288 67.0497634,19.3483936 67.1302713,19.3483936 C74.5735347,19.3483936 81.7322342,20.4355218 88.5416217,23.9133647 C99.0126067,29.2613406 104.743429,39.0066076 103.829674,54.036441 C103.798096,54.5558475 103.296112,54.9341075 102.753446,54.847411 C93.549569,53.3769964 86.0120192,48.5306278 80.1743423,40.3548328 C78.0118492,46.8988354 73.7963857,51.7166738 67.5539676,54.762356 C67.3431853,54.8651969 67.1099559,54.8838883 66.8971963,54.8313782 C66.6844367,54.8838883 66.4512072,54.8651969 66.240425,54.762356 C59.9980068,51.7166738 55.7825433,46.8988354 53.6200503,40.3548328 C47.7823734,48.5306278 40.2448236,53.3769964 31.0409468,54.847411 C30.4982805,54.9341075 29.9962961,54.5558475 29.9647183,54.036441 C29.0509637,39.0066076 34.7817859,29.2613406 45.2527709,23.9133647 C52.0621583,20.4355218 59.2208578,19.3483936 66.6641213,19.3483936 C66.7446291,19.3483936 66.8227365,19.3581288 66.8971963,19.3764219 Z" id="Shape" fill="#000000" transform="translate(66.897196, 37.104102) rotate(36.000000) translate(-66.897196, -37.104102) "></path>
                                <path d="M66.9045088,21.0693144 C66.8299594,21.0876075 66.7517581,21.0973427 66.6711534,21.0973427 C59.4999184,21.0973427 52.5984297,22.1441511 46.113354,25.4523737 C36.4909941,30.3610147 31.1519477,39.1637702 31.7236024,52.9476155 C40.5210516,51.264442 47.6557,46.22881 53.1638135,37.79048 C53.5946557,37.1304376 54.6549683,37.288337 54.8497306,38.0415431 C56.6510794,45.0079147 60.6582947,50.0141532 66.9045088,53.1187608 C73.1507229,50.0141532 77.1579382,45.0079147 78.959287,38.0415431 C79.1540493,37.288337 80.2143619,37.1304376 80.6452041,37.79048 C86.1533176,46.22881 93.287966,51.264442 102.085415,52.9476155 C102.65707,39.1637702 97.3180235,30.3610147 87.6956637,25.4523737 C81.2105879,22.1441511 74.3090992,21.0973427 67.1378642,21.0973427 C67.0572595,21.0973427 66.9790582,21.0876075 66.9045088,21.0693144 L66.9045088,21.0693144 Z" id="Path" fill="#119B42" transform="translate(66.904509, 37.094038) rotate(36.000000) translate(-66.904509, -37.094038) "></path>
                            </g>
                        </g>
                    </g>
                </g>
            </g>
        </g>
    </g>
</svg>