<?xml version="1.0" encoding="UTF-8"?>
<svg width="62px" height="114px" viewBox="0 0 62 114" version="1.1" xmlns="http://www.w3.org/2000/svg" xmlns:xlink="http://www.w3.org/1999/xlink">
    <!-- Generator: Sketch 55.2 (78181) - https://sketchapp.com -->
    <title>Group Copy 2</title>
    <desc>Created with Sketch.</desc>
    <g id="Coffee" stroke="none" stroke-width="1" fill="none" fill-rule="evenodd">
        <g id="Desktop-HD-Copy-42" transform="translate(-171.000000, -92.000000)" fill-rule="nonzero">
            <g id="Group-Copy-2" transform="translate(171.000000, 92.000000)">
                <path d="M4.30182694,90.7912425 C5.55231538,92.4240894 15.1854729,95.8463771 33.3226763,95.2396938 C37.9436378,95.0851243 46.128476,93.719991 57.877191,91.1442942 C59.0413516,94.0324349 59.7769529,96.1036715 60.0839949,97.358004 C60.5239724,99.1554068 61.2752914,100.589796 60.7215554,102.206898 C55.3213746,117.977313 3.97786234,115.137516 0.786206897,103.042234 C0.786206897,100.041435 1.52171683,98.0913353 1.90107541,96.3694593 C2.91493947,91.7676172 4.30182694,90.7912425 4.30182694,90.7912425 Z" id="Path-17" fill="#8B572A"></path>
                <path d="M14.8217798,65.583094 C14.9258315,65.396085 15.1230392,65.2801329 15.3370465,65.2801329 L46.7296796,65.2801329 C46.9529932,65.2801329 47.157146,65.4062854 47.2570443,65.6060084 C57.8400084,86.7641271 62.4940518,98.8507473 61.2794113,102.397922 C58.6973447,109.938458 45.8945884,113.9516 29.9150644,113.663762 C14.6706671,113.389165 1.81492294,109.251796 0.216067295,103.19268 C0.203111189,103.143581 0.196551724,103.093014 0.196551724,103.042234 C0.196551724,98.1050686 2.94249907,90.0502308 7.52584238,80.0770362 C9.12167666,76.6045567 10.8309888,73.1440764 12.5403012,69.8562111 C13.1385938,68.7053943 13.6942274,67.6582132 14.1930048,66.7347919 C14.3677001,66.4113665 14.5228512,66.1264399 14.6566832,65.8825289 C14.7371793,65.7358234 14.7928033,65.6351726 14.8217798,65.583094 Z M15.2306253,67.295253 C14.7347165,68.2133634 14.1819853,69.2550744 13.5866543,70.4001946 C11.8856137,73.6721492 10.1845728,77.1158843 8.59741098,80.569493 C4.11137339,90.3309537 1.40583428,98.2485095 1.37610957,102.964028 C2.87338442,108.249481 15.275101,112.220551 29.9363038,112.484643 C45.4391072,112.763894 57.8112949,108.885718 60.1636995,102.015875 C61.2102783,98.9594992 56.5910139,86.9327916 46.3651966,66.4594432 L15.6853058,66.4594432 C15.5539031,66.6989829 15.4017737,66.9783941 15.2306253,67.295253 Z" id="Path-17" fill="#000000"></path>
                <path d="M39.8728842,37.4272931 C44.4387652,30.8500219 47.5246769,26.0980966 49.1306192,23.1715171 C51.8874684,18.1475891 54.5617406,13.7714353 54.299048,9.42690428 C53.560701,-2.78421865 31.0127205,0.339556983 26.4690469,4.37206734 C21.9253732,8.40457771 15.8482097,10.3924349 5.90892364,10.3924349 C8.63512783,15.8827073 13.0841416,24.8943267 19.255965,37.4272931 L39.8728842,37.4272931 Z" id="Path-20" fill="#BFBFC6"></path>
                <path d="M19.3828002,36.6455542 L40.244092,36.6455542 L42.889184,33.1808863 C36.8559343,33.8795899 32.3476328,34.2289417 29.3642795,34.2289417 C26.3809262,34.2289417 22.4103943,33.8795899 17.4526838,33.1808863 L19.3828002,36.6455542 Z" id="Path-26" fill="#8E8E93"></path>
                <path d="M40.3572668,37.7635471 C44.9341826,31.17038 48.0290487,26.404666 49.6475584,23.4551842 C49.8003618,23.1767239 49.9570396,22.8926508 50.1618479,22.5223721 C50.1704062,22.5068994 50.5598511,21.8032341 50.6711095,21.6018643 C51.0825857,20.857122 51.3764674,20.3195481 51.6580039,19.7937343 C52.3830106,18.4396695 52.9329957,17.3306572 53.3883081,16.2786459 C54.5040777,13.7006309 55.0157314,11.509946 54.8876282,9.39131571 C54.5329471,3.52543574 49.4657597,0.511451474 41.8336307,0.218900869 C35.665699,-0.0175249216 28.5995327,1.69287296 26.0776436,3.93104956 C21.5177454,7.9779592 15.4479522,9.80277976 5.90892364,9.80277976 C5.47129605,9.80277976 5.1861626,10.2627137 5.38079358,10.6546788 C8.10663746,16.1442255 12.5554158,25.155368 18.7269729,37.6877938 C18.8262122,37.8893166 19.0313322,38.0169483 19.255965,38.0169483 L39.8728842,38.0169483 C40.0661114,38.0169483 40.2470779,37.922277 40.3572668,37.7635471 Z M19.6228633,36.837638 C13.8405111,25.095939 9.58521565,16.4754775 6.85684682,10.9759925 C16.1256168,10.8552083 22.2154925,8.93548503 26.8604502,4.81308513 C29.1141006,2.81297037 35.8956481,1.17146577 41.7884592,1.39734579 C48.8908485,1.6695907 53.401494,4.35254148 53.7104678,9.46249285 C53.8257887,11.3697232 53.354452,13.3877876 52.3060155,15.8102277 C51.8656257,16.8277598 51.3292077,17.9094149 50.6183424,19.2370685 C50.339739,19.7574043 50.0480571,20.2909543 49.6388742,21.0315459 C49.5278604,21.2324728 49.1386205,21.9357679 49.1298798,21.9515704 C48.9244873,22.322905 48.7672261,22.6080361 48.61368,22.8878499 C47.0408912,25.7540122 44.0226075,30.4075386 39.5643045,36.837638 L19.6228633,36.837638 Z" id="Path-20" fill="#000000"></path>
                <path d="M16.359373,38.0871482 L45.3252925,38.0871482 C45.5144859,38.0871482 45.6921894,37.9963658 45.803069,37.8430692 C51.469364,30.0091311 55.6754936,22.8339689 58.420638,16.3142508 C58.5731105,15.9521287 58.3354425,15.5449877 57.9451481,15.4997049 C47.620853,14.3018585 14.8628393,14.3018585 3.57489644,15.4990646 C3.27499522,15.5308723 3.04743164,15.7838477 3.04743164,16.085431 C3.04743164,16.8318367 4.12990706,19.4024446 5.88078588,22.6218024 C8.24256893,26.9644358 11.5824683,32.1195371 15.8879005,37.8516213 C15.9992764,37.9999028 16.1739222,38.0871482 16.359373,38.0871482 Z M6.91679103,22.058361 C6.01462075,20.3995318 5.30554643,18.9449344 4.81859192,17.7885394 C4.61929892,17.3152684 4.46543756,16.9063711 4.36460413,16.6049944 C15.8500467,15.5118623 46.2095343,15.5058638 57.0214518,16.5864385 C54.3402503,22.7544943 50.3412479,29.5292518 45.0237376,36.9078379 L16.6542405,36.9078379 C12.4677942,31.3150712 9.21812916,26.2898537 6.91679103,22.058361 Z" id="Path-18" fill="#000000"></path>
                <path d="M42.1235999,31.516856 L45.5185952,26.0196708 C45.8608329,25.4655185 45.6890422,24.7388509 45.13489,24.3966131 C44.5807378,24.0543754 43.8540701,24.226166 43.5118324,24.7803183 L40.1168371,30.2775035 C39.7745993,30.8316557 39.94639,31.5583234 40.5005422,31.9005611 C41.0546945,32.2427989 41.7813621,32.0710082 42.1235999,31.516856 Z" id="Path-21" fill="#FFFFFF"></path>
                <path d="M47.1475823,22.8509143 L48.9256149,19.5481757 C49.2343542,18.974685 49.0197308,18.2594965 48.4462402,17.9507572 C47.8727496,17.642018 47.157561,17.8566414 46.8488218,18.430132 L45.0707892,21.7328706 C44.7620499,22.3063612 44.9766733,23.0215498 45.5501639,23.3302891 C46.1236545,23.6390283 46.8388431,23.4244049 47.1475823,22.8509143 Z" id="Path-22" fill="#FFFFFF"></path>
                <path d="M17.4115113,77.9837046 C19.4263885,77.9837046 21.0597692,76.3503239 21.0597692,74.3354467 C21.0597692,72.3205696 19.4263885,70.6871889 17.4115113,70.6871889 C15.3966342,70.6871889 13.7632535,72.3205696 13.7632535,74.3354467 C13.7632535,76.3503239 15.3966342,77.9837046 17.4115113,77.9837046 Z" id="Oval" fill="#000000"></path>
                <path d="M8.76323548,83.7623252 C10.7781126,83.7623252 12.4114933,82.1289446 12.4114933,80.1140674 C12.4114933,78.0991903 10.7781126,76.4658096 8.76323548,76.4658096 C6.74835832,76.4658096 5.11497766,78.0991903 5.11497766,80.1140674 C5.11497766,82.1289446 6.74835832,83.7623252 8.76323548,83.7623252 Z" id="Oval-Copy" fill="#000000"></path>
                <path d="M17.4952914,51.2989017 C17.4952914,45.5625138 12.7244341,42.4740818 12.7244341,39.4853503 C12.7244341,37.9608401 13.7507773,36.9295338 15.8482097,36.9295338 C18.7448017,36.9295338 37.9418229,36.6455542 45.7796599,36.6455542 C48.0420763,36.6455542 49.1306192,38.5599107 49.1306192,39.4853503 C49.1306192,41.9801889 44.4165578,43.8586361 44.4165578,50.7309425 C44.4165578,57.6032489 49.1306192,60.2726572 49.1306192,62.6012899 C49.1306192,64.1537118 48.2218845,65.2432111 46.404415,65.8697881 L15.3370465,65.8697881 C13.5953049,65.6218506 12.7244341,64.7973989 12.7244341,63.3964328 C12.7244341,61.2949838 17.4952914,57.0352897 17.4952914,51.2989017 Z" id="Path-19" fill="#F9C672"></path>
                <path d="M16.9056363,51.2989017 C16.9056363,48.986501 16.1742802,47.1176417 14.6132804,44.6797157 C14.4118243,44.3650873 13.6878158,43.2662828 13.7403718,43.3466996 C13.3991322,42.8245639 13.1622869,42.4433084 12.9552847,42.0733056 C12.4109655,41.1003708 12.1347789,40.2922949 12.1347789,39.4853503 C12.1347789,37.5424384 13.5260795,36.3398787 15.8482097,36.3398787 C16.5063167,36.3398787 18.002526,36.3256658 20.6380642,36.2955453 C21.8574229,36.2816098 27.4984167,36.2147576 28.9541515,36.1979283 C30.1441324,36.1841713 31.2388027,36.171784 32.2851132,36.1602806 C38.4716863,36.0922642 42.9200094,36.0558991 45.7796599,36.0558991 C48.027543,36.0558991 49.7202744,37.868603 49.7202744,39.4853503 C49.7202744,39.8257601 49.6530113,40.1616175 49.52363,40.502189 C49.3377189,40.9915647 49.0429609,41.4633144 48.5531312,42.1105892 C48.5769296,42.0791412 47.5545052,43.3902033 47.2524802,43.810625 C45.7655867,45.8803953 45.006213,47.9105279 45.006213,50.7309425 C45.006213,53.5631002 45.7775792,55.7501869 47.2683341,58.0491823 C47.5841433,58.5362134 48.6877633,60.0981238 48.8895512,60.4109356 C49.4488448,61.277953 49.7202744,61.9291971 49.7202744,62.6012899 C49.7202744,64.425068 48.6370166,65.7238065 46.5965996,66.4272451 C46.5347671,66.448562 46.4698189,66.4594432 46.404415,66.4594432 L15.3370465,66.4594432 L15.2539466,66.4535583 C13.2427286,66.1672607 12.1347789,65.1183669 12.1347789,63.3964328 C12.1347789,62.7825992 12.4023396,62.1082371 12.9576315,61.1342728 C13.1947056,60.7184523 14.3179575,58.8980711 14.6005311,58.4136592 C16.1265222,55.7976744 16.9056363,53.6396522 16.9056363,51.2989017 Z M48.540964,62.6012899 C48.540964,62.2125161 48.3449689,61.7422629 47.898543,61.050213 C47.7145075,60.7649209 46.6119631,59.2045328 46.278843,58.6908054 C44.67325,56.2147102 43.8269026,53.8150266 43.8269026,50.7309425 C43.8269026,47.6420407 44.6730575,45.3799048 46.2946968,43.122567 C46.6128328,42.6797185 47.6488982,41.3511646 47.6127417,41.3989428 C48.0401576,40.8341435 48.2846074,40.4429102 48.4211915,40.0833787 C48.5018181,39.8711443 48.540964,39.6756814 48.540964,39.4853503 C48.540964,38.5025554 47.3574965,37.2352094 45.7796599,37.2352094 C42.9257287,37.2352094 38.4803823,37.2715502 32.298078,37.3395197 C31.2520071,37.3510204 30.1575553,37.3634052 28.9677843,37.3771598 C27.5123096,37.3939861 21.8712101,37.4608396 20.6515412,37.4747787 C18.0100796,37.5049668 16.5128899,37.519189 15.8482097,37.519189 C14.1423009,37.519189 13.3140893,38.2350472 13.3140893,39.4853503 C13.3140893,40.0537646 13.5297212,40.6846679 13.9844764,41.4975129 C14.1755384,41.8390236 14.3998721,42.2001388 14.7275545,42.7015304 C14.6711312,42.6151963 15.4000781,43.7214956 15.6064452,44.043794 C17.2779059,46.6542346 18.0849466,48.7164935 18.0849466,51.2989017 C18.0849466,53.8899304 17.240893,56.2278249 15.6191945,59.0078795 C15.3256264,59.5111391 14.2065224,61.3247981 13.9821297,61.7183758 C13.5237908,62.5222877 13.3140893,63.0508211 13.3140893,63.3964328 C13.3140893,64.4664925 13.9362703,65.065357 15.3797149,65.2801329 L46.3035922,65.2801329 C47.8348193,64.7284887 48.540964,63.8576311 48.540964,62.6012899 Z" id="Path-19" fill="#000000"></path>
                <path d="M9.99547218,55.5631326 C7.81690154,59.7799064 6.93078992,67.503931 7.27369844,78.8172587 C7.29014209,79.3597721 7.74326636,79.786236 8.28577981,79.7697923 C8.82829326,79.7533487 9.25475709,79.3002244 9.23831344,78.7577109 C8.90491589,67.7581715 9.76052597,60.3000214 11.7417048,56.4653131 C11.9908351,55.9831043 11.8018876,55.3902368 11.3196787,55.1411066 C10.8374699,54.8919763 10.2446024,55.0809238 9.99547218,55.5631326 Z" id="Path-23" fill="#000000"></path>
                <path d="M13.8189698,55.2392647 C16.0802525,60.4905596 17.0837341,66.5120388 16.82258,73.3127777 C16.8017528,73.8551406 17.224541,74.3116963 17.7669038,74.3325235 C18.3092667,74.3533507 18.7658224,73.9305625 18.7866496,73.3881997 C19.0585933,66.3064899 18.0067307,59.9946965 15.6242273,54.461895 C15.4095626,53.9633869 14.8314218,53.7332864 14.3329137,53.9479511 C13.8344056,54.1626158 13.6043051,54.7407566 13.8189698,55.2392647 Z" id="Path-24" fill="#000000"></path>
                <circle id="Oval" fill="#F9C672" cx="13.0873734" cy="51.6900849" r="4.32413793"></circle>
                <path d="M13.0873734,56.603878 C15.8011864,56.603878 18.0011665,54.4038979 18.0011665,51.6900849 C18.0011665,48.9762719 15.8011864,46.7762918 13.0873734,46.7762918 C10.3735604,46.7762918 8.17358031,48.9762719 8.17358031,51.6900849 C8.17358031,54.4038979 10.3735604,56.603878 13.0873734,56.603878 Z M13.0873734,55.4245677 C11.0248755,55.4245677 9.35289065,53.7525828 9.35289065,51.6900849 C9.35289065,49.6275871 11.0248755,47.9556022 13.0873734,47.9556022 C15.1498713,47.9556022 16.8218562,49.6275871 16.8218562,51.6900849 C16.8218562,53.7525828 15.1498713,55.4245677 13.0873734,55.4245677 Z" id="Oval" fill="#000000"></path>
                <path d="M53.7010693,94.9906216 C54.3799473,96.6054837 54.9292331,98.2287606 55.3262617,99.7071425 C55.615379,100.783704 55.7978296,101.721107 55.7978296,101.923935 C55.7978296,102.57525 56.3258249,103.103246 56.97714,103.103246 C57.6284551,103.103246 58.1564503,102.57525 58.1564503,101.923935 C58.1564503,100.786783 57.2016041,97.2313027 55.8753696,94.0765593 C55.6229583,93.4761429 54.9316048,93.194029 54.3311883,93.4464403 C53.7307719,93.6988516 53.448658,94.3902052 53.7010693,94.9906216 Z" id="Path-25" fill="#FFFFFF"></path>
                <circle id="Oval" fill-opacity="0.3" fill="#FFFFFF" cx="44.4805084" cy="104.1146" r="2.1906643"></circle>
                <circle id="Oval-Copy-2" fill-opacity="0.3" fill="#FFFFFF" cx="32.9929475" cy="99.7815215" r="1.55275862"></circle>
                <circle id="Oval-Copy-3" fill-opacity="0.3" fill="#FFFFFF" cx="20.1061321" cy="105.889603" r="2.65344828"></circle>
                <circle id="Oval-Copy-4" fill-opacity="0.3" fill="#FFFFFF" cx="11.1716755" cy="97.1280732" r="1.55275862"></circle>
                <circle id="Oval-Copy-5" fill-opacity="0.3" fill="#FFFFFF" cx="34.0936372" cy="108.310091" r="1.10068966"></circle>
                <circle id="Oval-Copy-6" fill-opacity="0.3" fill="#FFFFFF" cx="6.21566731" cy="104.1146" r="1.10068966"></circle>
                <path d="M25.6095803,64.1005343 L35.6163772,64.1005343 C36.2676923,64.1005343 36.7956875,63.572539 36.7956875,62.9212239 C36.7956875,62.2699088 36.2676923,61.7419136 35.6163772,61.7419136 L25.6095803,61.7419136 C24.9582652,61.7419136 24.43027,62.2699088 24.43027,62.9212239 C24.43027,63.572539 24.9582652,64.1005343 25.6095803,64.1005343 Z" id="Path-27" fill-opacity="0.6" fill="#FFFFFF"></path>
                <path d="M39.5363349,64.1005343 L43.4784461,64.1005343 C44.1297612,64.1005343 44.6577565,63.572539 44.6577565,62.9212239 C44.6577565,62.2699088 44.1297612,61.7419136 43.4784461,61.7419136 L39.5363349,61.7419136 C38.8850198,61.7419136 38.3570246,62.2699088 38.3570246,62.9212239 C38.3570246,63.572539 38.8850198,64.1005343 39.5363349,64.1005343 Z" id="Path-27" fill-opacity="0.6" fill="#FFFFFF"></path>
                <path d="M17.4526838,52.2797401 L44.1269852,52.2797401 C44.4526428,52.2797401 44.7166404,52.0157425 44.7166404,51.6900849 C44.7166404,51.3644274 44.4526428,51.1004298 44.1269852,51.1004298 L17.4526838,51.1004298 C17.1270262,51.1004298 16.8630286,51.3644274 16.8630286,51.6900849 C16.8630286,52.0157425 17.1270262,52.2797401 17.4526838,52.2797401 Z" id="Path-28" fill="#000000"></path>
            </g>
        </g>
    </g>
</svg>