<?xml version="1.0" encoding="UTF-8"?>
<svg width="519px" height="404px" viewBox="0 0 519 404" version="1.1" xmlns="http://www.w3.org/2000/svg" xmlns:xlink="http://www.w3.org/1999/xlink">
    <!-- Generator: Sketch 55.2 (78181) - https://sketchapp.com -->
    <title>Group Copy 2</title>
    <desc>Created with Sketch.</desc>
    <g id="Beer" stroke="none" stroke-width="1" fill="none" fill-rule="evenodd">
        <g id="Artboard" transform="translate(-1286.000000, -44.000000)" fill-rule="nonzero">
            <g id="Group-Copy-2" transform="translate(1286.000000, 44.000000)">
                <path d="M158.604816,285.245635 C158.269277,279.376274 158.097268,273.421186 158.097268,267.393593 C158.097268,228.233238 165.357621,192.13323 177.552815,162.719749 C191.180551,179.541755 210.596228,194.934793 233.989224,206.344319 C250.92657,214.605214 268.225825,219.937432 284.699831,222.396367 C274.372285,251.457237 268.494705,285.325061 268.494705,321.381397 C268.494705,331.082228 268.92016,340.624641 269.743266,349.957643 C249.4155,339.37178 228.626639,327.777111 207.819407,315.76405 C190.643645,305.847619 174.192228,295.624563 158.604816,285.245635 L158.604816,285.245635 Z" id="Path"></path>
                <path d="M247.119437,213.280107 C232.680447,247.608839 227.92949,285.772266 232.866566,327.770388 C236.913783,331.103722 249.996764,338.499473 272.115509,349.957643 C269.756379,320.521963 270.160947,295.835842 273.329212,275.899281 C276.497477,255.962721 280.287683,238.128416 284.699831,222.396367 L247.119437,213.280107 Z" id="Path-4" fill="#C8C8C8"></path>
                <path d="M157.773469,286.494179 C157.380939,286.232812 157.134177,285.802063 157.107261,285.331247 C156.768069,279.397985 156.597268,273.414249 156.597268,267.393593 C156.597268,229.118893 163.517236,192.655568 176.167191,162.145252 C176.602643,161.09499 178.002661,160.892099 178.718346,161.775537 C192.518535,178.810418 211.939221,193.920911 234.64678,204.996128 C251.13895,213.039896 268.276148,218.428327 284.92127,220.912802 C285.854984,221.052169 286.42936,222.009101 286.113233,222.898656 C275.611,252.451081 269.994705,286.239551 269.994705,321.381397 C269.994705,330.965522 270.411864,340.464561 271.237466,349.825865 C271.341531,351.005833 270.101068,351.835177 269.050442,351.288054 C250.016613,341.376021 229.710305,330.134817 207.069407,317.063088 C190.052073,307.238126 173.563966,297.008332 157.773469,286.494179 Z M208.569407,314.465012 C230.219557,326.964732 249.726684,337.785278 268.020586,347.365773 C267.338809,338.799874 266.994705,330.125385 266.994705,321.381397 C266.994705,286.577197 272.453959,253.072264 282.686541,223.601779 C266.300342,220.960502 249.505705,215.581115 233.331667,207.69251 C211.10513,196.851903 191.956524,182.19491 177.994244,165.609626 C166.098707,195.271119 159.597268,230.469983 159.597268,267.393593 C159.597268,273.104352 159.752401,278.781251 160.060548,284.412449 C175.607864,294.745207 191.831384,304.80131 208.569407,314.465012 Z" id="Path-Copy" fill="#A8A8A8"></path>
                <path d="M76.4041741,222.162469 C76.1332379,216.879478 75.9947052,211.528536 75.9947052,206.1192 C75.9947052,158.804544 86.5934853,115.957432 103.689327,83.9736869 C120.106169,87.4639809 137.975635,92.4878133 156.89749,98.9541619 C153.729937,114.59261 157.782577,131.772728 167.506902,148.309783 C152.142271,181.304012 143.097268,222.664853 143.097268,267.393593 C143.097268,269.848882 143.124523,272.294023 143.178581,274.728189 L143.17851,274.728189 C118.168511,257.265671 95.6942053,239.510396 76.4041737,222.162463 L76.4041741,222.162469 Z" id="Path"></path>
                <path d="M81.8144171,156.52503 C83.2116988,171.010396 86.7049032,186.52033 92.2940301,203.054831 C100.67772,227.856581 122.798765,258.060299 127.575394,261.391343 C130.759813,263.612039 113.56625,250.687182 75.9947052,222.616775 C76.5054911,202.941453 77.1645535,188.519507 77.9718924,179.350938 C78.7792312,170.182368 80.0600728,162.573732 81.8144171,156.52503 Z" id="Path-6" fill="#C8C8C8"></path>
                <path d="M75.4011455,223.277787 C75.1046806,223.01117 74.926564,222.63749 74.9061428,222.239295 C74.6324245,216.902057 74.4947052,211.525435 74.4947052,206.1192 C74.4947052,159.975782 84.571586,116.558093 102.366448,83.2665862 C102.681344,82.6774632 103.347865,82.3675646 104.001262,82.5064798 C120.518591,86.0181379 138.450958,91.0650784 157.382557,97.5347571 C158.095641,97.7784461 158.517234,98.5133634 158.367636,99.2519386 C155.343442,114.182613 159.038038,130.948527 168.799918,147.549447 C169.049992,147.97472 169.074959,148.49577 168.866692,148.943005 C153.216255,182.550977 144.597268,223.886665 144.597268,267.393593 C144.597268,269.832013 144.624271,272.266062 144.678141,274.694929 C144.705369,275.92256 143.326588,276.661035 142.319785,275.958064 C117.524267,258.645301 94.9504814,240.858912 75.4011455,223.277787 Z M141.626547,271.808683 C141.607037,270.338673 141.597268,268.866918 141.597268,267.393593 C141.597268,223.767305 150.185334,182.27575 165.816829,148.389176 C156.272953,131.882107 152.497495,115.123527 155.181146,99.9543264 C137.234074,93.865916 120.21312,89.0746963 104.483222,85.677851 C87.2588566,118.386959 77.4947052,160.913307 77.4947052,206.1192 C77.4947052,211.264256 77.6206259,216.381972 77.8709411,221.463728 C96.5827109,238.253485 118.070785,255.235417 141.626547,271.808683 Z" id="Path" fill="#A8A8A8"></path>
                <path d="M60.9986446,207.735507 C14.4086976,162.198846 -8.2197119,120.954781 5.43517975,97.3038147 C15.9507525,79.0903084 46.2608937,74.2949193 88.2913335,81.0813807 C71.178976,114.987031 60.9947052,158.657064 60.9947052,206.1192 C60.9947052,206.658462 60.9960199,207.197233 60.9986446,207.735507 L60.9986446,207.735507 Z" id="Path"></path>
                <path d="M44.8930193,78.1435929 C28.092625,104.280801 22.4924936,134.851441 28.092625,169.855515 C11.0752974,156.52503 -1.07967346,122.679229 1.49470517,108.666801 C4.0690838,94.6543741 7.72599365,93.7218129 15.2780018,87.6139198 C20.3126739,83.541991 30.1843464,80.3852154 44.8930193,78.1435929 Z" id="Path-5" fill="#C8C8C8"></path>
                <path d="M62.4986267,207.728193 C62.5051198,209.059798 60.9024805,209.738996 59.9501795,208.808224 C11.5203965,161.473321 -9.64321894,120.420367 4.13614165,96.5538147 C14.7948549,78.0923819 44.7425815,72.530337 88.5304348,79.6005598 C89.5322079,79.7623115 90.0876602,80.8513304 89.6304445,81.757237 C72.1967665,116.299537 62.4947052,159.970152 62.4947052,206.1192 C62.4947052,206.65578 62.4960128,207.192114 62.4986267,207.728193 Z M86.0356527,82.2441108 C44.4696047,75.8440244 16.4116373,81.2920325 6.73421786,98.0538147 C-5.84317128,119.838492 13.8095976,158.794499 59.5005176,204.154397 C59.7672403,159.087192 69.2049136,116.425699 86.0356527,82.2441108 Z" id="Path" fill="#A8A8A8"></path>
                <path d="M300.127213,223.872286 C325.368608,224.888315 347.551617,218.642925 361.862534,205.360725 C394.073726,227.951037 422.026279,251.008769 444.318643,273.02104 C426.754964,267.966649 399.944459,286.964522 381.855624,318.295303 C364.235898,348.813564 360.887577,380.647564 372.887362,394.000169 C346.283979,386.262667 316.666336,373.564366 285.669155,358.085327 C284.245289,346.247422 283.494705,333.972601 283.494705,321.381397 C283.494705,285.344858 289.642943,251.899894 300.12721,223.872285 L300.127213,223.872286 Z" id="Path"></path>
                <path d="M367.621815,209.080289 L406.995244,239.869446 L431.44892,261.635548 L441.818643,270.873068 L428.994705,274.728189 L410.494705,284.698898 L398.994705,295.439288 C390.397048,275.935379 382.406935,260.827679 375.024367,250.116189 C367.6418,239.404698 357.70624,228.50374 345.217688,217.413314 L361.508788,206.914605 L367.621815,209.080289 Z" id="Path-7" fill="#C8C8C8"></path>
                <path d="M298.72229,223.346747 C298.949277,222.739942 299.540197,222.347442 300.187543,222.373499 C325.504852,223.392584 347.090259,217.024621 360.842126,204.261285 C361.36057,203.780108 362.144706,203.726499 362.723814,204.132638 C394.625524,226.505904 422.745264,249.610685 445.372577,271.953695 C446.478624,273.045845 445.397584,274.892407 443.903816,274.462538 C427.032875,269.607501 400.789053,288.501641 383.154662,319.045303 C366.008156,348.743922 362.416369,380.104625 374.003033,392.997533 C375.011907,394.120144 373.917729,395.862004 372.468451,395.440486 C347.263455,388.1097 318.321247,376.067406 284.999012,359.427307 C284.547866,359.202018 284.240109,358.765118 284.17989,358.264457 C282.731457,346.222313 281.994705,333.885641 281.994705,321.381397 C281.994705,286.117643 287.865316,252.370703 298.72229,223.346747 Z M284.994705,321.381397 C284.994705,333.488644 285.691987,345.435653 287.063096,357.104409 C318.071279,372.556231 345.233954,383.982334 369.053369,391.288792 C359.779402,375.706099 364.246735,345.794794 380.556586,317.545303 C397.258474,288.616784 421.615939,269.652998 439.85326,270.754479 C418.195372,249.803736 391.765382,228.230565 361.982381,207.277967 C347.767091,219.909163 326.211629,226.217183 301.156083,225.410534 C290.667728,253.863679 284.994705,286.880081 284.994705,321.381397 Z" id="Path" fill="#A8A8A8"></path>
                <path d="M171.261892,104.066296 C210.045507,118.405717 252.626929,138.40639 295.819407,163.343579 C314.474318,174.113997 332.274754,185.246127 349.041774,196.546816 C327.132766,213.701612 283.279122,213.695579 240.564791,192.862408 C194.942348,170.610856 167.242546,132.70722 171.261892,104.066296 L171.261892,104.066296 Z" id="Path" stroke="#626262" stroke-width="3" fill="#C8C8C8" stroke-linecap="round" stroke-linejoin="round"></path>
                <path d="M169.776448,103.857835 C169.909473,102.909932 170.884277,102.327439 171.78207,102.659379 C211.587496,117.376593 254.259796,137.617075 296.569407,162.044541 C315.037147,172.706896 332.879495,183.844826 349.880114,195.302957 C350.724784,195.87225 350.76853,197.099876 349.966524,197.727848 C326.881028,215.803836 281.948031,214.715266 239.907234,194.210599 C194.816728,172.21849 165.547945,133.989168 169.776448,103.857835 Z M241.222348,191.514217 C281.316903,211.069638 323.919012,212.560222 346.44644,196.609652 C330.032546,185.605919 312.842005,174.903632 295.069407,164.642617 C253.537594,140.664214 211.663247,120.737854 172.532614,106.138378 C169.967462,134.477861 198.124548,170.494016 241.222348,191.514217 Z" id="Path" fill="#A8A8A8"></path>
                <path d="M226.494705,136.143593 L256.494705,152.143593" id="Line" stroke="#E1E1E1" stroke-width="8" fill="#A8A8A8" stroke-linecap="round" stroke-linejoin="round"></path>
                <path d="M272.494705,160.431671 L289.494705,169.855515" id="Line-2" stroke="#E1E1E1" stroke-width="8" fill="#A8A8A8" stroke-linecap="round" stroke-linejoin="round"></path>
                <ellipse id="Oval-Copy" fill="#A8A8A8" transform="translate(424.948920, 343.643593) rotate(30.000000) translate(-424.948920, -343.643593) " cx="424.94892" cy="343.643593" rx="32.9577465" ry="65"></ellipse>
                <path d="M424.94892,410.143593 C444.256059,410.143593 459.406666,380.263228 459.406666,343.643593 C459.406666,307.023958 444.256059,277.143593 424.94892,277.143593 C405.641781,277.143593 390.491173,307.023958 390.491173,343.643593 C390.491173,380.263228 405.641781,410.143593 424.94892,410.143593 Z M424.94892,407.143593 C407.851937,407.143593 393.491173,378.820975 393.491173,343.643593 C393.491173,308.466211 407.851937,280.143593 424.94892,280.143593 C442.045903,280.143593 456.406666,308.466211 456.406666,343.643593 C456.406666,378.820975 442.045903,407.143593 424.94892,407.143593 Z" id="Oval-Copy" fill="#A8A8A8" transform="translate(424.948920, 343.643593) rotate(30.000000) translate(-424.948920, -343.643593) "></path>
                <path d="M402.915748,1.50453526 C379.386459,28.224236 367.621815,54.5451352 367.621815,80.4672329 C367.621815,106.389331 390.552901,144.076073 436.415074,193.527459 C459.14676,221.842366 469.515599,242.779445 467.521592,256.338696 C480.398633,229.10336 484.846774,205.533794 480.866015,185.629997 C477.328726,169.706959 462.511746,143.832022 436.415074,108.005187 C410.318402,72.1783525 399.15196,36.6781351 402.915748,1.50453526 Z" id="Path-2" fill="#D2D2DA"></path>
                <path d="M488.744293,55.4750142 C488.744293,37.7776663 491.693851,21.4683457 497.592967,6.54705231 C514.943308,20.1665784 520.842424,36.4758991 515.290315,55.4750142 C506.962151,83.9736869 474.335574,99.718384 465.841843,107.526037 C457.348111,115.333691 488.744293,82.0210361 488.744293,55.4750142 Z" id="Path-3" fill="#D2D2DA"></path>
                <path d="M466.037553,256.120455 C465.786687,257.826343 468.140655,258.538638 468.877659,256.979853 C481.881466,229.476405 486.388586,205.594322 482.336886,185.335822 C478.734296,169.117277 463.841402,143.109773 437.627521,107.122027 C411.738139,71.5797696 400.685769,36.4422093 404.407233,1.6641332 C404.562893,0.209453511 402.756869,-0.584742185 401.790011,0.513214708 C378.03654,27.4874953 366.121815,54.1441686 366.121815,80.4672329 C366.121815,106.882636 389.196846,144.812907 435.278822,194.508171 C457.738476,222.492071 467.949542,243.118932 466.037553,256.120455 Z M435.202627,108.888348 C461.18209,144.554272 475.923157,170.296641 479.401712,185.95529 C482.994739,203.922008 479.561106,225.057068 469.047227,249.337927 C467.448599,235.555711 456.93609,216.692686 437.584769,192.588409 L437.514896,192.507463 C391.896795,143.31925 369.121815,105.889065 369.121815,80.4672329 C369.121815,56.0772649 379.72962,31.263522 401.011547,6.01203762 C398.633275,40.0505021 410.048718,74.3557848 435.202627,108.888348 Z" id="Path-2" fill="#9B9B9B"></path>
                <path d="M487.244293,55.4750142 C487.244293,37.593366 490.227668,21.0970576 496.198026,5.99556398 C496.566886,5.0625641 497.729985,4.74767105 498.519157,5.36714926 C516.335583,19.3525385 522.460564,36.2863103 516.730097,55.8957615 C512.947043,68.8412341 504.289301,79.9428876 491.477035,90.5039421 C487.138725,94.0799776 483.103158,97.0224085 476.786215,101.373131 C469.79702,106.18686 468.516952,107.104457 466.856964,108.63036 C466.203842,109.230726 465.779107,109.596728 465.482308,109.80503 C465.362652,109.889007 465.250441,109.957951 465.126356,110.017078 C464.769248,110.18724 464.42862,110.265704 463.941415,110.107994 C463.087516,109.831584 462.810798,109.096008 462.898023,108.436076 C462.925476,108.228372 462.981638,108.065572 463.061667,107.891899 C463.27887,107.420542 463.613251,106.940008 465.301817,104.594983 C469.508902,98.7523217 472.178411,94.8288164 475.275441,89.6286953 C480.084862,81.5533535 483.661362,73.8259235 485.616939,66.6062662 C486.687342,62.6545188 487.244293,58.9334199 487.244293,55.4750142 Z M490.244293,55.4750142 C490.244293,59.2165792 489.648554,63.1968296 488.512592,67.3906073 C486.475355,74.9117407 482.790491,82.8733045 477.852945,91.1637761 C475.597092,94.9515044 473.567931,98.0681663 471.037371,101.699425 C472.132404,100.937519 473.456293,100.023879 475.084551,98.9024346 C481.335755,94.5969889 485.313098,91.6970109 489.56886,88.1890184 C501.958758,77.9761198 510.264366,67.3260001 513.850533,55.0542669 C519.052373,37.2537606 513.902712,21.9869305 498.252787,9.00641685 C492.914845,23.2277186 490.244293,38.7144826 490.244293,55.4750142 Z" id="Path-3" fill="#9B9B9B"></path>
                <circle id="Oval-Copy-4" fill="#C8C8C8" cx="431.44892" cy="357.643593" r="6.5"></circle>
                <circle id="Oval-Copy-5" fill="#C8C8C8" cx="415.494705" cy="336.643593" r="5"></circle>
                <circle id="Oval-Copy-6" fill="#C8C8C8" cx="444.318643" cy="329.643593" r="5"></circle>
                <circle id="Oval-Copy-9" fill="#C8C8C8" cx="448.318643" cy="308.643593" r="6.5"></circle>
                <circle id="Oval-Copy-7" fill="#C8C8C8" cx="446.818643" cy="345.143593" r="2.5"></circle>
                <circle id="Oval-Copy-8" fill="#C8C8C8" cx="431.44892" cy="307.643593" r="2.5"></circle>
                <circle id="Oval-Copy-2" fill="#C8C8C8" cx="403.994705" cy="385.143593" r="6.5"></circle>
                <circle id="Oval-Copy-3" fill="#C8C8C8" cx="398.994705" cy="357.643593" r="5"></circle>
            </g>
        </g>
    </g>
</svg>