<?xml version="1.0" encoding="UTF-8"?>
<svg width="184px" height="231px" viewBox="0 0 184 231" version="1.1" xmlns="http://www.w3.org/2000/svg" xmlns:xlink="http://www.w3.org/1999/xlink">
    <!-- Generator: Sketch 56.2 (81672) - https://sketch.com -->
    <title>Artboard Copy 4</title>
    <desc>Created with Sketch.</desc>
    <defs>
        <radialGradient cx="48.4148157%" cy="58.4946235%" fx="48.4148157%" fy="58.4946235%" r="95.5313493%" gradientTransform="translate(0.484148,0.584946),scale(0.475248,1.000000),scale(1.000000,0.220560),translate(-0.484148,-0.584946)" id="radialGradient-1">
            <stop stop-color="#000000" offset="0%"></stop>
            <stop stop-color="#000000" stop-opacity="0" offset="100%"></stop>
        </radialGradient>
    </defs>
    <g id="Artboard-Copy-4" stroke="none" stroke-width="1" fill="none" fill-rule="evenodd">
        <g id="Group-4-Copy" transform="translate(-6.000000, 0.000000)" fill-rule="nonzero">
            <ellipse id="Oval" fill-opacity="0.69" fill="url(#radialGradient-1)" cx="101" cy="202.192327" rx="101" ry="48"></ellipse>
            <path d="M100.076801,218.692327 C161.760133,218.692327 206.738302,191.692327 99.7440826,191.692327 C-7.25013661,191.692327 38.3934689,218.692327 100.076801,218.692327 Z" id="Path-33" fill="#FFFFFF"></path>
            <path d="M61.682876,214.174896 C120.291614,217.838323 152.223703,212.325085 157.479142,197.635181 C157.748465,196.882375 161.428885,201.643958 163.065808,200.912584 C164.235976,205.192327 163.786092,208.842564 137.078116,215.016123 C119.272799,219.131829 94.1410526,218.85142 61.682876,214.174896 Z" id="Path-36" fill="#8E8E93"></path>
            <path d="M100.076801,218.692327 C161.760133,218.692327 206.738302,191.692327 99.7440826,191.692327 C-7.25013661,191.692327 38.3934689,218.692327 100.076801,218.692327 Z" id="Path-33" stroke="#000000" stroke-width="3" stroke-linecap="round" stroke-linejoin="round"></path>
            <path d="M99.9956859,210.163458 C136.416868,210.163458 162.974416,194.221195 99.7992309,194.221195 C36.6240455,194.221195 63.5745038,210.163458 99.9956859,210.163458 Z" id="Path-33" stroke="#000000" stroke-width="3" fill="#D1D1D1" stroke-linecap="round" stroke-linejoin="round"></path>
            <path d="M42.682876,143.017111 C71.453381,141.149922 116.189491,172.684676 157.182876,152.560524 C155.185672,174.75933 146.455685,195.47462 133.853484,200.600097 C125.452016,204.017082 112.849815,205.725574 96.0468805,205.725574 C79.4947357,206.355071 67.0179296,202.904343 58.6164622,195.373392 C46.0142611,184.076965 42.682876,155.46504 42.682876,143.017111 Z" id="Path-32" fill="#949494"></path>
            <path d="M99.641866,117.130943 L156.854249,117.130943 C158.268409,154.672162 155.118474,178.823239 147.404445,189.584173 C139.721472,200.301784 123.897615,205.682164 99.932876,205.725313 C75.9681365,205.682164 60.1442803,200.301784 52.4613073,189.584173 C44.7472781,178.823239 41.5973435,154.672162 43.0115033,117.130943 L99.641866,117.130943 Z" id="Combined-Shape" stroke="#000000" stroke-width="3" stroke-linecap="round" stroke-linejoin="round"></path>
            <path d="M158.464622,118.557495 C173.932869,117.867304 181.666993,122.774733 181.666993,133.279783 C181.666993,143.784833 174.172288,148.686953 159.182876,147.986145" id="Path-31" stroke="#000000" stroke-width="6" stroke-linecap="square"></path>
            <circle id="Oval" fill-opacity="0.3" fill="#FFFFFF" cx="64.151792" cy="163.646054" r="6.75"></circle>
            <circle id="Oval-Copy" fill-opacity="0.3" fill="#FFFFFF" cx="129.401792" cy="171.367639" r="4.5"></circle>
            <circle id="Oval-Copy-2" fill-opacity="0.3" fill="#FFFFFF" cx="75.5780043" cy="188.721195" r="5.5"></circle>
            <circle id="Oval-Copy-3" fill-opacity="0.3" fill="#FFFFFF" cx="97.182876" cy="170.396054" r="2.75"></circle>
            <circle id="Oval-Copy-4" fill-opacity="0.3" fill="#FFFFFF" cx="111.651792" cy="188.942327" r="2.75"></circle>
            <path d="M68.682876,117.130943 L157.182876,117.130943 C157.182876,126.079611 157.182876,132.097187 157.182876,135.183671 C152.629781,126.335751 123.129781,120.318174 68.682876,117.130943 Z" id="Path-34" fill-opacity="0.1" fill="#000000"></path>
            <path d="M148.599129,170.396054 C149.458363,173.043777 148.863355,176.593156 146.814105,181.04419 C144.764856,185.495224 142.426541,189.044603 139.799163,191.692327 C138.468594,188.937545 139.269971,185.060155 142.203293,180.060155 C145.136615,175.060155 147.268561,171.838788 148.599129,170.396054 Z" id="Path-35" fill-opacity="0.7" fill="#FFFFFF"></path>
            <path d="M89.0133297,41.5110739 C84.7194684,52.6348396 74.8336955,68.7379725 86.718457,101.699317 C82.8320217,70.5861152 93.7065451,68.7379725 89.0133297,41.5110739 Z" id="Path-37" fill="#8E8E93" transform="translate(85.639351, 71.605196) rotate(-9.000000) translate(-85.639351, -71.605196) "></path>
            <path d="M105.734901,0 C103.87542,59.5705932 83.6378591,50.0382389 102.145312,96 C114.640638,56.862839 120.360085,40.3701541 105.734901,0 Z" id="Path-37-Copy" fill-opacity="0.5" fill="#000000"></path>
        </g>
    </g>
</svg>