<?xml version="1.0" encoding="UTF-8"?>
<svg width="173px" height="193px" viewBox="0 0 173 193" version="1.1" xmlns="http://www.w3.org/2000/svg" xmlns:xlink="http://www.w3.org/1999/xlink">
    <!-- Generator: Sketch 56.2 (81672) - https://sketch.com -->
    <title>Group 4</title>
    <desc>Created with Sketch.</desc>
    <defs>
        <radialGradient cx="48.4148157%" cy="58.4946235%" fx="48.4148157%" fy="58.4946235%" r="126.614651%" gradientTransform="translate(0.484148,0.584946),scale(0.358576,1.000000),scale(1.000000,0.220560),translate(-0.484148,-0.584946)" id="radialGradient-1">
            <stop stop-color="#000000" offset="0%"></stop>
            <stop stop-color="#000000" stop-opacity="0" offset="100%"></stop>
        </radialGradient>
    </defs>
    <g id="Icons" stroke="none" stroke-width="1" fill="none" fill-rule="evenodd">
        <g id="v" transform="translate(-10.000000, -27.000000)" fill-rule="nonzero">
            <g id="Group-4" transform="translate(4.478496, 27.000000)">
                <ellipse id="Oval" fill-opacity="0.69" fill="url(#radialGradient-1)" cx="92.8787399" cy="169.171771" rx="92.8787399" ry="33.3041327"></ellipse>
                <path d="M93.0768009,187.692327 C154.760133,187.692327 199.738302,160.692327 92.7440826,160.692327 C-14.2501366,160.692327 31.3934689,187.692327 93.0768009,187.692327 Z" id="Path-33" fill="#FFFFFF"></path>
                <path d="M54.682876,183.174896 C113.291614,186.838323 145.223703,181.325085 150.479142,166.635181 C150.748465,165.882375 154.428885,170.643958 156.065808,169.912584 C157.235976,174.192327 156.786092,177.842564 130.078116,184.016123 C112.272799,188.131829 87.1410526,187.85142 54.682876,183.174896 Z" id="Path-36" fill="#8E8E93"></path>
                <path d="M93.0768009,187.692327 C154.760133,187.692327 199.738302,160.692327 92.7440826,160.692327 C-14.2501366,160.692327 31.3934689,187.692327 93.0768009,187.692327 Z" id="Path-33" stroke="#000000" stroke-width="3" stroke-linecap="round" stroke-linejoin="round"></path>
                <path d="M92.9956859,179.163458 C129.416868,179.163458 155.974416,163.221195 92.7992309,163.221195 C29.6240455,163.221195 56.5745038,179.163458 92.9956859,179.163458 Z" id="Path-33" stroke="#000000" stroke-width="3" fill="#D1D1D1" stroke-linecap="round" stroke-linejoin="round"></path>
                <path d="M35.682876,112.017111 C64.453381,110.149922 109.189491,141.684676 150.182876,121.560524 C148.185672,143.75933 139.455685,164.47462 126.853484,169.600097 C118.452016,173.017082 105.849815,174.725574 89.0468805,174.725574 C72.4947357,175.355071 60.0179296,171.904343 51.6164622,164.373392 C39.0142611,153.076965 35.682876,124.46504 35.682876,112.017111 Z" id="Path-32" fill="#8B572A"></path>
                <path d="M92.641866,86.1309429 L149.854249,86.1309429 C151.268409,123.672162 148.118474,147.823239 140.404445,158.584173 C132.721472,169.301784 116.897615,174.682164 92.932876,174.725313 C68.9681365,174.682164 53.1442803,169.301784 45.4613073,158.584173 C37.7472781,147.823239 34.5973435,123.672162 36.0115033,86.1309429 L92.641866,86.1309429 Z" id="Combined-Shape" stroke="#000000" stroke-width="3" stroke-linecap="round" stroke-linejoin="round"></path>
                <path d="M151.464622,87.5574955 C166.932869,86.867304 174.666993,91.7747331 174.666993,102.279783 C174.666993,112.784833 167.172288,117.686953 152.182876,116.986145" id="Path-31" stroke="#000000" stroke-width="6" stroke-linecap="square"></path>
                <circle id="Oval" fill-opacity="0.3" fill="#FFFFFF" cx="57.151792" cy="132.646054" r="6.75"></circle>
                <circle id="Oval-Copy" fill-opacity="0.3" fill="#FFFFFF" cx="122.401792" cy="140.367639" r="4.5"></circle>
                <circle id="Oval-Copy-2" fill-opacity="0.3" fill="#FFFFFF" cx="68.5780043" cy="157.721195" r="5.5"></circle>
                <circle id="Oval-Copy-3" fill-opacity="0.3" fill="#FFFFFF" cx="90.182876" cy="139.396054" r="2.75"></circle>
                <circle id="Oval-Copy-4" fill-opacity="0.3" fill="#FFFFFF" cx="104.651792" cy="157.942327" r="2.75"></circle>
                <path d="M61.682876,86.1309429 L150.182876,86.1309429 C150.182876,95.0796112 150.182876,101.097187 150.182876,104.183671 C145.629781,95.3357506 116.129781,89.3181745 61.682876,86.1309429 Z" id="Path-34" fill-opacity="0.1" fill="#000000"></path>
                <path d="M141.599129,139.396054 C142.458363,142.043777 141.863355,145.593156 139.814105,150.04419 C137.764856,154.495224 135.426541,158.044603 132.799163,160.692327 C131.468594,157.937545 132.269971,154.060155 135.203293,149.060155 C138.136615,144.060155 140.268561,140.838788 141.599129,139.396054 Z" id="Path-35" fill-opacity="0.7" fill="#FFFFFF"></path>
                <path d="M77.4519827,13.1175579 C73.1581214,24.2413236 63.2723485,40.3444565 75.1571099,73.3058014 C71.2706747,42.1925992 82.145198,40.3444565 77.4519827,13.1175579 Z" id="Path-37" fill="#8E8E93"></path>
                <path d="M91.2026256,4.97379915e-14 C90.0085398,42.7208798 77.0127711,35.8847793 88.8975325,68.8461242 C96.9215416,40.7790216 100.594346,28.95134 91.2026256,4.97379915e-14 Z" id="Path-37-Copy" fill-opacity="0.5" fill="#000000"></path>
                <path d="M105.424727,27.6058014 C102.116587,36.1759375 96.2682936,47.9112344 105.424727,73.3058014 C112.045086,52.2247431 102.388601,47.1924905 105.424727,27.6058014 Z" id="Path-37-Copy-2" fill-opacity="0.3" fill="#000000" transform="translate(104.157110, 50.455801) scale(-1, 1) translate(-104.157110, -50.455801) "></path>
            </g>
        </g>
    </g>
</svg>