<?xml version="1.0" encoding="UTF-8"?>
<svg width="180px" height="288px" viewBox="0 0 180 288" version="1.1" xmlns="http://www.w3.org/2000/svg" xmlns:xlink="http://www.w3.org/1999/xlink">
    <!-- Generator: Sketch 55.2 (78181) - https://sketchapp.com -->
    <title>Tabak</title>
    <desc>Created with Sketch.</desc>
    <defs>
        <path d="M75.8779476,51.7829497 C96.2649065,51.8242003 113.026747,51.8581159 126.349081,51.8852444 C147.108423,51.9270761 150.108953,44.2841274 150.095038,37.3345335 C150.081026,30.3849396 149.03216,20.2194556 126.285363,20.1734302 C112.39043,20.1453155 94.8055744,20.1097346 75.8142295,20.0713079 C62.7892842,20.0449535 49.6307037,20.0183286 39.3827546,19.9973595 C10.4781909,19.9391082 3.10227953,30.8721442 3.11465126,37.0371364 C3.12654843,42.9504488 14.1474782,51.6580455 39.4464727,51.709235 C50.5142577,51.7316293 61.5882664,51.7540362 75.8779476,51.7829497 Z" id="path-1"></path>
        <path d="M89.9603502,18.728961 C106.01346,22.9487178 118.434099,26.326199 130.887679,29.4872112 C155.581295,35.7550329 156.562206,41.894098 152.009114,53.1801336 C147.112174,65.3184854 150.460228,71.2867224 121.40842,64.1926649 C109.875611,61.3765094 95.1133898,57.2806938 80.4810912,53.4344147 C59.1461049,47.8262519 39.3911765,42.6334267 23.7815296,38.5302396 C-1.77235353,31.8130881 0.110335233,20.3864845 2.18689798,12.78058 C4.26508704,5.17511128 9.93962435,-2.30546809 33.2607886,3.8247859 C48.2271751,7.75888412 67.0575232,12.708672 89.9603502,18.728961 Z" id="path-3"></path>
        <radialGradient cx="68.3799411%" cy="64.6836608%" fx="68.3799411%" fy="64.6836608%" r="93.3573033%" gradientTransform="translate(0.683799,0.646837),scale(1.000000,0.714844),rotate(-116.752294),translate(-0.683799,-0.646837)" id="radialGradient-5">
            <stop stop-color="#C76C6C" offset="0%"></stop>
            <stop stop-color="#9D3232" offset="100%"></stop>
        </radialGradient>
    </defs>
    <g id="Start-page-" stroke="none" stroke-width="1" fill="none" fill-rule="evenodd">
        <g id="Desktop-HD-Copy-36" transform="translate(-684.000000, -922.000000)">
            <g id="Group" transform="translate(165.000000, 791.000000)">
                <g id="Coffee-Cigars-Restau-+-Group-2-+-Latest-Regions-Rosta-+-Group-Copy-2-Mask">
                    <g id="Tabak" transform="translate(494.111176, 131.501994)">
                        <g id="Group" transform="translate(63.903008, 0.000000)" fill-rule="nonzero">
                            <path d="M28.20772,1.21346061 C9.82826241,40.075731 0.638533597,75.7084403 0.638533597,108.111589 C0.638533597,135.503456 9.82826241,158.247574 28.20772,176.343944 C45.4269578,160.23916 54.6719804,138.118231 55.9427879,109.981157 C56.3029625,77.2607487 47.0579399,41.00485 28.20772,1.21346061 Z" id="Path-11" fill="#46988E"></path>
                            <path d="M28.20772,1.21346061 C28.20772,40.075731 28.20772,75.7084403 28.20772,108.111589 C28.20772,135.503456 28.20772,158.247574 28.20772,176.343944 C45.4269578,160.23916 54.6719804,138.118231 55.9427879,109.981157 C56.3029625,77.2607487 47.0579399,41.00485 28.20772,1.21346061 Z" id="Path-11" fill="#2A5E57"></path>
                            <path d="M28.20772,175.46474 C28.20772,157.190738 28.20772,134.337001 28.20772,106.903529 C28.20772,74.4512944 28.20772,38.8167848 28.20772,-5.67323966e-14 C44.2577147,39.2873522 52.1164066,75.3066949 51.7837958,108.058028 C50.6194304,136.001176 42.7607385,158.47008 28.20772,175.46474 Z" id="Combined-Shape" fill="#397E75"></path>
                            <path d="M28.2415249,2.14123846 C-7.91989742,82.1881182 -7.87150454,139.977516 28.2415249,175.776333 C64.3545522,139.977518 64.4029473,82.1881252 28.2415315,2.14125304 Z M28.2415249,177.43033 C28.1122425,177.440578 27.9796219,177.393 27.8676171,177.282973 C-9.26446128,140.806736 -9.26446128,81.7436228 27.7193729,0.366169729 C27.8322077,0.117893586 28.036635,-0.0133588276 28.2415249,0.00251395155 C28.4464148,-0.0133588276 28.6508422,0.117893586 28.7636769,0.366169729 C65.7475111,81.7436228 65.7475111,140.806736 28.6154327,177.282973 C28.503428,177.393 28.3708073,177.440578 28.2415249,177.43033 Z" id="Combined-Shape" fill="#000000"></path>
                            <path d="M27.6870633,29.1465126 L27.7547316,155.050599 C27.7548862,155.338149 27.9881174,155.570976 28.2756681,155.570976 C28.5632188,155.570976 28.7961995,155.33759 28.796045,155.050039 L28.7283767,29.145953 C28.7282221,28.8584022 28.4949909,28.6255761 28.2074402,28.6255761 C27.9198895,28.6255761 27.6869088,28.8589619 27.6870633,29.1465126 Z" id="Path-9" fill="#000000"></path>
                            <path d="M28.6342945,58.1339665 L35.145067,48.8304854 C35.3099382,48.5948948 35.2526089,48.2702564 35.0170183,48.1053851 C34.7814277,47.9405139 34.4567893,47.9978432 34.291918,48.2334338 L27.7811456,57.5369149 C27.6162743,57.7725055 27.6736036,58.0971439 27.9091942,58.2620152 C28.1447848,58.4268864 28.4694232,58.3695571 28.6342945,58.1339665 Z" id="Path-10" fill="#000000"></path>
                            <path d="M28.6347619,74.4020509 L36.9527463,62.4764265 C37.117248,62.2405778 37.0594098,61.9160296 36.8235611,61.7515278 C36.5877124,61.5870261 36.2631642,61.6448643 36.0986625,61.880713 L27.7806781,73.8063374 C27.6161764,74.0421861 27.6740145,74.3667343 27.9098633,74.531236 C28.145712,74.6957378 28.4702602,74.6378996 28.6347619,74.4020509 Z" id="Path-10" fill="#000000"></path>
                            <path d="M28.6327362,90.4295037 L38.7102383,76.1876352 C38.8763325,75.9529052 38.8206922,75.627973 38.5859622,75.4618788 C38.3512322,75.2957846 38.0263,75.3514249 37.8602058,75.5861549 L27.7827038,89.8280234 C27.6166096,90.0627534 27.6722499,90.3876856 27.9069799,90.5537798 C28.1417098,90.719874 28.466642,90.6642337 28.6327362,90.4295037 Z" id="Path-10" fill="#000000"></path>
                            <path d="M28.633617,106.696026 L40.511068,89.8054983 C40.6764727,89.5702819 40.619879,89.2455144 40.3846626,89.0801097 C40.1494462,88.9147051 39.8246787,88.9712987 39.6592741,89.2065152 L27.781823,106.097043 C27.6164184,106.332259 27.6730121,106.657027 27.9082285,106.822431 C28.1434449,106.987836 28.4682124,106.931242 28.633617,106.696026 Z" id="Path-10" fill="#000000"></path>
                            <path d="M28.6340023,122.964444 L42.3101071,103.462786 C42.4752087,103.227357 42.4181969,102.902662 42.1827676,102.737561 C41.9473384,102.572459 41.6226441,102.629471 41.4575425,102.8649 L27.7814377,122.366558 C27.6163361,122.601988 27.673348,122.926682 27.9087772,123.091784 C28.1442064,123.256885 28.4689007,123.199873 28.6340023,122.964444 Z" id="Path-10" fill="#000000"></path>
                            <path d="M28.6327362,138.988933 L44.0724573,117.168994 C44.2385515,116.934264 44.1829112,116.609332 43.9481812,116.443237 C43.7134513,116.277143 43.3885191,116.332783 43.2224248,116.567513 L27.7827038,138.387452 C27.6166096,138.622182 27.6722499,138.947114 27.9069799,139.113209 C28.1417098,139.279303 28.466642,139.223662 28.6327362,138.988933 Z" id="Path-10" fill="#000000"></path>
                            <path d="M28.6331374,155.757917 L45.8831039,131.31052 C46.0488846,131.075569 45.9928106,130.750711 45.757859,130.58493 C45.5229075,130.41915 45.1980499,130.475224 45.0322692,130.710175 L27.7823027,155.157573 C27.616522,155.392524 27.6725961,155.717382 27.9075476,155.883162 C28.1424991,156.048943 28.4673567,155.992869 28.6331374,155.757917 Z" id="Path-10" fill="#000000"></path>
                            <path d="M21.8026779,49.6235512 L28.3134504,40.32007 C28.4783216,40.0844795 28.4209923,39.759841 28.1854017,39.5949698 C27.9498112,39.4300985 27.6251727,39.4874278 27.4603015,39.7230184 L20.949529,49.0264995 C20.7846577,49.2620901 20.841987,49.5867285 21.0775776,49.7515998 C21.3131682,49.9164711 21.6378066,49.8591417 21.8026779,49.6235512 Z" id="Path-10" fill="#000000" transform="translate(24.631490, 44.673285) scale(-1, 1) translate(-24.631490, -44.673285) "></path>
                            <path d="M20.2821558,65.6523274 L28.6001401,53.9652155 C28.7668778,53.7309422 28.7121293,53.4058585 28.477856,53.2391209 C28.2435827,53.0723832 27.918499,53.1271316 27.7517614,53.361405 L19.433777,65.0485169 C19.2670393,65.2827902 19.3217878,65.6078738 19.5560611,65.7746115 C19.7903345,65.9413492 20.1154181,65.8866007 20.2821558,65.6523274 Z" id="Path-10" fill="#000000" transform="translate(24.016959, 59.506866) scale(-1, 1) translate(-24.016959, -59.506866) "></path>
                            <path d="M18.3853114,81.9190884 L28.4628134,67.6772198 C28.6289076,67.4424899 28.5732673,67.1175577 28.3385373,66.9514635 C28.1038073,66.7853692 27.7788751,66.8410095 27.6127809,67.0757395 L17.5352789,81.3176081 C17.3691847,81.552338 17.424825,81.8772702 17.659555,82.0433644 C17.894285,82.2094586 18.2192171,82.1538183 18.3853114,81.9190884 Z" id="Path-10" fill="#000000" transform="translate(22.999046, 74.497414) scale(-1, 1) translate(-22.999046, -74.497414) "></path>
                            <path d="M16.4885208,98.1856107 L28.3659719,81.2950829 C28.5313765,81.0598665 28.4747829,80.735099 28.2395664,80.5696944 C28.00435,80.4042898 27.6795825,80.4608834 27.5141779,80.6960998 L15.6367269,97.5866276 C15.4713223,97.821844 15.5279159,98.1466115 15.7631323,98.3120161 C15.9983487,98.4774208 16.3231162,98.4208271 16.4885208,98.1856107 Z" id="Path-10" fill="#000000" transform="translate(22.001349, 89.440855) scale(-1, 1) translate(-22.001349, -89.440855) "></path>
                            <path d="M14.5912349,114.203722 L28.2673396,94.7020641 C28.4324412,94.4666349 28.3754294,94.1419405 28.1400002,93.976839 C27.904571,93.8117374 27.5798766,93.8687492 27.414775,94.1041784 L13.7386703,113.605837 C13.5735687,113.841266 13.6305805,114.16596 13.8660097,114.331062 C14.1014389,114.496163 14.4261333,114.439152 14.5912349,114.203722 Z" id="Path-10" fill="#000000" transform="translate(21.003005, 104.153950) scale(-1, 1) translate(-21.003005, -104.153950) "></path>
                            <path d="M13.07339,130.472497 L28.5131111,108.410114 C28.6779823,108.174524 28.620653,107.849885 28.3850624,107.685014 C28.1494718,107.520143 27.8248334,107.577472 27.6599621,107.813063 L12.2202411,129.875445 C12.0553698,130.111036 12.1126992,130.435674 12.3482897,130.600546 C12.5838803,130.765417 12.9085188,130.708088 13.07339,130.472497 Z" id="Path-10" fill="#000000" transform="translate(20.366676, 119.142780) scale(-1, 1) translate(-20.366676, -119.142780) "></path>
                            <path d="M11.1759479,147.242127 L28.4259144,122.552676 C28.5906047,122.316959 28.5330261,121.992365 28.297309,121.827674 C28.0615918,121.662984 27.7369975,121.720563 27.5723072,121.95628 L10.3223407,146.645731 C10.1576504,146.881448 10.215229,147.206042 10.4509462,147.370732 C10.6866633,147.535423 11.0112576,147.477844 11.1759479,147.242127 Z" id="Path-10" fill="#000000" transform="translate(19.374128, 134.599203) scale(-1, 1) translate(-19.374128, -134.599203) "></path>
                            <path d="M17.3711495,40.0215442 C15.5724958,35.7882843 -2.19045567,94.4031213 7.35165275,122.254478 C7.35165275,97.8861192 12.0089305,63.2629273 17.3711495,40.0215442 Z" id="Path-12" fill-opacity="0.4" fill="#FFFFFF"></path>
                        </g>
                        <g id="Group" transform="translate(122.773710, 151.522728) rotate(29.000000) translate(-122.773710, -151.522728) translate(96.773710, 89.522728)" fill-rule="nonzero">
                            <path d="M25.7974769,0.841364293 C8.9884745,27.7868838 0.583973313,52.4931569 0.583973313,74.9601835 C0.583973313,93.9525915 8.9884745,109.722439 25.7974769,122.269727 C41.5453958,111.103324 50.0004661,95.76557 51.162688,76.2564661 C51.492087,53.5694644 43.0370167,28.4310971 25.7974769,0.841364293 Z" id="Path-11" fill="#46988E"></path>
                            <path d="M25.7974769,0.841364293 C25.7974769,27.7868838 25.7974769,52.4931569 25.7974769,74.9601835 C25.7974769,93.9525915 25.7974769,109.722439 25.7974769,122.269727 C41.5453958,111.103324 50.0004661,95.76557 51.162688,76.2564661 C51.492087,53.5694644 43.0370167,28.4310971 25.7974769,0.841364293 Z" id="Path-11" fill="#2A5E57"></path>
                            <path d="M25.7974769,121.660123 C25.7974769,108.989672 25.7974769,93.1438192 25.7974769,74.122564 C25.7974769,51.621503 25.7974769,26.9139816 25.7974769,-2.62012634e-14 C40.4760601,27.240254 47.6632565,52.2146029 47.359066,74.9230468 C46.2941913,94.2976905 39.1069949,109.876716 25.7974769,121.660123 Z" id="Combined-Shape" fill="#397E75"></path>
                            <path d="M25.8283933,1.48464776 C-7.2431721,56.9859023 -7.19891421,97.054723 25.8283933,121.876168 C58.8556988,97.0547245 58.8999586,56.9859071 25.8283993,1.48465787 Z M25.8283933,123.022983 C25.7101576,123.030088 25.5888688,122.997099 25.4864345,122.920812 C-8.47284805,97.6296706 -8.47284805,56.6777072 25.3508572,0.253887214 C25.4540506,0.0817426234 25.6410104,-0.00926246836 25.8283933,0.00174307188 C26.0157761,-0.00926246836 26.2027359,0.0817426234 26.3059294,0.253887214 C60.1296346,56.6777072 60.1296346,97.6296706 26.1703521,122.920812 C26.0679177,122.997099 25.946629,123.030088 25.8283933,123.022983 Z" id="Combined-Shape" fill="#000000"></path>
                            <path d="M25.2768202,20.2091829 L25.3387065,107.505961 C25.3389104,107.793512 25.5721815,108.026249 25.8597322,108.026249 C26.1472829,108.026249 26.3802236,107.792774 26.3800199,107.505223 L26.3181335,20.2084447 C26.3179296,19.920894 26.0846585,19.688157 25.7971078,19.688157 C25.5095571,19.688157 25.2766164,19.9216322 25.2768202,20.2091829 Z" id="Path-9" fill="#000000"></path>
                            <path d="M26.1800572,40.4538961 L32.1345088,34.0032403 C32.3295488,33.791947 32.3163728,33.4625488 32.1050795,33.2675088 C31.8937862,33.0724688 31.5643881,33.0856448 31.3693481,33.2969381 L25.4148965,39.7475939 C25.2198566,39.9588872 25.2330325,40.2882854 25.4443258,40.4833254 C25.6556191,40.6783653 25.9850173,40.6651894 26.1800572,40.4538961 Z" id="Path-10" fill="#000000"></path>
                            <path d="M26.1806443,51.7333518 L33.7878883,43.4646083 C33.9825764,43.2529908 33.9688524,42.923615 33.7572349,42.7289268 C33.5456174,42.5342387 33.2162416,42.5479627 33.0215534,42.7595802 L25.4143094,51.0283237 C25.2196213,51.2399412 25.2333453,51.569317 25.4449628,51.7640052 C25.6565804,51.9586933 25.9859562,51.9449693 26.1806443,51.7333518 Z" id="Path-10" fill="#000000"></path>
                            <path d="M26.1781057,62.8468768 L35.3945233,52.9721437 C35.5907244,52.7619282 35.5793635,52.4324624 35.369148,52.2362613 C35.1589325,52.0400601 34.8294667,52.051421 34.6332656,52.2616365 L25.416848,62.1363696 C25.2206469,62.3465851 25.2320078,62.6760509 25.4422233,62.872252 C25.6524388,63.0684532 25.9819046,63.0570923 26.1781057,62.8468768 Z" id="Path-10" fill="#000000"></path>
                            <path d="M26.1792077,74.1251039 L37.0417754,62.4138981 C37.2373224,62.2030739 37.2249379,61.873645 37.0141138,61.678098 C36.8032896,61.482551 36.4738608,61.4949356 36.2783137,61.7057597 L25.415746,73.4169655 C25.220199,73.6277896 25.2325836,73.9572185 25.4434077,74.1527655 C25.6542318,74.3483125 25.9836607,74.335928 26.1792077,74.1251039 Z" id="Path-10" fill="#000000"></path>
                            <path d="M26.1796907,85.404823 L38.687224,71.8831654 C38.882483,71.6720746 38.8696488,71.3426629 38.6585579,71.1474039 C38.4474671,70.9521448 38.1180554,70.964979 37.9227963,71.1760699 L25.4152631,84.6977275 C25.220004,84.9088183 25.2328382,85.23823 25.4439291,85.4334891 C25.65502,85.6287481 25.9844317,85.6159139 26.1796907,85.404823 Z" id="Path-10" fill="#000000"></path>
                            <path d="M26.1781057,96.516012 L40.2985609,81.3869528 C40.4947621,81.1767373 40.4834012,80.8472715 40.2731857,80.6510704 C40.0629702,80.4548692 39.7335044,80.4662301 39.5373032,80.6764456 L25.416848,95.8055048 C25.2206469,96.0157203 25.2320078,96.3451861 25.4422233,96.5413872 C25.6524388,96.7375884 25.9819046,96.7262275 26.1781057,96.516012 Z" id="Path-10" fill="#000000"></path>
                            <path d="M26.1786073,108.1428 L41.9546294,91.1919681 C42.1505333,90.9814756 42.1387069,90.6520262 41.9282144,90.4561223 C41.7177219,90.2602184 41.3882725,90.2720448 41.1923685,90.4825373 L25.4163465,107.43337 C25.2204425,107.643862 25.2322689,107.973311 25.4427615,108.169215 C25.653254,108.365119 25.9827034,108.353293 26.1786073,108.1428 Z" id="Path-10" fill="#000000"></path>
                            <path d="M19.9321765,34.5531198 L25.886628,28.102464 C26.081668,27.8911707 26.0684921,27.5617725 25.8571988,27.3667325 C25.6459055,27.1716926 25.3165073,27.1848685 25.1214673,27.3961618 L19.1670158,33.8468176 C18.9719758,34.0581109 18.9851517,34.3875091 19.196445,34.5825491 C19.4077383,34.7775891 19.7371365,34.7644131 19.9321765,34.5531198 Z" id="Path-10" fill="#000000" transform="translate(22.526822, 30.974641) scale(-1, 1) translate(-22.526822, -30.974641) "></path>
                            <path d="M18.540775,45.667684 L26.1480189,37.5643154 C26.344829,37.3546699 26.3344238,37.0251725 26.1247783,36.8283625 C25.9151328,36.6315524 25.5856355,36.6419576 25.3888254,36.8516031 L17.7815814,44.9549717 C17.5847713,45.1646172 17.5951765,45.4941146 17.804822,45.6909246 C18.0144675,45.8877347 18.3439649,45.8773295 18.540775,45.667684 Z" id="Path-10" fill="#000000" transform="translate(21.964800, 41.259644) scale(-1, 1) translate(-21.964800, -41.259644) "></path>
                            <path d="M16.8062846,56.9461005 L26.0227021,47.0713674 C26.2189033,46.8611519 26.2075424,46.5316861 25.9973269,46.335485 C25.7871114,46.1392838 25.4576456,46.1506447 25.2614444,46.3608602 L16.0450269,56.2355933 C15.8488258,56.4458088 15.8601867,56.7752746 16.0704022,56.9714757 C16.2806177,57.1676769 16.6100835,57.156316 16.8062846,56.9461005 Z" id="Path-10" fill="#000000" transform="translate(21.033865, 51.653480) scale(-1, 1) translate(-21.033865, -51.653480) "></path>
                            <path d="M15.0718642,68.2243276 L25.9344319,56.5131218 C26.1299789,56.3022977 26.1175943,55.9728688 25.9067702,55.7773218 C25.6959461,55.5817747 25.3665172,55.5941593 25.1709702,55.8049834 L14.3084025,67.5161892 C14.1128555,67.7270133 14.12524,68.0564422 14.3360641,68.2519892 C14.5468882,68.4475363 14.8763171,68.4351517 15.0718642,68.2243276 Z" id="Path-10" fill="#000000" transform="translate(20.121417, 62.014656) scale(-1, 1) translate(-20.121417, -62.014656) "></path>
                            <path d="M13.3368247,79.3304945 L25.844358,65.8088369 C26.039617,65.5977461 26.0267828,65.2683344 25.8156919,65.0730753 C25.6046011,64.8778163 25.2751894,64.8906505 25.0799303,65.1017414 L12.5723971,78.623399 C12.377138,78.8344898 12.3899722,79.1639015 12.6010631,79.3591605 C12.812154,79.5544196 13.1415657,79.5415854 13.3368247,79.3304945 Z" id="Path-10" fill="#000000" transform="translate(19.208378, 72.216118) scale(-1, 1) translate(-19.208378, -72.216118) "></path>
                            <path d="M11.9487733,90.6104944 L26.0692285,75.3133346 C26.2642685,75.1020413 26.2510925,74.7726431 26.0397992,74.5776032 C25.8285059,74.3825632 25.4991077,74.3957391 25.3040678,74.6070324 L11.1836126,89.9041922 C10.9885726,90.1154855 11.0017485,90.4448837 11.2130418,90.6399237 C11.4243351,90.8349636 11.7537333,90.8217877 11.9487733,90.6104944 Z" id="Path-10" fill="#000000" transform="translate(18.626421, 82.608763) scale(-1, 1) translate(-18.626421, -82.608763) "></path>
                            <path d="M10.2135386,102.23779 L25.9895606,85.1191275 C26.1844283,84.9076754 26.1709839,84.578288 25.9595317,84.3834203 C25.7480796,84.1885526 25.4186922,84.201997 25.2238245,84.4134492 L9.44780246,101.532111 C9.25293476,101.743564 9.26637914,102.072951 9.47783132,102.267819 C9.68928351,102.462686 10.0186709,102.449242 10.2135386,102.23779 Z" id="Path-10" fill="#000000" transform="translate(17.718682, 93.325619) scale(-1, 1) translate(-17.718682, -93.325619) "></path>
                            <path d="M15.8868504,27.7493129 C14.2418848,24.8141424 -2.0032895,65.4552892 6.72348179,84.7662884 C6.72348179,67.8702584 10.9828127,43.8639438 15.8868504,27.7493129 Z" id="Path-12" fill-opacity="0.4" fill="#FFFFFF"></path>
                        </g>
                        <g id="Group" transform="translate(61.632402, 146.115802) rotate(-31.000000) translate(-61.632402, -146.115802) translate(32.132402, 75.615802)" fill-rule="nonzero">
                            <path d="M29.3582554,0.957496266 C10.2291372,31.6222565 0.66457808,59.7386912 0.66457808,85.3068004 C0.66457808,106.920696 10.2291372,124.867227 29.3582554,139.146393 C47.2798307,126.438712 56.9019389,108.983916 58.2245801,86.7820065 C58.5994455,60.9635595 48.9773373,32.3553894 29.3582554,0.957496266 Z" id="Path-11" fill="#46988E"></path>
                            <path d="M29.3582554,0.957496266 C29.3582554,31.6222565 29.3582554,59.7386912 29.3582554,85.3068004 C29.3582554,106.920696 29.3582554,124.867227 29.3582554,139.146393 C47.2798307,126.438712 56.9019389,108.983916 58.2245801,86.7820065 C58.5994455,60.9635595 48.9773373,32.3553894 29.3582554,0.957496266 Z" id="Path-11" fill="#2A5E57"></path>
                            <path d="M29.3582554,138.452646 C29.3582554,124.033317 29.3582554,106.00029 29.3582554,84.3535657 C29.3582554,58.7467245 29.3582554,30.6288693 29.3582554,-4.41313652e-14 C46.0628966,31.0001763 54.2421285,59.4216889 53.8959512,85.2645378 C52.6840938,107.313428 44.5048618,125.042798 29.3582554,138.452646 Z" id="Combined-Shape" fill="#397E75"></path>
                            <path d="M29.3934391,1.68957097 C-8.24293388,64.851562 -8.19256716,110.451009 29.3934391,138.698512 C66.9794431,110.45101 67.0298121,64.8515676 29.393446,1.68958247 Z M29.3934391,140.00362 C29.2588835,140.011706 29.1208536,139.974164 29.0042804,139.887346 C-9.64233975,111.105315 -9.64233975,64.5008274 28.8499896,0.288930802 C28.9674266,0.093025408 29.1801921,-0.0105409499 29.3934391,0.00198366489 C29.6066861,-0.0105409499 29.8194516,0.093025408 29.9368886,0.288930802 C68.429218,64.5008274 68.429218,111.105315 29.7825978,139.887346 C29.6660247,139.974164 29.5279947,140.011706 29.3934391,140.00362 Z" id="Combined-Shape" fill="#000000"></path>
                            <path d="M28.8375987,22.9985684 L28.9080271,122.344761 C28.9082309,122.632312 29.1415021,122.865049 29.4290528,122.865049 C29.7166035,122.865049 29.9495441,122.631574 29.9493404,122.344023 L29.878912,22.9978302 C29.8787081,22.7102795 29.645437,22.4775426 29.3578863,22.4775426 C29.0703356,22.4775426 28.8373949,22.7110177 28.8375987,22.9985684 Z" id="Path-9" fill="#000000"></path>
                            <path d="M29.7408357,45.9889285 L36.5171694,38.6479004 C36.7122093,38.4366071 36.6990334,38.107209 36.4877401,37.912169 C36.2764468,37.717129 35.9470486,37.7303049 35.7520086,37.9415982 L28.975675,45.2826263 C28.7806351,45.4939196 28.793811,45.8233178 29.0051043,46.0183578 C29.2163976,46.2133977 29.5457958,46.2002218 29.7408357,45.9889285 Z" id="Path-10" fill="#000000"></path>
                            <path d="M29.7414228,58.8253547 L38.3986808,49.4152917 C38.5933689,49.2036742 38.5796449,48.8742984 38.3680274,48.6796103 C38.1564098,48.4849221 37.827034,48.4986461 37.6323459,48.7102637 L28.9750879,58.1203266 C28.7803998,58.3319442 28.7941238,58.66132 29.0057413,58.8560081 C29.2173589,59.0506962 29.5467347,59.0369722 29.7414228,58.8253547 Z" id="Path-10" fill="#000000"></path>
                            <path d="M29.7388842,71.4724811 L40.227427,60.2347567 C40.4236281,60.0245412 40.4122672,59.6950754 40.2020517,59.4988743 C39.9918362,59.3026731 39.6623704,59.314034 39.4661693,59.5242495 L28.9776265,70.7619739 C28.7814254,70.9721894 28.7927863,71.3016552 29.0030018,71.4978563 C29.2132173,71.6940575 29.5426831,71.6826966 29.7388842,71.4724811 Z" id="Path-10" fill="#000000"></path>
                            <path d="M29.7399862,84.3075847 L42.1018943,70.9799026 C42.2974413,70.7690785 42.2850567,70.4396496 42.0742326,70.2441026 C41.8634085,70.0485556 41.5339796,70.0609401 41.3384326,70.2717642 L28.9765245,83.5994463 C28.7809775,83.8102704 28.7933621,84.1396993 29.0041862,84.3352464 C29.2150103,84.5307934 29.5444392,84.5184088 29.7399862,84.3075847 Z" id="Path-10" fill="#000000"></path>
                            <path d="M29.7404692,97.1442948 L43.9743944,81.7562676 C44.1696534,81.5451767 44.1568192,81.2157651 43.9457283,81.020506 C43.7346375,80.825247 43.4052258,80.8380812 43.2099667,81.049172 L28.9760416,96.4371993 C28.7807825,96.6482901 28.7936167,96.9777018 29.0047076,97.1729609 C29.2157985,97.3682199 29.5452102,97.3553857 29.7404692,97.1442948 Z" id="Path-10" fill="#000000"></path>
                            <path d="M29.7388842,109.788905 L45.80836,92.5716099 C46.0045611,92.3613944 45.9932002,92.0319286 45.7829847,91.8357275 C45.5727692,91.6395263 45.2433034,91.6508872 45.0471023,91.8611027 L28.9776265,109.078398 C28.7814254,109.288614 28.7927863,109.618079 29.0030018,109.814281 C29.2132173,110.010482 29.5426831,109.999121 29.7388842,109.788905 Z" id="Path-10" fill="#000000"></path>
                            <path d="M29.7393858,123.020592 L47.6929433,103.730068 C47.8888472,103.519575 47.8770208,103.190126 47.6665283,102.994222 C47.4560358,102.798318 47.1265864,102.810144 46.9306825,103.020637 L28.977125,122.311162 C28.781221,122.521654 28.7930474,122.851103 29.0035399,123.047007 C29.2140325,123.242911 29.5434819,123.231085 29.7393858,123.020592 Z" id="Path-10" fill="#000000"></path>
                            <path d="M22.6305714,39.2736789 L29.4069051,31.9326508 C29.601945,31.7213575 29.5887691,31.3919593 29.3774758,31.1969194 C29.1661825,31.0018794 28.8367843,31.0150553 28.6417443,31.2263486 L21.8654107,38.5673767 C21.6703708,38.77867 21.6835467,39.1080682 21.89484,39.3031082 C22.1061333,39.4981481 22.4355315,39.4849722 22.6305714,39.2736789 Z" id="Path-10" fill="#000000" transform="translate(25.636158, 35.250014) scale(-1, 1) translate(-25.636158, -35.250014) "></path>
                            <path d="M21.0475291,51.9219236 L29.7047871,42.7000619 C29.9015971,42.4904164 29.891192,42.160919 29.6815465,41.964109 C29.4719009,41.7672989 29.1424036,41.7777041 28.9455935,41.9873496 L20.2883356,51.2092113 C20.0915255,51.4188568 20.1019307,51.7483542 20.3115762,51.9451642 C20.5212217,52.1419743 20.8507191,52.1315691 21.0475291,51.9219236 Z" id="Path-10" fill="#000000" transform="translate(24.996561, 46.954637) scale(-1, 1) translate(-24.996561, -46.954637) "></path>
                            <path d="M19.0734878,64.7572315 L29.5620305,53.5195071 C29.7582317,53.3092916 29.7468708,52.9798258 29.5366553,52.7836246 C29.3264398,52.5874235 28.996974,52.5987844 28.8007729,52.8089999 L18.3122301,64.0467243 C18.116029,64.2569398 18.1273898,64.5864056 18.3376053,64.7826067 C18.5478209,64.9788079 18.8772866,64.967447 19.0734878,64.7572315 Z" id="Path-10" fill="#000000" transform="translate(23.937130, 58.783116) scale(-1, 1) translate(-23.937130, -58.783116) "></path>
                            <path d="M17.0995164,77.5923351 L29.4614244,64.264653 C29.6569714,64.0538289 29.6445869,63.7244 29.4337627,63.528853 C29.2229386,63.3333059 28.8935097,63.3456905 28.6979627,63.5565146 L16.3360547,76.8841967 C16.1405077,77.0950208 16.1528922,77.4244497 16.3637163,77.6199967 C16.5745405,77.8155438 16.9039694,77.8031592 17.0995164,77.5923351 Z" id="Path-10" fill="#000000" transform="translate(22.898740, 70.574425) scale(-1, 1) translate(-22.898740, -70.574425) "></path>
                            <path d="M15.1249259,90.2315379 L29.3588511,74.8435106 C29.5541101,74.6324198 29.5412759,74.3030081 29.3301851,74.1077491 C29.1190942,73.91249 28.7896825,73.9253242 28.5944235,74.1364151 L14.3604983,89.5244423 C14.1652392,89.7355332 14.1780735,90.0649449 14.3891643,90.2602039 C14.6002552,90.4554629 14.9296669,90.4426287 15.1249259,90.2315379 Z" id="Path-10" fill="#000000" transform="translate(21.859675, 82.183976) scale(-1, 1) translate(-21.859675, -82.183976) "></path>
                            <path d="M13.5452337,103.06855 L29.6147095,85.6599515 C29.8097495,85.4486582 29.7965735,85.11926 29.5852802,84.92422 C29.3739869,84.7291801 29.0445887,84.742356 28.8495488,84.9536493 L12.780073,102.362248 C12.585033,102.573541 12.598209,102.90294 12.8095023,103.09798 C13.0207956,103.293019 13.3501938,103.279844 13.5452337,103.06855 Z" id="Path-10" fill="#000000" transform="translate(21.197391, 94.011100) scale(-1, 1) translate(-21.197391, -94.011100) "></path>
                            <path d="M11.570448,116.300783 L29.5240055,96.8192631 C29.7188732,96.6078109 29.7054288,96.2784236 29.4939766,96.0835559 C29.2825245,95.8886882 28.9531371,95.9021326 28.7582694,96.1135848 L10.8047119,115.595105 C10.6098442,115.806557 10.6232886,116.135944 10.8347408,116.330812 C11.046193,116.52568 11.3755803,116.512235 11.570448,116.300783 Z" id="Path-10" fill="#000000" transform="translate(20.164359, 106.207184) scale(-1, 1) translate(-20.164359, -106.207184) "></path>
                            <path d="M18.0796832,31.5794997 C16.2076661,28.2391931 -2.27979988,74.4899629 7.65151167,96.4664239 C7.65151167,77.2382659 12.4987502,49.9184036 18.0796832,31.5794997 Z" id="Path-12" fill-opacity="0.4" fill="#FFFFFF"></path>
                        </g>
                        <g id="Group-2" transform="translate(162.651066, 98.524823)" fill-rule="nonzero">
                            <path d="M11.8604339,26.5240541 C11.0992958,33.9407759 9.38185169,39.6532217 6.29356423,46.6177922 C5.80621774,47.7168347 4.03994035,51.57226 4.19409794,51.2327571 C3.37804728,53.0299544 2.80917234,54.354796 2.30776754,55.661144 C0.8806331,59.3793656 0.17672054,62.6037006 0.17672054,66.0956037 C0.17672054,71.7903569 2.44523731,77.3843598 6.20977934,82.6554452 C7.51784594,84.4869909 8.91804898,86.1490958 10.3192545,87.6132818 C10.8108344,88.126957 11.2681761,88.5798599 11.6799145,88.9683138 C11.825224,89.1054059 11.9548383,89.2249685 12.0673366,89.3265375 C12.1073999,89.3627086 12.1426479,89.3942038 12.1729032,89.4209651 L12.2017855,89.446397 L12.2100183,89.453591 L12.2140233,89.4570746 C13.0090411,90.146613 14.2083935,89.3561902 13.8882765,88.3536726 C11.3607515,80.4381669 10.3260627,74.3519683 10.4640925,69.2498154 C10.5714636,65.2809332 11.2466134,62.3952019 12.898483,57.6575984 C12.9687486,57.4560747 13.0407226,57.2506383 13.1382205,56.9730622 C13.1985584,56.801322 13.1985584,56.801322 13.259064,56.6291462 C13.3196384,56.456732 13.3445281,56.385851 13.3803207,56.2837996 C14.8110372,52.2045563 15.488262,49.8355083 15.9674305,46.6684727 C16.8802891,40.6349891 16.6837939,35.5089516 15.6967638,31.2750998 C15.347476,29.7768346 14.9210251,28.4943863 14.4578596,27.4254638 C14.1722238,26.7662554 13.9307039,26.3152163 13.7737426,26.0696104 C13.242606,25.238512 11.9611259,25.5428855 11.8604339,26.5240541 Z M12.8963068,26.6303601 C12.8963068,26.6303601 16.9793628,33.0193405 14.9378348,46.5126962 C12.8963068,60.0060518 4.89331796,63.6072845 12.8963068,88.6704216 C12.8963068,88.6704216 1.218034,78.5415681 1.218034,66.0956037 C1.218034,53.6496393 10.85589,46.5126962 12.8963068,26.6303601 Z" id="Path-13" fill="#000000"></path>
                            <path d="M31.7229684,1.12696044 C30.758342,12.1140058 28.5810941,20.5788818 24.673204,30.8801854 C24.0582692,32.5011702 21.833304,38.178052 22.0285197,37.6755166 C21.0049944,40.3103335 20.2923745,42.250229 19.6654719,44.1593947 C17.8903434,49.5653622 17.0179014,54.2365919 17.0179014,59.2889322 C17.0179014,67.5179962 19.8354045,75.6391608 24.5211742,83.3082196 C26.1554494,85.982989 27.9058869,88.4117637 29.6575265,90.5512644 C30.271884,91.3016575 30.8432254,91.9630103 31.3572137,92.5298298 C31.5382533,92.7294778 31.6995538,92.9033985 31.8393236,93.0509018 C31.8888914,93.1032122 31.932402,93.1486564 31.9696314,93.1871478 C31.9906201,93.2088087 31.9906201,93.2088087 32.004747,93.2232911 L32.0145012,93.2332543 L32.0173908,93.2361946 L32.018334,93.2371526 C32.7716413,94.0008605 34.0472538,93.2660722 33.7647985,92.2321061 C30.5660947,80.5228185 29.253618,71.4987748 29.42919,63.9128357 C29.5661683,57.994416 30.4272978,53.6921484 32.5231303,46.6660739 C32.6117369,46.3690286 32.7024577,46.06635 32.825311,45.657516 C32.9012959,45.4047131 32.9012959,45.4047131 32.9774528,45.1513991 C33.0391129,44.9462791 33.0849795,44.7936001 33.1299982,44.6435652 C34.9210181,38.6745917 35.765945,35.2197079 36.362947,30.6074498 C37.5017846,21.8091313 37.2571145,14.3483569 36.0302048,8.19671475 C35.5977447,6.02838893 35.0707148,4.1757985 34.4996347,2.63523265 C34.150571,1.69358584 33.8584866,1.05599414 33.673962,0.71849417 C33.1796891,-0.18554296 31.8130818,0.100574332 31.7229684,1.12696044 Z M32.7602916,1.218034 C32.7602916,1.218034 37.9002056,10.6190613 35.3302486,30.4737793 C32.7602916,50.3284973 22.6858093,55.6275098 32.7602916,92.506514 C32.7602916,92.506514 18.0592149,77.6024726 18.0592149,59.2889322 C18.0592149,40.9753919 30.1917333,30.4737793 32.7602916,1.218034 Z" id="Path-13-Copy" fill="#000000" transform="translate(27.057378, 46.864239) scale(-1, -1) translate(-27.057378, -46.864239) "></path>
                            <path d="M37.2576082,53.3509532 C36.6425002,59.3447213 35.2549582,63.9598691 32.7573171,69.5924399 C32.36253,70.4827465 30.930232,73.6091626 31.0548326,73.3347532 C30.3913293,74.7959937 29.9284459,75.8739937 29.5200094,76.9381243 C28.3542161,79.9754541 27.7781405,82.6142204 27.7781405,85.4735339 C27.7781405,90.140536 29.6333612,94.7153799 32.7090765,99.0219748 C33.7760537,100.515949 34.9179467,101.871428 36.0608422,103.065694 C36.4620136,103.484897 36.8354046,103.854664 37.1718025,104.172038 C37.2907428,104.284252 37.3969478,104.38222 37.4892656,104.46557 C37.5222658,104.495364 37.5513588,104.521359 37.5764008,104.543509 L37.6005575,104.56478 L37.6075942,104.570929 L37.6111977,104.574063 C38.4062154,105.263601 39.6055679,104.473178 39.2854509,103.470661 C37.2412574,97.0688151 36.4054909,92.152708 36.5168149,88.0377111 C36.6032645,84.8421732 37.1468386,82.5188242 38.4808343,78.6928909 C38.5377788,78.5295725 38.5961232,78.3630394 38.675173,78.1379848 C38.7241112,77.9986919 38.7241112,77.9986919 38.7732002,77.8590031 C38.8223526,77.7190997 38.8223526,77.7190997 38.8716073,77.5787336 C40.0360283,74.2587492 40.5882752,72.3268951 40.9792714,69.7426292 C41.7235467,64.8233872 41.5631764,60.639755 40.7567714,57.1806919 C40.4707023,55.9536027 40.1210171,54.9020086 39.7406381,54.024146 C39.5046742,53.4795735 39.3037949,53.1044309 39.1709169,52.8965095 C38.6397803,52.0654111 37.3583003,52.3697846 37.2576082,53.3509532 Z M38.2934812,53.4572592 C38.2934812,53.4572592 41.6058702,58.6403351 39.9496757,69.5868526 C38.2934812,80.5333702 31.801037,83.4548789 38.2934812,103.78741 C38.2934812,103.78741 28.819454,95.5703528 28.819454,85.4735339 C28.819454,75.3767151 36.6381881,69.5868526 38.2934812,53.4572592 Z" id="Path-13-Copy-2" fill="#000000"></path>
                            <path d="M12.8963068,26.6303601 C10.85589,46.5126962 1.218034,53.6496393 1.218034,66.0956037 C1.218034,78.5415681 12.8963068,88.6704216 12.8963068,88.6704216 C4.89331796,63.6072845 12.8963068,60.0060518 14.9378348,46.5126962 C16.9793628,33.0193405 12.8963068,26.6303601 12.8963068,26.6303601 Z" id="Path-13" fill="#C3C3CC"></path>
                            <path d="M32.7602916,1.218034 C30.1917333,30.4737793 18.0592149,40.9753919 18.0592149,59.2889322 C18.0592149,77.6024726 32.7602916,92.506514 32.7602916,92.506514 C22.6858093,55.6275098 32.7602916,50.3284973 35.3302486,30.4737793 C37.9002056,10.6190613 32.7602916,1.218034 32.7602916,1.218034 Z" id="Path-13-Copy" fill="#E9E9F2" transform="translate(27.054526, 46.862274) scale(-1, -1) translate(-27.054526, -46.862274) "></path>
                            <path d="M38.2934812,53.4572592 C36.6381881,69.5868526 28.819454,75.3767151 28.819454,85.4735339 C28.819454,95.5703528 38.2934812,103.78741 38.2934812,103.78741 C31.801037,83.4548789 38.2934812,80.5333702 39.9496757,69.5868526 C41.6058702,58.6403351 38.2934812,53.4572592 38.2934812,53.4572592 Z" id="Path-13-Copy-2" fill="#9D9DA4"></path>
                        </g>
                        <g id="Oval-Copy-2" transform="translate(110.659573, 247.328778) rotate(12.000000) translate(-110.659573, -247.328778) translate(34.159573, 211.328778)">
                            <path d="M75.8758036,52.8243161 C104.643677,52.8825244 115.095679,52.9036996 126.346923,52.9267849 C136.21164,52.9464889 142.782737,51.2644154 146.676944,48.033087 C149.898721,45.3597257 151.145384,41.8633305 151.136361,37.3325035 C151.125625,32.0318789 150.308043,28.5675469 147.48524,25.4644856 C143.745795,21.3537752 136.953978,19.1537564 126.287433,19.1321739 L75.8162994,19.0300516 L74.1005039,19.0265799 L74.0328314,19.0264429 C56.3252839,18.9906132 47.6272094,18.9729686 39.3848483,18.9558681 C26.0099697,18.9291489 16.2180156,21.220886 9.84291215,25.306889 C4.70396442,28.6006012 2.06514179,32.9725242 2.07328397,37.0392811 C2.08068227,40.7071137 5.46134152,44.604297 11.3368598,47.5052441 C18.0534164,50.821441 27.603162,52.7266421 39.4443287,52.7506013 L75.8758036,52.8243161 Z M75.8779105,51.7830047 L39.4464357,51.70929 C14.1474411,51.6581005 3.12651138,42.9505038 3.11459868,37.0371914 C3.10224247,30.8721993 10.4781538,19.9391632 39.3827176,19.9971827 C49.6306666,20.0183837 62.7892471,20.0450085 75.8141924,20.0713629 L126.285326,20.1734852 C149.032123,20.2195107 150.080989,30.3849946 150.095049,37.3345885 C150.108916,44.2841824 147.108386,51.9271311 126.349044,51.8854704 C113.02671,51.8581709 96.2648694,51.8242553 75.8779105,51.7830047 Z" id="Mask" fill="#000000" fill-rule="nonzero" transform="translate(76.604838, 35.941297) rotate(-165.000000) translate(-76.604838, -35.941297) "></path>
                            <mask id="mask-2" fill="white">
                                <use xlink:href="#path-1"></use>
                            </mask>
                            <use id="Mask" fill="#818C4F" fill-rule="nonzero" transform="translate(76.604845, 35.941302) rotate(-165.000000) translate(-76.604845, -35.941302) " xlink:href="#path-1"></use>
                            <path d="M123.351108,69.2147434 C124.546705,69.3791118 124.552021,71.1053431 123.357458,71.277071 C110.035678,73.1921836 95.5216271,61.6908417 89.2023767,44.1887244 C82.1678279,24.7044198 87.7045103,4.66958022 101.806435,-0.50473589 C104.942642,-1.65544947 108.28519,-1.9867369 111.697048,-1.51768128 C112.892645,-1.35331292 112.89796,0.372918447 111.703398,0.544646323 C110.478062,0.720798227 109.278968,1.02255925 108.112817,1.45043456 C95.2569346,6.16754938 90.0634641,24.9604545 96.7502352,43.4814836 C101.844332,57.5903535 112.528682,67.7268973 123.351108,69.2147434 Z M95.7708066,43.8351125 C88.9101532,24.8324638 94.2752011,5.41857174 107.754119,0.472850928 C108.998807,0.0161593408 110.269159,-0.301188873 111.555224,-0.486071012 C108.368829,-0.924130395 105.191134,-0.637429939 102.165124,0.472850928 C88.686206,5.41857174 83.3211581,24.8324638 90.1818115,43.8351125 C96.4092311,61.0828907 110.568305,72.0635957 123.209285,70.2463537 C112.2023,68.7331348 101.091508,58.5715985 95.7708066,43.8351125 Z" id="Combined-Shape-Copy-2" fill="#000000" fill-rule="nonzero" mask="url(#mask-2)"></path>
                            <path d="M123.351108,69.2147434 C124.546705,69.3791118 124.552021,71.1053431 123.357458,71.277071 C110.035678,73.1921836 95.5216271,61.6908417 89.2023767,44.1887244 C82.1678279,24.7044198 87.7045103,4.66958022 101.806435,-0.50473589 C104.942642,-1.65544947 108.28519,-1.9867369 111.697048,-1.51768128 C112.892645,-1.35331292 112.89796,0.372918447 111.703398,0.544646323 C110.478062,0.720798227 109.278968,1.02255925 108.112817,1.45043456 C95.2569346,6.16754938 90.0634641,24.9604545 96.7502352,43.4814836 C101.844332,57.5903535 112.528682,67.7268973 123.351108,69.2147434 Z M95.7708066,43.8351125 C88.9101532,24.8324638 94.2752011,5.41857174 107.754119,0.472850928 C108.998807,0.0161593408 110.269159,-0.301188873 111.555224,-0.486071012 C108.368829,-0.924130395 105.191134,-0.637429939 102.165124,0.472850928 C88.686206,5.41857174 83.3211581,24.8324638 90.1818115,43.8351125 C96.4092311,61.0828907 110.568305,72.0635957 123.209285,70.2463537 C112.2023,68.7331348 101.091508,58.5715985 95.7708066,43.8351125 Z" id="Combined-Shape-Copy-2" fill="#000000" fill-rule="nonzero" mask="url(#mask-2)"></path>
                            <path d="M153.021582,74.878108 C140.380603,76.6953501 126.221529,65.7146451 119.994109,48.4668669 C113.133456,29.4642182 118.498504,10.0503261 131.977422,5.1046053 C135.003431,3.99432444 138.181127,3.70762398 141.367522,4.14568336 C140.081457,4.3305655 138.811105,4.64791372 137.566417,5.1046053 C124.087499,10.0503261 118.722451,29.4642182 125.583104,48.4668669 C130.903806,63.2033529 142.014598,73.3648892 153.021582,74.878108 Z" id="Combined-Shape-Copy-3" fill="#FFFFFF" fill-rule="nonzero" mask="url(#mask-2)"></path>
                            <path d="M153.163406,73.8464978 C154.359003,74.0108661 154.364318,75.7370975 153.169756,75.9088254 C139.847976,77.823938 125.333925,66.3225961 119.014674,48.8204788 C111.980126,29.3361741 117.516808,9.30133459 131.618733,4.12701849 C134.754939,2.97630491 138.097487,2.64501748 141.509345,3.1140731 C142.704943,3.27844146 142.710258,5.00467282 141.515696,5.1764007 C140.290359,5.3525526 139.091265,5.65431362 137.925115,6.08218893 C125.069232,10.7993038 119.875762,29.5922088 126.562533,48.113238 C131.65663,62.2221079 142.34098,72.3586517 153.163406,73.8464978 Z M125.583104,48.4668669 C118.722451,29.4642182 124.087499,10.0503261 137.566417,5.1046053 C138.811105,4.64791372 140.081457,4.3305655 141.367522,4.14568336 C138.181127,3.70762398 135.003431,3.99432444 131.977422,5.1046053 C118.498504,10.0503261 113.133456,29.4642182 119.994109,48.4668669 C126.221529,65.7146451 140.380603,76.6953501 153.021582,74.878108 C142.014598,73.3648892 130.903806,63.2033529 125.583104,48.4668669 Z" id="Combined-Shape-Copy-3" fill="#000000" fill-rule="nonzero" mask="url(#mask-2)"></path>
                            <path d="M123.351108,69.2147434 C124.546705,69.3791118 124.552021,71.1053431 123.357458,71.277071 C110.035678,73.1921836 95.5216271,61.6908417 89.2023767,44.1887244 C82.1678279,24.7044198 87.7045103,4.66958022 101.806435,-0.50473589 C104.942642,-1.65544947 108.28519,-1.9867369 111.697048,-1.51768128 C112.892645,-1.35331292 112.89796,0.372918447 111.703398,0.544646323 C110.478062,0.720798227 109.278968,1.02255925 108.112817,1.45043456 C95.2569346,6.16754938 90.0634641,24.9604545 96.7502352,43.4814836 C101.844332,57.5903535 112.528682,67.7268973 123.351108,69.2147434 Z M95.7708066,43.8351125 C88.9101532,24.8324638 94.2752011,5.41857174 107.754119,0.472850928 C108.998807,0.0161593408 110.269159,-0.301188873 111.555224,-0.486071012 C108.368829,-0.924130395 105.191134,-0.637429939 102.165124,0.472850928 C88.686206,5.41857174 83.3211581,24.8324638 90.1818115,43.8351125 C96.4092311,61.0828907 110.568305,72.0635957 123.209285,70.2463537 C112.2023,68.7331348 101.091508,58.5715985 95.7708066,43.8351125 Z" id="Combined-Shape-Copy-2" fill="#000000" fill-rule="nonzero" mask="url(#mask-2)"></path>
                            <path d="M123.209285,70.2463537 C110.568305,72.0635957 96.4092311,61.0828907 90.1818115,43.8351125 C83.3211581,24.8324638 88.686206,5.41857174 102.165124,0.472850928 C105.191134,-0.637429939 108.368829,-0.924130395 111.555224,-0.486071012 C110.269159,-0.301188873 108.998807,0.0161593408 107.754119,0.472850928 C94.2752011,5.41857174 88.9101532,24.8324638 95.7708066,43.8351125 C101.091508,58.5715985 112.2023,68.7331348 123.209285,70.2463537 Z" id="Combined-Shape-Copy-2" fill="#FFFFFF" fill-rule="nonzero" mask="url(#mask-2)"></path>
                            <path d="M93.5388106,61.6499211 C94.7344076,61.8142894 94.7397228,63.5405208 93.5451607,63.7122487 C80.2233803,65.6273613 65.7093294,54.1260193 59.390079,36.623902 C52.3555302,17.1395974 57.8922126,-2.89524213 71.9941377,-8.06955824 C75.130344,-9.22027181 78.472892,-9.55155924 81.8847501,-9.08250362 C83.0803471,-8.91813527 83.0856623,-7.1919039 81.8911002,-7.02017602 C80.6657639,-6.84402412 79.4666699,-6.5422631 78.3005194,-6.11438779 C65.4446369,-1.39727297 60.2511664,17.3956321 66.9379374,35.9166613 C72.0320343,50.0255312 82.7163844,60.1620749 93.5388106,61.6499211 Z M65.9585089,36.2702902 C59.0978555,17.2676415 64.4629034,-2.1462506 77.9418218,-7.09197142 C79.1865095,-7.54866301 80.4568613,-7.86601122 81.7429263,-8.05089336 C78.5565314,-8.48895274 75.3788358,-8.20225229 72.3528267,-7.09197142 C58.8739082,-2.1462506 53.5088604,17.2676415 60.3695137,36.2702902 C66.5969333,53.5180684 80.7560071,64.4987734 93.3969868,62.6815313 C82.3900023,61.1683125 71.2792105,51.0067762 65.9585089,36.2702902 Z" id="Combined-Shape-Copy" fill="#000000" fill-rule="nonzero" mask="url(#mask-2)"></path>
                            <path d="M93.3969868,62.6815313 C80.7560071,64.4987734 66.5969333,53.5180684 60.3695137,36.2702902 C53.5088604,17.2676415 58.8739082,-2.1462506 72.3528267,-7.09197142 C75.3788358,-8.20225229 78.5565314,-8.48895274 81.7429263,-8.05089336 C80.4568613,-7.86601122 79.1865095,-7.54866301 77.9418218,-7.09197142 C64.4629034,-2.1462506 59.0978555,17.2676415 65.9585089,36.2702902 C71.2792105,51.0067762 82.3900023,61.1683125 93.3969868,62.6815313 Z" id="Combined-Shape-Copy" fill="#FFFFFF" fill-rule="nonzero" mask="url(#mask-2)"></path>
                            <path d="M63.7265129,56.6732902 C64.9221099,56.8376586 64.9274251,58.5638899 63.732863,58.7356178 C50.4110825,60.6507304 35.8970317,49.1493885 29.5777813,31.6472712 C22.5432325,12.1629666 28.0799149,-7.87187298 42.18184,-13.0461891 C45.3180463,-14.1969027 48.6605943,-14.5281901 52.0724524,-14.0591345 C53.2680494,-13.8947661 53.2733646,-12.1685347 52.0788025,-11.9968069 C50.8534662,-11.820655 49.6543722,-11.5188939 48.4882217,-11.0910186 C35.6323391,-6.37390382 30.4388687,12.4190013 37.1256397,30.9400304 C42.2197366,45.0489004 52.9040867,55.1854441 63.7265129,56.6732902 Z M36.1462112,31.2936593 C29.2855578,12.2910106 34.6506057,-7.12288145 48.1295241,-12.0686023 C49.3742118,-12.5252939 50.6445636,-12.8426421 51.9306286,-13.0275242 C48.7442336,-13.4655836 45.5665381,-13.1788831 42.5405289,-12.0686023 C29.0616105,-7.12288145 23.6965627,12.2910106 30.557216,31.2936593 C36.7846356,48.5414376 50.9437094,59.5221425 63.5846891,57.7049005 C52.5777046,56.1916816 41.4669128,46.0301453 36.1462112,31.2936593 Z" id="Combined-Shape" fill="#000000" fill-rule="nonzero" mask="url(#mask-2)"></path>
                            <path d="M63.5846891,57.7049005 C50.9437094,59.5221425 36.7846356,48.5414376 30.557216,31.2936593 C23.6965627,12.2910106 29.0616105,-7.12288145 42.5405289,-12.0686023 C45.5665381,-13.1788831 48.7442336,-13.4655836 51.9306286,-13.0275242 C50.6445636,-12.8426421 49.3742118,-12.5252939 48.1295241,-12.0686023 C34.6506057,-7.12288145 29.2855578,12.2910106 36.1462112,31.2936593 C41.4669128,46.0301453 52.5777046,56.1916816 63.5846891,57.7049005 Z" id="Combined-Shape" fill="#FFFFFF" fill-rule="nonzero" mask="url(#mask-2)"></path>
                            <path d="M105.237526,19.4297588 C105.223527,11.5031073 93.5566675,5.38711474 79.3450136,5.36166609 C65.1311108,5.3366816 53.4806027,11.4139846 53.4945361,19.3453158 C53.508535,27.2719672 65.1753944,33.3879598 79.3870483,33.4134085 C93.6009511,33.4383929 105.251459,27.36109 105.237526,19.4297588 Z M79.3889016,32.3720176 C65.6755899,32.3475349 54.5485148,26.5145295 54.5358622,19.3434832 C54.5232526,12.1724368 65.6298487,6.37887878 79.3431603,6.40305697 C93.056472,6.42753961 104.183547,12.260545 104.1962,19.4315914 C104.208809,26.6026378 93.1022133,32.3961957 79.3889016,32.3720176 Z" id="Oval" fill="#000000" fill-rule="nonzero" mask="url(#mask-2)" transform="translate(79.366031, 19.387537) rotate(13.000000) translate(-79.366031, -19.387537) "></path>
                            <ellipse id="Oval" fill="#215E55" fill-rule="nonzero" mask="url(#mask-2)" transform="translate(79.366031, 19.387537) rotate(13.000000) translate(-79.366031, -19.387537) " cx="79.366031" cy="19.3875373" rx="24.830158" ry="12.9844044"></ellipse>
                        </g>
                        <g id="Group-Copy" transform="translate(115.435652, 234.958053) rotate(-26.000000) translate(-115.435652, -234.958053) translate(34.935652, 199.458053)">
                            <g id="Oval-Copy-3" transform="translate(0.000000, 0.125557)">
                                <path d="M90.2325388,17.6934813 C86.5461063,16.7244573 122.351216,26.2130642 130.815634,28.3642632 C130.983359,28.4068807 130.983359,28.4068807 131.151084,28.4494624 C143.487813,31.580815 150.264116,34.7490263 153.276182,38.8144729 C156.057911,42.5690296 155.757335,46.7509131 153.002015,53.580697 C152.569458,54.6529045 152.183175,55.7189365 151.745774,57.0177131 C151.639331,57.3337771 150.923104,59.5071036 150.719754,60.0968619 C149.048975,64.9424784 147.370562,67.0449984 143.518241,67.9298024 C139.398895,68.8759367 132.767431,68.0684955 121.154443,65.2327612 C116.764028,64.1606815 111.752847,62.8683853 105.207646,61.1325656 C101.694391,60.2008328 89.1147589,56.831671 87.3643213,56.3651757 C85.4114127,55.8447215 83.6214687,55.369697 81.9059679,54.9169173 C81.3312417,54.7652273 80.7660255,54.6163409 80.2089027,54.4698944 L23.509341,39.5657193 C11.5625359,36.4253551 4.62456028,32.0494924 1.67688351,26.490243 C0.445074762,24.1670805 -0.0607651772,21.6984159 0.0213467143,19.0351123 C0.0840393658,17.0016728 0.449762893,15.0781886 1.15410458,12.4983699 C2.50159967,7.56699388 4.93689843,4.13511798 9.32059021,2.17443559 C14.6304526,-0.20049269 22.4848743,-0.114823054 33.5329771,2.78930623 L90.2325388,17.6934813 Z M89.9603502,18.728961 L33.2607886,3.8247859 C9.93962435,-2.30546809 4.26508704,5.17511128 2.18689798,12.78058 C0.110335233,20.3864845 -1.77235353,31.8130881 23.7815296,38.5302396 L80.4810912,53.4344147 C95.1133898,57.2806938 109.875611,61.3765094 121.40842,64.1926649 C150.460228,71.2867224 147.112174,65.3184854 152.009114,53.1801336 C156.562206,41.894098 155.581295,35.7550329 130.887679,29.4872112 C118.434099,26.326199 106.01346,22.9487178 89.9603502,18.728961 Z" id="Mask" fill="#000000" fill-rule="nonzero"></path>
                                <mask id="mask-4" fill="white">
                                    <use xlink:href="#path-3"></use>
                                </mask>
                                <use id="Mask" fill="#B49D4C" fill-rule="nonzero" xlink:href="#path-3"></use>
                                <path d="M173.383962,61.2314834 C180.239578,61.2314834 185.70329,53.2120919 185.70329,43.3932652 C185.70329,33.5744386 180.239578,25.555047 173.383962,25.555047 C166.528345,25.555047 161.064633,33.5744386 161.064633,43.3932652 C161.064633,53.2120919 166.528345,61.2314834 173.383962,61.2314834 Z M173.383962,60.19017 C167.207125,60.19017 162.105946,52.7028888 162.105946,43.3932652 C162.105946,34.0836417 167.207125,26.5963605 173.383962,26.5963605 C179.560798,26.5963605 184.661977,34.0836417 184.661977,43.3932652 C184.661977,52.7028888 179.560798,60.19017 173.383962,60.19017 Z" id="Oval" fill="#000000" fill-rule="nonzero" mask="url(#mask-4)"></path>
                                <path d="M138.742633,73.6590667 C139.943306,73.8196954 139.948509,75.554628 138.748821,75.7224562 C123.347635,77.8769769 106.526575,64.9055896 99.1950989,45.1449345 C91.0304178,23.1385272 97.4526032,0.523328878 113.765515,-5.30182708 C117.384711,-6.59399603 121.241613,-6.9659594 125.180378,-6.43902256 C126.381051,-6.27839384 126.386255,-4.54346123 125.186567,-4.3756331 C123.747363,-4.17429829 122.338992,-3.82941024 120.969559,-3.34047879 C105.912648,2.03617367 99.8487164,23.3898093 107.651394,44.4205036 C113.596109,60.4433958 126.074935,71.9643537 138.742633,73.6590667 Z M138.604553,74.6911848 C125.795936,72.9776193 112.866537,61.4705832 106.675109,44.782719 C98.6914069,23.2641082 104.934531,1.27973564 120.619375,-4.32114415 C122.067683,-4.83823659 123.54585,-5.19756138 125.042299,-5.40690441 C121.334504,-5.90294158 117.636829,-5.57831808 114.11565,-4.32114415 C98.4308071,1.27973564 92.1876827,23.2641082 100.171385,44.782719 C107.4179,64.3143792 123.894506,76.74902 138.604553,74.6911848 Z" id="Path" fill="#000000" fill-rule="nonzero" mask="url(#mask-4)"></path>
                                <path d="M138.604553,74.6911848 C123.894506,76.74902 107.4179,64.3143792 100.171385,44.782719 C92.1876827,23.2641082 98.4308071,1.27973564 114.11565,-4.32114415 C117.636829,-5.57831808 121.334504,-5.90294158 125.042299,-5.40690441 C123.54585,-5.19756138 122.067683,-4.83823659 120.619375,-4.32114415 C104.934531,1.27973564 98.6914069,23.2641082 106.675109,44.782719 C112.866537,61.4705832 125.795936,72.9776193 138.604553,74.6911848 Z" id="Path" fill="#FFFFFF" fill-rule="nonzero" mask="url(#mask-4)"></path>
                                <path d="M104.051072,65.0926302 C105.251745,65.253259 105.256948,66.9881916 104.05726,67.1560197 C88.6560744,69.3105404 71.835014,56.3391531 64.503538,36.578498 C56.338857,14.5720908 62.7610424,-8.04310758 79.0739541,-13.8682635 C82.6931498,-15.1604325 86.5500521,-15.5323959 90.4888174,-15.005459 C91.6894904,-14.8448303 91.694694,-13.1098977 90.4950061,-12.9420696 C89.0558021,-12.7407348 87.647431,-12.3958467 86.2779982,-11.9069152 C71.2210868,-6.53026278 65.1571556,14.8233728 72.9598336,35.8540671 C78.904548,51.8769593 91.3833742,63.3979173 104.051072,65.0926302 Z M71.983548,36.2162826 C63.9998461,14.6976717 70.2429705,-7.28670082 85.9278137,-12.8875806 C87.3761217,-13.404673 88.854289,-13.7639978 90.3507383,-13.9733409 C86.6429429,-14.469378 82.9452686,-14.1447545 79.4240894,-12.8875806 C63.7392462,-7.28670082 57.4961218,14.6976717 65.4798237,36.2162826 C72.7263394,55.7479427 89.202945,68.1825835 103.912993,66.1247484 C91.1043751,64.4111828 78.1749761,52.9041468 71.983548,36.2162826 Z" id="Path" fill="#000000" fill-rule="nonzero" mask="url(#mask-4)"></path>
                                <path d="M103.912993,66.1247484 C89.202945,68.1825835 72.7263394,55.7479427 65.4798237,36.2162826 C57.4961218,14.6976717 63.7392462,-7.28670082 79.4240894,-12.8875806 C82.9452686,-14.1447545 86.6429429,-14.469378 90.3507383,-13.9733409 C88.854289,-13.7639978 87.3761217,-13.404673 85.9278137,-12.8875806 C70.2429705,-7.28670082 63.9998461,14.6976717 71.983548,36.2162826 C78.1749761,52.9041468 91.1043751,64.4111828 103.912993,66.1247484 L103.912993,66.1247484 Z" id="Path" fill="#FFFFFF" fill-rule="nonzero" mask="url(#mask-4)"></path>
                                <path d="M69.3595109,59.4570727 C70.5601839,59.6177014 70.5653875,61.352634 69.3656996,61.5204621 C53.9645135,63.6749828 37.1434532,50.7035955 29.8119772,30.9429404 C21.6472961,8.93653318 28.0694816,-13.6786652 44.3823933,-19.5038211 C48.0015889,-20.7959901 51.8584913,-21.1679534 55.7972565,-20.6410166 C56.9979295,-20.4803879 57.0031331,-18.7454553 55.8034453,-18.5776271 C54.3642413,-18.3762923 52.9558701,-18.0314043 51.5864373,-17.5424728 C36.529526,-12.1658204 30.4655947,9.18781526 38.2682728,30.2185095 C44.2129871,46.2414017 56.6918134,57.7623597 69.3595109,59.4570727 Z M37.2919871,30.580725 C29.3082853,9.06211414 35.5514097,-12.9222584 51.2362528,-18.5231382 C52.6845609,-19.0402306 54.1627282,-19.3995554 55.6591775,-19.6088984 C51.9513821,-20.1049356 48.2537077,-19.7803121 44.7325286,-18.5231382 C29.0476854,-12.9222584 22.804561,9.06211414 30.7882629,30.580725 C38.0347786,50.1123852 54.5113842,62.547026 69.2214318,60.4891908 C56.4128142,58.7756253 43.4834153,47.2685892 37.2919871,30.580725 Z" id="Path" fill="#000000" fill-rule="nonzero" mask="url(#mask-4)"></path>
                                <path d="M69.2214318,60.4891908 C54.5113842,62.547026 38.0347786,50.1123852 30.7882629,30.580725 C22.804561,9.06211414 29.0476854,-12.9222584 44.7325286,-18.5231382 C48.2537077,-19.7803121 51.9513821,-20.1049356 55.6591775,-19.6088984 C54.1627282,-19.3995554 52.6845609,-19.0402306 51.2362528,-18.5231382 C35.5514097,-12.9222584 29.3082853,9.06211414 37.2919871,30.580725 C43.4834153,47.2685892 56.4128142,58.7756253 69.2214318,60.4891908 L69.2214318,60.4891908 Z" id="Path" fill="#FFFFFF" fill-rule="nonzero" mask="url(#mask-4)"></path>
                                <path d="M83.4005638,33.6936209 C67.3676467,30.062402 55.8085626,20.3993221 57.8479233,11.7332511 C59.8848385,3.07823008 74.578794,-0.632566432 90.6064945,2.99747103 C106.639412,6.62868999 118.198496,16.2917698 116.159135,24.9578408 C114.12222,33.6128619 99.4282643,37.3236584 83.4005638,33.6936209 Z M83.6305803,32.6780294 C99.1729323,36.1981426 113.282619,32.6348868 115.145514,24.7192903 C117.008275,16.8036627 105.91883,7.53317577 90.376478,4.01306256 C74.834126,0.492949345 60.7244396,4.05620516 58.8615442,11.9718017 C56.9987831,19.8874292 68.0882282,29.1579162 83.6305803,32.6780294 Z" id="Oval" fill="#000000" fill-rule="nonzero" mask="url(#mask-4)"></path>
                                <path d="M83.6305803,32.6780294 C68.0882282,29.1579162 56.9987831,19.8874292 58.8615442,11.9718017 C60.7244396,4.05620516 74.834126,0.492949345 90.376478,4.01306256 C105.91883,7.53317577 117.008275,16.8036627 115.145514,24.7192903 C113.282619,32.6348868 99.1729323,36.1981426 83.6305803,32.6780294 Z" id="Oval" fill="#308578" fill-rule="nonzero" mask="url(#mask-4)"></path>
                            </g>
                            <path d="M156.631824,51.5779938 C156.685741,42.5146649 151.393674,35.0776508 144.606182,35.1134671 C137.830981,35.1499939 132.462017,42.6273275 132.408145,51.6830429 C132.354227,60.7463717 137.646295,68.1833859 144.433787,68.1475695 C151.208988,68.1110427 156.577952,60.6337091 156.631824,51.5779938 Z M144.428096,67.0767819 C138.330209,67.1090794 133.428034,60.2200216 133.478782,51.6894121 C133.52953,43.1588025 138.513985,36.2170095 144.611872,36.1842548 C150.70976,36.1519573 155.611935,43.041015 155.561187,51.5716246 C155.510438,60.1022341 150.525984,67.0440272 144.428096,67.0767819 Z" id="Oval" fill="#000000" fill-rule="nonzero" transform="translate(144.519984, 51.630518) rotate(13.000000) translate(-144.519984, -51.630518) "></path>
                            <ellipse id="Oval" fill="url(#radialGradient-5)" fill-rule="nonzero" transform="translate(144.519984, 51.630518) rotate(13.000000) translate(-144.519984, -51.630518) " cx="144.519984" cy="51.6305183" rx="11.0415928" ry="15.4461497"></ellipse>
                            <path d="M146.900895,43.0355685 C146.236473,42.94219 145.801764,42.1271231 145.929945,41.2150655 C146.058126,40.3030079 146.700658,39.6393373 147.365081,39.7327158 C148.029503,39.8260942 148.464212,40.6411612 148.33603,41.5532188 C148.207849,42.4652763 147.565317,43.1289469 146.900895,43.0355685 Z" id="Oval" fill-opacity="0.2" fill="#000000" fill-rule="nonzero" transform="translate(147.132988, 41.384142) rotate(8.000000) translate(-147.132988, -41.384142) "></path>
                            <path d="M140.794665,47.2302787 C139.987866,47.1168906 139.457299,46.1464215 139.60961,45.0626753 C139.76192,43.9789291 140.539432,43.1922985 141.34623,43.3056866 C142.153028,43.4190747 142.683596,44.3895438 142.531285,45.47329 C142.378974,46.5570362 141.601463,47.3436668 140.794665,47.2302787 Z" id="Oval-Copy" fill-opacity="0.2" fill="#000000" fill-rule="nonzero" transform="translate(141.070447, 45.267983) rotate(8.000000) translate(-141.070447, -45.267983) "></path>
                            <path d="M138.11346,55.4915541 C137.164286,55.3581563 136.541706,54.2049211 136.72289,52.915731 C136.904074,51.626541 137.82041,50.6895862 138.769585,50.822984 C139.718759,50.9563818 140.341339,52.1096171 140.160155,53.3988071 C139.978971,54.6879971 139.062635,55.6249519 138.11346,55.4915541 Z" id="Oval-Copy-4" fill-opacity="0.2" fill="#000000" fill-rule="nonzero" transform="translate(138.441522, 53.157269) rotate(8.000000) translate(-138.441522, -53.157269) "></path>
                            <path d="M134.726979,31.5525777 C133.072827,37.0809504 132.21053,41.8901912 132.140087,45.9803002 C132.069644,50.0704091 133.69911,53.9040148 137.028488,57.4811173 C130.658996,53.2630801 127.897515,48.9416569 128.744045,44.5168475 C129.590575,40.092038 131.584886,35.7706148 134.726979,31.5525777 Z" id="Path-14" fill-opacity="0.4" fill="#FFFFFF" fill-rule="nonzero" transform="translate(132.811785, 44.516847) rotate(26.000000) translate(-132.811785, -44.516847) "></path>
                            <path d="M151.380012,53.049069 C152.83669,55.6432329 152.988865,58.1688809 151.836536,60.6260127 C150.684207,63.0831446 149.03507,64.7188337 146.889124,65.5330801 C148.852757,63.1233129 150.084576,61.0952037 150.584581,59.4487523 C151.084587,57.8023009 151.34973,55.6690732 151.380012,53.049069 Z" id="Path-15" fill-opacity="0.3" fill="#000000" fill-rule="nonzero" transform="translate(149.744544, 59.291075) rotate(18.000000) translate(-149.744544, -59.291075) "></path>
                        </g>
                    </g>
                </g>
            </g>
        </g>
    </g>
</svg>