<?xml version="1.0" encoding="UTF-8"?>
<svg width="264px" height="59px" viewBox="0 0 264 59" version="1.1" xmlns="http://www.w3.org/2000/svg" xmlns:xlink="http://www.w3.org/1999/xlink">
    <!-- Generator: Sketch 62 (91390) - https://sketch.com -->
    <title>Group 5 Copy</title>
    <desc>Created with Sketch.</desc>
    <g id="Page-1" stroke="none" stroke-width="1" fill="none" fill-rule="evenodd">
        <g id="Artboard" transform="translate(-106.000000, -1077.000000)">
            <g id="Group-5-Copy" transform="translate(107.000000, 1077.000000)">
                <g id="Group-Copy-2" fill-rule="nonzero">
                    <circle id="Oval-Copy" stroke="#000000" stroke-width="0.6" fill="#4166CB" stroke-linecap="round" stroke-linejoin="round" cx="29" cy="29.25" r="28.75"></circle>
                    <path d="M25.9946393,1.7234643 C25.7476831,1.8477845 25.4801473,1.94620467 25.1920317,2.01872479 C24.7598585,2.12750497 21.0709508,2.57816571 20.7005166,3.04436649 C20.3300823,3.51056726 21.7809498,4.24094847 21.6574717,4.73822929 C21.5339936,5.23551012 20.0522567,6.85167279 19.4348663,6.47871217 C18.8174759,6.10575156 18.7248673,5.18889004 18.3389983,5.28213019 C17.9531293,5.37537035 15.205742,5.18889004 13.9555265,6.58749235 C12.7053109,7.98609467 13.9555265,8.87187614 13.9555265,9.38469699 C13.9555265,9.89751784 12.9985714,10.7055992 13.1992232,10.9542396 C13.3998751,11.20288 14.048135,10.9386996 14.6346559,9.60225735 C15.97748,10.2704785 16.9498699,7.39557369 17.3051708,6.85167279 C17.6604718,6.30777189 19.774431,7.87731449 19.4348663,8.29689519 C18.052385,10.0051482 21.4854337,12.2964526 19.8670395,12.3373019 C14.3259607,12.4771621 18.616824,15.1345065 16.2090014,14.7149258 C12.9611637,14.1489663 10.7605312,18.1803516 9.24792467,19.2836934 C8.59068126,19.5248832 7.68599073,19.6543376 7.21053636,20.4181153 C6.49127037,21.5735558 7.05618876,23.1997799 6.40792884,23.6504406 C5.75966892,24.1011014 5.92945128,23.26194 6.1146684,22.2207582 C6.60788713,19.4481726 5.35836516,20.853236 4.4168448,20.1539348 C1.96477139,18.3326914 0.758806685,25.080123 1.91641368,25.5307837 C2.40613699,25.7214348 2.60313971,24.9285566 2.93510784,24.6294622 C3.19096989,24.3989374 3.6451068,24.505142 3.6451068,24.7537824 C3.6451068,25.0024229 2.90423832,27.2557266 2.024457,26.9760061 C1.16011044,26.292245 -0.784669313,24.9713428 0.342068166,20.4181153 C1.46880564,15.8648877 2.55054974,10.9179099 8.0440134,6.58749235 C13.5374771,2.25707482 17.073348,0.604582446 17.9546071,1.07845768 C18.1849522,1.7234643 16.9035656,2.39168541 17.3051708,2.68694589 C19.9905176,2.12750497 24.0041581,1.25726353 25.0379856,1.44374384 C25.7272039,1.56806404 26.0460885,1.6613042 25.9946393,1.7234643 Z" id="Path-7-Copy" fill="#A2D36D"></path>
                    <path d="M2.02904919,15.6440067 L1.95684636,15.6237526 C3.80664101,16.1718417 6.11950806,16.308864 8.89544751,16.0348194 C10.5164901,15.8747879 11.7235759,15.8082086 12.5167051,15.8350817 C11.2957837,16.9424238 10.3195125,18.355362 9.53368561,18.9406875 C8.89282312,19.1808382 8.01068082,19.309735 7.54707652,20.0702223 C6.84573729,21.2206853 7.39657583,22.8399036 6.76447294,23.2886229 C6.13237005,23.7373423 6.2979208,22.9017959 6.47852163,21.8650996 C6.95944753,19.1044581 5.74106826,20.5034686 4.82301406,19.80718 C2.43205535,17.9937824 1.25614774,24.7121463 2.3849029,25.1608656 C2.86242049,25.3506954 3.05451318,24.5612328 3.37820745,24.263427 C3.62769247,24.0338953 4.07051061,24.1396423 4.07051061,24.3872116 C4.07051061,24.6347809 3.34810731,26.8783775 2.49025338,26.5998621 C1.64744953,25.9190465 -0.248859148,24.6038347 0.849795878,20.0702223 C1.20030722,18.6238333 1.54635308,17.1375392 2.02904919,15.6440067 Z" id="Combined-Shape-Copy" fill="#DCAE52"></path>
                    <path d="M24.776072,8.97789347 C25.3074286,9.19693048 26.0159041,7.72625338 26.9014984,7.30382485 C27.7870928,6.88139633 30.4438758,5.61411074 30.4438758,4.04956064 C30.4438758,2.48501053 28.6726871,2 28.2057374,2 C27.7387876,2 26.8853967,2.50065603 26.418447,2.50065603 C25.9514972,2.50065603 23.6811554,2.89179356 24.3091223,3.29857659 C24.9370892,3.70535961 25.3879372,4.12778814 25.1625132,5.0195817 C24.9370892,5.91137526 23.8421726,6.97526933 24.0192914,7.80448089 C24.1964103,8.63369244 24.2447154,8.75885645 24.776072,8.97789347 Z" id="Path-8-Copy" fill="#C0E496"></path>
                    <path d="M24.9436814,8.9574225 C25.2219244,9.06384824 25.4860876,8.96464028 25.7761592,8.72809202 C25.8745504,8.64785577 25.976857,8.55163114 26.1065655,8.42032672 C26.1676538,8.35848681 26.3937746,8.12404791 26.4422316,8.0746621 C26.7974472,7.71263786 27.0480907,7.50690529 27.2991665,7.39577967 C27.9826831,7.09325669 28.4348162,6.87461451 28.9602915,6.56547262 C30.2355595,5.8152208 31,5.02204848 31,4.15057866 C31,3.41038917 30.5971455,2.8379003 29.9305788,2.44690857 C29.4574263,2.16936889 28.852477,2 28.4856413,2 C28.2414345,2 28.0268996,2.0610807 27.4914401,2.2494764 C27.0349326,2.41009369 26.8408525,2.46535066 26.6952619,2.46535066 C26.3968297,2.46535066 25.6716088,2.57310134 25.1541822,2.70344851 C24.8260536,2.78610885 24.5771563,2.87546151 24.4202972,2.97909928 C24.1343495,3.16802661 24.1155556,3.46713051 24.4312179,3.65686212 C25.1353037,4.08005909 25.3375333,4.3884408 25.1726665,4.99362595 C25.1050498,5.24183023 24.9802924,5.46496988 24.6396313,5.99200936 C24.6247847,6.0149796 24.6247847,6.0149796 24.6099108,6.03801051 C24.3701073,6.40945836 24.2510106,6.61158756 24.1517241,6.83810046 C24.0140951,7.15208811 23.9651991,7.42956916 24.0252908,7.69060827 C24.2267344,8.56568258 24.3322085,8.72353901 24.9436814,8.9574225 Z M25.3007646,3.17643116 C25.7740765,3.05719708 26.452163,2.95644946 26.6952619,2.95644946 C26.9394687,2.95644946 27.1540037,2.89536876 27.6894632,2.70697305 C28.1459706,2.54635577 28.3400508,2.4910988 28.4856413,2.4910988 C28.7445164,2.4910988 29.2468506,2.63173833 29.6335281,2.85855388 C30.1556629,3.16482534 30.4552959,3.59062825 30.4552959,4.15057866 C30.4552959,4.80313224 29.7955413,5.48768407 28.6626248,6.15418919 C28.1605779,6.44954792 27.7240433,6.66064696 27.05913,6.95493619 C26.7253221,7.10267886 26.4343005,7.34155457 26.0342535,7.74926942 C25.9835105,7.80098505 25.7582004,8.03458348 25.6998006,8.09370179 C25.582018,8.21293356 25.4917279,8.29785598 25.4107692,8.36387636 C25.3264589,8.43262996 25.2571156,8.47631406 25.2043605,8.49612656 C25.1860179,8.5030152 25.1725818,8.50596346 25.1636863,8.50633825 C25.160221,8.50648424 25.1588974,8.50627522 25.1564155,8.50532589 C24.7427566,8.34710466 24.7274591,8.32420997 24.5586289,7.59080891 C24.4921237,7.30190905 24.635759,6.97421849 25.0806759,6.28505688 C25.0954402,6.26219561 25.0954402,6.26219561 25.1102532,6.2392774 C25.4797932,5.66755913 25.6166473,5.42278327 25.7016485,5.11076516 C25.8249852,4.6580265 25.7767471,4.28164175 25.5647403,3.95835079 C25.4106375,3.72335821 25.190328,3.53428723 24.8497015,3.31975247 C24.956175,3.27382885 25.1111467,3.22419863 25.3007646,3.17643116 Z" id="Path-8-Copy" fill="#000000"></path>
                    <path d="M31.4816598,7.04269576 C31.0911227,7.36068258 30.6147473,7.59917269 31.5106854,7.94895819 C32.4066235,8.2987437 31.8721969,6.72470894 31.4816598,7.04269576 Z" id="Path-9-Copy" fill="#83B64A"></path>
                    <path d="M31.3971153,7.0391192 C31.3644247,7.05004006 31.3296357,7.06138679 31.289321,7.0743189 C31.2549322,7.08535008 31.1378312,7.12249211 31.122841,7.12727559 C31.0570344,7.14827494 31.0075569,7.16445622 30.9614725,7.18022363 C30.838491,7.22230073 30.7497547,7.25818213 30.6811245,7.29657616 C30.4666159,7.4165794 30.4223331,7.6205397 30.6592558,7.75390049 C30.7958295,7.83077606 31.0545086,7.89553713 31.4801731,7.96372045 C31.8583733,8.02430092 32.1336473,8.00994674 32.3090625,7.91361514 C32.5092581,7.80367505 32.5467359,7.61157857 32.4462457,7.43008658 C32.2758142,7.12227603 31.7885059,6.90836845 31.3971153,7.0391192 Z M32.0901337,7.61961884 C32.0904959,7.61839944 32.0902003,7.61785762 32.0867014,7.6197791 C32.0200677,7.65637188 31.8406175,7.66572932 31.5560116,7.62014089 C31.3414436,7.58577118 31.1766539,7.55271653 31.061044,7.52272933 C31.1310983,7.49869782 31.2418396,7.46311517 31.4339433,7.40149247 C31.4758725,7.38804247 31.5123345,7.37615006 31.5469441,7.36458813 C31.7192163,7.30703763 31.9902325,7.42600214 32.075071,7.5792261 C32.0863716,7.59963575 32.0900074,7.61412906 32.0895084,7.62075993 L32.0901337,7.61961884 Z" id="Path-9-Copy" fill="#000000"></path>
                    <path d="M39.8685808,4.37138337 C39.2962697,4.10682132 37.1977959,3.7644469 36.8321527,4.21575863 C36.4665096,4.66707036 37.4680539,5.73598475 37.5952341,6.44119234 C37.7224144,7.14639993 36.6413824,7.57725291 37.8495946,8.58881368 C39.0578068,9.60037446 38.9306266,8.58881368 39.2326796,8.58881368 C39.5347327,8.58881368 39.9798635,10.2073109 40.6157646,10.2073109 C41.2516658,10.2073109 41.5855139,9.66262435 41.2675633,9.27356252 C40.9496127,8.88450068 37.8312508,6.17888947 38.7398562,5.67406328 C39.3280648,5.34725133 39.9798635,7.50760976 40.8860226,7.63580617 C41.7921818,7.76400259 41.3311534,7.33804589 41.4742312,7.14639993 C41.6173089,6.95475397 41.951157,7.03256633 42.0465422,7.23487849 C42.1419274,7.43719064 41.6332065,7.71404223 41.7444892,7.91962732 C41.8557719,8.12521241 43.000394,9.4603122 42.5234681,9.7559992 C42.0465422,10.0516862 42.0147472,10.736435 41.7444892,10.736435 C41.4742312,10.736435 40.9337152,10.7986849 40.6157646,10.9231847 C40.297814,11.0476845 39.5824252,12.1526201 39.4075524,13.1174935 C39.2326796,14.0823668 37.9608773,14.0046392 37.9608773,14.3158039 C37.9608773,14.6269686 39.1193715,14.6270534 39.4075524,15.0783651 C39.6957333,15.5296769 40.0911462,16.323363 39.9798635,16.5101127 C39.8685808,16.6968624 37.2931811,15.9498636 37.2931811,16.5101127 C37.2931811,17.0703617 38.5649834,19.544795 38.2629303,20.1517315 C37.9608773,20.758668 39.0578068,20.1517315 39.2326796,20.1517315 C39.4075524,20.1517315 39.7096055,20.8364803 39.9798635,20.6652931 C40.2501215,20.4941059 41.6173089,19.6070449 41.6173089,18.6110466 C41.6173089,17.6150483 41.0449979,16.2922381 41.8398743,16.1210509 C42.6347508,15.9498636 43.000394,15.9031762 43.2865495,15.3429272 C43.572705,14.7826781 44.5265567,16.1988632 45.0988678,16.354488 C45.6711788,16.5101127 46.8634935,16.9925494 46.8634935,17.5527984 C46.8634935,18.1130475 45.9414368,17.9107353 45.9414368,18.06636 C45.9414368,18.2219848 46.9429811,18.6421716 47.0542638,18.4865468 C47.1655465,18.3309221 47.181444,16.5879251 46.8634935,16.354488 C46.5455429,16.1210509 44.1768111,15.2495523 44.3516839,14.9071779 C44.5265567,14.5648035 46.6727231,15.1250526 46.8634935,15.3429272 C47.0542638,15.5608018 48.1035007,16.9769869 48.3260661,16.9769869 C48.5486315,16.9769869 48.1035007,15.8564888 48.5009389,15.6697391 C48.8983772,15.4829894 49.2958154,14.7202587 48.8983772,14.440219 C48.5009389,14.1601792 47.4040095,12.2304325 48.1035007,12.0436828 C48.802992,11.8569331 49.8999215,12.245995 50.2814622,12.5261195 C50.6630029,12.806244 51.7048451,13.7711174 49.9635116,13.7711174 C49.2640203,13.7711174 49.7091511,14.3624914 49.7091511,14.7204282 C49.7091511,15.0783651 47.9491758,15.7973843 49.9635116,16.5101127 C51.2830065,16.9769869 51.4260843,15.8409263 51.807625,15.9809886 C52.1891656,16.1210509 53.3655828,18.5799217 52.7773742,18.8289212 C52.1891656,19.0779208 50.0271017,19.249108 49.8204338,19.7004198 C49.613766,20.1517315 50.6312078,21.8791661 48.1035007,20.5874808 C45.5757936,19.2957955 45.9891294,18.7977963 45.5439986,18.7044215 C45.0988678,18.6110466 41.8398743,20.4007311 41.3629485,20.8520428 C40.8860226,21.3033545 40.0752486,20.8520428 39.8685808,20.8520428 C39.7641936,20.8520428 39.5377721,21.6226422 39.2326796,22.2682279 C38.9337435,22.9007865 38.5520024,23.3985601 38.8352414,24.3535993 C39.4075524,26.2833461 34.7482756,25.0975625 36.4726183,32.0129193 C37.0853106,34.4700797 36.9838361,38.1074509 41.3629485,38.5331007 C44.3832947,38.8266785 45.1642205,36.5953289 46.7105101,36.4048516 C47.4061409,36.3191614 48.9132197,35.0909941 49.7091511,37.3915853 C49.9635116,38.1267986 49.2385524,38.404379 49.4379793,39.3650527 C49.6400411,40.3384186 50.7931937,41.5103246 50.584307,43.3506829 C50.1692573,47.0074018 47.8370735,47.7426152 47.8370735,51.8636794 C50.584307,53.2296861 56.4394136,43.892419 56.6370563,43.3506829 C56.834699,42.8089467 60.2716448,36.4048516 59.3384396,28.7900921 C58.9923156,25.9657921 57.9168512,26.7503397 57.5610943,26.7503397 C57.2053374,26.7503397 53.4105976,20.4409114 53.8849401,20.1517315 C54.3592826,19.8625516 57.1855732,26.382733 57.5610943,25.7249105 C57.9366154,25.0670881 57.6715314,25.2992607 58.5295435,25.2992607 C59.3875557,25.2992607 57.4379919,18.2988665 55.9359074,15.8082941 C55.2867215,14.7318936 53.6933767,12.1563977 51.807625,9.7559992 C49.3301298,6.60236263 46.1429269,4.19159303 42.0465422,2.56569046 C34.8321839,-0.29777201 32.5,-0.0849470967 32.5,0.0891823775 C32.5,0.263311852 38.8352414,1.84982484 38.8352414,2.56569046 C38.8352414,3.28155607 40.0104226,4.0601339 40.2080653,4.21575863 C40.405708,4.37138337 41.0501089,5.4098052 40.8860226,5.4098052 C40.7219363,5.4098052 40.4408918,4.63594541 39.8685808,4.37138337 Z" id="Path-10-Copy" fill="#A2D36D"></path>
                    <path d="M53.1517163,11.5009501 C54.4578247,13.3454751 55.5053882,15.0680464 55.9984882,15.8974993 C57.4741889,18.3798034 59.389509,25.3569576 58.5465676,25.3569576 C57.7036263,25.3569576 57.9640542,25.1255558 57.595129,25.7811944 C57.2262039,26.436833 54.4495565,19.9382974 53.9835458,20.2265173 C53.517535,20.5147372 57.245621,26.8032193 57.595129,26.8032193 C57.9446371,26.8032193 59.0012112,26.0212763 59.3412556,28.8362002 C59.6100982,31.0617073 59.509764,33.1834584 59.2287518,35.0845525 C57.1958528,36.4447176 55.6936367,36.6329353 54.7216243,35.6494076 C52.885899,33.7919349 50.656027,33.0076686 47.659678,34.3285381 C45.6813936,35.200618 43.1802163,37.2242473 41.3002969,38.4987025 C37.384736,37.9025356 37.4606362,34.4226221 36.8770681,32.0483282 C35.1830132,25.155929 39.7604507,26.337776 39.1981922,24.4144357 C38.9199283,23.4625671 39.2949642,22.9664459 39.5886495,22.3359873 C39.8883831,21.6925449 40.1108276,20.9245037 40.2133812,20.9245037 C40.416419,20.9245037 41.2129518,21.3743171 41.6815006,20.9245037 C42.1500494,20.4746902 45.3517992,18.6909472 45.7891113,18.784012 C46.2264235,18.8770769 45.8203479,19.3734228 48.3036563,20.6608199 C50.7869647,21.9482171 49.787394,20.2265173 49.9904318,19.7767038 C50.1934696,19.3268903 52.3175573,19.1562714 52.8954341,18.9080985 C53.4733109,18.6599256 52.3175573,16.2092177 51.9427183,16.0696204 C51.5678793,15.9300232 51.4273147,17.0623122 50.1309964,16.596988 C48.152042,15.8866257 49.8811038,15.1699935 49.8811038,14.8132449 C49.8811038,14.4564963 49.4437916,13.8670856 50.1309964,13.8670856 C51.8417437,13.8670856 50.8182013,12.9054154 50.4433623,12.6262208 C50.4131772,12.6037378 50.3784345,12.5805508 50.3397051,12.557016 C50.9733621,12.5295562 51.6409861,12.3839263 52.2693953,11.9975883 C52.5432234,11.8292422 52.7909727,11.6867954 53.0126431,11.5702481 Z M47.659678,12.2865285 C47.7829965,12.2865285 47.934477,12.3044491 48.1088172,12.3311655 C47.9187979,12.8620734 48.7515835,14.2959369 49.0845709,14.5339659 C49.4750282,14.813076 49.0845709,15.5732746 48.6941136,15.7594043 C48.3036563,15.945534 48.7409685,17.0623122 48.5223124,17.0623122 C48.3036563,17.0623122 47.2728491,15.6508286 47.0854296,15.4336773 C46.8980101,15.216526 44.7895407,14.6581368 44.6177395,14.9993746 C44.4459382,15.3406124 46.7730637,16.2092177 47.0854296,16.4418799 C47.3977954,16.674542 47.3821771,18.4117526 47.2728491,18.5668607 C47.163521,18.7219688 46.1795686,18.3031769 46.1795686,18.1480689 C46.1795686,17.9929608 47.0854296,18.1946013 47.0854296,17.6362122 C47.0854296,17.077823 45.9140577,16.596988 45.3517992,16.4418799 C44.7895407,16.2867718 43.8524432,14.8752882 43.5713139,15.4336773 C43.2901847,15.9920664 42.9309639,16.0385988 42.1500494,16.2092177 C41.3691348,16.3798366 41.9313933,17.6982554 41.9313933,18.6909472 C41.9313933,19.6836389 40.5882202,20.5677551 40.3227092,20.738374 C40.0571983,20.9089929 39.7604507,20.2265173 39.5886495,20.2265173 C39.4168483,20.2265173 38.3391862,20.8314388 38.6359337,20.2265173 C38.9326812,19.6215957 37.6832179,17.1553771 37.6832179,16.596988 C37.6832179,16.0385988 40.2133812,16.7831177 40.3227092,16.596988 C40.4320373,16.4108582 40.0435698,15.619807 39.7604507,15.1699935 L39.7960471,15.2271144 C41.5319232,14.9607853 42.8772625,14.5083694 43.832065,13.8698667 C45.8686619,12.5079383 46.843879,12.2865285 47.659678,12.2865285 Z" id="Combined-Shape-Copy-2" fill="#DDDE59"></path>
                    <path d="M51.847983,14.5263786 C52.6700291,14.6844381 54.1642775,14.9397214 55.5532329,15.0495315 C55.7949253,15.4136755 55.9944958,15.7225616 56.1445414,15.9572654 C57.6743012,18.3501413 59.659785,25.0759345 58.7859643,25.0759345 C57.9121436,25.0759345 58.1821117,24.8528692 57.7996717,25.4848876 C57.4172318,26.1169059 54.5388678,19.8524885 54.0557857,20.1303249 C53.6924902,20.3392681 55.7880986,23.8194597 57.0038027,25.532532 C53.5595689,25.5486103 50.674017,26.2444249 48.3459404,27.618067 C45.4802291,29.3089313 41.3654156,29.4481527 36.0014999,28.0357311 C36.4745247,25.2487704 39.1770136,25.5931191 38.7288017,24.1673681 C38.4403441,23.2497918 38.8291187,22.771544 39.1335626,22.1637985 C39.4442762,21.5435369 39.6748695,20.8031654 39.78118,20.8031654 C39.9916556,20.8031654 40.8173678,21.2367738 41.3030809,20.8031654 C41.7887939,20.3695571 45.1078331,18.6500757 45.5611653,18.7397878 C46.0144975,18.8294999 45.5935462,19.3079642 48.1678254,20.5489812 C50.7421046,21.7899982 49.7059167,20.1303249 49.9163924,19.6967166 C50.126868,19.2631082 52.3287672,19.0986361 52.9278133,18.8594039 C53.5268594,18.6201717 52.3287672,16.2577538 51.9401968,16.1231857 C51.5516263,15.9886176 51.4059124,17.0801145 50.0621063,16.6315541 C48.010657,15.9467836 49.8030593,15.255969 49.8030593,14.9120727 C49.8030593,14.5681765 49.3497271,14 50.0621063,14 L49.9884104,14.003972 C50.6847435,14.145774 51.3907449,14.4384628 51.847983,14.5263786 Z M41.5595742,18.5959391 L41.5621278,18.6500757 C41.5621278,19.6070045 40.1697504,20.4592692 39.894513,20.6237413 C39.6192756,20.7882134 39.3116573,20.1303249 39.1335626,20.1303249 C38.9554678,20.1303249 37.8383277,20.7134534 38.145946,20.1303249 C38.242916,19.9465064 38.1806123,19.5843962 38.0498143,19.1578046 C38.7480714,18.8678772 39.3223354,18.7234315 39.7723793,18.7234315 C40.2555763,18.7234315 40.8513079,18.680934 41.5595742,18.5959391 Z M46.024937,16.521386 C46.4693521,16.521386 46.7744396,16.6299849 47.010954,16.629344 C47.2231833,17.1027818 47.1983604,18.3997122 47.0992567,18.5304596 C46.9859236,18.6799797 45.9659262,18.2762754 45.9659262,18.1267553 C45.9659262,17.9772352 46.9049714,18.1716113 46.9049714,17.6333389 C46.9049714,17.1996719 46.1167863,16.8145313 45.5056355,16.6030244 C45.6998004,16.5487709 45.8727596,16.521386 46.024937,16.521386 Z M48.5197155,14.106825 C48.6909037,14.3632802 48.8627014,14.5666471 48.9773471,14.6428551 C49.382108,14.9119099 48.9773471,15.6447213 48.5725863,15.8241455 C48.1678254,16.0035696 48.6211576,17.0801145 48.3944915,17.0801145 C48.2670945,17.0801145 47.873743,16.6502946 47.5191441,16.2366469 C47.6299729,16.0056886 47.7382226,15.6475975 47.8630355,15.1025316 C47.9734138,14.6205029 48.1856274,14.317981 48.4601333,14.140546 Z" id="Combined-Shape-Copy-3" fill="#E5B249"></path>
                    <path d="M7.04639859,26.44071 C7.66790931,27.690485 8.12079712,28.3153724 8.40506202,28.3153724 C8.83145938,28.3153724 7.92215677,26.3806823 7.55667331,26.3806823 C7.19118986,26.3806823 6.9660482,25.6914534 6.62266005,26.1677819 C6.39373461,26.4853343 6.53498079,26.5763103 7.04639859,26.44071 Z" id="Path-11-Copy" fill="#83B64A"></path>
                    <path d="M9.74944819,29 C8.67265481,29.3664012 8.75619913,29.6690804 10.0000811,29.9080377 C11.8659041,30.2664737 10.6046087,29.4779146 10.3064103,29.2389573 C10.1076113,29.0796524 9.92195731,29 9.74944819,29 Z" id="Path-12-Copy" fill="#83B64A"></path>
                    <path d="M8.50245597,29 C8.72351084,29 8.89747342,28.8724362 8.96604037,28.6669361 C9.01155485,28.530526 9.00894187,28.3725603 8.97234485,28.1877806 C8.91494762,27.8979798 8.766318,27.5241047 8.56029595,27.132778 C8.08850624,26.2366415 7.52322553,25.5560372 7.06775735,25.5560372 C6.96300307,25.5560372 6.85512979,25.5005581 6.63843755,25.3392676 C6.46837444,25.2126846 6.44007889,25.1923511 6.35992091,25.1441103 C5.96724001,24.9077866 5.59020327,24.9510851 5.25172959,25.3561953 C5.12742443,25.5049729 5.04793831,25.6361769 5.01562227,25.7660953 C4.96437732,25.9721125 5.04027019,26.1705918 5.22760435,26.2747023 C5.40672122,26.3742459 5.66677183,26.3759354 6.05023922,26.3037717 C7.11062953,28.1149105 7.87532492,29 8.50245597,29 Z M7.06654553,26.177043 L7.06557245,26.177044 C7.05753199,26.1770541 7.0578456,26.1772517 7.06532735,26.1806865 C7.08657164,26.1904393 7.11482069,26.2082091 7.14805708,26.2339186 C7.22526697,26.293643 7.31736271,26.386705 7.41696493,26.5066272 C7.61763659,26.7482381 7.83396028,27.0807686 8.01427154,27.4232591 C8.19469757,27.7659677 8.32264794,28.0878245 8.36646116,28.3090391 C8.36867668,28.3202253 8.37064878,28.3310262 8.37238145,28.3414229 C8.03316894,28.1689873 7.42026794,27.4042241 6.63221188,26.0726552 C6.77502864,26.1443313 6.90701469,26.1768791 7.06654553,26.177043 Z" id="Path-11-Copy" fill="#000000"></path>
                    <path d="M9.72612238,29.0105784 C9.20166052,29.166824 8.94262818,29.3195959 9.0106931,29.5354988 C9.0700619,29.7238174 9.37938655,29.8343223 9.9561874,29.9313367 C10.5082115,30.0241839 10.7957546,30.0294016 10.9334886,29.9065749 C11.0299318,29.82057 11.0127271,29.7209439 10.9378114,29.6256942 C10.895549,29.5719607 10.8321076,29.5160979 10.747062,29.453111 C10.7121596,29.4272614 10.6739464,29.4004894 10.6311766,29.3716926 C10.5821986,29.3387158 10.4067712,29.2256073 10.3808376,29.2074125 C10.1884165,29.0724115 9.99564464,29 9.79982855,29 C9.77459137,29 9.74958231,29.0035893 9.72612238,29.0105784 Z M10.1078954,29.4269832 C10.1412526,29.4503863 10.3210699,29.5663252 10.3642825,29.5954201 C10.4026483,29.6212518 10.4363595,29.6448697 10.4663162,29.6670564 C10.4800627,29.6772374 10.4928991,29.6870399 10.5047844,29.696422 C10.3926756,29.6900952 10.2391799,29.671068 10.0435538,29.6381649 C9.80866405,29.5986579 9.63153159,29.557214 9.51478376,29.5155064 C9.47306959,29.5006042 9.44111524,29.48637 9.41918056,29.4737115 C9.4277636,29.4673516 9.4387866,29.4600585 9.45236376,29.452051 C9.52777876,29.4075728 9.65516667,29.3568146 9.83201545,29.3024172 C9.90663677,29.3113507 9.99918838,29.3507153 10.1078954,29.4269832 Z" id="Path-12-Copy" fill="#000000"></path>
                    <path d="M3,27.7322297 C3.867834,28.9514353 4.301751,29.841649 4.301751,30.4028707 C4.301751,31.2447031 4.3609215,32.4639088 6.28396275,33.4508848 C8.207004,34.4378609 5.1893085,37.3407315 5.485161,38.9663391 C5.7810135,40.5919466 8.7395385,45.6429416 10.810506,47.7330084 C12.8814735,49.8230753 11.2542847,51.2454819 14.0352982,54.7869841 C16.8163117,58.3284863 18.7689382,57.8059696 18.4730857,56.5577352 C18.1772332,55.3095008 18.029307,54.8740702 20.2186155,54.5547545 C22.407924,54.2354387 20.4552975,51.9043091 23.472993,51.3281515 C25.0416115,51.0286609 25.648411,49.1954068 26.4906885,47.5878649 C27.2687775,46.1028308 28.3642209,44.8419176 27.8811952,44.4237359 C26.8752967,43.5528747 21.461196,43.1755015 19.7156662,40.2145734 C17.9701365,37.2536454 18.4435005,38.0664492 17.8813807,37.7761621 C17.319261,37.485875 16.0766805,37.922979 14.8932705,36.2956981 C14.5653047,35.8447195 14.291567,34.5401578 13.6383772,34.0668791 C13.132599,33.7004098 12.2784199,34.1655378 11.7586409,33.807752 C11.0027331,33.2874287 10.4242831,32.676985 9.80899701,32.4663879 C9.47499428,32.3520671 9.0217193,33.8579319 8.89006825,33.7467809 C8.7532508,33.631268 9.2388816,32.1636948 9.15373199,32.0575069 C8.30210096,30.9954602 7.49428039,33.6019745 7.05317925,32.8703107 C6.6120781,32.1386469 4.85332855,33.0913416 4.893456,30.86733 C4.93358345,28.6433183 5.45557575,28.2837751 5.10055275,28.0805741 C4.74552975,27.8773732 3.828387,27.5 3.4141935,27.5 C3.1380645,27.5 3,27.5774099 3,27.7322297 Z" id="Path-13-Copy" fill="#A2D36D"></path>
                    <path d="M9.1977114,32.6988721 C9.20174705,32.681258 9.20598002,32.6628395 9.21069275,32.6423801 C9.2953987,32.2746459 9.30569874,32.228833 9.32895114,32.1076333 C9.3723157,31.8816018 9.37981237,31.7926703 9.32350903,31.7199673 C9.08200217,31.4081162 8.80386488,31.3316138 8.51613459,31.4714356 C8.31394353,31.5696898 8.13749855,31.7455426 7.87623377,32.0694334 C7.4997671,32.5361403 7.52905181,32.5013569 7.42972305,32.5807329 C7.33258228,32.6583605 7.3071068,32.6565544 7.25511,32.5672495 C7.09973281,32.3003877 6.88614786,32.2195461 6.36688605,32.1383336 C6.23603449,32.1178685 6.20501253,32.1128544 6.14550858,32.1019706 C5.80874416,32.0403736 5.59829945,31.9505821 5.43854623,31.7724756 C5.23346894,31.543838 5.12651184,31.1672004 5.13664335,30.5857734 C5.14881514,29.8872587 5.20501185,29.3282825 5.29658859,28.8265294 C5.33147166,28.6354035 5.44318613,28.1382732 5.45441593,28.0576276 C5.4843322,27.842787 5.43766993,27.708657 5.27624195,27.6129874 C4.80997422,27.336656 3.92633088,27 3.54145296,27 C3.20518086,27 3,27.1191179 3,27.3716665 C3,27.3990616 3.00827949,27.4257962 3.02371916,27.4482559 C3.86757671,28.6757944 4.28792651,29.5687382 4.28792651,30.1075925 C4.28792651,30.7679375 4.34667932,31.1919742 4.56750124,31.6699308 C4.86511489,32.3140989 5.42450334,32.8728976 6.31972226,33.3486412 C6.79468002,33.6010466 6.95220179,33.9870009 6.8643285,34.5569519 C6.79431328,35.0110744 6.62948462,35.4256813 6.17560028,36.3964622 L6.17119845,36.4058771 C5.86541028,37.0599184 5.73607696,37.3567819 5.61828185,37.7071012 C5.45956656,38.1791158 5.40180038,38.5681321 5.46081903,38.9039126 C5.77370137,40.684024 8.78612747,45.8868996 10.764819,47.9546145 C11.2115797,48.4214755 11.498784,48.8717052 11.6894299,49.3702501 C11.8250313,49.724852 11.9000084,50.0430083 12.0109659,50.659844 C12.1872267,51.6397145 12.2686573,51.9993867 12.4880666,52.5990807 C12.7886223,53.4205654 13.2496348,54.2519027 13.9454706,55.1694255 C15.2075517,56.8335942 16.4118726,57.7740959 17.3609576,57.9660503 C18.2133668,58.1384517 18.7436615,57.636058 18.5686571,56.8715262 C18.3738972,56.0206895 18.3543376,55.8098749 18.4926269,55.5913241 C18.6633703,55.3214834 19.14776,55.1390994 20.1867715,54.9821862 C20.6796167,54.907756 21.0087098,54.7261264 21.2212359,54.4319137 C21.3830064,54.207965 21.4540893,53.9905592 21.5563563,53.5174225 C21.5986483,53.3217593 21.6094997,53.273184 21.6322254,53.1831468 C21.7305546,52.7935751 21.8575204,52.5247987 22.0809934,52.2947761 C22.360582,52.0069933 22.7862222,51.7994851 23.4123769,51.6756986 C24.0283372,51.5539275 24.5302294,51.1972575 24.9774324,50.6131377 C25.3187255,50.1673533 25.5766245,49.690064 26.0179242,48.7553235 C26.0316452,48.7262602 26.1460451,48.4834522 26.1798351,48.4120206 C26.3039375,48.1496698 26.3963514,47.9588456 26.4899684,47.7738389 C26.6066387,47.5432742 26.7363705,47.3062588 26.8906829,47.038551 C27.0063515,46.8378842 27.4059631,46.1652927 27.3867025,46.1980254 C27.5717688,45.8835112 27.6927427,45.664973 27.7871927,45.4679526 C28.0399096,44.9407912 28.0817125,44.5914186 27.835725,44.370906 C27.6700982,44.2224317 27.404091,44.0878594 27.0113301,43.9423077 C26.6693146,43.8155615 26.6179671,43.7996271 25.4524687,43.4482843 C24.6474001,43.205594 24.1176099,43.0331724 23.5667276,42.8243952 C21.7194366,42.124296 20.4573006,41.2751676 19.7837713,40.0921731 C18.4786825,37.7999 18.4230709,37.7099059 18.2229659,37.6368334 C18.1949562,37.6266051 18.1715261,37.62143 18.1331703,37.6152056 C18.041487,37.600327 18.0033737,37.5893104 17.9163192,37.5427609 C17.7726096,37.4659168 17.6249141,37.4347469 17.3116201,37.3970219 C16.8201751,37.3378449 16.6427622,37.3056272 16.3628465,37.1998461 C15.9740217,37.0529079 15.6186847,36.8060479 15.2788872,36.4166872 C15.1861443,36.3104169 15.0951229,36.1939656 15.005795,36.0667794 C14.9716238,36.0181261 14.9355723,35.9544085 14.8966256,35.8742905 C14.8196059,35.7158514 14.5253641,34.972564 14.5120636,34.940908 C14.266342,34.3560741 14.0375502,33.9803548 13.735267,33.7535682 C13.4902355,33.5697345 13.2590591,33.5498485 12.7169579,33.592151 L12.7015007,33.5933564 C12.2448854,33.6289194 12.0492553,33.6119051 11.8728953,33.4862066 C11.7481635,33.3973055 11.6220349,33.3013475 11.4823432,33.1900693 C11.3654902,33.0969844 10.9453352,32.7509194 10.8506445,32.6754145 C10.612652,32.4856428 10.4266347,32.3532055 10.2442948,32.2497802 C10.1305489,32.1852622 10.0205804,32.133842 9.91170872,32.0952573 C9.75012554,32.0379913 9.61394596,32.1422095 9.4742191,32.3497334 C9.39590429,32.4660473 9.31719648,32.6138673 9.219635,32.8190463 C9.22314048,32.811674 9.17886885,32.9070695 9.12783111,33.0158821 C9.1460601,32.9277226 9.16890762,32.8245892 9.1977114,32.6988721 Z M3.54145296,27.2675198 C3.86883743,27.2675198 4.71413786,27.5895677 5.14356448,27.8440654 C5.20104779,27.8781326 5.20992057,27.9036373 5.19369574,28.0201543 C5.18433459,28.0873804 5.07440529,28.5765666 5.03768561,28.7777554 C4.94347662,29.2939307 4.88579956,29.8676316 4.87336828,30.5810381 C4.86214658,31.225029 4.9876411,31.6669441 5.24391934,31.9526649 C5.45099777,32.1835336 5.71036857,32.2942005 6.09885263,32.3652576 C6.16146109,32.3767092 6.19341915,32.3818746 6.32682246,32.4027388 C6.767374,32.471641 6.9291613,32.5328772 7.02847596,32.7034511 C7.16962064,32.9458684 7.38005049,32.9607869 7.5925148,32.7910014 C7.66522011,32.7329008 7.74096511,32.6539475 7.83405944,32.543373 C7.86952912,32.5012432 7.90608268,32.4563356 7.95576204,32.3942357 C7.96486627,32.3828553 7.9711365,32.3750017 7.98656338,32.3556623 C8.00201648,32.3362815 8.00201648,32.3362815 8.01752163,32.3168406 C8.04282535,32.2851252 8.06145223,32.2618673 8.07989557,32.239003 C8.31675321,31.9453698 8.47437819,31.7882739 8.62975373,31.7127695 C8.79633726,31.6318187 8.93824738,31.6662155 9.0982647,31.8623507 C9.09807302,31.8687551 9.09762403,31.8764842 9.09687476,31.8853727 C9.09348799,31.9255493 9.08465727,31.9826528 9.07049858,32.0564529 C9.04819219,32.1727217 9.03785732,32.2186896 8.95430363,32.5814214 C8.94956866,32.6019774 8.94531256,32.6204965 8.94125136,32.6382221 C8.7797891,33.3429414 8.75122213,33.527915 8.87330104,33.6346373 C8.96606918,33.7157359 9.05554862,33.6731637 9.12327655,33.5903427 C9.1545689,33.5520769 9.18702006,33.4979775 9.2260763,33.4224373 C9.27187141,33.3338631 9.46639989,32.9150873 9.45673463,32.935414 C9.54897872,32.7414179 9.62252104,32.6032992 9.69155186,32.5007739 C9.73590855,32.4348949 9.77569721,32.388537 9.80806848,32.3637633 C9.81778671,32.3563259 9.82543968,32.3518816 9.83055685,32.349839 C9.92246782,32.3828362 10.0168949,32.4271851 10.1159354,32.483362 C10.2840243,32.578704 10.4599452,32.703953 10.688072,32.8858579 C10.7805634,32.9596092 11.2007837,33.305728 11.3198699,33.4005919 C11.4629928,33.5146033 11.5927549,33.6133256 11.7216707,33.7052089 C11.9667244,33.8798681 12.2034184,33.9004537 12.7216275,33.8600935 L12.7371234,33.8588851 C13.2140415,33.8216692 13.4046274,33.8380635 13.5788464,33.9687705 C13.8324387,34.1590269 14.0414868,34.5023235 14.2698882,35.0459341 C14.2795352,35.0688946 14.5782612,35.8235094 14.6605328,35.9927523 C14.7052475,36.0847358 14.7480088,36.1603123 14.7914512,36.2221662 C14.8860938,36.3569194 14.9828815,36.4807479 15.081862,36.5941659 C15.4503542,37.0164065 15.8418505,37.2883872 16.2710468,37.450582 C16.577235,37.5662915 16.7683369,37.6009951 17.2806282,37.6626822 C17.5611453,37.6964605 17.6887642,37.7233934 17.7936805,37.779494 C17.9103426,37.8418752 17.9740858,37.8603001 18.0916368,37.8793765 C18.1148748,37.8831476 18.1253403,37.8854592 18.1339,37.8885849 C18.2341105,37.9251788 18.3829221,38.1659951 19.5558395,40.2261207 C20.2667798,41.4748244 21.5754299,42.3552461 23.4746969,43.0750436 C24.0325526,43.2864637 24.5671639,43.4604543 25.3775661,43.7047524 C26.5344181,44.0534887 26.5868023,44.0697448 26.9210974,44.1936299 C27.2851807,44.3285541 27.5269147,44.4508467 27.6615093,44.5715024 C27.7841003,44.6813977 27.7550727,44.9239991 27.5504614,45.3508133 C27.4601005,45.5393041 27.3421876,45.7523125 27.1606928,46.0607571 C27.1807562,46.02666 26.7801785,46.7008775 26.6634626,46.9033614 C26.5068906,47.1749891 26.3749022,47.4161272 26.2557865,47.6515247 C26.1608834,47.8390729 26.0675408,48.0318149 25.9425042,48.2961406 C25.9086067,48.3677994 25.7941451,48.6107384 25.7805056,48.6396288 C25.347219,49.5573965 25.0955969,50.0230693 24.7695876,50.4488905 C24.3587011,50.985575 23.9093376,51.3049155 23.3620824,51.4131041 C22.1189618,51.6588605 21.6139121,52.1787122 21.3771617,53.116696 C21.353364,53.2109806 21.3422115,53.2609038 21.2991681,53.4600431 C21.2047144,53.897032 21.1416382,54.0899497 21.0089523,54.2736347 C20.8407725,54.5064561 20.5751056,54.6530802 20.1480553,54.717574 C19.0351231,54.8856508 18.4981906,55.0878183 18.2711309,55.4466608 C18.1595154,55.6230565 18.1260678,55.8305226 18.1510972,56.1002908 C18.1692287,56.2957129 18.193098,56.411875 18.3121849,56.9321231 C18.4421701,57.499982 18.0838169,57.8394808 17.4123683,57.703679 C16.5368841,57.5266105 15.3809024,56.6238587 14.1540543,55.006148 C13.4739972,54.1094309 13.0260066,53.3015758 12.7348834,52.505872 C12.5225516,51.9255227 12.4435364,51.5765189 12.2699922,50.6117504 C12.1562014,49.9791639 12.0781999,49.6481742 11.9348734,49.2733708 C11.7313111,48.7410493 11.424728,48.2604407 10.9536155,47.7681323 C9.00873976,45.7357546 6.02259528,40.578271 5.72003488,38.8568851 C5.62938894,38.3411645 5.81250503,37.7965825 6.40904616,36.5206582 L6.41344714,36.5112452 C6.87947732,35.5144864 7.04894941,35.0881995 7.12447277,34.5983509 C7.22874753,33.9220192 7.02433975,33.4211864 6.44176873,33.1115924 C5.59533558,32.6617749 5.07774585,32.1447309 4.8058649,31.5562598 C4.605323,31.1221981 4.55124283,30.7318853 4.55124283,30.1075925 C4.55124283,29.5037366 4.12320257,28.5873686 3.27017009,27.3396721 C3.29196414,27.2942239 3.36865669,27.2675198 3.54145296,27.2675198 Z" id="Path-13-Copy" fill="#000000"></path>
                    <path d="M14.3574643,35.8941311 C14.4494457,36.1008858 14.5355845,36.2805569 14.6260954,36.396254 C15.7440294,37.8252728 16.9178602,37.441424 17.4488789,37.6963435 C17.9798976,37.951263 17.5327239,37.2374884 19.1816767,39.8376674 C19.7179848,40.683354 20.6208911,41.2890438 21.6278907,41.7477034 C20.5778887,42.8798133 19.3612109,43.2713705 17.9786094,42.9226245 C15.1992556,42.2215633 14.639108,41.0853606 12.4127737,41.6655492 C11.0504565,42.0205727 9.93757864,42.9662244 9.07414019,44.5025045 C7.49198857,42.4372734 5.94287202,39.7853075 5.73851954,38.7415135 C5.60919581,38.0809522 6.15009349,37.1802313 6.58866272,36.3171699 Z" id="Combined-Shape-Copy-4" fill="#DDDE59"></path>
                    <path d="M3.41210809,27 C3.82421618,27 4.73674123,27.4098898 5.08997674,27.6305996 C5.44321224,27.8513095 4.92384811,28.2418329 4.88392269,30.6574778 C4.84399728,33.0731227 6.59389175,32.0383384 7.03277201,32.8330465 C7.47165227,33.6277546 8.27540556,30.7966485 9.12274875,31.950207 C9.20746964,32.0655446 8.72428392,33.6595721 8.86041251,33.7850382 C8.99140072,33.9057666 9.44239352,32.2701481 9.77471459,32.3943195 C10.3869028,32.6230628 10.9624404,33.2861057 11.7145422,33.8512629 C12.2317042,34.2398776 13.0815827,33.7346716 13.5848143,34.1327179 C14.2347154,34.6467769 14.5070749,36.0637469 14.8333894,36.5535843 C14.8890554,36.6371456 14.944853,36.7156954 15.0007044,36.7895539 C12.2352896,36.2387656 10.1889599,36.4192861 8.86041251,37.3280054 C7.82244151,38.0379721 6.80268749,38.1853754 5.80115044,37.7702155 C6.45081544,36.1229389 7.6587065,34.2431533 6.26742842,33.4636461 C4.35406943,32.3916268 4.29519685,31.0673676 4.29519685,30.1529981 C4.29519685,29.5434185 3.86346457,28.5764991 3,27.2522398 C3,27.0840799 3.13736936,27 3.41210809,27 Z" id="Combined-Shape-Copy-5" fill="#DCAE52"></path>
                    <path d="M38.1693783,3.98597373 C37.3229063,3.90604295 36.7161664,3.96862277 36.4637905,4.27192255 C36.2872059,4.484138 36.2868437,4.75027109 36.4027161,5.07023921 C36.476491,5.27396003 36.5602607,5.43292103 36.7920792,5.83765842 C36.8059227,5.86183176 36.8115879,5.87173056 36.8196995,5.8859246 C37.0505417,6.28986607 37.1512222,6.5010533 37.1847172,6.68188819 C37.2075216,6.80500606 37.1767674,6.91728282 37.0677773,7.14462484 C37.0620981,7.15647111 37.0572012,7.1666317 37.0463379,7.189139 C36.8822713,7.5291549 36.8271416,7.70597724 36.8580885,7.96410681 C36.8979044,8.2962131 37.113657,8.61717823 37.5347151,8.96041664 C38.3318634,9.61023641 38.8072226,9.61023641 39.1227115,9.12159355 C39.1232361,9.120781 39.1238226,9.11986802 39.1244645,9.11886496 C39.1306037,9.12813778 39.1369344,9.13788866 39.1434515,9.14811581 C39.2035642,9.24244922 39.4605857,9.69876262 39.4553372,9.68971456 C39.6063436,9.95003911 39.7323196,10.1363268 39.8700646,10.2860976 C40.0675371,10.5008105 40.279899,10.6251074 40.5246039,10.6251074 C41.3660303,10.6251074 41.8894415,9.86069284 41.4004401,9.27808787 C41.3315814,9.19604841 40.3588801,8.27321865 40.0304365,7.93972925 C39.8693022,7.77611951 39.721316,7.62044468 39.5861373,7.47161963 C39.2150778,7.06310181 38.9513343,6.71771777 38.8162885,6.45217455 C38.7013997,6.22626662 38.7010427,6.1356802 38.7481823,6.10571421 C38.7498777,6.10637491 38.7521509,6.10729138 38.7550572,6.10855475 C38.7955669,6.12616407 38.8543278,6.17278255 38.9260384,6.24940713 C38.9983144,6.32663585 39.0786634,6.42817162 39.1797773,6.56804075 C39.2410271,6.65276656 39.4677467,6.97754012 39.4693028,6.97974516 C39.9665587,7.68434474 40.2993289,8.01324224 40.7603499,8.07674568 C41.0365234,8.11478723 41.2353768,8.11414212 41.3828026,8.05951036 C41.3859214,8.11399753 41.4012682,8.16845608 41.4310661,8.22205477 C41.4628344,8.27919772 41.801308,8.72858013 41.8953766,8.86347729 C41.9674331,8.96680835 42.0309682,9.06347307 42.0861277,9.15465782 C42.1998199,9.34260378 42.2731692,9.50014095 42.2992132,9.61501735 C42.3085557,9.65622553 42.3105837,9.68663952 42.3081478,9.70456796 C42.112584,9.82527077 41.9698983,9.99147063 41.8429343,10.2125978 C41.7948437,10.2963547 41.6728953,10.5406621 41.6594004,10.5650385 C41.6438672,10.5930969 41.6306691,10.6143463 41.6201616,10.6291517 C41.2519648,10.6361833 40.7293941,10.7154004 40.4232403,10.8321226 C39.9459362,11.0140966 39.2036754,12.253638 39.0274256,13.2004894 C38.9738063,13.4885435 38.7912186,13.6672647 38.4571229,13.8131445 C38.3455714,13.8618524 37.967122,13.9944281 37.9604528,13.9970133 C37.8596872,14.0360745 37.785304,14.0726579 37.7222687,14.1198225 C37.6180837,14.1977763 37.5523271,14.3025958 37.5523271,14.4322128 C37.5523271,14.6051815 37.6576704,14.7269825 37.8200249,14.8149003 C37.9137927,14.8656771 38.0245056,14.9055805 38.1927916,14.9552546 C38.2284027,14.9657662 38.4480054,15.0282163 38.5112275,15.0472418 C38.8273101,15.1423609 39.0026375,15.2303352 39.0647232,15.3250043 C39.2143255,15.5531197 39.3778583,15.8486445 39.4882896,16.0959082 C39.5338979,16.1980285 39.5693233,16.2892572 39.5928297,16.3649533 C39.581974,16.363847 39.5707266,16.3626469 39.5590921,16.3613525 C39.4745098,16.3519417 39.3726694,16.3380415 39.2366428,16.3177051 C39.1566214,16.3057417 38.8556302,16.2592957 38.8455691,16.2577591 C38.7343969,16.2407805 38.6425017,16.2271577 38.5540455,16.2146851 C38.1257375,16.1542924 37.8120461,16.1264138 37.5629252,16.1358763 C37.3957048,16.1422279 37.2593988,16.1656443 37.1485894,16.2148854 C36.9812575,16.2892437 36.8734494,16.426168 36.8734494,16.6044909 C36.8734494,16.757897 36.9315262,16.9718238 37.0494183,17.3021812 C37.0938575,17.4267087 37.1457564,17.5647668 37.2171163,17.7497334 C37.2424346,17.8153591 37.3705574,18.145118 37.406743,18.2390794 C37.4442371,18.3364388 37.4771602,18.4228699 37.5080718,18.5052877 C37.8365023,19.380964 37.9688211,19.9355518 37.8870071,20.0956153 C37.8174064,20.2317845 37.7884647,20.3489995 37.8164689,20.464194 C37.8550059,20.6227149 37.9862108,20.7139313 38.1436314,20.7327955 C38.292422,20.7506257 38.4592377,20.7112401 38.7047767,20.6251527 C38.7390026,20.6131528 38.7745929,20.6002608 38.8143422,20.5855342 C38.8148914,20.5853307 39.0129527,20.5108127 39.0571994,20.495165 C39.0627454,20.4932037 39.0680676,20.4913422 39.0731676,20.4895798 C39.0872507,20.5044202 39.1035295,20.5225086 39.1232923,20.545195 C39.1382516,20.5623673 39.1955585,20.629297 39.2073458,20.642913 C39.2961404,20.745483 39.3678144,20.8202165 39.439773,20.8757218 C39.4390993,20.8769403 39.4384251,20.8781648 39.4377503,20.8793953 C39.4009316,20.9465368 39.3609868,21.0345098 39.3088217,21.1599413 C39.3191286,21.1351582 39.0736174,21.7445515 38.9915344,21.93227 C38.9501845,22.0268346 38.9101804,22.1141277 38.8706504,22.1955708 C38.8421877,22.2542121 38.8123327,22.3130926 38.7706682,22.3934042 C38.7595541,22.4148276 38.7213884,22.48812 38.7159583,22.4985695 C38.6941416,22.5405527 38.6772685,22.5732832 38.661033,22.6052228 C38.3239246,23.268409 38.2397456,23.7444106 38.4521563,24.4417587 C38.5596956,24.794812 38.4576626,24.9885345 38.0564639,25.2777078 C38.0065406,25.3136912 37.3783876,25.727304 37.1717321,25.8850578 C36.5083741,26.3914428 36.0666677,26.9803364 35.8284238,27.8269382 C35.5359123,28.8663806 35.5900102,30.229169 36.0469298,32.0133376 C36.119067,32.295017 36.1792966,32.5777206 36.2732577,33.0575727 C36.421568,33.8149822 36.4277717,33.8459822 36.4925314,34.1356068 C36.7791934,35.4176448 37.1379332,36.3113676 37.7566256,37.0445227 C38.532618,37.9640795 39.6668237,38.5147106 41.257333,38.6652352 C42.0896741,38.7440074 42.8119897,38.6532402 43.4715674,38.4126443 C43.9917446,38.2228979 44.4282601,37.9659416 44.9733014,37.5657858 C45.037576,37.518597 45.1020238,37.4705386 45.1865169,37.4069873 C45.1690724,37.4201081 45.3446265,37.2878742 45.3906266,37.2534323 C45.5504593,37.1337598 45.6659917,37.0502987 45.7784242,36.974642 C46.1476907,36.7261599 46.4443099,36.5949134 46.7554897,36.5575911 C46.8575151,36.5453543 46.9664689,36.5174024 47.1043528,36.4719098 C47.155322,36.4550933 47.20823,36.436611 47.2806275,36.4105988 C47.2679859,36.4151408 47.4191414,36.3605867 47.4610293,36.3457177 C47.8335839,36.2134715 48.0774385,36.1554347 48.3151207,36.160216 C48.8161722,36.1702955 49.2062723,36.5000168 49.5117651,37.3597618 C49.5792116,37.5495759 49.5642075,37.6905427 49.4722721,37.909986 C49.4614976,37.9357039 49.4495463,37.9629832 49.4342932,37.9968745 C49.4258275,38.0156846 49.3957181,38.0818908 49.3917667,38.0906249 C49.1925402,38.5309922 49.131411,38.8329877 49.2270957,39.2817741 C49.2705026,39.4853638 49.350126,39.6971017 49.4746628,39.9602112 C49.5458827,40.1106778 49.8323177,40.6699964 49.828652,40.6626787 C50.3016298,41.6068761 50.4881413,42.2948804 50.3888227,43.146856 C50.303067,43.8824864 50.1319199,44.5288946 49.872376,45.1607124 C49.6731983,45.6455785 49.4784301,46.0171043 49.0556077,46.7582747 C49.0321422,46.7994022 49.0321422,46.7994022 49.0086523,46.8405748 C48.4941431,47.7425403 48.2600522,48.2058347 48.0370445,48.8389714 C47.7443966,49.6698217 47.5939137,50.5567335 47.5939137,51.60311 C47.5939137,51.7010506 47.6516279,51.7906905 47.7432432,51.8350443 C48.5169657,52.2096268 49.4744545,51.9329835 50.5791919,51.1400283 C51.4801393,50.4933488 52.4756078,49.5054758 53.5253643,48.2605318 C54.3651759,47.2645691 55.2045225,46.144641 55.9528107,45.050893 C56.530823,44.2060319 57.0014398,43.4493139 57.0712232,43.2630775 C57.0842468,43.2283204 57.4110851,42.5382393 57.5665758,42.1908564 C57.9052016,41.4343298 58.223421,40.64209 58.5237664,39.7721859 C59.7498087,36.2211443 60.3056213,32.4946015 59.8318022,28.7301936 C59.6639558,27.3966843 59.3134735,26.6904419 58.762799,26.4615603 C58.5003293,26.3524678 58.2658989,26.362238 57.9422595,26.4401555 C57.8854078,26.4538428 57.8472408,26.4630282 57.8210522,26.4691924 C57.785257,26.4327035 57.7393651,26.3802996 57.6852837,26.3137155 C57.6013471,26.210374 57.5003482,26.0762788 57.3854174,25.9158006 C57.4454101,25.9636975 57.5055036,25.9976461 57.571383,26.0169267 C57.7397759,26.0662096 57.9058937,26.0004667 57.9919584,25.8536739 C58.0442975,25.7644039 58.1428514,25.586236 58.1739726,25.5309476 C58.1883629,25.5325188 58.2088838,25.5347819 58.2388822,25.538082 C58.4054298,25.5564037 58.5454469,25.565535 58.7383734,25.565535 C59.0277912,25.565535 59.1663484,25.3500891 59.2088567,25.0360934 C59.2380808,24.8202243 59.2270838,24.524484 59.180104,24.1529176 C59.093233,23.4658493 58.8821218,22.5208415 58.583211,21.46441 C57.9531565,19.2376274 57.0682677,16.9591026 56.3363284,15.7774634 C55.0858764,13.7587396 53.6717254,11.6824837 52.1202375,9.75960334 C49.5261536,6.54455213 46.2216136,4.15880832 42.0818941,2.55899337 C38.8160193,1.29688002 36.2709033,0.533259152 34.427598,0.191241825 C33.7278791,0.0614120289 33.1652562,0 32.7583023,0 C32.5814565,0 32.4374907,0.0113478995 32.3300931,0.0340332666 C32.2674032,0.0472751269 32.2137976,0.0647608806 32.1670621,0.0899364666 C32.0715934,0.141363847 32,0.222945516 32,0.348425613 C32,0.469896989 32.0532421,0.527808231 32.1359661,0.582440036 C32.1627328,0.600117044 32.1927739,0.61569671 32.229125,0.63198964 C32.2842895,0.656714876 32.3590702,0.685046883 32.4567289,0.718773707 C32.6231046,0.776232152 32.8557596,0.84940391 33.1968732,0.952525403 C33.4036958,1.01504963 34.2989901,1.28209052 34.2292807,1.26123789 C34.6919536,1.39964032 35.055374,1.51005425 35.4086346,1.62034934 C35.8219632,1.74939887 36.1917419,1.86927826 36.5264064,1.98350473 C37.1484241,2.19580957 37.6361801,2.38433271 37.9781356,2.54863189 C38.1578701,2.63498879 38.2930896,2.71283684 38.3786426,2.77847525 C38.4079275,2.80094334 38.4291393,2.82029727 38.4420186,2.83489879 C38.4449791,2.91038749 38.457501,2.98639471 38.4788953,3.06271174 C38.5759153,3.40879829 38.8457893,3.74875155 39.2412579,4.09686579 C39.2728889,4.12470921 39.3048682,4.15219568 39.3372869,4.17943911 C38.9928716,4.09540722 38.5708473,4.02388371 38.1693783,3.98597373 Z M41.6607374,7.5362816 L41.658667,7.52350848 C41.6565564,7.51045138 41.6547185,7.49873227 41.6531286,7.48819625 C41.6774844,7.49104737 41.7075697,7.49869725 41.7351887,7.51098374 C41.7182867,7.53328451 41.6970846,7.55972645 41.6696866,7.59278847 C41.6669869,7.57516453 41.6640052,7.55641131 41.6607374,7.5362816 Z M41.0065214,20.1912871 C41.5132386,19.7083176 41.8158501,19.2055955 41.8158501,18.6843315 C41.8158501,18.4758327 41.7935788,18.2543466 41.7490235,17.9615064 C41.7386204,17.893132 41.7282349,17.8282695 41.7112558,17.7244909 C41.5576887,16.7858682 41.5818441,16.5249841 41.8278551,16.4733981 C41.8782997,16.4628204 42.0404843,16.4291867 42.0519393,16.4267987 C42.1367444,16.4091199 42.1988658,16.3958552 42.2573325,16.3828033 C42.9133674,16.2363524 43.2174553,16.0588286 43.4698502,15.5923558 C43.48639,15.5992597 43.5056115,15.6087543 43.5271867,15.6209072 C43.655511,15.6931896 43.7749537,15.791199 44.1036457,16.0824704 C44.125889,16.1021813 44.1431721,16.1174728 44.1599864,16.1323086 C44.5553003,16.4811083 44.7695665,16.63749 45.0097347,16.7010768 C45.8006621,16.9104824 46.6040298,17.3550923 46.6040298,17.6367081 C46.6040298,17.7169597 46.5518609,17.7535382 46.3618379,17.7847653 C46.3038327,17.7942975 46.3006288,17.7946502 46.1367889,17.8110771 C46.0378108,17.8210009 45.9838371,17.8285763 45.9279469,17.8439384 C45.7812131,17.8842699 45.666532,17.9712834 45.666532,18.1451136 C45.666532,18.3856273 45.9288703,18.5427976 46.3600898,18.7096738 C46.5159179,18.7699773 46.6689959,18.8159034 46.7965062,18.8385017 C47.0185396,18.8778519 47.1808988,18.8649666 47.2945172,18.7102614 C47.4033561,18.5620641 47.4357343,18.0727009 47.4102638,17.523161 C47.3798278,16.8664894 47.2831332,16.4156089 47.0407173,16.2423177 C46.9538376,16.1802117 46.8016898,16.1057114 46.5165261,15.9785344 C46.4561111,15.9515906 45.9024689,15.7087506 45.7297706,15.6309714 C45.594568,15.5700794 45.473875,15.514361 45.3628087,15.4613222 C45.1358159,15.3529237 44.9526146,15.257277 44.8151024,15.1742018 C45.0101813,15.1853342 45.2613509,15.2223775 45.5357186,15.2794989 C45.8153536,15.337717 46.1024873,15.4135026 46.3322041,15.4889217 C46.4423858,15.5250958 46.5350333,15.5598124 46.6028813,15.5901589 C46.6335515,15.6038768 46.6577018,15.6160692 46.6740494,15.6257669 C46.6782982,15.6282874 46.678939,15.6286219 46.6746042,15.6237419 L46.6721581,15.6210664 C46.7240519,15.6807219 47.1663325,16.2276988 47.3152232,16.4059973 C47.3490855,16.4465479 47.3820521,16.4857307 47.4142277,16.5236509 C47.9107614,17.1088356 48.1301762,17.3268163 48.3640249,17.3268163 C48.5077818,17.3268163 48.618452,17.2442187 48.6687069,17.1276284 C48.695009,17.066608 48.7038568,17.003017 48.704089,16.9267914 C48.7043521,16.8403961 48.699927,16.7992637 48.6697418,16.5608154 C48.6602015,16.4854509 48.6542383,16.4341823 48.6493968,16.3831854 C48.6360458,16.2425565 48.6357664,16.1378657 48.649681,16.0638599 C48.6551251,16.0349051 48.6620733,16.0145518 48.6685924,16.0030612 C48.7067723,15.9851358 48.7441081,15.9645723 48.7804205,15.9416728 C48.8332014,16.2939736 49.1796368,16.5721415 49.8287535,16.810931 C49.8635711,16.8237393 49.8993553,16.8364746 49.9361166,16.8491391 C50.6706743,17.1021989 51.1670099,16.9758165 51.595716,16.5794093 C51.6262942,16.5511348 51.6554735,16.522786 51.6919207,16.4863634 C51.7022731,16.476018 51.7133792,16.4648585 51.7334175,16.4447118 C51.7490787,16.428987 51.7601292,16.4179738 51.7706407,16.4076499 C51.7949975,16.3837278 51.8146575,16.3654792 51.8305706,16.3518934 C51.8427046,16.3642432 51.8561357,16.378953 51.8705874,16.395856 C51.9290217,16.4642016 51.9978707,16.5608832 52.0712778,16.6782432 C52.2242536,16.9228144 52.3843867,17.2363559 52.5128611,17.545664 C52.6504279,17.8768626 52.7427188,18.1808126 52.7717734,18.4066634 C52.7856563,18.5145802 52.7841151,18.5983324 52.7703846,18.6505588 C52.7684436,18.6579419 52.7665579,18.6636719 52.7649487,18.6678557 C52.6645951,18.7064931 52.4964295,18.7493126 52.2526104,18.7991411 C52.141245,18.8219006 52.0202388,18.845065 51.8455472,18.8774371 C51.7988827,18.8860845 51.6359469,18.9161265 51.6255441,18.9180484 C51.5362788,18.9345402 51.4673207,18.9473927 51.4001489,18.9601066 C50.9365952,19.047845 50.619554,19.1186341 50.3552994,19.2003186 C49.9701564,19.3193713 49.7318368,19.4491136 49.6343669,19.6563562 C49.55874,19.8171559 49.5637468,19.9362991 49.6148759,20.317547 C49.6206431,20.3605511 49.6240975,20.3869525 49.6274801,20.4143786 C49.6470976,20.5734414 49.6509662,20.6769369 49.638092,20.7527861 C49.6286508,20.80841 49.6177542,20.8253453 49.6021457,20.832639 C49.5845793,20.8408476 49.5540074,20.8467759 49.507097,20.8468458 C49.4418184,20.8469403 49.357315,20.8351106 49.2535836,20.8094375 C49.0108455,20.7493608 48.6829947,20.6187672 48.2640323,20.4103133 C47.3978768,19.9793593 46.8242709,19.6150779 46.4578549,19.2951519 C46.3274177,19.1812642 46.2308877,19.0801228 46.1456967,18.9744456 C46.1170675,18.9389319 45.997899,18.7790815 45.9629941,18.7390192 C45.8624188,18.6235835 45.7507111,18.5547071 45.5925545,18.5224047 C45.2854915,18.4596893 44.4732388,18.8001877 43.2921634,19.4087518 C42.2879677,19.9261764 41.3542237,20.4765914 41.0946082,20.7157916 C40.9950853,20.8074884 40.8643862,20.8463635 40.6897241,20.8407381 C40.570515,20.8368987 40.4423267,20.8134483 40.2838545,20.7701396 C40.5294684,20.6038284 40.7706875,20.4160685 41.0065214,20.1912871 Z M49.1053624,14.3442455 C48.9459683,14.2348934 48.589305,13.7104302 48.3744969,13.2321372 C48.2569121,12.9703222 48.188092,12.7407705 48.1797432,12.5797698 C48.1762544,12.5124908 48.1837877,12.4659233 48.1960568,12.4424146 C48.1994099,12.4359899 48.1984206,12.4367677 48.2095449,12.433876 C48.7383444,12.2964168 49.757308,12.5604348 50.1884089,12.8686076 C50.4393926,13.0480234 50.6858392,13.2990566 50.740044,13.4601718 C50.7552803,13.5054593 50.7550604,13.5062212 50.7265071,13.5248878 C50.6287738,13.5887804 50.3977819,13.6328562 50.0288916,13.6328562 C49.680235,13.6328562 49.443048,13.7587687 49.3738268,14.0165994 C49.3313094,14.1749655 49.3532208,14.2930361 49.4358697,14.5668259 L49.4370201,14.5706363 C49.4742355,14.6939027 49.4909092,14.7582933 49.4957621,14.8042467 C49.4864178,14.817172 49.4721629,14.834214 49.4529436,14.8548753 C49.4344216,14.874787 49.4126707,14.8966834 49.3843724,14.9239822 C49.3905017,14.6955054 49.3085481,14.4836409 49.1053624,14.3442455 Z M55.8058115,23.4548443 C55.4026734,22.7766619 55.0449405,22.1366554 54.7742111,21.606586 C54.9689879,21.9405938 55.211091,22.3748266 55.6156264,23.1077449 L55.6299623,23.1337173 C55.7011375,23.262661 55.7679489,23.3834725 55.8309045,23.4970074 C55.8225313,23.4829547 55.8141668,23.4689 55.8058115,23.4548443 Z M34.323294,0.701932464 C36.1287824,1.03693301 38.6412772,1.79076642 41.8767895,3.04114605 C45.9269493,4.6063502 49.1528159,6.93529495 51.6875368,10.0767731 C53.2229035,11.9796733 54.6261674,14.0399446 55.8662782,16.0419736 C56.5681154,17.1750161 57.437836,19.414484 58.0561805,21.5998803 C58.3488612,22.6342926 58.5548948,23.5565717 58.6381657,24.2151666 C58.680199,24.5476105 58.6897672,24.8049251 58.6674856,24.9695119 C58.6634106,24.9996125 58.6584824,25.0247666 58.6534484,25.0445366 C58.5258572,25.0422647 58.4229797,25.0346032 58.3014689,25.0212359 C58.0928798,24.9982892 58.0780211,24.9973936 57.9882431,25.0214386 C57.8582465,25.0562551 57.7857241,25.1293557 57.7090864,25.2569721 C57.7004764,25.2713094 57.6656423,25.3338909 57.6261475,25.4045044 C57.5362615,25.2987552 57.4227191,25.1397261 57.2885213,24.9313707 C57.0068433,24.4940377 56.7202563,23.9915232 56.1130428,22.8914716 L56.0987135,22.8655112 C55.4752308,21.7359144 55.2346448,21.3103775 54.9573787,20.8660198 C54.7764406,20.5760412 54.626248,20.36026 54.5003193,20.2143484 C54.423329,20.1251411 54.3528444,20.058604 54.2815406,20.0130159 C54.1552248,19.9322558 54.0103578,19.9064304 53.8717092,19.9887298 C53.7396047,20.0671447 53.6973134,20.1922555 53.701697,20.3375633 C53.704299,20.4238151 53.7247303,20.5246503 53.761076,20.6446051 C53.823736,20.8514071 53.9373859,21.1247313 54.097367,21.4589737 C54.3858929,22.0617802 54.8232607,22.8573642 55.3308841,23.7113178 C55.8054972,24.5097395 56.3099466,25.3052891 56.7208813,25.9039123 C57.2767792,26.7137085 57.5109738,27.0020452 57.7537062,27.0020452 C57.8080389,27.0020452 57.8613855,26.9944129 57.9274813,26.9801085 C57.9495767,26.9753267 57.9720871,26.9700316 58.0027555,26.9625261 C57.9979355,26.9637057 58.0591347,26.9486355 58.0759405,26.9445894 C58.2921288,26.8925412 58.4211766,26.8871629 58.5446066,26.9384652 C58.869769,27.0736153 59.1427564,27.623701 59.2898291,28.7921665 C59.7530523,32.4723925 59.2082064,36.1254075 58.0052612,39.6095521 C57.7100875,40.464477 57.397344,41.243084 57.0644994,41.9866949 C56.9172391,42.3156902 56.578951,43.0299462 56.5571646,43.0880894 C56.5081602,43.2188709 56.0447716,43.9639666 55.495575,44.7667088 C54.7565524,45.8469134 53.9274799,46.9531331 53.0998883,47.9346036 C50.9982879,50.4269671 49.2131212,51.7538034 48.1412353,51.4299563 C48.1568216,50.5151614 48.2968709,49.7360439 48.5545205,49.0045563 C48.7645715,48.4082049 48.988074,47.9658662 49.4882137,47.0890914 C49.511667,47.047983 49.511667,47.047983 49.5351598,47.0068076 C49.9683522,46.2474594 50.1707869,45.8613094 50.3806634,45.3503989 C50.65731,44.6769472 50.840194,43.9862098 50.9313435,43.204311 C51.0441095,42.2369808 50.83411,41.462334 50.321245,40.4385104 C50.3216448,40.4393086 50.0394378,39.888246 49.9722304,39.7462567 C49.8629732,39.5154284 49.795901,39.3370673 49.7620215,39.1781634 C49.6925662,38.8523999 49.7338514,38.6484396 49.893011,38.2966355 C49.8965859,38.2887335 49.9269859,38.2218885 49.9359452,38.2019816 C49.9528656,38.1643856 49.9664863,38.1332961 49.9792097,38.1029262 C50.1153229,37.7780334 50.1433014,37.5151699 50.028778,37.1928679 C49.6550679,36.1411394 49.0801581,35.6552129 48.3266389,35.6400547 C48.0016763,35.6335175 47.7033068,35.7045288 47.2705205,35.8581555 C46.7640093,36.0379523 46.7914543,36.0288973 46.6873386,36.0413847 C46.2728136,36.0911021 45.8995538,36.2562601 45.4636029,36.5496147 C45.3420437,36.6314128 45.219957,36.7196088 45.0534262,36.8442963 C45.0066903,36.8792892 44.8303178,37.0121396 44.8483689,36.9985625 C44.7654072,37.060962 44.70249,37.107879 44.6402015,37.1536097 C44.1334964,37.5256199 43.7382252,37.7582976 43.2764623,37.9267361 C42.6965575,38.1382696 42.0595318,38.2183191 41.3112676,38.1475039 C39.8619273,38.0103394 38.8628837,37.5253264 38.1819707,36.7184394 C37.6282866,36.0623196 37.2968138,35.2365265 37.0264012,34.027161 C36.9630756,33.7439501 36.9569568,33.7133739 36.8098515,32.9621186 C36.7141608,32.4734336 36.6523769,32.1834342 36.5772199,31.8899631 C36.140382,30.1842092 36.0896756,28.9068574 36.3556473,27.9617244 C36.5614676,27.23034 36.934989,26.7323523 37.5129618,26.2911475 C37.7011033,26.1475267 38.3206533,25.7395786 38.3857084,25.6926886 C38.949107,25.286606 39.1574215,24.8910945 38.9763703,24.2967001 C38.8068963,23.7403139 38.8689433,23.3894607 39.1522734,22.8320715 C39.1677034,22.8017164 39.1839331,22.7702339 39.205106,22.7294896 C39.2103651,22.7193692 39.2486432,22.645861 39.2599769,22.6240143 C39.3035523,22.5400192 39.3352519,22.4775008 39.366064,22.4140191 C39.4087212,22.3261332 39.451484,22.2328202 39.4953855,22.1324204 C39.5810006,21.9366241 39.8290802,21.3208556 39.8162678,21.3516633 C39.8423478,21.2889535 39.8645874,21.237715 39.8836632,21.1965559 C39.9405373,21.2136857 40.0300825,21.2408597 40.065026,21.2509912 C40.29344,21.3172174 40.4801101,21.3545612 40.6712895,21.3607186 C40.9833612,21.3707696 41.2576658,21.2891803 41.4739925,21.0898649 C41.6837734,20.8965805 42.5953917,20.3592079 43.5517503,19.866432 C44.5233816,19.3657866 45.372958,19.009642 45.4781811,19.0311331 C45.5105761,19.0377495 45.5173917,19.0419518 45.5430551,19.0714071 C45.562106,19.0932729 45.6727759,19.2417235 45.7128541,19.2914394 C45.8169237,19.420535 45.93477,19.5440111 46.0891383,19.6787935 C46.4942395,20.0324963 47.1061938,20.4211318 48.0114323,20.8715315 C48.9238976,21.3255268 49.4883906,21.4652367 49.842438,21.2997935 C50.0354181,21.2096156 50.1414908,21.0447589 50.1769454,20.8358759 C50.2000658,20.6996601 50.194753,20.5575291 50.1696066,20.3536373 C50.1659548,20.3240276 50.1623144,20.2962046 50.1563297,20.2515796 C50.1228557,20.0019775 50.1184218,19.9007977 50.1321369,19.8699049 C50.1306384,19.873286 50.1323583,19.8713189 50.1391407,19.8653799 C50.1547124,19.8517445 50.1787992,19.8355492 50.2109976,19.8180203 C50.2843866,19.778067 50.3895168,19.7366958 50.5236939,19.6952199 C50.7620402,19.621544 51.0626852,19.5544158 51.5064696,19.4704192 C51.5726878,19.4578859 51.6408981,19.4451727 51.7294168,19.4288189 C51.7395969,19.4269382 51.9027583,19.3968546 51.9497235,19.3881514 C52.1275699,19.3551947 52.2515035,19.3314699 52.3670502,19.3078559 C52.6584688,19.2482996 52.8576013,19.1967409 52.998205,19.1387888 C53.2872271,19.0196637 53.3633375,18.7301643 53.313575,18.3433434 C53.2780027,18.0668276 53.1736145,17.7230364 53.0203941,17.3541512 C52.7090437,16.6045607 52.2950314,15.9426558 51.9997192,15.8371038 C51.8524402,15.7844625 51.7074697,15.8063822 51.5771323,15.8838257 C51.5110048,15.9231171 51.4545559,15.9710256 51.3789161,16.0453156 C51.3667236,16.0572905 51.3544535,16.0695193 51.337528,16.0865135 C51.317154,16.1069969 51.3066688,16.1175325 51.2969188,16.127276 C51.2649305,16.1592427 51.2402969,16.1831751 51.2156317,16.205982 C50.9298742,16.4702106 50.649363,16.5416374 50.1216667,16.3598426 C50.0885474,16.3484328 50.0564278,16.3370017 50.0253004,16.3255509 C49.5251655,16.1415671 49.3291136,15.9772683 49.3196737,15.8582256 C49.3128908,15.7726899 49.3977445,15.6464686 49.6017661,15.4511063 C49.6304761,15.4236149 49.7306318,15.3297276 49.7333935,15.3271177 C49.7876175,15.2758751 49.8263797,15.2376655 49.8613856,15.200033 C49.9788283,15.0737786 50.0432012,14.968058 50.0432012,14.8327747 C50.0432012,14.716095 50.0227068,14.6291847 49.9615923,14.4267591 L49.9604474,14.4229666 C49.9173215,14.2801041 49.9003957,14.2041697 49.9005007,14.1651958 C49.9253453,14.1584033 49.9676834,14.1531335 50.0288916,14.1531335 C50.4981406,14.1531335 50.8263641,14.0905048 51.0352597,13.9539403 C51.274791,13.7973479 51.34495,13.5543013 51.2598328,13.3013038 C51.1609564,13.0074096 50.8517575,12.6924562 50.5159245,12.4523858 C49.9601338,12.0550785 48.774237,11.7478073 48.0659198,11.9319313 C47.752576,12.0133837 47.6172891,12.2726042 47.6345493,12.6054535 C47.64667,12.8391905 47.731844,13.1232913 47.8726812,13.4368801 C48.1233297,13.9949756 48.5269188,14.5884418 48.7864777,14.766512 C48.9429471,14.8738576 48.7277861,15.3989225 48.423721,15.5380336 C48.2459809,15.6193505 48.1495343,15.7744821 48.1123813,15.9720841 C48.0879917,16.1018022 48.0883792,16.2470121 48.1057586,16.4300728 C48.1082595,16.4564163 48.1109799,16.4824196 48.1141746,16.5106115 C48.0322407,16.4212352 47.9402132,16.3161732 47.8386564,16.1964845 C47.8074015,16.1596494 47.7753189,16.1215173 47.7423147,16.0819944 C47.5987465,15.9100697 47.1333944,15.3344503 47.0841831,15.2797278 C46.9320773,15.1105877 46.3250116,14.9112801 45.6522042,14.7712062 C45.3220298,14.7024661 45.0186439,14.6596748 44.7793397,14.6517499 C44.424428,14.6399965 44.1890536,14.691464 44.0789705,14.9013119 C44.0047077,15.0428768 44.0408567,15.1850897 44.1371344,15.3074601 C44.1950558,15.381079 44.2779723,15.4518669 44.3870932,15.5266331 C44.5589304,15.6443704 44.8007508,15.7748418 45.1182938,15.9264819 C45.2334598,15.9814784 45.3578215,16.0388905 45.4965645,16.101377 C45.6723426,16.1805433 46.2272684,16.4239463 46.2851862,16.4497764 C46.5263723,16.5573404 46.6679286,16.6265869 46.7123538,16.6579374 L46.710915,16.6568851 C46.7056678,16.6530434 46.7045409,16.6519106 46.7060407,16.6540711 C46.7130284,16.6641368 46.7215455,16.6798963 46.7306314,16.7007835 C46.7525234,16.7511099 46.7735763,16.8214937 46.7921588,16.9081424 C46.7979455,16.9351254 46.8034394,16.9634196 46.8086333,16.992904 C46.6814883,16.87944 46.5218959,16.7717553 46.3351294,16.6683926 C45.9804865,16.4721216 45.5283649,16.2984124 45.1558306,16.1997804 C45.0355038,16.1679227 44.8525177,16.0343708 44.5308033,15.7505106 C44.514324,15.7359703 44.4973048,15.7209123 44.4753239,15.7014339 C44.1104591,15.3781079 43.9822098,15.2728722 43.8049047,15.1729999 C43.4821352,14.9911903 43.1638678,15.0126831 42.9959989,15.3326863 C42.8246996,15.6592288 42.6581898,15.7589605 42.1328537,15.8762347 C42.0775046,15.8885906 42.0177169,15.901357 41.935309,15.9185361 C41.9244108,15.920808 41.7617574,15.954539 41.7105708,15.9652722 C41.3141052,16.0484069 41.1123135,16.3280232 41.0744966,16.7364554 C41.0503094,16.9976827 41.0745176,17.20935 41.1719148,17.8046548 C41.1886153,17.906731 41.1987607,17.9700933 41.208815,18.0361749 C41.2499257,18.3063759 41.2699907,18.5059208 41.2699907,18.6843315 C41.2699907,19.0377756 41.0347186,19.4286283 40.6205405,19.8233955 C40.3510673,20.0802397 40.0683229,20.2871509 39.7804002,20.4680436 C39.7468075,20.4411758 39.696142,20.3900606 39.628381,20.3117873 C39.6180718,20.2998788 39.5600398,20.2321022 39.5432583,20.2128381 C39.5080147,20.1723807 39.4795113,20.1412643 39.4512852,20.1132037 C39.3460859,20.008621 39.2542012,19.9494094 39.1183572,19.9494094 C39.0455482,19.9494094 38.9805244,19.9673453 38.8673151,20.0073815 C38.8168411,20.0252315 38.6121126,20.1022579 38.6165791,20.1006032 C38.5797127,20.1142617 38.5471302,20.1260642 38.5163298,20.136863 C38.4873821,20.1470122 38.4599361,20.1562092 38.4342172,20.1644465 C38.5152756,19.8020624 38.3652287,19.2450837 38.0220752,18.3301523 C37.9905954,18.2462193 37.9571615,18.1584473 37.9191718,18.0598013 C37.5291779,17.0471215 37.441046,16.8122094 37.4233614,16.6731067 C37.4617817,16.6647376 37.5163997,16.6583337 37.5846611,16.6557409 C37.7904693,16.6479236 38.0775462,16.6734369 38.4741626,16.729361 C38.5601525,16.7414858 38.6500159,16.7548074 38.7592061,16.7714833 C38.7680875,16.7728397 39.070464,16.8194995 39.1520566,16.8316978 C39.2945635,16.8530031 39.4026784,16.8677596 39.4958025,16.8781208 C39.6109637,16.8909338 39.7014707,16.8967833 39.7750164,16.8947059 C39.9304277,16.890316 40.0360769,16.8625699 40.1138046,16.7355672 C40.2930661,16.4426639 39.9763322,15.7334736 39.5275938,15.0492316 C39.3728175,14.8132267 39.1124181,14.6825657 38.6755738,14.5511057 C38.6072384,14.5305415 38.385674,14.4675335 38.3542728,14.4582646 C38.3293345,14.4509034 38.3061778,14.4438783 38.2846835,14.437144 C38.4094624,14.3925471 38.5991759,14.3233914 38.6844664,14.2861501 C39.1662372,14.0757893 39.4751657,13.7734029 39.5648914,13.2913772 C39.6414201,12.880249 39.8380726,12.4022627 40.0928666,11.9767683 C40.2060213,11.7878052 40.3242278,11.6208574 40.4319962,11.496081 C40.5234008,11.3902508 40.5998836,11.3251324 40.6259674,11.3151879 C40.8745345,11.2204208 41.3668361,11.1489192 41.6722304,11.1489192 C41.8944141,11.1489192 42.0210745,11.0265869 42.1421739,10.8078395 C42.163474,10.7693641 42.2830142,10.5298813 42.3217782,10.462368 C42.4103943,10.3080296 42.4998356,10.2046318 42.610286,10.1379583 C42.8343342,10.0027112 42.8929908,9.77080559 42.832758,9.50512775 C42.7923647,9.32695918 42.6985142,9.12538991 42.5590155,8.89478304 C42.497577,8.79321846 42.4280425,8.68742598 42.3499807,8.57548311 C42.2577874,8.44327528 42.0337409,8.14399442 41.9476053,8.02640876 C41.9633767,8.00453686 41.9871845,7.97546449 42.0234282,7.93353885 C42.0287622,7.92737262 42.0287622,7.92737262 42.0342,7.92109501 C42.1233462,7.81818859 42.1589426,7.7734768 42.1972702,7.70646828 C42.2699529,7.57939668 42.2917893,7.44685256 42.2271509,7.31336619 C42.0436438,6.93440137 41.4480085,6.82797492 41.1770929,7.18129357 C41.1208839,7.25459943 41.0965125,7.3366995 41.0938878,7.42477703 C41.0923786,7.47542307 41.0967548,7.51502798 41.1077768,7.58233081 C41.0427364,7.58395748 40.9532078,7.57762863 40.8384254,7.56181792 C40.5955456,7.52836239 40.327075,7.26301622 39.9222298,6.68936036 C39.9228965,6.69030498 39.6934872,6.36167853 39.6292654,6.2728415 C39.5163402,6.11663409 39.4237673,5.99965114 39.3333871,5.90307753 C39.0605942,5.61159151 38.7804838,5.48982917 38.4825612,5.65099578 C38.109392,5.85286838 38.0978136,6.23220763 38.3250937,6.67911288 C38.485699,6.9949141 38.7736513,7.37200071 39.1734477,7.81215647 C39.3137456,7.96661734 39.4665726,8.12738458 39.6324527,8.29581309 C39.9799935,8.64869303 40.9281228,9.54821057 40.9741955,9.60310248 C41.1481423,9.81034576 40.9465024,10.1048302 40.5246039,10.1048302 C40.3938388,10.1048302 40.1935297,9.88703317 39.9330448,9.43797543 C39.9452228,9.45896951 39.6789618,8.9862524 39.6099979,8.87802893 C39.4491654,8.62563835 39.3283055,8.50258256 39.1183572,8.50258256 C38.926519,8.50258256 38.821516,8.59450169 38.7138274,8.76031457 C38.7027725,8.77733615 38.6655964,8.83688212 38.6578258,8.84891759 C38.6038488,8.93251952 38.5845535,8.94765135 38.5544218,8.94765135 C38.4425257,8.94765135 38.2224655,8.83644782 37.889506,8.56502571 C37.5643983,8.30000427 37.4224544,8.08884089 37.4004186,7.90503893 C37.384493,7.77220326 37.4185966,7.66281985 37.5422625,7.40653159 C37.5531706,7.38393169 37.5583143,7.37325916 37.5642602,7.36085656 C37.7162132,7.04389825 37.7698207,6.84818889 37.7222638,6.59143543 C37.6745921,6.33406234 37.5599152,6.09351613 37.2990606,5.63705731 C37.2908512,5.62269212 37.2851101,5.6126607 37.271193,5.58835884 C36.9054363,4.94977572 36.8117384,4.69103981 36.89147,4.59522007 C37.1002917,4.34426278 38.9792173,4.52168626 39.6483647,4.82286357 C39.8073783,4.89443421 39.9572159,5.0254075 40.1129764,5.21745164 C40.159147,5.27437737 40.2039998,5.3340777 40.2583008,5.40978586 C40.2618207,5.41469339 40.3609859,5.5544838 40.387624,5.59072931 C40.4385641,5.66004169 40.4783896,5.7088587 40.5197678,5.74931871 C40.5991784,5.82696717 40.6828994,5.87576835 40.7993877,5.87576835 C41.0173413,5.87576835 41.1112223,5.71119914 41.0980023,5.55078597 C41.0931057,5.49136999 41.0744434,5.42978524 41.0440303,5.35669447 C40.9988135,5.24802624 40.9231978,5.10711633 40.8287608,4.95188352 C40.6341715,4.63202336 40.4125837,4.33164195 40.2811393,4.23086871 C40.2570493,4.21239988 40.0767733,4.083289 40.0124628,4.03570904 C39.8669695,3.92806605 39.7354088,3.82363288 39.6116037,3.71465252 C39.2856987,3.42777215 39.0701138,3.15620548 39.0062541,2.92840718 C38.9934709,2.88280734 38.987193,2.84006202 38.987193,2.80006971 C38.987193,2.36980154 38.2756012,2.02790338 36.7104345,1.49368636 C36.3706277,1.37770476 35.9962877,1.25634664 35.5785584,1.12592313 C35.2227748,1.01484029 34.8573837,0.903827629 34.3927351,0.764834189 C34.4269582,0.775071563 34.2221721,0.714004532 33.9826333,0.642461648 C34.0917786,0.660246212 34.2053717,0.680052485 34.323294,0.701932464 Z M46.861423,18.182422 C46.8581155,18.2324127 46.8541011,18.277853 46.849561,18.317473 C46.788632,18.303633 46.7168535,18.2823297 46.6409343,18.2555478 C46.723522,18.2310979 46.797952,18.1998755 46.8627818,18.1609861 C46.8623445,18.1681942 46.8618916,18.1753405 46.861423,18.182422 Z" id="Path-10-Copy-2" fill="#000000"></path>
                    <path d="M18.1104636,2.45741385 C18.5054274,2.37490121 18.8136012,2.31090472 19.1166943,2.24862683 C19.375711,2.19540551 19.6191512,2.1459057 19.8533264,2.09890847 C22.5608059,1.55553736 24.1879208,1.31529184 24.8464662,1.4340847 C25.1924294,1.49649188 25.4470028,1.55143429 25.6138737,1.60022868 C25.7101975,1.62839452 25.782003,1.65551549 25.8367191,1.68731114 C25.8877194,1.71694757 25.9290109,1.75181218 25.9609816,1.80616637 C26.0210413,1.90827526 26.0111582,2.03484114 25.9355272,2.1262214 C25.912962,2.15348554 25.885038,2.1757536 25.8535113,2.19162519 C25.594421,2.32205978 25.314608,2.4250011 25.0143933,2.50057007 C24.9028144,2.52865634 23.3141093,2.77839363 22.8012509,2.87052307 C22.2335467,2.97250497 21.7668619,3.07055128 21.408019,3.16709228 C21.0317096,3.26833235 20.7862286,3.37004914 20.7487481,3.4172215 C20.7442162,3.42292522 20.7449361,3.42042142 20.7454086,3.42508484 C20.7475297,3.44602192 20.7617709,3.48166136 20.7915784,3.52930431 C20.8553134,3.63117542 20.9476595,3.73305761 21.1631728,3.94864813 L21.1722776,3.95775525 C21.3900662,4.17558527 21.4788425,4.27045042 21.5698116,4.39461149 C21.716636,4.59500793 21.7841226,4.78267608 21.7352426,4.9795387 C21.657885,5.29109347 21.2307092,5.84623379 20.7504196,6.28146229 C20.1433143,6.83160845 19.5878822,7.09227378 19.1770282,6.84406885 C18.9497478,6.70676432 18.7775961,6.51322786 18.6110867,6.24541203 C18.5599727,6.16319972 18.3903201,5.86139549 18.3534078,5.8046882 C18.3204827,5.75410621 18.294052,5.72139183 18.2753046,5.70468491 C18.2046611,5.71948743 18.1104907,5.72707352 17.9333354,5.73609115 C17.9472215,5.73538432 17.6321728,5.75047466 17.5281941,5.7562643 C17.3499627,5.76618841 17.1882881,5.77767728 17.0262691,5.79271033 C16.6097193,5.8313602 16.226209,5.89066261 15.8659393,5.9790683 C15.1103033,6.16449193 14.5181731,6.46437364 14.1268022,6.9022159 C13.7903113,7.27866158 13.6476651,7.61591577 13.6476651,7.93877758 C13.6476651,8.18671239 13.7245602,8.41324628 13.8893436,8.72049596 C13.8790236,8.70125372 14.0431931,8.99878769 14.0811307,9.07659846 C14.1540789,9.22621688 14.1923893,9.34724352 14.1923893,9.47244575 C14.1923893,9.6935765 14.0914799,9.91589905 13.8987958,10.2056879 C13.858649,10.266067 13.8157872,10.3275372 13.7598981,10.4056193 C13.5339608,10.7212737 13.5200403,10.7402695 13.4847682,10.8031422 C13.5194996,10.7854549 13.5587515,10.760412 13.6012878,10.7274183 C13.8489893,10.5352862 14.1204844,10.14799 14.3689701,9.58176648 C14.4277409,9.44784567 14.5855148,9.39024572 14.7158747,9.45511885 C15.2189964,9.70549552 15.7393114,9.2621587 16.3117064,8.21922037 C16.4683185,7.9338637 16.930283,6.96551657 17.0072017,6.84776273 C17.1707311,6.59741771 17.4656879,6.57050338 17.8175853,6.68239837 C18.0750351,6.76426126 18.3763485,6.92642332 18.6673239,7.13314663 C18.9512617,7.33487008 19.2051469,7.56497612 19.3717131,7.77604428 C19.6026637,8.06869868 19.6894544,8.34246807 19.5065481,8.56848519 C19.2888921,8.83744256 19.2083659,9.12938133 19.241453,9.46263689 C19.2798462,9.8493352 19.4567908,10.2558903 19.7913466,10.8099119 C19.8455566,10.8996832 20.0802299,11.27639 20.1360475,11.3699658 C20.2610841,11.579584 20.3383891,11.732003 20.3825876,11.8706254 C20.5260833,12.3206799 20.2785752,12.610655 19.7385568,12.624286 C18.6281201,12.6523154 17.8866958,12.7854908 17.4595727,13.0018449 C17.1532404,13.1570138 17.0400814,13.3297397 17.0328876,13.5598919 C17.0291098,13.6807557 17.050946,13.8041418 17.1057568,14.0106634 C17.1102989,14.0277774 17.1259513,14.0861659 17.1282676,14.0948572 C17.1372599,14.1285975 17.1440303,14.1545932 17.1502981,14.1797133 C17.1669029,14.2462626 17.1785143,14.3012371 17.1861989,14.3536192 C17.2091665,14.5101768 17.196559,14.6412385 17.1233738,14.7588314 C16.9673702,15.0094959 16.6520356,15.047339 16.1024806,14.9515707 C15.2596924,14.804702 14.4502037,14.9874278 13.6337491,15.4635706 C12.9622488,15.8551786 12.322208,16.4149446 11.5656411,17.2220084 C11.3105476,17.494128 10.5143008,18.3832169 10.4542821,18.4487219 C10.0424327,18.898218 9.74819766,19.1838906 9.47176835,19.3855358 C9.45260247,19.3995166 9.43160021,19.4107483 9.40936398,19.4189088 C9.31939221,19.4519274 9.2254752,19.4830263 9.09421832,19.5241647 C9.06792019,19.532407 8.90918977,19.5816883 8.86304269,19.5962315 C8.77450434,19.6241342 8.70223299,19.6477832 8.63334392,19.6716678 C8.09345826,19.8588522 7.76127809,20.0721786 7.54103744,20.4259929 C7.37824508,20.687517 7.27950795,20.9952827 7.2239906,21.3741736 C7.19082746,21.6005031 7.17856829,21.7705785 7.15774823,22.1961636 C7.13714538,22.6173085 7.12052124,22.806339 7.07467732,23.0118597 C7.00865113,23.3078586 6.88843558,23.5270748 6.68289457,23.6699704 C6.22566525,23.9878439 5.86012306,23.8283547 5.83245818,23.3200043 C5.81835708,23.0608923 5.84730729,22.8625909 5.99873808,22.0112973 C6.1398024,21.2182806 6.1315505,20.7837881 6.02474446,20.6161684 C5.97107845,20.5319459 5.88163342,20.5115003 5.54099902,20.5135878 C5.26813318,20.5152601 5.13473933,20.5086599 4.96277766,20.4722919 C4.76924819,20.4313625 4.59416772,20.3562718 4.43412203,20.2373947 C3.96568161,19.8894513 3.57153438,19.9059103 3.19634349,20.2330918 C2.8329295,20.5500033 2.50886442,21.1491137 2.27734747,21.9064813 C2.06205669,22.6107678 1.94527046,23.3970112 1.95620114,24.036173 C1.96633955,24.6290069 2.09003522,25.0085932 2.22668093,25.0617923 C2.32372532,25.0995737 2.4031227,25.0298689 2.6191954,24.6834673 L2.63512663,24.6579275 C2.77617478,24.4319376 2.85202406,24.3262231 2.96282183,24.2263927 C3.34910863,23.8783429 4.08473029,24.024019 4.08473029,24.5399738 C4.08473029,24.756638 3.84905456,25.441695 3.58390751,25.944222 C3.41162418,26.2707467 3.22501798,26.5359532 3.02388392,26.7190004 C2.75873431,26.9603067 2.4648426,27.0597118 2.16351882,26.9639036 C2.13419593,26.9545802 2.10678548,26.9400036 2.08260601,26.920875 C2.05125223,26.8960708 1.92985337,26.8010663 1.90533251,26.7817526 C1.82863566,26.721343 1.76531487,26.6704221 1.70224406,26.6180083 C1.53753136,26.481127 1.39149647,26.3475952 1.25195973,26.2024979 C0.720142975,25.6494883 0.343125967,24.9862112 0.146430563,24.1287667 C-0.0942094517,23.0797567 -0.0447778286,21.7952501 0.343236396,20.2271853 C0.353869252,20.1842152 0.364893233,20.1396123 0.376650994,20.0919951 C1.0723962,17.2743289 1.33814013,16.3098471 1.88219292,14.8619225 C3.12420063,11.556483 4.97832449,8.89711272 7.98412875,6.52757319 C13.0317859,2.54839751 16.8676475,0.505341857 17.9776948,1.10226944 C18.0335469,1.13230385 18.0763327,1.18215001 18.0977565,1.24214327 C18.1178823,1.29850148 18.1307956,1.3562346 18.1366199,1.41492259 C18.1681602,1.73273308 18.0269032,1.98841212 17.7094174,2.36696805 C17.7101834,2.36605476 17.5668199,2.53491563 17.5313459,2.57850507 C17.8012992,2.52208149 18.1055092,2.45844887 18.1104636,2.45741385 Z M24.7563536,1.94051998 C24.1937211,1.83902852 22.5613063,2.08005657 19.9532141,2.60348138 C19.7198453,2.65031678 19.4771585,2.69966341 19.2188679,2.75273551 C18.9164125,2.81488239 18.6087406,2.87877463 18.2142765,2.96118288 C18.2067294,2.96275955 17.4711861,3.11661672 17.272436,3.15802441 C17.2017896,3.1727429 17.1282559,3.15670337 17.0699931,3.11386658 C16.850175,2.95224879 16.8417157,2.71376918 16.9738714,2.48078518 C17.0134201,2.41106289 17.0647332,2.34015295 17.1358413,2.25272957 C17.1750544,2.20451917 17.322957,2.03031184 17.3190036,2.03502572 C17.5179749,1.79778115 17.614112,1.63992394 17.6276305,1.51872856 C17.2027702,1.43364092 16.1986884,1.7535492 14.8145142,2.49078769 C13.0728635,3.41842526 10.8402253,4.92948575 8.29914037,6.93267717 C5.3701582,9.24165621 3.57034806,11.8231243 2.36012332,15.0439776 C1.8258027,16.4660014 1.56319185,17.419112 0.872545233,20.2161297 C0.86076792,20.2638261 0.849723663,20.308511 0.839069166,20.3515686 C0.469454309,21.8452768 0.423138218,23.0488247 0.644312835,24.0129802 C0.819168112,24.7752181 1.14945421,25.3562826 1.61905975,25.8446019 C1.74424539,25.9747762 1.87653793,26.0957422 2.02751499,26.2212088 C2.08668148,26.270378 2.14670899,26.3186505 2.22017577,26.376516 C2.2371021,26.3898479 2.30517223,26.4431422 2.35410748,26.4815489 C2.56662874,26.5105138 2.85131361,26.2360412 3.13264396,25.7028423 C3.25808819,25.4650908 3.37238568,25.1947389 3.46085265,24.937585 C3.51598467,24.7773285 3.55632407,24.6312246 3.56928927,24.5687022 C3.55825244,24.5636368 3.54350615,24.5587579 3.52597195,24.5552856 C3.44648779,24.5395452 3.3584294,24.5603691 3.30357567,24.609793 C3.24138569,24.6658271 3.18238156,24.7480637 3.06777918,24.9316817 L3.05192084,24.9571047 C2.89894231,25.2023556 2.82138892,25.3103152 2.70195635,25.4151679 C2.51145107,25.5824169 2.28498847,25.6361137 2.04239474,25.5416668 C1.3069257,25.2553329 1.27577702,23.4339431 1.78896643,21.7551329 C2.04609443,20.9139832 2.41311681,20.2354561 2.86180676,19.8441805 C3.41725743,19.3598052 4.07632192,19.3322837 4.73747087,19.8233652 C4.83573246,19.896351 4.94311959,19.9424085 5.06781746,19.9687808 C5.1928047,19.9952142 5.30069281,20.0005524 5.53788887,19.9990987 C5.77866551,19.9976231 5.87811582,20.0020938 6.00470167,20.0310291 C6.19671126,20.0749192 6.3492228,20.1726055 6.4548306,20.3383447 C6.65437885,20.6515125 6.664543,21.1866917 6.50172454,22.102003 C6.36442387,22.8738617 6.33313085,23.0847818 6.34207468,23.2797303 C6.35757933,23.2702197 6.37443501,23.2591881 6.39255464,23.246591 C6.55696454,23.1322905 6.61252808,22.8831962 6.64737672,22.1708517 C6.66903146,21.7282048 6.68204169,21.5477098 6.71847219,21.2990815 C6.78351767,20.8551636 6.90336291,20.4816035 7.10805927,20.152761 C7.40255183,19.6796618 7.82697369,19.4070977 8.4669734,19.1852026 C8.54104197,19.1595222 8.61763921,19.1344578 8.71040493,19.1052228 C8.7578257,19.0902782 8.91707964,19.0408344 8.94234433,19.0329159 C9.04935919,18.9993755 9.12888098,18.9733048 9.2005126,18.9477665 C9.435338,18.7714672 9.70365723,18.5091869 10.0787037,18.0998578 C10.1351095,18.0382961 10.9341208,17.1461203 11.1940375,16.8688556 C11.98155,16.0287807 12.6550162,15.4397815 13.3776386,15.0183601 C14.2918737,14.4851932 15.2201256,14.2756591 16.1896256,14.4446092 C16.4011129,14.4814641 16.5526459,14.4919185 16.6478692,14.4804908 C16.6629905,14.4786761 16.6753964,14.4764789 16.685205,14.4741766 C16.6847739,14.4619692 16.6833385,14.4468296 16.6806936,14.4288003 C16.6720123,14.3696245 16.6705547,14.3637827 16.6120885,14.1434883 C16.5451639,13.8913235 16.5163703,13.728624 16.5221502,13.543708 C16.5503774,12.6406303 17.4864527,12.1664728 19.7257505,12.109949 C19.804215,12.1079684 19.8632092,12.0997435 19.9024993,12.0874282 C19.9052491,12.0865663 19.9078127,12.0857127 19.9101938,12.0848732 C19.908025,12.0704012 19.9035115,12.0512799 19.8960538,12.0278897 C19.8669848,11.936719 19.804167,11.8128636 19.6979915,11.6348651 C19.6453633,11.5466363 19.4116876,11.1715309 19.3547273,11.0772051 C18.9832858,10.4621012 18.7810023,9.99732637 18.732997,9.5138143 C18.6882193,9.06281117 18.7978565,8.64688756 19.0833459,8.27769793 C19.0679227,8.23353278 19.0300674,8.1701521 18.9716405,8.09611511 C18.8382543,7.9270918 18.6196412,7.72895428 18.3727217,7.55353043 C18.1215172,7.37506236 17.8650539,7.23703787 17.663702,7.17301277 C17.5704933,7.14337463 17.495628,7.13180707 17.4470942,7.1362357 C17.4390114,7.13697324 17.433017,7.1379927 17.4289363,7.13896783 C17.3559295,7.26363297 16.9256865,8.16426556 16.7589528,8.46806442 C16.463311,9.00674161 16.1719207,9.41326466 15.8530336,9.68497394 C15.5006097,9.98525835 15.1213709,10.1068673 14.735311,10.0086487 C14.4804586,10.5333079 14.1983724,10.9137496 13.9131338,11.1349976 C13.5759362,11.3965482 13.2094262,11.436443 12.9971707,11.1734118 C12.8570783,10.9998066 12.8949303,10.8091814 13.0238979,10.5786686 C13.0625377,10.509605 13.1105297,10.4354544 13.174552,10.343688 C13.1988301,10.3088888 13.2243952,10.2729651 13.259178,10.2245921 C13.2546414,10.2309013 13.3258032,10.132111 13.3453473,10.104806 C13.3980922,10.0311167 13.4378701,9.9740694 13.4741778,9.91946414 C13.6133645,9.71013308 13.681399,9.56024015 13.681399,9.47244575 C13.681399,9.41017561 13.7104105,9.46967886 13.4397205,8.96495943 C13.2382239,8.58925571 13.1366748,8.2900906 13.1366748,7.93877758 C13.1366748,7.48160154 13.3299962,7.02453762 13.7469861,6.55803446 C14.2174118,6.03175044 14.8981496,5.6869938 15.7449451,5.47920075 C16.1320783,5.38420311 16.5396028,5.32118738 16.9793785,5.28038248 C17.1482176,5.26471662 17.3159351,5.25279833 17.4999787,5.24255059 C17.6063007,5.23663047 17.9231564,5.22145357 17.9075351,5.22224874 C18.0625831,5.21435641 18.1456275,5.20721544 18.1745367,5.2002296 C18.432816,5.13781696 18.6147268,5.26754754 18.7807877,5.52266232 C18.8290478,5.596803 19.0022658,5.90495 19.0442108,5.97241476 C19.1717422,6.17753788 19.2935151,6.31443751 19.4399305,6.4028899 C19.5753883,6.4847226 19.9630062,6.3028128 20.4085851,5.89903846 C20.8190563,5.52707797 21.1933492,5.04066213 21.2395092,4.85475445 C21.2520455,4.8042649 21.1381826,4.64885673 20.8121567,4.32276873 L20.8030214,4.31363118 C20.5577229,4.06824472 20.4515553,3.95111372 20.359222,3.8035326 C20.2050729,3.55714778 20.1799804,3.30946266 20.3497317,3.09581674 C20.5713922,2.81683871 21.3361875,2.61108267 22.7115003,2.36402263 C23.2464089,2.26793211 24.805171,2.02290172 24.89046,2.00143307 C24.9172761,1.994683 24.9438875,1.98769263 24.9702945,1.98046208 C24.9038176,1.96757321 24.8324889,1.95425377 24.7563536,1.94051998 Z" id="Path-7-Copy-2" fill="#000000"></path>
                    <path d="M9.52053295,32.2219743 C9.57548403,31.9349792 9.5825927,31.8504823 9.48966364,31.7302466 C9.21412291,31.3737397 8.87369745,31.2799182 8.53218508,31.4462059 C8.30895878,31.5548982 8.12505837,31.7385465 7.85446597,32.074669 C7.50102937,32.5136984 7.51871441,32.4929303 7.4367399,32.5583318 C7.3340484,32.3957045 7.18538114,32.2856931 6.99473735,32.213391 C6.85734172,32.1612833 6.73465416,32.1356287 6.48157256,32.0959679 C6.35335957,32.0758755 6.32312698,32.0709793 6.26578475,32.06047 C5.9581498,32.0040889 5.77412404,31.9254133 5.63946463,31.7749845 C5.4618753,31.5765984 5.36521426,31.2355391 5.37469986,30.6900954 C5.38661526,30.0049321 5.44148858,29.4580321 5.53079997,28.9677162 C5.56440753,28.783212 5.67583035,28.2863919 5.68786655,28.199783 C5.72424192,27.9380367 5.65937435,27.7512043 5.44821827,27.6258144 C4.96862726,27.3410208 4.075307,27 3.66603228,27 C3.27088439,27 3,27.1575754 3,27.5011073 C3,27.5554293 3.01638483,27.6084415 3.04693944,27.6529771 C3.86731758,28.8487379 4.27438191,29.7151821 4.27438191,30.2136534 C4.27438191,30.8862275 4.33482859,31.3233583 4.56336158,31.8189906 C4.87057639,32.4852644 5.44476156,33.0599868 6.35470218,33.5445172 C6.77142422,33.7664157 6.90409295,34.0921235 6.82525826,34.6044681 C6.75870448,35.0369995 6.59790656,35.4422732 6.15480459,36.3918804 L6.15044862,36.4012157 C5.8456712,37.0543937 5.71647776,37.3515269 5.59774148,37.7053485 C5.43419814,38.1926906 5.37397911,38.599033 5.43696827,38.9581171 C5.75166684,40.7521284 8.74541509,45.9330448 10.7200276,48.0006077 C11.1500421,48.4508641 11.4246384,48.8821868 11.6068891,49.3597274 C11.7372425,49.7012845 11.8099349,50.0103602 11.9183237,50.6141165 C12.0940749,51.5931001 12.175844,51.9549873 12.3964475,52.5591463 C12.698509,53.3863913 13.1611157,54.2222651 13.8574401,55.1422612 C15.1236796,56.8152392 16.3392505,57.7664175 17.3147678,57.9641109 C18.2477413,58.1531825 18.8575257,57.5743304 18.6620889,56.718836 C18.4795178,55.9196592 18.4612867,55.7227722 18.5695541,55.5513269 C18.7106398,55.3279127 19.1639403,55.1568945 20.1554533,55.0068564 C20.6756668,54.9281364 21.0326786,54.7307057 21.2649096,54.408574 C21.4393683,54.1665792 21.5136648,53.9388918 21.6187219,53.4518789 C21.6601973,53.2596108 21.6707857,53.2121188 21.692742,53.1249566 C21.7848135,52.7594508 21.9009506,52.513108 22.1033162,52.3043965 C22.3599261,52.0397397 22.7573974,51.8455784 23.3528646,51.7276242 C23.9963383,51.6001604 24.5189405,51.2280331 24.9794076,50.6253899 C25.3246732,50.1735186 25.5829653,49.6945495 26.0235884,48.7593829 C26.0372055,48.7304822 26.1503718,48.4898141 26.1837533,48.4191055 C26.3060884,48.1599756 26.3970709,47.9717329 26.4890671,47.789567 C26.6033005,47.5633683 26.7305515,47.3304222 26.8821232,47.0669452 C26.9960572,46.868894 27.3909882,46.2028562 27.3723274,46.2346329 C27.5572144,45.9197975 27.6784305,45.7003856 27.7739102,45.5008204 C28.0477693,44.9284191 28.095453,44.5291025 27.7910032,44.2556383 C27.6117652,44.0946425 27.3365464,43.9551328 26.9337281,43.8055565 C26.5914898,43.678475 26.5411952,43.6628363 25.3836761,43.3132038 C24.5897129,43.0733846 24.0678794,42.9032142 23.5262407,42.6975312 C21.7240916,42.0131796 20.4982413,41.1868204 19.8503042,40.046509 C19.1278201,38.7750019 18.9105351,38.3971874 18.7289058,38.1026781 C18.5055062,37.7404387 18.3986665,37.6128294 18.2372103,37.553753 C18.1998724,37.5400912 18.1702746,37.5335407 18.1248428,37.5261533 C18.0469215,37.5134829 18.0218892,37.5062329 17.9503983,37.4679293 C17.7890074,37.3814589 17.6329325,37.348455 17.3067172,37.3090957 C16.8307539,37.2516688 16.6619794,37.2209588 16.3980055,37.1210034 C16.0332434,36.982884 15.6995328,36.7505865 15.3775052,36.3808526 C15.2888238,36.2790337 15.2016123,36.1672346 15.1158532,36.0448865 C15.0866283,36.0031928 15.0542756,35.9458985 15.0185922,35.8723471 C14.9449808,35.7206178 14.6560518,34.9892974 14.6410837,34.9536014 C14.3893772,34.3533297 14.1532236,33.9647483 13.8300298,33.7217907 C13.5525414,33.5131916 13.3037143,33.4917446 12.7350655,33.5362071 L12.71979,33.5374007 C12.2984496,33.5702817 12.125193,33.5551833 11.9846733,33.4548301 C11.8633233,33.368167 11.7403188,33.2743994 11.6037937,33.165427 C11.4892744,33.0740194 11.0735704,32.7309384 10.9787875,32.6552094 C10.7384168,32.4631597 10.5493607,32.3282907 10.3618879,32.2217421 C10.2430544,32.1542042 10.1274517,32.1000418 10.0122031,32.0591157 C9.87636648,32.0108785 9.74436139,32.0462941 9.63159804,32.1327639 C9.59144894,32.1635512 9.55337391,32.2009127 9.51610433,32.2449893 C9.51754043,32.2375706 9.51900865,32.2299353 9.52053295,32.2219743 Z M3.66603228,27.5304674 C3.95944977,27.5304674 4.76749041,27.8381448 5.17700696,28.0789118 C5.17625854,28.0891691 5.1748226,28.1045182 5.17190994,28.1254769 C5.16357175,28.185476 5.05568172,28.6665438 5.01843956,28.8710018 C4.92391905,29.3899156 4.86611616,29.9660133 4.85368723,30.6807057 C4.85118103,30.8248181 4.85490248,30.958859 4.86484224,31.0834836 C4.8129048,30.8364767 4.79547617,30.5643523 4.79547617,30.2136534 C4.79547617,29.603098 4.394721,28.7205547 3.59859656,27.5327091 C3.61860662,27.5312807 3.64110815,27.5304674 3.66603228,27.5304674 Z M5.65522661,32.4257017 C5.37354741,32.1658396 5.17115926,31.8887239 5.03507536,31.5935912 C4.9565961,31.4233888 4.90192379,31.259838 4.86484224,31.0834836 C4.92215561,31.8020778 5.18621285,32.2076064 5.65522661,32.4257017 Z M6.17345417,32.582544 C6.23694014,32.5941793 6.26902524,32.5993755 6.40228805,32.6202593 C6.79926524,32.6824701 6.93372462,32.7334642 7.00425836,32.8548479 C7.18802386,33.1710955 7.48774534,33.1923867 7.75503062,32.9783669 C7.83512473,32.9142343 7.91528459,32.8305127 8.01249364,32.7148208 C8.04844222,32.6720372 8.08522519,32.6267576 8.13501204,32.5643994 C8.14406938,32.5530551 8.15031098,32.5452218 8.16561397,32.5259995 C8.18091952,32.5067655 8.18091952,32.5067655 8.19623046,32.4875299 C8.22113363,32.4562543 8.2394325,32.4333605 8.25750591,32.4109102 C8.4797974,32.1347857 8.62645366,31.9883305 8.75703357,31.9247491 C8.85567051,31.8767213 8.92845137,31.8864843 9.02963242,31.9975806 C9.02546794,32.0295055 9.01859703,32.0706993 9.0090639,32.1204883 C8.98746014,32.2333191 8.97721672,32.2789709 8.89511181,32.6361233 C8.89041562,32.6565515 8.88619285,32.6749622 8.88216171,32.6925916 C8.82196608,32.9558452 8.78693988,33.123678 8.76467591,33.2681263 C8.75003987,33.3630847 8.74224534,33.4416655 8.74228515,33.5077469 C8.7423619,33.6351405 8.76360044,33.7294118 8.85683723,33.8110825 C8.94637282,33.8895111 9.06548857,33.9004084 9.16499521,33.8529712 C9.2165423,33.8283974 9.25423218,33.7944271 9.28935692,33.7513893 C9.32761298,33.7045147 9.36362053,33.6443669 9.40620343,33.5618416 C9.4530367,33.471079 9.64722118,33.052211 9.6364084,33.0749964 C9.72505167,32.8882017 9.79526499,32.7560724 9.85897667,32.6612587 C9.87927462,32.6310519 9.89778214,32.6065464 9.91344526,32.5882535 C9.97603077,32.6145355 10.0405944,32.6466787 10.1078688,32.6849136 C10.2671394,32.7754336 10.4362152,32.896049 10.6570618,33.0724996 C10.7474924,33.1447513 11.1633258,33.487939 11.2822645,33.5828741 C11.4255797,33.6972662 11.5557748,33.7965153 11.6854049,33.8890916 C11.9618671,34.0865294 12.216388,34.1087095 12.7596203,34.0663162 L12.7749723,34.0651166 C13.2146261,34.0307402 13.3831258,34.0452636 13.5204787,34.1485173 C13.7473146,34.3190388 13.9443963,34.6433289 14.1618266,35.1618585 C14.1695647,35.1803123 14.4673675,35.9340937 14.5513724,36.1072463 C14.5984704,36.2043257 14.6441017,36.2851352 14.6916741,36.3530043 C14.7879507,36.4903572 14.8865733,36.6167846 14.987599,36.7327766 C15.3664123,37.1677085 15.7716809,37.4498179 16.2163371,37.6181898 C16.5323033,37.7378323 16.728168,37.7734717 17.2453852,37.835876 C17.5067361,37.8674091 17.6230801,37.8920114 17.7077005,37.9373496 C17.7802242,37.9762065 17.846205,38.0034323 17.9101717,38.0219586 C17.9368731,38.029692 17.9623938,38.0356992 17.9888322,38.0407782 C17.9988495,38.0427026 18.0086005,38.0444227 18.0195039,38.0462295 C18.0253728,38.047202 18.0324319,38.0483375 18.0426494,38.0499802 C18.0482773,38.0508953 18.0523823,38.0515933 18.0552736,38.052091 C18.0617692,38.0581021 18.0709938,38.0678886 18.0830301,38.0822647 C18.1281358,38.136139 18.1929503,38.2312965 18.2875773,38.3847329 C18.4641813,38.6710939 18.6815215,39.0490042 19.3992346,40.312115 C20.1212071,41.5827218 21.439107,42.4711327 23.3441149,43.1945441 C23.899554,43.4054676 24.4309282,43.5787493 25.2354465,43.8217567 C26.3758545,44.1662208 26.4282008,44.1824975 26.7551606,44.3039056 C27.1012269,44.4324085 27.3284098,44.5475686 27.4462359,44.6534028 C27.5064883,44.707523 27.4840865,44.8951218 27.3054269,45.2685438 C27.2180393,45.4511955 27.1028809,45.6596424 26.9250618,45.9624423 C26.9453113,45.9279602 26.5484684,46.5972223 26.4324617,46.7988766 C26.2764185,47.0701263 26.1447017,47.3112475 26.0256288,47.5470291 C25.9310876,47.7342346 25.838267,47.9262802 25.7140832,48.189326 C25.680489,48.2604851 25.5672006,48.501413 25.553745,48.5299709 C25.1289794,49.4314819 24.883109,49.8874167 24.5680898,50.2997027 C24.1794917,50.808286 23.7608421,51.1063923 23.2533334,51.2069231 C21.972019,51.4607347 21.4343106,52.0153049 21.1879795,52.9931908 C21.1639016,53.0887753 21.1527174,53.13894 21.109755,53.3381007 C21.0201602,53.7534359 20.9617085,53.9325655 20.8448075,54.094721 C20.7003363,54.2951195 20.4688429,54.4231374 20.0788352,54.4821544 C18.9410356,54.654329 18.3837548,54.8645761 18.1312208,55.2644727 C18.0027695,55.46788 17.965067,55.7022037 17.9923342,55.9966763 C18.011078,56.1991005 18.03496,56.3155555 18.1545389,56.838994 C18.2608842,57.3045042 17.9913664,57.5603503 17.4165078,57.4438524 C16.5866441,57.2756765 15.4667348,56.3993529 14.2702202,54.8184967 C13.6051214,53.9397565 13.1682846,53.1504457 12.8848897,52.374322 C12.6782925,51.8085216 12.6013032,51.4677889 12.4309281,50.5187513 C12.3169322,49.8837625 12.2382548,49.5492394 12.0926136,49.1676245 C11.8848019,48.6231079 11.5718555,48.1315468 11.0936496,47.6308304 C9.18595743,45.633338 6.24421964,40.5424298 5.94994783,38.8648659 C5.86721266,38.3932152 6.04483825,37.8639095 6.62114135,36.6288163 L6.62549562,36.6194846 C7.0926338,35.6183657 7.26262093,35.1899316 7.34007515,34.6865586 C7.45136778,33.9632705 7.22591321,33.4097693 6.59622808,33.074471 C6.21472531,32.8713262 5.9040418,32.6552452 5.65522661,32.4257017 C5.80663087,32.4961059 5.97939343,32.5469779 6.17345417,32.582544 Z" id="Path-13-Copy-2" fill="#000000"></path>
                </g>
                <text id="worlds-tastes" font-family="Comfortaa-Regular_Bold, Comfortaa" font-size="28" font-weight="bold" fill="#272727">
                    <tspan x="72" y="35">worlds tastes</tspan>
                </text>
            </g>
        </g>
    </g>
</svg>