<?xml version="1.0" encoding="UTF-8"?>
<svg width="698px" height="1403px" viewBox="0 0 698 1403" version="1.1" xmlns="http://www.w3.org/2000/svg" xmlns:xlink="http://www.w3.org/1999/xlink">
    <!-- Generator: Sketch 55.2 (78181) - https://sketchapp.com -->
    <title>Artboard</title>
    <desc>Created with Sketch.</desc>
    <g id="Artboard" stroke="none" stroke-width="1" fill="none" fill-rule="evenodd">
        <path d="M7.10864303,321 L7.10864303,0 L697,0 L697,321 L697.021498,321 L697.021498,613 L697,613 L697,904 L697,1393 L7,1393 L7,904 C6.33333333,751.636832 6,670.698827 6,661.185985 C6,654.940872 8.06775166,647.971273 17.7860228,642.732957 C27.5042939,637.49464 38.3567555,628.303438 38.3567555,612 C37.9309482,596.319002 27.3252968,587.39729 17.8075204,582.267043 C8.08924925,577.028727 6.02149758,570.059128 6.02149758,563.814015 C6.02149758,554.301173 6.35483092,473.363168 7.02149758,321 L7.10864303,321 Z" id="Combined-Shape" fill="#FFFFFF" fill-rule="nonzero"></path>
        <path d="M19.8880428,611.782818 C20.1657982,612.155697 20.2907798,612.581501 20.2876744,613 C20.2907798,613.418499 20.1657982,613.844303 19.8880428,614.217182 C19.7945476,614.346916 19.6859535,614.466306 19.5636596,614.571938 L4.50727737,629.407132 C3.69653022,630.205969 2.39170466,630.196314 1.5928679,629.385566 C0.794031146,628.574819 0.803686425,627.269994 1.61443357,626.471157 L15.4456584,612.784285 L1.61443357,599.528843 C0.803686425,598.730006 0.794031146,597.425181 1.5928679,596.614434 C2.39170466,595.803686 3.69653022,595.794031 4.50727737,596.592868 L19.5636596,611.428062 C19.6859535,611.533694 19.7945476,611.653084 19.8880428,611.782818 Z" id="Path" fill="#FFFFFF" fill-rule="nonzero"></path>
    </g>
</svg>