<?xml version="1.0" encoding="UTF-8"?>
<svg width="698px" height="772px" viewBox="0 0 698 772" version="1.1" xmlns="http://www.w3.org/2000/svg" xmlns:xlink="http://www.w3.org/1999/xlink">
    <!-- Generator: Sketch 55.2 (78181) - https://sketchapp.com -->
    <title>Artboard</title>
    <desc>Created with Sketch.</desc>
    <g id="Artboard" stroke="none" stroke-width="1" fill="none" fill-rule="evenodd">
        <path d="M7.02149758,-3.97903932e-13 L697.021498,-3.97903932e-13 L697.021498,771.570446 L6.02149758,771.570446 C6.02149758,499.113996 6.02149758,358.985509 6.02149758,351.184985 C6.02149758,346.934437 4.95710364,330.227367 17.8075204,325.945086 C30.6579371,321.662805 43.0130679,310.745009 43.0130679,294.44157 C43.0130679,278.138132 30.3182876,266.600717 17.8075204,261.267043 C5.29675318,255.93337 6.02149758,249.059128 6.02149758,242.814015 C6.02149758,233.301173 6.35483092,152.363168 7.02149758,-3.97903932e-13 Z" id="Rectangle" fill="#FFFFFF" fill-rule="nonzero"></path>
        <path d="M19.8880428,290.782818 C20.1657982,291.155697 20.2907798,291.581501 20.2876744,292 C20.2907798,292.418499 20.1657982,292.844303 19.8880428,293.217182 C19.7945476,293.346916 19.6859535,293.466306 19.5636596,293.571938 L4.50727737,308.407132 C3.69653022,309.205969 2.39170466,309.196314 1.5928679,308.385566 C0.794031146,307.574819 0.803686425,306.269994 1.61443357,305.471157 L15.4456584,291.784285 L1.61443357,278.528843 C0.803686425,277.730006 0.794031146,276.425181 1.5928679,275.614434 C2.39170466,274.803686 3.69653022,274.794031 4.50727737,275.592868 L19.5636596,290.428062 C19.6859535,290.533694 19.7945476,290.653084 19.8880428,290.782818 Z" id="Path" fill="#FFFFFF" fill-rule="nonzero"></path>
    </g>
</svg>