<?xml version="1.0" encoding="UTF-8"?>
<svg width="34px" height="14px" viewBox="0 0 34 14" version="1.1" xmlns="http://www.w3.org/2000/svg" xmlns:xlink="http://www.w3.org/1999/xlink">
    <!-- Generator: Sketch 55.2 (78181) - https://sketchapp.com -->
    <title></title>
    <desc>Created with Sketch.</desc>
    <g id="Start-page-" stroke="none" stroke-width="1" fill="none" fill-rule="evenodd">
        <g id="Desktop-HD-Copy-36" transform="translate(-1214.000000, -207.000000)" fill="#000000" fill-rule="nonzero">
            <g id="Group" transform="translate(165.000000, 181.000000)">
                <g id="Coffee-Cigars-Restau-+-Group-2-+-Latest-Regions-Rosta-+-Group-Copy-2-Mask">
                    <path d="M1070.42857,37.1785714 L1070.42857,38.9642857 C1070.42857,39.2061024 1070.34022,39.4153637 1070.1635,39.5920759 C1069.98679,39.7687881 1069.77753,39.8571429 1069.53571,39.8571429 L1049.89286,39.8571429 C1049.65104,39.8571429 1049.44178,39.7687881 1049.26507,39.5920759 C1049.08835,39.4153637 1049,39.2061024 1049,38.9642857 L1049,37.1785714 C1049,36.9367547 1049.08835,36.7274934 1049.26507,36.5507812 C1049.44178,36.3740691 1049.65104,36.2857143 1049.89286,36.2857143 L1069.53571,36.2857143 C1069.77753,36.2857143 1069.98679,36.3740691 1070.1635,36.5507812 C1070.34022,36.7274934 1070.42857,36.9367547 1070.42857,37.1785714 Z M1082.78155,27.0357143 L1082.78155,28.8214286 C1082.78155,29.0632453 1082.64226,29.2725066 1082.36368,29.4492188 C1082.0851,29.6259309 1081.75521,29.7142857 1081.37399,29.7142857 L1050.40756,29.7142857 C1050.02635,29.7142857 1049.69645,29.6259309 1049.41787,29.4492188 C1049.13929,29.2725066 1049,29.0632453 1049,28.8214286 L1049,27.0357143 C1049,26.7938976 1049.13929,26.5846363 1049.41787,26.4079241 C1049.69645,26.2312119 1050.02635,26.1428571 1050.40756,26.1428571 L1081.37399,26.1428571 C1081.75521,26.1428571 1082.0851,26.2312119 1082.36368,26.4079241 C1082.64226,26.5846363 1082.78155,26.7938976 1082.78155,27.0357143 Z" id=""></path>
                </g>
            </g>
        </g>
    </g>
</svg>