<?xml version="1.0" encoding="UTF-8"?>
<svg width="104px" height="344px" viewBox="0 0 104 344" version="1.1" xmlns="http://www.w3.org/2000/svg" xmlns:xlink="http://www.w3.org/1999/xlink">
    <!-- Generator: Sketch 55.2 (78181) - https://sketchapp.com -->
    <title>Group 6</title>
    <desc>Created with Sketch.</desc>
    <g id="Start-page-" stroke="none" stroke-width="1" fill="none" fill-rule="evenodd">
        <g id="Desktop-HD-Copy-36" transform="translate(-165.000000, -181.000000)" fill="#FFFFFF" fill-rule="nonzero">
            <g id="Group" transform="translate(165.000000, 181.000000)">
                <g id="Coffee-Cigars-Restau-+-Group-2-+-Latest-Regions-Rosta-+-Group-Copy-2-Mask">
                    <g id="Path">
                        <g id="Path-+-Rectangle-Mask">
                            <g id="Group-6">
                                <path d="M24.7900964,4.26325641e-13 L94.7900964,4.26325641e-13 C100.682704,11.7305452 104,24.9778746 104,39 L104,257 C104,290.831268 84.689519,320.152332 56.4894708,334.542278 C43.1294676,316.044035 34,290.067142 34,257 L34,39 C34,24.9778777 30.6827054,11.730551 24.7900964,4.26325641e-13 Z" id="Path" fill-opacity="0.2"></path>
                                <path d="M-2.84217094e-14,344 L-2.84217094e-14,0 L24.7900964,0 C30.6827054,11.730551 34,24.9778777 34,39 L34,257 C34,290.067142 43.1294676,316.044035 56.4894708,334.542278 C44.6384719,340.589616 31.2175049,344 17,344 L-2.84217094e-14,344 Z" id="Path" fill-opacity="0.4"></path>
                            </g>
                        </g>
                    </g>
                </g>
            </g>
        </g>
    </g>
</svg>