<?xml version="1.0" encoding="UTF-8"?>
<svg width="160px" height="375px" viewBox="0 0 160 375" version="1.1" xmlns="http://www.w3.org/2000/svg" xmlns:xlink="http://www.w3.org/1999/xlink">
    <!-- Generator: Sketch 55.2 (78181) - https://sketchapp.com -->
    <title>Group 4</title>
    <desc>Created with Sketch.</desc>
    <defs>
        <path d="M63.700868,12.9331543 C75.0680652,15.9211615 83.8631115,18.3127539 92.6814839,20.5510646 C110.167018,24.9893053 110.8616,29.3363734 107.637559,37.3280082 C104.170039,45.9231676 106.540794,50.1492725 85.9692265,45.1259748 C77.8028516,43.1318568 67.3497321,40.2316124 56.9886106,37.5080645 C41.8813201,33.5369279 27.8928675,29.8598917 16.8396863,26.9544274 C-1.25500243,22.1980166 0.0781283097,14.1068457 1.5485411,8.7211095 C3.02010548,3.33568182 7.03824181,-1.96131177 23.5519437,2.37951727 C34.1496326,5.16524976 47.4833904,8.6701915 63.700868,12.9331543 Z" id="path-1"></path>
        <radialGradient cx="68.3799411%" cy="64.6836608%" fx="68.3799411%" fy="64.6836608%" r="93.3573033%" gradientTransform="translate(0.683799,0.646837),scale(1.000000,0.714844),rotate(-116.752294),translate(-0.683799,-0.646837)" id="radialGradient-3">
            <stop stop-color="#C76C6C" offset="0%"></stop>
            <stop stop-color="#9D3232" offset="100%"></stop>
        </radialGradient>
    </defs>
    <g id="Start-page-" stroke="none" stroke-width="1" fill="none" fill-rule="evenodd">
        <g id="Desktop-HD-Copy-38" transform="translate(-1057.000000, -235.000000)">
            <g id="Group-4" transform="translate(1057.658148, 235.525219)">
                <g id="Group-3-Copy-4" transform="translate(-0.000000, 139.300868)" fill-rule="nonzero">
                    <g id="Group-2">
                        <path d="M39.9586021,4.28471077 C42.9338723,7.12371815 44.5744699,9.68901612 44.8803947,11.9806047 C46.1551969,21.5297543 41.4733193,32.420153 34.8578352,37.7976442 C25.8609922,45.1108572 15.734031,45.960985 4.4769516,40.3480277" id="Path-5" fill="#4C3017"></path>
                        <path d="M39.5480913,4.71492473 C42.4346082,7.46924357 44.0062907,9.92678341 44.2909784,12.0592912 C45.4983951,21.1036773 41.1750376,31.8962958 34.4827549,37.3362139 C25.6719388,44.4982122 15.7957423,45.3272891 4.74229565,39.8158663 C4.44839104,39.6693208 4.09133571,39.788779 3.94479024,40.0826836 C3.79824476,40.3765882 3.91770295,40.7336436 4.21160755,40.880189 C15.6723197,46.5946808 26.0500457,45.7235021 35.2329155,38.2590746 C42.245149,32.5590799 46.7321741,21.3578897 45.469811,11.9019182 C45.1426491,9.45124883 43.4331364,6.77819272 40.3691129,3.85449681 C40.1315123,3.62777795 39.755107,3.63659934 39.5283881,3.87419995 C39.3016693,4.11180056 39.3104907,4.48820587 39.5480913,4.71492473 Z" id="Path-5" fill="#000000"></path>
                        <path d="M5.1447789,40.7038699 C12.4612866,44.0231518 24.9788108,36.8448766 33.6945024,27.9093154 C42.410194,18.9737542 44.8808353,6.72217789 38.4143544,2.87977621 C31.9478736,-0.962625472 21.8264252,3.28149069 11.8924111,10.1787381 C1.95839702,17.0759855 -2.17172883,37.3845881 5.1447789,40.7038699 Z" id="Oval" fill="#6F4622"></path>
                        <path d="M5.1447789,40.7038699 C4.2336467,38.5387454 9.09754954,36.1432728 14.153984,30.9970693 C18.3002607,26.777182 22.2280328,20.000604 26.1548831,15.9746916 C34.8705747,7.03913038 32.9702084,6.56657938 38.4143544,2.87977621 C31.7384792,-0.436628839 21.8264252,3.28149069 11.8924111,10.1787381 C1.95839702,17.0759855 -2.17172883,37.3845881 5.1447789,40.7038699 Z" id="Oval" fill="#5D3B12"></path>
                        <path d="M4.89910573,41.2453936 C11.939389,44.4393606 24.2342994,38.4597987 34.1201848,28.3245234 C43.1313491,19.0860356 45.5703793,6.4402044 38.7181151,2.36856919 C32.5602429,-1.29045634 23.057007,1.70316921 11.5532734,9.69028257 C1.42693766,16.7210601 -3.04932119,37.6394288 4.89910573,41.2453936 Z M5.39045208,40.1623463 C-1.49070469,37.0405702 2.74313806,17.2550559 12.2315488,10.6671936 C23.3792884,2.92724911 32.4966683,0.0551724911 38.1105937,3.39098323 C44.0947083,6.94676145 41.8232244,18.7239021 33.26882,27.4941074 C23.6997891,37.3045349 11.8231532,43.0806714 5.39045208,40.1623463 Z" id="Oval" fill="#000000"></path>
                        <path d="M35.7974501,4.95586431 C29.9463805,5.88228367 22.8537629,16.0991949 21.4347644,18.6473965 C15.0811775,30.0570067 12.4129284,31.0229078 5.99823296,36.7685421 C10.2251515,36.1954006 14.2776481,32.9979238 17.6763046,28.9384175 C20.8978415,25.0904705 25.8398124,16.9069983 28.2357869,14.9336803 C31.2679418,12.4364058 32.6244617,7.59639924 35.7974501,4.95586431 Z" id="Path-6" fill="#140B03"></path>
                        <path d="M18.1921823,43.1900218 C29.7716122,41.7178004 37.4636822,36.0767918 41.2683925,26.2669959 C34.3745359,35.7202484 26.6824658,41.361257 18.1921823,43.1900218 Z" id="Path-38" fill-opacity="0.23" fill="#FFFFFF"></path>
                    </g>
                    <g id="Group-2-Copy" transform="translate(63.495087, 32.719297) scale(-1, 1) rotate(18.000000) translate(-63.495087, -32.719297) translate(48.277696, 17.501905)">
                        <path d="M26.183195,3.29250183 C28.1253853,5.14574276 29.196331,6.82031227 29.3960319,8.31621036 C30.2281944,14.549683 27.1719688,21.6586933 22.8535278,25.169 C16.9805886,29.9429029 10.3699334,30.4978475 3.02156209,26.8338337" id="Path-5" fill="#4C3017"></path>
                        <path d="M25.7726842,3.72271579 C27.6261212,5.49126818 28.6281517,7.05807956 28.8066156,8.39489687 C29.5852511,14.2274154 26.7914739,21.2016643 22.4784475,24.7075697 C16.7915351,29.330258 10.4316447,29.8641516 3.28690614,26.3016723 C2.99300153,26.1551269 2.63594619,26.274585 2.48940072,26.5684896 C2.34285525,26.8623942 2.46231343,27.2194496 2.75621804,27.3659951 C10.3082221,31.1315434 17.1696421,30.5555479 23.228608,25.6304304 C27.8615852,21.8644484 30.81903,14.4816277 29.9854482,8.23752386 C29.7645102,6.58254498 28.6246495,4.80021733 26.5937059,2.86228787 C26.3561052,2.63556901 25.9796999,2.6443904 25.7529811,2.88199101 C25.5262622,3.11959162 25.5350836,3.49599693 25.7726842,3.72271579 Z" id="Path-5" fill="#000000"></path>
                        <path d="M3.45750491,27.0661196 C8.23355857,29.2328731 16.4047202,24.5470545 22.09413,18.7141187 C27.7835398,12.8811829 29.3963195,4.8836262 25.1751445,2.37539177 C20.9539695,-0.132842662 14.2695855,4.35708079 8.97868012,9.37153343 C3.6877747,14.3859861 -1.31854875,24.8993662 3.45750491,27.0661196 Z" id="Oval" fill="#6F4622"></path>
                        <path d="M3.45750491,27.0661196 C2.86273805,25.6527744 6.03778574,24.0890632 9.33851381,20.7297359 C12.0451111,17.9750872 14.6090734,13.5514877 17.172434,10.9234615 C22.8618438,5.09052574 21.621327,4.78205495 25.1751445,2.37539177 C20.8172815,0.210516251 13.6241735,3.86974239 8.53539964,8.3722839 C3.44662575,12.8748254 -1.31854875,24.8993662 3.45750491,27.0661196 Z" id="Oval" fill="#5D3B12"></path>
                        <path d="M22.5198124,19.1293267 C28.4813988,13.0173482 30.1026314,4.61161624 25.4789052,1.86418474 C21.3308041,-0.600628942 14.5311933,2.3097779 8.31209833,8.20392164 C5.61464187,10.7604345 3.04248026,14.8995975 1.75076924,18.7286318 C0.286358644,23.0696015 0.622688881,26.4330262 3.21183174,27.6076433 C7.91305522,29.7404485 16.0115166,25.8018064 22.5198124,19.1293267 Z M3.70317808,26.524596 C1.8604577,25.6886086 1.58551824,22.9391139 2.87766556,19.1087862 C4.10895202,15.4588692 6.57749473,11.4864513 9.13020006,9.0671263 C14.9987104,3.50524895 21.3427146,0.789853343 24.8713838,2.88659879 C28.6269604,5.11817329 27.1732741,12.6552147 21.6684476,18.2989107 C15.4770063,24.6465426 7.79681943,28.3817592 3.70317808,26.524596 Z" id="Oval" fill="#000000"></path>
                        <path d="M23.4668875,3.73061595 C19.6474393,4.33536192 15.0175361,11.0047345 14.0912454,12.6681439 C9.94376513,20.1160839 8.6127068,21.2028114 4.42533619,24.9534338 C7.1845747,24.5792998 9.41923899,22.0358492 11.6378064,19.3858937 C13.7407541,16.8740394 16.9667629,11.5320506 18.5308018,10.2439125 C20.5101252,8.61374721 21.3956312,5.45429847 23.4668875,3.73061595 Z" id="Path-6" fill="#140B03"></path>
                        <path d="M10.9002397,28.3472606 C18.5503033,27.8904711 23.7443461,24.3199877 26.4823682,17.6358104 C21.9822117,23.8066836 16.7881689,27.377167 10.9002397,28.3472606 Z" id="Path-38" fill-opacity="0.23" fill="#FFFFFF"></path>
                    </g>
                    <path d="M19.6963361,54.5210298 C21.2726184,65.1453394 30.3047416,69.3407795 46.7927057,67.1073501 C67.1330715,64.3520814 67.1330715,49.4428805 54.8964371,47.0652219" id="Path-39" fill="#4C3017"></path>
                    <path d="M19.1081293,54.6082995 C20.7420339,65.6209893 30.1013426,69.9684077 46.8725263,67.6966139 C56.400468,66.4059764 62.4325657,62.2876189 63.6402253,57.0789924 C64.7759101,52.180793 61.2261842,47.6893666 55.0098593,46.4814937 C54.6874751,46.4188523 54.3753503,46.6294155 54.3127089,46.9517997 C54.2500675,47.2741838 54.4606307,47.5863087 54.7830149,47.6489501 C60.3822178,48.736912 63.4527646,52.6220388 62.4816677,56.810372 C61.4032694,61.4614951 55.799839,65.2871842 46.7128851,66.5180863 C30.5081406,68.7131513 21.8032029,64.6696895 20.2845429,54.4337601 C20.2363452,54.1089025 19.9339241,53.8846253 19.6090664,53.932823 C19.2842088,53.9810207 19.0599316,54.2834418 19.1081293,54.6082995 Z" id="Path-39" fill="#000000"></path>
                    <path d="M26.1575892,71.1366839 C33.2044203,71.0896551 40.2381444,65.9262404 47.2587615,55.6464398 C39.8119634,64.5788101 32.7782394,69.7422248 26.1575892,71.1366839 Z" id="Path-38" fill-opacity="0.23" fill="#FFFFFF" transform="translate(36.708175, 63.391562) rotate(44.000000) translate(-36.708175, -63.391562) "></path>
                    <path d="M40.3107109,61.1511075 C51.6957156,61.1511075 63.2519285,58.9546134 63.2519285,54.5210298 C63.2519285,51.4595117 59.7025247,48.0070062 54.8964371,47.0652219 C51.7767886,46.4539064 43.8340396,46.4933165 40.3107109,46.4933165 C34.3881355,46.4933165 28.9968333,46.7562701 25.2367801,48.3137385 C21.7688588,49.7502016 19.6963361,52.3938337 19.6963361,54.5210298 C19.6963361,58.9546134 28.9257061,61.1511075 40.3107109,61.1511075 Z" id="Oval" fill="#6F4622"></path>
                    <path d="M40.3107109,52.1964843 C51.6957156,52.1964843 55.8456457,53.4277369 63.2519285,54.5367227 C63.2519285,51.4752046 60.1204125,48.0532459 54.8964371,47.0652219 C51.0143429,46.3309913 43.7925306,45.6256128 40.2692019,45.6256128 C34.3466265,45.6256128 28.9968333,46.7562701 25.2367801,48.3137385 C21.7688588,49.7502016 19.6963361,52.3938337 19.6963361,54.5210298 C26.5333771,53.777687 28.9257061,52.1964843 40.3107109,52.1964843 Z" id="Oval" fill="#5D3B12"></path>
                    <path d="M40.3107109,61.7457529 C53.56954,61.7457529 63.8465739,59.1162534 63.8465739,54.5210298 C63.8465739,51.0344287 59.9298722,47.4456016 55.010787,46.4816747 C51.7034899,45.8335882 43.7305622,45.0309674 40.3107109,45.0309674 C34.6462929,45.0309674 29.1175715,46.0626189 25.0092187,47.7643579 C21.4958817,49.2196329 19.1016907,52.0031472 19.1016907,54.5210298 C19.1016907,59.2105427 27.673554,61.7457529 40.3107109,61.7457529 Z M40.3107109,60.5564621 C28.3751098,60.5564621 20.2909815,58.1655041 20.2909815,54.5210298 C20.2909815,52.5504271 22.3546286,50.1512071 25.4643415,48.8631191 C29.4237197,47.2230874 34.7979794,46.2202583 40.3107109,46.2202583 C43.6523155,46.2202583 51.5487833,47.015182 54.7820872,47.648769 C59.1972091,48.5139411 62.6572831,51.6843655 62.6572831,54.5210298 C62.6572831,58.032675 52.7934118,60.5564621 40.3107109,60.5564621 Z" id="Oval" fill="#000000"></path>
                    <path d="M20.5366159,54.5210298 C28.5194737,54.6338833 32.8948063,54.1236931 36.825116,53.4525627 C41.1796695,52.7089893 49.2144978,53.4109527 61.126983,54.1542955 C54.3304544,51.6032057 37.1860601,50.4747383 35.1638511,51.0619619 C32.8948063,51.7208635 28.2756794,51.4116631 20.5366159,54.5210298 Z" id="Path-40" fill="#140B03"></path>
                </g>
                <g id="Group-Copy" transform="translate(41.847826, -0.000000)" fill-rule="nonzero">
                    <path d="M15.9472609,119.526581 C49.6247362,121.631642 67.9734018,118.463652 70.9932576,110.022609 C71.1480146,109.590035 73.2628403,112.326113 74.2034408,111.905854 C74.8758375,114.36506 74.6173271,116.462542 59.2705168,120.009963 C49.0393099,122.374911 34.5982246,122.213783 15.9472609,119.526581 Z" id="Path-36-Copy" fill="#8E8E93"></path>
                    <path d="M38.0089962,122.984289 C55.0449938,122.984289 71.2809967,119.321139 74.924452,114.914271 C77.2076174,112.152715 74.8858381,109.711466 68.983322,108.197031 C62.8074981,106.612473 52.3726298,105.745831 37.8178111,105.745831 C23.2625604,105.745831 12.8486994,106.612502 6.71076737,108.19736 C0.840266759,109.713166 -1.4349966,112.16915 0.910367816,114.923821 C4.65487539,119.321811 20.9781633,122.984289 38.0089962,122.984289 Z M38.0089962,121.260443 C21.46448,121.260443 5.52439874,117.683946 2.2229178,113.806299 C1.0653333,112.446695 2.29674252,111.117478 7.14174189,109.866464 C13.1084154,108.325825 23.3958392,107.469677 37.8178111,107.469677 C52.2402153,107.469677 62.549092,108.325855 68.5549039,109.866793 C73.4360784,111.119177 74.7142609,112.46313 73.595877,113.815849 C70.3973035,117.684618 54.5483477,121.260443 38.0089962,121.260443 Z" id="Path-33-Copy" fill="#000000"></path>
                    <path d="M37.9623862,118.083471 C48.1230621,118.083471 57.7889349,115.902667 60.0313281,113.190426 C61.6179483,111.271361 60.0333437,109.605219 56.3390352,108.657354 C52.6576802,107.712812 46.4705688,107.198957 37.8495002,107.198957 C29.2279995,107.198957 23.0532007,107.712842 19.3939639,108.657683 C15.7177073,109.606919 14.1605155,111.287796 15.7885709,113.199975 C18.0902509,115.903339 27.806875,118.083471 37.9623862,118.083471 Z M37.9623862,116.359625 C28.2931917,116.359625 18.9597743,114.265474 17.1011208,112.082453 C16.6608454,111.565342 17.1741831,111.01123 19.8249384,110.326786 C23.3129167,109.426165 29.3612783,108.922803 37.8495002,108.922803 C46.3381543,108.922803 52.3992741,109.426194 55.9106171,110.327115 C58.5835839,111.01293 59.1245919,111.581776 58.702753,112.092003 C56.9052417,114.266146 47.626416,116.359625 37.9623862,116.359625 Z" id="Path-33-Copy-2" fill="#000000"></path>
                    <path d="M5.02957086,78.6382322 C21.5615422,77.5653167 47.2675941,95.6856675 70.8230186,84.1220225 C69.6753948,96.8777958 64.6590109,108.781117 57.4175938,111.726295 C52.5899823,113.689746 45.3485652,114.671472 35.6933424,114.671472 C26.1822274,115.03319 19.0128641,113.05035 14.1852527,108.72295 C6.94383558,102.231851 5.02957086,85.7910022 5.02957086,78.6382322 Z" id="Path-32-Copy" fill="#8C5321"></path>
                    <path d="M70.6341843,62.9017218 C71.0975864,62.9017218 71.4780525,63.2681258 71.4954963,63.7311995 C72.3151234,85.4895595 70.4869612,99.5063851 65.9047059,105.89855 C61.294356,112.329907 51.9474868,115.508001 37.9247428,115.533243 C23.9051026,115.508001 14.5582334,112.329907 9.94788348,105.89855 C5.36562822,99.5063851 3.53746606,85.4895595 4.3570931,63.7311995 C4.37453687,63.2681258 4.75500304,62.9017218 5.21840512,62.9017218 L70.6341843,62.9017218 Z M6.04963982,64.6255676 C5.3211194,85.5368457 7.12162114,98.997182 11.3489299,104.894203 C15.5680871,110.779853 24.4064766,113.785055 37.9247428,113.8094 C51.4461129,113.785055 60.2845023,110.779853 64.5036595,104.894203 C68.7309683,98.997182 70.53147,85.5368457 69.8029498,64.6255676 L6.04963982,64.6255676 Z" id="Combined-Shape-Copy" fill="#000000"></path>
                    <path d="M71.6363705,66.3054959 C79.6595362,65.9475031 83.1681203,68.1737576 83.1681203,73.0430146 C83.1681203,77.9265834 79.7940571,80.1334833 72.0527571,79.77155 L70.3307923,79.6910421 L70.1697763,83.1349717 L71.8917411,83.2154796 C81.3767305,83.6589366 86.6158119,80.2321697 86.6158119,73.0430146 C86.6158119,65.8395478 81.2361047,62.4260349 71.4826878,62.8612312 L69.7605555,62.9380726 L69.9142382,66.3823372 L71.6363705,66.3054959 Z" id="Path-31-Copy" fill="#000000"></path>
                    <circle id="Oval-Copy-5" fill-opacity="0.3" fill="#FFFFFF" cx="17.3659377" cy="90.4919373" r="3.87865303"></circle>
                    <circle id="Oval-Copy-6" fill-opacity="0.3" fill="#FFFFFF" cx="54.8595836" cy="94.928878" r="2.58576869"></circle>
                    <circle id="Oval-Copy-7" fill-opacity="0.3" fill="#FFFFFF" cx="23.9316137" cy="104.900496" r="3.16038395"></circle>
                    <circle id="Oval-Copy-8" fill-opacity="0.3" fill="#FFFFFF" cx="36.3461027" cy="94.3705903" r="1.58019198"></circle>
                    <circle id="Oval-Copy-9" fill-opacity="0.3" fill="#FFFFFF" cx="44.6601627" cy="105.027562" r="1.58019198"></circle>
                    <path d="M19.9695677,63.7636447 L70.8230186,63.7636447 C70.8230186,68.9056861 70.8230186,72.3634772 70.8230186,74.137018 C68.2067406,69.0528677 51.2555903,65.5950766 19.9695677,63.7636447 Z" id="Path-34-Copy" fill-opacity="0.1" fill="#000000"></path>
                    <path d="M65.8906665,94.3705903 C66.3843955,95.8920126 66.0424949,97.9315399 64.8649647,100.489172 C63.6874345,103.046804 62.3438035,105.086332 60.8340715,106.607754 C60.0695067,105.024815 60.5299901,102.796807 62.2155217,99.9237304 C63.9010534,97.0506541 65.1261016,95.1996074 65.8906665,94.3705903 Z" id="Path-35-Copy" fill-opacity="0.7" fill="#FFFFFF"></path>
                    <path d="M25.008636,6.72008844 C11.7251675,23.2427949 29.6385097,32.3514664 21.6497398,56.3941226 C34.7224194,28.114875 19.3951524,35.0630367 25.008636,6.72008844 Z" id="Path-37-Copy-3" fill="#8E8E93"></path>
                    <path d="M36.9320664,0.0217362717 C28.0851736,20.8904365 40.8202018,23.2996403 35.6075247,52.82625 C44.6601627,37.4817566 42.1781275,7.84058286 36.9320664,0.0217362717 Z" id="Path-37-Copy-4" fill-opacity="0.5" fill="#000000"></path>
                    <path d="M51.3440313,14.8221334 C49.4431235,21.3791597 39.5030505,33.8337783 53.9368675,51.3163538 C58.0381379,39.182534 44.4301641,35.9588281 51.3440313,14.8221334 Z" id="Path-37-Copy-5" fill-opacity="0.3" fill="#000000" transform="translate(50.482031, 33.069244) scale(-1, 1) translate(-50.482031, -33.069244) "></path>
                </g>
                <g id="Group-3" transform="translate(0.000000, 249.474781)" fill-rule="nonzero">
                    <g id="Group-Copy-3" transform="translate(19.313925, 68.217418) rotate(180.000000) translate(-19.313925, -68.217418) translate(-0.000000, 22.420004)">
                        <path d="M19.1837449,0.62566266 C6.68408787,20.6631251 0.434259332,39.0354195 0.434259332,55.742546 C0.434259332,69.8658462 6.68408787,81.592758 19.1837449,90.9232815 C30.8943498,82.6196233 37.1817831,71.2140291 38.0460446,56.7064989 C38.2909952,39.8357927 32.003562,21.1421806 19.1837449,0.62566266 Z" id="Path-11" fill="#46988E"></path>
                        <path d="M19.1837449,0.62566266 C19.1837449,20.6631251 19.1837449,39.0354195 19.1837449,55.742546 C19.1837449,69.8658462 19.1837449,81.592758 19.1837449,90.9232815 C30.8943498,82.6196233 37.1817831,71.2140291 38.0460446,56.7064989 C38.2909952,39.8357927 32.003562,21.1421806 19.1837449,0.62566266 Z" id="Path-11" fill="#2A5E57"></path>
                        <path d="M19.1837449,90.4699622 C19.1837449,81.0478513 19.1837449,69.2644199 19.1837449,55.119668 C19.1837449,38.3872326 19.1837449,20.0140099 19.1837449,-2.49245069e-14 C30.0991611,20.2566354 35.4437668,38.8282788 35.217562,55.71493 C34.4256906,70.1224717 29.0810849,81.7074824 19.1837449,90.4699622 Z" id="Combined-Shape" fill="#397E75"></path>
                        <path d="M19.2067352,1.10402673 C-5.38623086,42.3763541 -5.35331942,72.1726803 19.2067353,90.6306199 C43.7667884,72.1726814 43.7997014,42.3763577 19.2067397,1.10403424 Z M19.2067353,91.4834241 C19.1188118,91.488708 19.028618,91.4641767 18.9524449,91.4074468 C-6.30065322,72.6002278 -6.30065322,42.1471714 18.8516257,0.188797826 C18.9283633,0.0607861631 19.067392,-0.00688783757 19.2067353,0.00129619832 C19.3460785,-0.00688783757 19.4851072,0.0607861631 19.5618448,0.188797826 C44.7141237,42.1471714 44.7141237,72.6002278 19.4610256,91.4074468 C19.3848525,91.4641767 19.2946587,91.488708 19.2067353,91.4834241 Z" id="Combined-Shape" fill="#000000"></path>
                        <path d="M18.7965697,15.028129 L18.8737676,79.9445212 C18.8740219,80.1583522 19.1650075,80.3314221 19.5237022,80.3314221 C19.8823969,80.3314221 20.1729703,80.1578033 20.1727162,79.9439723 L20.0955182,15.02758 C20.0952639,14.813749 19.8042783,14.6406792 19.4455836,14.6406792 C19.0868889,14.6406792 18.7963156,14.814298 18.7965697,15.028129 Z" id="Path-9" fill="#000000"></path>
                        <path d="M19.4682427,30.0826793 L23.8961439,25.2857863 C24.0411812,25.1286625 24.0313832,24.8837126 23.8742595,24.7386753 C23.7171357,24.5936379 23.4721858,24.6034359 23.3271484,24.7605597 L18.8992472,29.5574527 C18.7542099,29.7145765 18.7640079,29.9595264 18.9211316,30.1045638 C19.0782554,30.2496011 19.3232054,30.2398031 19.4682427,30.0826793 Z" id="Path-10" fill="#000000"></path>
                        <path d="M19.4686792,38.4704066 L25.1256444,32.3215314 C25.2704201,32.1641665 25.2602145,31.9192332 25.1028497,31.7744575 C24.9454848,31.6296818 24.7005515,31.6398874 24.5557758,31.7972523 L18.8988106,37.9461275 C18.7540349,38.1034923 18.7642405,38.3484256 18.9216054,38.4932013 C19.0789702,38.637977 19.3239036,38.6277715 19.4686792,38.4704066 Z" id="Path-10" fill="#000000"></path>
                        <path d="M19.4667915,46.7347431 L26.3203843,39.3916079 C26.4662851,39.2352856 26.4578368,38.9902853 26.3015146,38.8443845 C26.1451923,38.6984837 25.900192,38.706932 25.7542912,38.8632543 L18.9006984,46.2063895 C18.7547976,46.3627118 18.7632459,46.607712 18.9195682,46.7536128 C19.0758904,46.8995136 19.3208907,46.8910653 19.4667915,46.7347431 Z" id="Path-10" fill="#000000"></path>
                        <path d="M19.467611,55.1215567 L27.5453284,46.4127677 C27.6907427,46.2559928 27.6815332,46.01102 27.5247584,45.8656056 C27.3679835,45.7201912 27.1230107,45.7294007 26.9775963,45.8861756 L18.8998789,54.5949647 C18.7544645,54.7517396 18.763674,54.9967124 18.9204489,55.1421267 C19.0772238,55.2875411 19.3221966,55.2783316 19.467611,55.1215567 Z" id="Path-10" fill="#000000"></path>
                        <path d="M19.4679701,63.50948 L28.7689312,53.4543869 C28.9141314,53.2974137 28.9045875,53.0524537 28.7476143,52.9072535 C28.590641,52.7620532 28.3456811,52.7715971 28.2004808,52.9285703 L18.8995198,62.9836634 C18.7543195,63.1406366 18.7638634,63.3855966 18.9208366,63.5307968 C19.0778099,63.6759971 19.3227699,63.6664532 19.4679701,63.50948 Z" id="Path-10" fill="#000000"></path>
                        <path d="M19.4667915,71.7720792 L29.9671676,60.5216762 C30.1130684,60.3653539 30.1046201,60.1203537 29.9482978,59.9744529 C29.7919756,59.8285521 29.5469753,59.8370004 29.4010745,59.9933227 L18.9006984,71.2437257 C18.7547976,71.400048 18.7632459,71.6450482 18.9195682,71.790949 C19.0758904,71.9368498 19.3208907,71.9284015 19.4667915,71.7720792 Z" id="Path-10" fill="#000000"></path>
                        <path d="M19.4671645,80.4180931 L31.1986677,67.8129673 C31.3443475,67.656439 31.335553,67.411451 31.1790247,67.2657712 C31.0224965,67.1200914 30.7775084,67.1288859 30.6318286,67.2854141 L18.9003254,79.89054 C18.7546456,80.0470682 18.7634401,80.2920563 18.9199683,80.4377361 C19.0764966,80.5834159 19.3214847,80.5746214 19.4671645,80.4180931 Z" id="Path-10" fill="#000000"></path>
                        <path d="M14.8221391,25.6946926 L19.2500403,20.8977996 C19.3950776,20.7406758 19.3852796,20.4957258 19.2281559,20.3506885 C19.0710321,20.2056512 18.8260821,20.2154492 18.6810448,20.372573 L14.2531436,25.169466 C14.1081062,25.3265897 14.1179042,25.5715397 14.275028,25.716577 C14.4321518,25.8616143 14.6771017,25.8518163 14.8221391,25.6946926 Z" id="Path-10" fill="#000000" transform="translate(16.751592, 23.033633) scale(-1, 1) translate(-16.751592, -23.033633) "></path>
                        <path d="M13.7874529,33.9598018 L19.4444181,27.9339041 C19.5907717,27.7780057 19.5830341,27.532982 19.4271357,27.3866284 C19.2712373,27.2402747 19.0262136,27.2480123 18.8798599,27.4039107 L13.2228948,33.4298084 C13.0765411,33.5857069 13.0842787,33.8307306 13.2401772,33.9770842 C13.3960756,34.1234378 13.6410993,34.1157002 13.7874529,33.9598018 Z" id="Path-10" fill="#000000" transform="translate(16.333656, 30.681856) scale(-1, 1) translate(-16.333656, -30.681856) "></path>
                        <path d="M12.497636,42.3467563 L19.3512289,35.0036211 C19.4971297,34.8472988 19.4886814,34.6022986 19.3323591,34.4563978 C19.1760368,34.310497 18.9310366,34.3189453 18.7851358,34.4752676 L11.931543,41.8184028 C11.7856421,41.974725 11.7940904,42.2197253 11.9504127,42.3656261 C12.106735,42.5115269 12.3517352,42.5030786 12.497636,42.3467563 Z" id="Path-10" fill="#000000" transform="translate(15.641386, 38.411012) scale(-1, 1) translate(-15.641386, -38.411012) "></path>
                        <path d="M11.2078712,50.73357 L19.2855886,42.0247809 C19.431003,41.868006 19.4217935,41.6230332 19.2650186,41.4776189 C19.1082437,41.3322045 18.8632709,41.341414 18.7178565,41.4981889 L10.6401391,50.2069779 C10.4947248,50.3637528 10.5039343,50.6087256 10.6607091,50.75414 C10.817484,50.8995544 11.0624568,50.8903449 11.2078712,50.73357 Z" id="Path-10" fill="#000000" transform="translate(14.962864, 46.115879) scale(-1, 1) translate(-14.962864, -46.115879) "></path>
                        <path d="M9.91764599,58.9924348 L19.218607,48.9373417 C19.3638073,48.7803685 19.3542634,48.5354085 19.1972902,48.3902083 C19.0403169,48.245008 18.7953569,48.2545519 18.6501567,48.4115252 L9.34919565,58.4666182 C9.20399541,58.6235914 9.21353931,58.8685514 9.37051253,59.0137516 C9.52748576,59.1589519 9.77244575,59.149408 9.91764599,58.9924348 Z" id="Path-10" fill="#000000" transform="translate(14.283901, 53.701980) scale(-1, 1) translate(-14.283901, -53.701980) "></path>
                        <path d="M8.88545109,67.3805667 L19.3858272,56.0051593 C19.5308646,55.8480355 19.5210666,55.6030855 19.3639428,55.4580482 C19.206819,55.3130109 18.9618691,55.3228089 18.8168317,55.4799327 L8.3164556,66.8553401 C8.17141828,67.0124639 8.18121628,67.2574139 8.33834004,67.4024512 C8.49546381,67.5474885 8.74041377,67.5376905 8.88545109,67.3805667 Z" id="Path-10" fill="#000000" transform="translate(13.851141, 61.430250) scale(-1, 1) translate(-13.851141, -61.430250) "></path>
                        <path d="M7.59508069,76.0269576 L19.3265839,63.2970286 C19.4714931,63.1397867 19.4614955,62.8948448 19.3042536,62.7499356 C19.1470117,62.6050263 18.9020698,62.615024 18.7571606,62.7722659 L7.02565733,75.5021949 C6.88074811,75.6594368 6.89074574,75.9043787 7.04798765,76.0492879 C7.20522957,76.1941972 7.45017147,76.1841995 7.59508069,76.0269576 Z" id="Path-10" fill="#000000" transform="translate(13.176121, 69.399612) scale(-1, 1) translate(-13.176121, -69.399612) "></path>
                        <path d="M11.8139183,20.6351863 C10.5906747,18.4525092 -1.48970363,48.6744334 4.99977421,63.0346472 C4.99977421,50.470274 8.16713506,32.6184887 11.8139183,20.6351863 Z" id="Path-12" fill-opacity="0.4" fill="#FFFFFF"></path>
                    </g>
                    <g id="Group-Copy-4" transform="translate(2.458930, -0.000000)">
                        <path d="M56.1387056,-6.35804709 C41.9137437,16.4451496 34.8012628,37.3533382 34.8012628,56.3665187 C34.8012628,72.4392322 41.9137437,85.7847882 56.1387056,96.4031867 C69.4657038,86.9533898 76.6209799,73.9735023 77.6045339,57.4635243 C77.8832946,38.2641854 70.7280185,16.9903283 56.1387056,-6.35804709 Z" id="Path-11" fill="#46988E" transform="translate(56.206818, 45.022570) rotate(120.000000) translate(-56.206818, -45.022570) "></path>
                        <path d="M40.1356235,2.88133665 C40.1356235,25.6845333 40.1356235,46.5927219 40.1356235,65.6059024 C40.1356235,81.6786159 40.1356235,95.0241719 40.1356235,105.64257 C53.4626217,96.1927735 60.6178979,83.2128861 61.6014519,66.7029081 C61.8802125,47.5035692 54.7249364,26.229712 40.1356235,2.88133665 Z" id="Path-11" fill="#2A5E57" transform="translate(50.872458, 54.261954) rotate(120.000000) translate(-50.872458, -54.261954) "></path>
                        <path d="M43.0814945,104.653793 C43.0814945,93.9311651 43.0814945,80.5212882 43.0814945,64.4241621 C43.0814945,45.3821793 43.0814945,24.4729344 43.0814945,1.69642729 C55.5035457,24.749049 61.5858575,45.8841023 61.3284301,65.1015871 C60.4272581,81.4977753 54.3449462,94.6818439 43.0814945,104.653793 Z" id="Combined-Shape" fill="#397E75" transform="translate(52.208882, 53.175110) rotate(120.000000) translate(-52.208882, -53.175110) "></path>
                        <path d="M56.2594232,-5.79519857 C28.271935,41.1738725 28.3093892,75.0829311 56.2594232,96.0885863 C84.2094556,75.0829324 84.2469114,41.1738766 56.2594283,-5.79519002 Z M56.2594232,97.0591016 C56.1593638,97.0651148 56.0567208,97.0371975 55.9700336,96.9726373 C27.2312966,75.5694922 27.2312966,40.9130562 55.8552986,-6.83675484 C55.9426281,-6.98243572 56.1008467,-7.05945064 56.2594232,-7.05013698 C56.4179998,-7.05945064 56.5762184,-6.98243572 56.6635479,-6.83675484 C85.2875498,40.9130562 85.2875498,75.5694922 56.5488129,96.9726373 C56.4621257,97.0371975 56.3594826,97.0651148 56.2594232,97.0591016 Z" id="Combined-Shape" fill="#000000" transform="translate(56.259423, 45.004503) rotate(120.000000) translate(-56.259423, -45.004503) "></path>
                        <path d="M54.1275543,7.07428112 L54.2147327,80.9509642 C54.214985,81.1647951 54.5037349,81.337865 54.8596735,81.337865 C55.2156122,81.337865 55.503953,81.1642462 55.5037008,80.9504152 L55.4165224,7.07373217 C55.4162701,6.85990121 55.1275202,6.68683135 54.7715816,6.68683135 C54.4156429,6.68683135 54.1273022,6.86045016 54.1275543,7.07428112 Z" id="Path-9" fill="#000000" transform="translate(54.815628, 44.012348) rotate(120.000000) translate(-54.815628, -44.012348) "></path>
                        <path d="M70.8339263,60.5807112 L75.8730027,55.1217118 C76.01804,54.964588 76.008242,54.7196381 75.8511182,54.5746008 C75.6939945,54.4295634 75.4490445,54.4393614 75.3040072,54.5964852 L70.2649308,60.0554846 C70.1198935,60.2126083 70.1296915,60.4575583 70.2868153,60.6025956 C70.443939,60.7476329 70.688889,60.7378349 70.8339263,60.5807112 Z" id="Path-10" fill="#000000" transform="translate(73.068967, 57.588598) rotate(120.000000) translate(-73.068967, -57.588598) "></path>
                        <path d="M62.1844752,57.5668372 L68.6222609,50.569244 C68.7670366,50.4118792 68.7568311,50.1669458 68.5994662,50.0221701 C68.4421013,49.8773945 68.197168,49.8876 68.0523923,50.0449649 L61.6146066,57.0425581 C61.4698309,57.1999229 61.4800365,57.4448563 61.6374013,57.5896319 C61.7947662,57.7344076 62.0396995,57.7242021 62.1844752,57.5668372 Z" id="Path-10" fill="#000000" transform="translate(65.118434, 53.805901) rotate(120.000000) translate(-65.118434, -53.805901) "></path>
                        <path d="M53.6067462,54.4765109 L61.4063279,46.1198162 C61.5522288,45.9634939 61.5437805,45.7184937 61.3874582,45.5725929 C61.2311359,45.426692 60.9861357,45.4351403 60.8402349,45.5914626 L53.0406531,53.9481573 C52.8947523,54.1044796 52.9032006,54.3494798 53.0595229,54.4953806 C53.2158452,54.6412814 53.4608454,54.6328332 53.6067462,54.4765109 Z" id="Path-10" fill="#000000" transform="translate(57.223491, 50.033987) rotate(120.000000) translate(-57.223491, -50.033987) "></path>
                        <path d="M44.9691303,51.4717532 L54.1618002,41.5609059 C54.3072146,41.404131 54.2980051,41.1591582 54.1412302,41.0137439 C53.9844554,40.8683295 53.7394826,40.877539 53.5940682,41.0343139 L44.4013982,50.9451611 C44.2559839,51.101936 44.2651934,51.3469088 44.4219682,51.4923232 C44.5787431,51.6377376 44.8237159,51.6285281 44.9691303,51.4717532 Z" id="Path-10" fill="#000000" transform="translate(49.281599, 46.253034) rotate(120.000000) translate(-49.281599, -46.253034) "></path>
                        <path d="M36.321663,48.450188 L46.9064187,37.0072089 C47.0516189,36.8502357 47.042075,36.6052757 46.8851018,36.4600755 C46.7281285,36.3148752 46.4831686,36.3244191 46.3379683,36.4813924 L35.7532126,47.9243715 C35.6080124,48.0813447 35.6175563,48.3263047 35.7745295,48.4715049 C35.9315028,48.6167052 36.1764627,48.6071613 36.321663,48.450188 Z" id="Path-10" fill="#000000" transform="translate(41.329816, 42.465790) rotate(120.000000) translate(-41.329816, -42.465790) "></path>
                        <path d="M27.7437359,45.3619138 L39.6934597,32.5586383 C39.8393605,32.402316 39.8309123,32.1573158 39.67459,32.011415 C39.5182677,31.8655142 39.2732675,31.8739624 39.1273666,32.0302847 L27.1776428,44.8335603 C27.031742,44.9898826 27.0401903,45.2348828 27.1965126,45.3807836 C27.3528349,45.5266844 27.5978351,45.5182361 27.7437359,45.3619138 Z" id="Path-10" fill="#000000" transform="translate(33.435551, 38.696099) rotate(120.000000) translate(-33.435551, -38.696099) "></path>
                        <path d="M18.839326,42.2045424 L32.1901071,27.8595541 C32.3357869,27.7030259 32.3269924,27.4580378 32.1704642,27.312358 C32.0139359,27.1666782 31.7689478,27.1754727 31.623268,27.332001 L18.2724869,41.6769892 C18.1268071,41.8335175 18.1356016,42.0785055 18.2921298,42.2241853 C18.4486581,42.3698651 18.6936462,42.3610707 18.839326,42.2045424 Z" id="Path-10" fill="#000000" transform="translate(25.231297, 34.768272) rotate(120.000000) translate(-25.231297, -34.768272) "></path>
                        <path d="M77.8022547,58.4985175 L82.841331,53.0395181 C82.9863683,52.8823944 82.9765704,52.6374444 82.8194466,52.4924071 C82.6623228,52.3473697 82.4173729,52.3571677 82.2723355,52.5142915 L77.2332592,57.9732909 C77.0882219,58.1304147 77.0980199,58.3753646 77.2551436,58.5204019 C77.4122674,58.6654393 77.6572174,58.6556413 77.8022547,58.4985175 Z" id="Path-10" fill="#000000" transform="translate(80.037295, 55.506405) scale(-1, 1) rotate(120.000000) translate(-80.037295, -55.506405) "></path>
                        <path d="M69.8006994,54.4363739 L76.2384851,47.5787326 C76.3848387,47.4228341 76.3771011,47.1778104 76.2212027,47.0314568 C76.0653043,46.8851032 75.8202806,46.8928408 75.6739269,47.0487392 L69.2361412,53.9063805 C69.0897876,54.0622789 69.0975252,54.3073026 69.2534236,54.4536563 C69.409322,54.6000099 69.6543457,54.5922723 69.8006994,54.4363739 Z" id="Path-10" fill="#000000" transform="translate(72.737313, 50.742557) scale(-1, 1) rotate(120.000000) translate(-72.737313, -50.742557) "></path>
                        <path d="M61.8969238,50.1048072 L69.6965055,41.7481125 C69.8424063,41.5917902 69.833958,41.34679 69.6776357,41.2008892 C69.5213134,41.0549884 69.2763132,41.0634367 69.1304124,41.219759 L61.3308307,49.5764537 C61.1849299,49.732776 61.1933782,49.9777762 61.3497005,50.123677 C61.5060227,50.2695778 61.751023,50.2611295 61.8969238,50.1048072 Z" id="Path-10" fill="#000000" transform="translate(65.513668, 45.662283) scale(-1, 1) rotate(120.000000) translate(-65.513668, -45.662283) "></path>
                        <path d="M53.9936685,45.8280995 L63.1863384,35.9172523 C63.3317528,35.7604774 63.3225433,35.5155046 63.1657684,35.3700902 C63.0089936,35.2246758 62.7640208,35.2338853 62.6186064,35.3906602 L53.4259364,45.3015075 C53.2805221,45.4582824 53.2897316,45.7032552 53.4465065,45.8486695 C53.6032813,45.9940839 53.8482541,45.9848744 53.9936685,45.8280995 Z" id="Path-10" fill="#000000" transform="translate(58.306137, 40.609380) scale(-1, 1) rotate(120.000000) translate(-58.306137, -40.609380) "></path>
                        <path d="M46.2077569,41.6080205 L56.7925125,30.1650414 C56.9377128,30.0080681 56.9281689,29.7631082 56.7711957,29.6179079 C56.6142224,29.4727077 56.3692624,29.4822516 56.2240622,29.6392248 L45.6393065,41.0822039 C45.4941063,41.2391771 45.5036502,41.4841371 45.6606234,41.6293374 C45.8175966,41.7745376 46.0625566,41.7649937 46.2077569,41.6080205 Z" id="Path-10" fill="#000000" transform="translate(51.215910, 35.623623) scale(-1, 1) rotate(120.000000) translate(-51.215910, -35.623623) "></path>
                        <path d="M38.1551082,37.5349973 L50.1048321,24.5894631 C50.2498694,24.4323393 50.2400714,24.1873894 50.0829476,24.0423521 C49.9258239,23.8973147 49.6808739,23.9071127 49.5358366,24.0642365 L37.5861128,37.0097706 C37.4410754,37.1668944 37.4508734,37.4118444 37.6079972,37.5568817 C37.765121,37.701919 38.0100709,37.692121 38.1551082,37.5349973 Z" id="Path-10" fill="#000000" transform="translate(43.845472, 30.799617) scale(-1, 1) rotate(120.000000) translate(-43.845472, -30.799617) "></path>
                        <path d="M29.984595,33.1055535 L43.3353762,18.6185357 C43.4802854,18.4612938 43.4702877,18.2163519 43.3130458,18.0714426 C43.1558039,17.9265334 42.910862,17.9365311 42.7659528,18.093773 L29.4151717,32.5807908 C29.2702624,32.7380327 29.2802601,32.9829746 29.437502,33.1278838 C29.5947439,33.2727931 29.8396858,33.2627954 29.984595,33.1055535 Z" id="Path-10" fill="#000000" transform="translate(36.375274, 25.599663) scale(-1, 1) rotate(120.000000) translate(-36.375274, -25.599663) "></path>
                        <path d="M71.8135787,11.6154997 C70.421493,9.13155168 56.6736821,43.5249528 64.0588907,59.8672806 C64.0588907,45.5686699 67.6634366,25.2528354 71.8135787,11.6154997 Z" id="Path-12" fill-opacity="0.4" fill="#FFFFFF" transform="translate(66.852769, 35.677558) rotate(120.000000) translate(-66.852769, -35.677558) "></path>
                    </g>
                </g>
                <g id="Group-Copy" transform="translate(41.847826, 306.974781)">
                    <g id="Oval-Copy-3" transform="translate(60.289634, 46.199670) rotate(-26.000000) translate(-60.289634, -46.199670) translate(5.289634, 21.699670)">
                        <path d="M63.8936045,12.1999318 C61.283244,11.5137666 86.6368198,18.2326432 92.6304693,19.7559059 C92.7492346,19.7860833 92.7492346,19.7860833 92.8680009,19.8162354 C101.603631,22.0335442 106.401927,24.2769526 108.534769,27.1556928 C110.50451,29.8142921 110.291672,32.7754812 108.340632,37.6116469 C108.034338,38.3708764 107.760812,39.125733 107.451088,40.0453958 C107.375716,40.2692006 106.868556,41.8081318 106.724564,42.2257392 C105.541487,45.6569173 104.353003,47.1457103 101.625177,47.7722395 C98.7082711,48.4421966 94.0125355,47.870448 85.7893853,45.8624663 C82.6805355,45.1033273 79.1321211,44.1882532 74.4974686,42.9591204 C72.0097348,42.299361 63.1021053,39.9136596 61.8626215,39.5833346 C60.4797681,39.2148013 59.2123099,38.8784367 57.9975648,38.5578237 C57.5906016,38.4504121 57.1903723,38.3449857 56.795874,38.241287 L16.6469497,27.6876499 C8.18742443,25.46396 3.27464825,22.3654144 1.18740017,18.4289133 C0.315157161,16.7838834 -0.0430277842,15.0358235 0.0151155951,13.1499399 C0.0595082226,11.7100627 0.318476824,10.3480447 0.817220733,8.52127671 C1.77138117,5.0293724 3.4958147,2.59926322 6.59990412,1.21090524 C10.3598143,-0.47078 15.9215255,-0.410117384 23.7446802,1.64629476 L63.8936045,12.1999318 Z M63.700868,12.9331543 L23.5519437,2.37951727 C7.03824181,-1.96131177 3.02010548,3.33568182 1.5485411,8.7211095 C0.0781283097,14.1068457 -1.25500243,22.1980166 16.8396863,26.9544274 L56.9886106,37.5080645 C67.3497321,40.2316124 77.8028516,43.1318568 85.9692265,45.1259748 C106.540794,50.1492725 104.170039,45.9231676 107.637559,37.3280082 C110.8616,29.3363734 110.167018,24.9893053 92.6814839,20.5510646 C83.8631115,18.3127539 75.0680652,15.9211615 63.700868,12.9331543 Z" id="Mask" fill="#000000" fill-rule="nonzero"></path>
                        <mask id="mask-2" fill="white">
                            <use xlink:href="#path-1"></use>
                        </mask>
                        <use id="Mask" fill="#B49D4C" fill-rule="nonzero" xlink:href="#path-1"></use>
                        <path d="M122.773075,43.029164 C127.627533,43.029164 131.496384,37.3506379 131.496384,30.3979328 C131.496384,23.4452278 127.627533,17.7667016 122.773075,17.7667016 C117.918617,17.7667016 114.049766,23.4452278 114.049766,30.3979328 C114.049766,37.3506379 117.918617,43.029164 122.773075,43.029164 Z M122.773075,42.2918106 C118.399261,42.2918106 114.78712,36.9900715 114.78712,30.3979328 C114.78712,23.8057942 118.399261,18.504055 122.773075,18.504055 C127.146889,18.504055 130.759031,23.8057942 130.759031,30.3979328 C130.759031,36.9900715 127.146889,42.2918106 122.773075,42.2918106 Z" id="Oval" fill="#000000" fill-rule="nonzero" mask="url(#mask-2)"></path>
                        <path d="M98.2435717,51.829128 C99.0937675,51.9428691 99.0974522,53.1713738 98.2479539,53.2902128 C87.3423837,54.8158276 75.4314013,45.6307963 70.2399877,31.6382887 C64.4585821,16.0555655 69.0061276,0.0417576012 80.5572903,-4.08303171 C83.1200404,-4.99801573 85.8511106,-5.26140276 88.6401478,-4.88827912 C89.4903436,-4.77453802 89.4940283,-3.54603332 88.6445301,-3.42719432 C87.6254306,-3.28462927 86.6281639,-3.04041426 85.6584694,-2.6942022 C74.9966798,1.11300206 70.7028139,16.2334981 76.2278854,31.1253197 C80.4373339,42.4711196 89.273583,50.6291028 98.2435717,51.829128 Z M98.145798,52.5599702 C89.0760239,51.3465955 79.9207245,43.1984704 75.5365781,31.3818042 C69.8833238,16.1444893 74.3040763,0.577368756 85.410504,-3.38861073 C86.43605,-3.75476357 87.4827393,-4.00920123 88.5423741,-4.15743689 C85.9168865,-4.50868051 83.2985656,-4.27881481 80.8052208,-3.38861073 C69.6987932,0.577368756 65.2780407,16.1444893 70.931295,31.3818042 C76.0625483,45.2121606 87.7296224,54.017122 98.145798,52.5599702 Z" id="Path" fill="#000000" fill-rule="nonzero" mask="url(#mask-2)"></path>
                        <path d="M98.145798,52.5599702 C87.7296224,54.017122 76.0625483,45.2121606 70.931295,31.3818042 C65.2780407,16.1444893 69.6987932,0.577368756 80.8052208,-3.38861073 C83.2985656,-4.27881481 85.9168865,-4.50868051 88.5423741,-4.15743689 C87.4827393,-4.00920123 86.43605,-3.75476357 85.410504,-3.38861073 C74.3040763,0.577368756 69.8833238,16.1444893 75.5365781,31.3818042 C79.9207245,43.1984704 89.0760239,51.3465955 98.145798,52.5599702 Z" id="Path" fill="#FFFFFF" fill-rule="nonzero" mask="url(#mask-2)"></path>
                        <path d="M73.6784991,45.7632397 C74.5286949,45.8769808 74.5323795,47.1054855 73.6828813,47.2243245 C62.777311,48.7499392 50.8663287,39.564908 45.6749151,25.5724004 C39.8935095,9.98967714 44.441055,-6.02413072 55.9922177,-10.14892 C58.5549678,-11.0639041 61.286038,-11.3272911 64.0750752,-10.9541674 C64.925271,-10.8404263 64.9289557,-9.61192164 64.0794574,-9.49308264 C63.060358,-9.35051759 62.0630913,-9.10630258 61.0933968,-8.76009052 C50.4316072,-4.95288626 46.1377413,10.1676098 51.6628127,25.0594313 C55.8722613,36.4052313 64.7085104,44.5632145 73.6784991,45.7632397 Z M50.9715055,25.3159159 C45.3182512,10.0786009 49.7390037,-5.48851956 60.8454313,-9.45449905 C61.8709774,-9.82065189 62.9176667,-10.0750895 63.9773015,-10.2233252 C61.3518139,-10.5745688 58.733493,-10.3447031 56.2401482,-9.45449905 C45.1337206,-5.48851956 40.7129681,10.0786009 46.3662224,25.3159159 C51.4974756,39.1462723 63.1645498,47.9512337 73.5807254,46.4940819 C64.5109512,45.2807072 55.3556519,37.1325821 50.9715055,25.3159159 Z" id="Path" fill="#000000" fill-rule="nonzero" mask="url(#mask-2)"></path>
                        <path d="M73.5807254,46.4940819 C63.1645498,47.9512337 51.4974756,39.1462723 46.3662224,25.3159159 C40.7129681,10.0786009 45.1337206,-5.48851956 56.2401482,-9.45449905 C58.733493,-10.3447031 61.3518139,-10.5745688 63.9773015,-10.2233252 C62.9176667,-10.0750895 61.8709774,-9.82065189 60.8454313,-9.45449905 C49.7390037,-5.48851956 45.3182512,10.0786009 50.9715055,25.3159159 C55.3556519,37.1325821 64.5109512,45.2807072 73.5807254,46.4940819 L73.5807254,46.4940819 Z" id="Path" fill="#FFFFFF" fill-rule="nonzero" mask="url(#mask-2)"></path>
                        <path d="M49.1134265,41.7727049 C49.9636223,41.886446 49.9673069,43.1149507 49.1178087,43.2337897 C38.2122384,44.7594044 26.3012561,35.5743732 21.1098425,21.5818656 C15.3284369,5.99914233 19.8759824,-10.0146655 31.427145,-14.1394548 C33.9898952,-15.0544389 36.7209654,-15.3178259 39.5100026,-14.9447022 C40.3601984,-14.8309611 40.3638831,-13.6024565 39.5143848,-13.4836175 C38.4952854,-13.3410524 37.4980187,-13.0968374 36.5283241,-12.7506253 C25.8665346,-8.94342107 21.5726686,6.17707501 27.0977401,21.0688965 C31.3071886,32.4146965 40.1434378,40.5726797 49.1134265,41.7727049 Z M26.4064329,21.3253811 C20.7531786,6.08806613 25.1739311,-9.47905438 36.2803587,-13.4450339 C37.3059048,-13.8111867 38.3525941,-14.0656244 39.4122289,-14.21386 C36.7867413,-14.5651036 34.1684204,-14.3352379 31.6750756,-13.4450339 C20.5686479,-9.47905438 16.1478954,6.08806613 21.8011498,21.3253811 C26.932403,35.1557375 38.5994772,43.9606989 49.0156528,42.5035471 C39.9458786,41.2901724 30.7905793,33.1420473 26.4064329,21.3253811 Z" id="Path" fill="#000000" fill-rule="nonzero" mask="url(#mask-2)"></path>
                        <path d="M49.0156528,42.5035471 C38.5994772,43.9606989 26.932403,35.1557375 21.8011498,21.3253811 C16.1478954,6.08806613 20.5686479,-9.47905438 31.6750756,-13.4450339 C34.1684204,-14.3352379 36.7867413,-14.5651036 39.4122289,-14.21386 C38.3525941,-14.0656244 37.3059048,-13.8111867 36.2803587,-13.4450339 C25.1739311,-9.47905438 20.7531786,6.08806613 26.4064329,21.3253811 C30.7905793,33.1420473 39.9458786,41.2901724 49.0156528,42.5035471 L49.0156528,42.5035471 Z" id="Path" fill="#FFFFFF" fill-rule="nonzero" mask="url(#mask-2)"></path>
                        <path d="M59.0558873,23.5296207 C47.7029887,20.9583569 39.5180084,14.115936 40.9620784,7.97949658 C42.4044168,1.85088155 52.8091976,-0.776731147 64.1584023,1.79369612 C75.5113009,4.36496 83.6962812,11.2073808 82.2522112,17.3438203 C80.8098728,23.4724353 70.405092,26.100048 59.0558873,23.5296207 Z M59.2187618,22.810481 C70.2242916,25.303071 80.2153518,22.7799318 81.5344668,17.1749028 C82.8534868,11.5698519 75.0010576,5.00542582 63.9955278,2.51283584 C52.989998,0.0202458734 42.9989378,2.5433851 41.6798228,8.14841406 C40.3608028,13.753465 48.213232,20.317891 59.2187618,22.810481 Z" id="Oval" fill="#000000" fill-rule="nonzero" mask="url(#mask-2)"></path>
                        <path d="M59.2187618,22.810481 C48.213232,20.317891 40.3608028,13.753465 41.6798228,8.14841406 C42.9989378,2.5433851 52.989998,0.0202458734 63.9955278,2.51283584 C75.0010576,5.00542582 82.8534868,11.5698519 81.5344668,17.1749028 C80.2153518,22.7799318 70.2242916,25.303071 59.2187618,22.810481 Z" id="Oval" fill="#308578" fill-rule="nonzero" mask="url(#mask-2)"></path>
                    </g>
                    <path d="M116.513435,35.8759924 C116.551614,29.4582549 112.804304,24.1921098 107.998085,24.2174713 C103.200569,24.2433359 99.3988093,29.5380312 99.3606625,35.9503776 C99.3224835,42.3681151 103.069793,47.6342602 107.876012,47.6088986 C112.673528,47.583034 116.475288,42.2883388 116.513435,35.8759924 Z M107.871983,46.8506746 C103.554072,46.8735444 100.082845,41.9954069 100.11878,35.9548876 C100.154715,29.9143683 103.684204,24.998889 108.002114,24.9756954 C112.320025,24.9528255 115.791252,29.830963 115.755317,35.8714823 C115.719382,41.9120017 112.189893,46.827481 107.871983,46.8506746 Z" id="Oval" fill="#000000" fill-rule="nonzero" transform="translate(107.937049, 35.913185) rotate(-13.000000) translate(-107.937049, -35.913185) "></path>
                    <ellipse id="Oval" fill="url(#radialGradient-3)" fill-rule="nonzero" transform="translate(107.937049, 35.913185) rotate(-13.000000) translate(-107.937049, -35.913185) " cx="107.937049" cy="35.913185" rx="7.81854499" ry="10.9374089"></ellipse>
                    <path d="M106.255131,29.7502981 C105.784654,29.6841768 105.476837,29.1070284 105.567602,28.461201 C105.658367,27.8153736 106.113343,27.3454289 106.58382,27.4115501 C107.054297,27.4776714 107.362115,28.0548197 107.271349,28.7006472 C107.180584,29.3464746 106.725608,29.8164193 106.255131,29.7502981 Z" id="Oval" fill-opacity="0.2" fill="#000000" fill-rule="nonzero" transform="translate(106.419476, 28.580924) rotate(-18.000000) translate(-106.419476, -28.580924) "></path>
                    <path d="M103.571362,34.3241139 C103.000069,34.2438238 102.624375,33.5566353 102.732226,32.7892353 C102.840077,32.0218353 103.390632,31.4648226 103.961926,31.5451126 C104.533219,31.6254027 104.908913,32.3125913 104.801062,33.0799913 C104.693211,33.8473913 104.142656,34.4044039 103.571362,34.3241139 Z" id="Oval-Copy" fill-opacity="0.2" fill="#000000" fill-rule="nonzero" transform="translate(103.766644, 32.934613) rotate(-18.000000) translate(-103.766644, -32.934613) "></path>
                    <path d="M104.310118,40.4245865 C103.638008,40.3301277 103.19716,39.5135225 103.325456,38.6006478 C103.453752,37.6877731 104.10261,37.0243161 104.77472,37.1187749 C105.446829,37.2132338 105.887677,38.029839 105.759381,38.9427137 C105.631085,39.8555883 104.982228,40.5190454 104.310118,40.4245865 Z" id="Oval-Copy-4" fill-opacity="0.2" fill="#000000" fill-rule="nonzero" transform="translate(104.542419, 38.771681) rotate(-18.000000) translate(-104.542419, -38.771681) "></path>
                    <path d="M99.6335252,25.8401471 C98.4622217,29.7547843 97.8516295,33.1602048 97.8017487,36.0564084 C97.751868,38.952612 98.9056925,41.6671858 101.263222,44.2001298 C96.752989,41.2133404 94.797586,38.1533433 95.3970134,35.0201385 C95.9964408,31.8869337 97.4086114,28.8269365 99.6335252,25.8401471 Z" id="Path-14" fill-opacity="0.4" fill="#FFFFFF" fill-rule="nonzero"></path>
                    <path d="M114.798134,34.7469172 C115.829606,36.5838431 115.937361,38.3722528 115.121398,40.1121464 C114.305434,41.8520399 113.137681,43.0102703 111.618138,43.5868377 C113.008586,41.8804831 113.880836,40.4443802 114.23489,39.278529 C114.588943,38.1126778 114.776691,36.6021405 114.798134,34.7469172 Z" id="Path-15" fill-opacity="0.3" fill="#000000" fill-rule="nonzero" transform="translate(113.640060, 39.166877) rotate(-8.000000) translate(-113.640060, -39.166877) "></path>
                </g>
            </g>
        </g>
    </g>
</svg>